<?xml version="1.0" encoding="utf-8"?>
<svg version="1.1" xmlns="http://www.w3.org/2000/svg" xmlns:xlink="http://www.w3.org/1999/xlink" x="0px" y="0px"
	 viewBox="0 0 76 76" style="enable-background:new 0 0 76 76;" xml:space="preserve">
<g id="icon">
	<g>
		<path d="M57.7,20H18.2c-0.4,0-0.8,0.4-0.8,0.8v9.7v24.7c0,0.5,0.4,0.8,0.8,0.8h39.5c0.5,0,0.8-0.4,0.8-0.8V30.6v-9.8
			C58.6,20.4,58.2,20,57.7,20z M19.1,21.7H57v8.1H19.1V21.7z M19.1,54.5V31.4H57v23.1H19.1L19.1,54.5z"/>
		<path d="M38.6,26.7h-4.2c-0.5,0-0.8,0.4-0.8,0.8s0.4,0.8,0.8,0.8h4.2c0.5,0,0.8-0.4,0.8-0.8S39.1,26.7,38.6,26.7z"/>
		<path d="M42.2,49h-8.3c-0.5,0-0.8,0.4-0.8,0.8s0.4,0.8,0.8,0.8h8.3c0.5,0,0.8-0.4,0.8-0.8C43.1,49.3,42.7,49,42.2,49z"/>
		<path d="M54.2,23.2c-0.3-0.3-0.8-0.3-1.2,0l-1.2,1.2l-1.2-1.2c-0.3-0.3-0.8-0.3-1.2,0c-0.3,0.3-0.3,0.8,0,1.2l1.2,1.2l-1.2,1.2
			c-0.3,0.3-0.3,0.8,0,1.2c0.2,0.2,0.4,0.2,0.6,0.2c0.2,0,0.4-0.1,0.6-0.2l1.2-1.2L53,28c0.2,0.2,0.4,0.2,0.6,0.2s0.4-0.1,0.6-0.2
			c0.3-0.3,0.3-0.8,0-1.2L53,25.7l1.2-1.2C54.5,24.2,54.5,23.7,54.2,23.2z"/>
		<path d="M32.1,43.1c0-0.1,0-0.1,0-0.2c0-0.1,0-0.1,0-0.2c0-0.1,0-0.1,0-0.2c0-0.1-0.1-0.1-0.1-0.1s0-0.1-0.1-0.1L26,35.4
			c-0.3-0.3-0.8-0.4-1.2-0.1c-0.3,0.3-0.4,0.8-0.1,1.2l5.5,6.3l-5.5,6.3c-0.3,0.3-0.3,0.9,0.1,1.2c0.2,0.1,0.4,0.2,0.5,0.2
			c0.2,0,0.5-0.1,0.6-0.3l5.9-6.8c0,0,0-0.1,0.1-0.1l0.1-0.1C32.1,43.2,32.1,43.2,32.1,43.1z"/>
		<path d="M45.9,23.2h-3.7c-0.5,0-0.8,0.4-0.8,0.8v3.4c0,0.5,0.4,0.8,0.8,0.8h3.7c0.5,0,0.8-0.4,0.8-0.8v-3.4
			C46.7,23.6,46.3,23.2,45.9,23.2z M45.1,26.7h-2v-1.8h2V26.7z"/>
	</g>
</g>
</svg>
