<?xml version="1.0" encoding="utf-8"?>
<svg version="1.1" xmlns="http://www.w3.org/2000/svg" xmlns:xlink="http://www.w3.org/1999/xlink" x="0px" y="0px"
	 viewBox="0 0 76 76" style="enable-background:new 0 0 76 76;" xml:space="preserve">
<g>
	<path d="M56.6,35.3c-1.8-1.6-4.3-2.5-6.8-2.4c-1.5-3.9-5.2-6-9.8-5.6c-3.2-2.6-7.5-3.2-11.3-1.8c-3.9,1.5-6.7,4.8-7.5,8.9
		c-3.9,2.5-4.5,6.3-3.8,9c1,3.7,4.4,6.1,8.4,6.1h24.5c5,0,9-3.7,9-8.3C59.3,39,58.4,36.9,56.6,35.3z M50.3,48H25.8
		c-3.8,0-6.2-2.5-6.9-5c-0.8-2.9,0.5-5.7,3.4-7.5c0.2-0.1,0.3-0.3,0.4-0.5c0.6-3.8,3.1-6.8,6.6-8.1c1.2-0.4,2.4-0.6,3.6-0.6
		c2.3,0,4.6,0.8,6.5,2.4c0.2,0.1,0.4,0.2,0.6,0.2c5-0.6,7.8,2.4,8.7,5.1c0.1,0.3,0.4,0.6,0.8,0.5c2.3-0.2,4.6,0.5,6.3,2
		c1.4,1.3,2.2,3,2.2,4.8C57.8,44.9,54.4,48,50.3,48z"/>
	<path d="M40.5,37.9c-0.6,0.6-0.6,1.7,0,2.3c0.6,0.6,1.7,0.6,2.3,0c0.6-0.6,0.6-1.7,0-2.3C42.2,37.3,41.1,37.3,40.5,37.9z
		 M41.9,39.4c-0.2,0.2-0.4,0.2-0.6,0c-0.2-0.2-0.2-0.4,0-0.6s0.5-0.2,0.6,0C42.1,39,42.1,39.2,41.9,39.4z"/>
	<path d="M47.6,37.6c-0.1-0.3-0.4-0.5-0.7-0.4l-0.7,0.2c-0.2-0.4-0.4-0.8-0.7-1.2l0.5-0.5c0.2-0.2,0.2-0.6,0-0.8
		c-0.2-0.2-0.6-0.2-0.8,0l-0.5,0.5c-0.4-0.3-0.8-0.5-1.2-0.7l0.2-0.7c0.1-0.3-0.1-0.6-0.4-0.7c-0.3-0.1-0.6,0.1-0.7,0.4l-0.2,0.7
		c-0.5-0.1-0.9-0.1-1.4,0l-0.2-0.7c-0.1-0.3-0.4-0.5-0.7-0.4c-0.3,0.1-0.5,0.4-0.4,0.7l0.2,0.7c-0.4,0.2-0.8,0.4-1.2,0.7l-0.5-0.5
		c-0.2-0.2-0.6-0.2-0.8,0c-0.4,0-0.4,0.4-0.1,0.6l0.5,0.5c-0.3,0.4-0.5,0.8-0.7,1.2L36.4,37c-0.3-0.1-0.6,0.1-0.7,0.4
		c-0.1,0.2,0,0.4,0.2,0.6c0.1,0.1,0.2,0.1,0.3,0.2l0.7,0.2c-0.1,0.5-0.1,0.9,0,1.4L36.2,40c-0.3,0.1-0.5,0.4-0.4,0.7
		c0,0.1,0.1,0.2,0.2,0.3s0.4,0.2,0.6,0.2l0.7-0.2c0.2,0.4,0.4,0.8,0.7,1.2l-0.5,0.5c-0.2,0.2-0.2,0.6,0,0.8s0.6,0.2,0.8,0l0.5-0.5
		c0.4,0.3,0.8,0.5,1.2,0.7l-0.2,0.7c-0.1,0.2,0,0.4,0.2,0.6c0.3,0.1,0.6-0.1,0.7-0.4l0.2-0.7c0.5,0.1,0.9,0.1,1.4,0l0.2,0.7
		c0,0.1,0.1,0.2,0.2,0.3c0.1,0.1,0.4,0.2,0.6,0.2c0.3-0.1,0.5-0.4,0.4-0.7l-0.2-0.7c0.4-0.2,0.8-0.4,1.2-0.7l0.5,0.5
		c0.2,0.2,0.6,0.2,0.8,0s0.2-0.6,0-0.8l-0.5-0.5c0.3-0.4,0.5-0.8,0.7-1.2l0.7,0.2c0.3,0.1,0.6-0.1,0.7-0.4c0.1-0.3-0.1-0.6-0.4-0.7
		l-0.7-0.2c0.1-0.5,0.1-0.9,0-1.4l0.7-0.2C47.5,38.2,47.7,37.9,47.6,37.6z M44.3,41.7c-1.5,1.5-3.8,1.5-5.3,0s-1.5-3.8,0-5.3
		c1.5-1.4,3.8-1.4,5.3,0C45.8,37.9,45.8,40.2,44.3,41.7z"/>
	<path d="M36.3,34.4c0-0.5-0.4-0.8-0.8-0.8h-8.9c-0.5,0-0.8,0.4-0.8,0.8c0,0.5,0.4,0.8,0.8,0.8h8.9C36,35.2,36.3,34.8,36.3,34.4z"/>
	<path d="M33.9,36.8h-5.6c-0.5,0-0.8,0.4-0.8,0.8c0,0.5,0.4,0.8,0.8,0.8h5.6c0.4,0.1,0.8-0.3,0.8-0.8S34.3,36.8,33.9,36.8z"/>
	<path d="M33.9,40.1h-2.3c-0.5,0-0.8,0.4-0.8,0.8c0,0.5,0.4,0.8,0.8,0.8h2.3c0.4,0.1,0.8-0.3,0.8-0.8S34.3,40.1,33.9,40.1z"/>
</g>
</svg>
