<?xml version="1.0" encoding="utf-8"?>
<svg version="1.1" xmlns="http://www.w3.org/2000/svg" xmlns:xlink="http://www.w3.org/1999/xlink" x="0px" y="0px"
	 viewBox="0 0 76 76" style="enable-background:new 0 0 76 76;" xml:space="preserve">
<g>
	<path d="M20.8,30.9c0.1-0.1,0.2-0.2,0.2-0.4c0.6-3.6,2.9-6.5,6.3-7.8c1.2-0.4,2.3-0.6,3.5-0.6c2.3,0,4.4,0.8,6.3,2.3
		c0.1,0.1,0.3,0.1,0.5,0.1c4.8-0.6,7.5,2.2,8.5,4.9c0.1,0.3,0.4,0.5,0.6,0.4c2.2-0.2,4.4,0.5,6,1.9c0.5,0.5,1,1,1.3,1.6l0,0.1h0.1
		c0.4,0,0.8,0.1,1.2,0.2l0.2,0.1l-0.1-0.2c-0.5-1.1-1.4-2.1-1.8-2.5c-1.7-1.6-4.1-2.4-6.5-2.2c-1.1-2.8-4.2-5.9-9.3-5.3
		c-3.2-2.5-7.1-3.1-10.8-1.7c-3.8,1.4-6.4,4.5-7.1,8.5c-4.7,3.1-3.9,7.2-3.6,8.4c1,3.5,4.2,5.8,7.9,5.8l19.6-0.1l0.1,0V43l-19.7,0.1
		c-3.9,0-6-2.6-6.7-4.9C16.7,35.3,17.9,32.7,20.8,30.9z"/>
	<path d="M59.8,36.7c-0.4-1.3-2.1-2.1-4.2-2.5c-0.4-0.1-0.8-0.1-1.2-0.2c-0.3,0-0.7-0.1-1-0.1c0,0,0,0-0.1,0c-0.4,0-0.8,0-1.1,0
		c-3.4,0-6.9,0.8-7.5,2.7v0.1c0,0.2-0.1,0.3-0.1,0.5v3.6v2.3v1v2.7v6.4c0,0.1,0,0.3,0.1,0.3c0.5,2.1,4.4,2.9,7.6,2.9
		s7.1-0.8,7.6-2.8c0-0.1,0.1-0.3,0.1-0.4v-16C59.8,37,59.8,36.9,59.8,36.7z M52.2,34.8c0.9,0,1.8,0.1,2.6,0.2c0.3,0,0.7,0.1,1,0.2
		c1.5,0.3,2.7,0.9,3,1.6c-0.2,0.3-1.3,1-3.1,1.5c-0.3,0.1-0.7,0.1-1.1,0.2c-0.7,0.1-1.6,0.2-2.5,0.2c-4,0-6.3-1.3-6.6-1.8
		C46.1,35.5,49.2,34.8,52.2,34.8z M58.9,53.1v0.1c-0.3,1.2-3.1,2.1-6.7,2.1c-3.6,0-6.4-0.9-6.7-2.1v-0.1V49c1.2,0.9,3.6,1.6,6.7,1.6
		c3.1,0,5.5-0.8,6.7-1.7V53.1z M58.9,47.6c-0.2,0.5-2.5,2-6.7,2c-4.3,0-6.5-1.5-6.7-2V44v-0.6c0.3,0.2,0.6,0.4,1,0.5
		c1.3,0.6,3.3,1.1,5.7,1.1c3.1,0,5.5-0.8,6.7-1.7V47.6z M59,42.2L59,42.2c-0.3,0.5-2.6,2-6.8,2c-1.1,0-2.1-0.1-3-0.3
		c-1.1-0.2-1.9-0.5-2.5-0.8c-0.7-0.4-1.1-0.7-1.2-0.9V38c1.2,0.8,3.6,1.6,6.7,1.6c0.7,0,1.4,0,2-0.1c0.4,0,0.8-0.1,1.2-0.2
		C57,39,58.2,38.5,59,38V42.2z"/>
</g>
</svg>
