<?xml version="1.0" encoding="utf-8"?>
<svg version="1.1" xmlns="http://www.w3.org/2000/svg" xmlns:xlink="http://www.w3.org/1999/xlink" x="0px" y="0px"
	 viewBox="0 0 76 76" style="enable-background:new 0 0 76 76;" xml:space="preserve">
<g>
	<g>
		<path d="M39.7,20c2.6-3.4,6.2-3.4,6.2-3.4s0.5,3.2-2,6.3c-2.7,3.3-5.9,2.8-5.9,2.8S37.4,23,39.7,20z"/>
		<path d="M38.3,27.8c1.3,0,3.8-1.8,7-1.8c5.5,0,7.7,4,7.7,4s-4.3,2.2-4.3,7.5c0,6,5.3,8,5.3,8s-3.7,10.4-8.7,10.4
			c-2.3,0-4.1-1.5-6.5-1.5c-2.5,0-4.9,1.6-6.5,1.6C27.7,55.9,22,46,22,38.1c0-7.8,4.9-11.9,9.5-11.9C34.4,26.1,36.7,27.8,38.3,27.8z
			"/>
	</g>
</g>
</svg>
