<?xml version="1.0" encoding="utf-8"?>
<svg version="1.1" xmlns="http://www.w3.org/2000/svg" xmlns:xlink="http://www.w3.org/1999/xlink" x="0px" y="0px"
	 viewBox="0 0 76 76" style="enable-background:new 0 0 76 76;" xml:space="preserve">
<g id="icon">
	<g>
		<g>
			<path d="M48.3,27.9L48.3,27.9L48.2,27c0-3.2-2.5-5.5-5.9-5.5h-8.7c-3.4,0-5.9,2.3-5.9,5.4l-0.1,0.9l0,0l-1.2,26.5
				c0,3,2.4,5.1,5.9,5.1h11.3c3.5,0,5.9-2,5.9-5.1L48.3,27.9z M28.9,28.2c0.4-0.5,2-1.2,4.6-1.2h8.9c2.6,0,4.2,0.7,4.6,1.2l0.6,19.9
				v0.1c0,0.4-1.9,1.6-5,1.6h-9.3c-3.1,0-5-1.2-5-1.6l0,0L28.9,28.2z M33.7,22.9h8.7c2.4,0,4.3,1.5,4.6,3.6c-1.2-0.6-3-0.8-4.5-0.8
				h-8.9c-1.4,0-3.2,0.2-4.4,0.8C29.3,24.4,31.2,22.9,33.7,22.9z M43.7,58.1H32.3c-2.2,0-4.6-1-4.6-3.7l0.4-4.5
				c1.2,0.8,3.1,1.3,5.2,1.3h9.4c2.1,0,4-0.5,5.2-1.3l0.4,4.5C48.3,57.1,45.9,58.1,43.7,58.1z"/>
			<path d="M33.5,31.4c-1.3,0-2.3,1-2.3,2.3c0,1.3,1,2.3,2.3,2.3s2.3-1,2.3-2.3C35.8,32.4,34.8,31.4,33.5,31.4z M33.5,34.8
				c-0.6,0-1-0.5-1-1c0-0.6,0.5-1,1-1s1,0.5,1,1S34.2,34.8,33.5,34.8z"/>
			<path d="M37.8,16.5c-1,0-1.8,0.8-1.8,1.8s0.8,1.8,1.8,1.8s1.8-0.8,1.8-1.8S38.8,16.5,37.8,16.5z"/>
			<path d="M42.4,31.4c-1.3,0-2.3,1-2.3,2.3c0,1.3,1,2.3,2.3,2.3c1.3,0,2.3-1,2.3-2.3C44.8,32.4,43.8,31.4,42.4,31.4z M42.4,34.8
				c-0.6,0-1-0.5-1-1c0-0.6,0.5-1,1-1s1,0.5,1,1S42.9,34.8,42.4,34.8z"/>
			<path d="M32.5,46.7c0.1,0.3,0.5,0.5,0.9,0.4c0.3-0.1,0.5-0.5,0.4-0.9l-0.7-1.5h9.6l-0.6,1.6c-0.1,0.3,0,0.7,0.4,0.9
				c0.3,0.1,0.7,0,0.9-0.4l1.7-4.6c0.1-0.3,0-0.7-0.4-0.9c-0.1,0-0.2,0-0.2,0c-0.3,0-0.5,0.2-0.6,0.4l-0.6,1.8H32.7L32,41.7
				c-0.1-0.3-0.4-0.4-0.6-0.4c-0.1,0-0.2,0-0.2,0c-0.3,0.1-0.5,0.5-0.4,0.9L32.5,46.7z"/>
			<path d="M37.2,38.8H39c0.4,0,0.7-0.3,0.7-0.7c0-0.4-0.3-0.7-0.7-0.7h-1.8c-0.4,0-0.7,0.3-0.7,0.7S36.8,38.8,37.2,38.8z"/>
		</g>
		<path d="M25.9,30.2c-0.4,0-0.7,0.2-0.7,0.5v4.1c0,0.3,0.3,0.5,0.7,0.5c0.4,0,0.7-0.2,0.7-0.5v-4.1C26.4,30.4,26.1,30.2,25.9,30.2z
			"/>
		<path d="M50.2,30.2c-0.4,0-0.7,0.2-0.7,0.5v4.1c0,0.3,0.3,0.5,0.7,0.5s0.7-0.2,0.7-0.5v-4.1C50.8,30.4,50.5,30.2,50.2,30.2z"/>
		<path d="M37.8,18.9c-0.4,0-0.7,0.3-0.7,0.7V22c0,0.4,0.3,0.7,0.7,0.7s0.7-0.3,0.7-0.7v-2.4C38.5,19.2,38.2,18.9,37.8,18.9z"/>
	</g>
</g>
</svg>
