<?xml version="1.0" encoding="utf-8"?>
<svg version="1.1" xmlns="http://www.w3.org/2000/svg" xmlns:xlink="http://www.w3.org/1999/xlink" x="0px" y="0px"
	 viewBox="0 0 76 76" style="enable-background:new 0 0 76 76;" xml:space="preserve">
<g>
	<g>
		<path d="M33.6,26H16.8c-0.9,0-1.6,0.6-1.6,1.4v21.1c0,0.8,0.7,1.4,1.6,1.4h16.9c0.9,0,1.6-0.6,1.6-1.4v-21
			C35.2,26.7,34.5,26,33.6,26z M34.2,48.5c0,0.2-0.2,0.4-0.6,0.4H16.8c-0.3,0-0.6-0.2-0.6-0.4v-21c0-0.2,0.2-0.4,0.6-0.4h16.9
			c0.3,0,0.6,0.2,0.6,0.4L34.2,48.5L34.2,48.5z"/>
		<path d="M32.7,28h-15c-0.3,0-0.5,0.2-0.5,0.5v18c0,0.3,0.2,0.5,0.5,0.5h15c0.3,0,0.5-0.2,0.5-0.5v-18C33.2,28.3,33,28,32.7,28z
			 M32.2,46h-14V29h14V46z"/>
		<path d="M24.8,47.7c-0.1,0.1-0.1,0.2-0.1,0.3s0.1,0.3,0.1,0.4c0.1,0.1,0.2,0.1,0.4,0.1s0.3,0,0.4-0.1s0.1-0.2,0.1-0.4
			c0-0.1-0.1-0.3-0.1-0.3C25.4,47.5,25,47.5,24.8,47.7z"/>
	</g>
	<path d="M60.4,31.6l-3.3-3.2c-0.2-0.2-0.4-0.4-0.8-0.4H44.2c-0.7,0-1.3,0.6-1.3,1.3v4.5v2.6v1.2v4.8v3.1c0,0.7,0.6,1.3,1.3,1.3
		h15.3c0.7,0,1.3-0.6,1.3-1.3v-13C60.8,32,60.6,31.7,60.4,31.6z M56.8,29.4l2.5,2.5h-2.5V29.4z M59.8,45.4c0,0.2-0.1,0.3-0.3,0.3
		H44.2c-0.2,0-0.3-0.1-0.3-0.3V29.2c0-0.2,0.1-0.3,0.3-0.3h11.6v3.5c0,0.3,0.2,0.5,0.5,0.5h3.5C59.8,32.9,59.8,45.4,59.8,45.4z"/>
	<path d="M56.9,41.3h-10c-0.3,0-0.5,0.2-0.5,0.5s0.2,0.5,0.5,0.5h10c0.3,0,0.5-0.2,0.5-0.5C57.4,41.6,57.1,41.3,56.9,41.3z"/>
	<path d="M56.9,38.4h-10c-0.3,0-0.5,0.2-0.5,0.5s0.2,0.5,0.5,0.5h10c0.3,0,0.5-0.2,0.5-0.5C57.4,38.6,57.1,38.4,56.9,38.4z"/>
	<path d="M46.4,35.9c0,0.3,0.2,0.5,0.5,0.5h10c0.3,0,0.5-0.2,0.5-0.5s-0.2-0.5-0.5-0.5h-10C46.6,35.4,46.4,35.6,46.4,35.9z"/>
	<path d="M46.9,33.4h5.5c0.3,0,0.5-0.2,0.5-0.5s-0.2-0.5-0.5-0.5h-5.5c-0.3,0-0.5,0.2-0.5,0.5S46.6,33.4,46.9,33.4z"/>
	<g>
		<path d="M27.2,40.2l0.5-0.5c0.1-0.1,0.2-0.3,0.2-0.4c0-0.2-0.1-0.3-0.2-0.4c-0.2-0.2-0.6-0.2-0.8,0l-1.5,1.5
			c-0.1,0.1-0.1,0.1-0.1,0.2c-0.1,0.1-0.1,0.3,0,0.5c0,0.1,0.1,0.1,0.1,0.2l1.5,1.5c0.2,0.2,0.6,0.2,0.8,0c0.1-0.1,0.2-0.3,0.2-0.4
			c0-0.2-0.1-0.3-0.2-0.4l-0.5-0.5h15.7v-1.2L27.2,40.2L27.2,40.2z"/>
		<g>
			<path d="M39.1,31.6c-0.3-0.1-0.5,0.1-0.6,0.3l-0.7,2H27.2l0.5-0.5c0.1-0.1,0.2-0.3,0.2-0.4c0-0.2-0.1-0.3-0.2-0.4
				c-0.2-0.2-0.6-0.2-0.8,0l-1.5,1.5c-0.1,0.1-0.1,0.1-0.1,0.2c-0.1,0.1-0.1,0.3,0,0.5c0,0.1,0.1,0.1,0.1,0.2l1.5,1.5
				c0.2,0.2,0.6,0.2,0.8,0c0.1-0.1,0.2-0.3,0.2-0.4c0-0.2-0.1-0.3-0.2-0.4l-0.5-0.5h10.2l-0.6,1.7c-0.1,0.3,0.1,0.5,0.3,0.6
				c0.1,0,0.1,0,0.2,0c0.2,0,0.4-0.1,0.5-0.3l0.7-2l0.4-1.2l0.6-1.7C39.5,32,39.4,31.7,39.1,31.6z"/>
			<path d="M40.6,34l0.6-1.7c0.1-0.3-0.1-0.5-0.3-0.6c-0.3-0.1-0.5,0.1-0.6,0.3l-0.7,2l-0.4,1.2l-0.6,1.7c-0.1,0.3,0.1,0.5,0.3,0.6
				c0.1,0,0.1,0,0.2,0c0.2,0,0.4-0.1,0.5-0.3l0.7-2H43V34H40.6z"/>
		</g>
	</g>
</g>
</svg>
