<?xml version="1.0" encoding="utf-8"?>
<svg version="1.1" xmlns="http://www.w3.org/2000/svg" xmlns:xlink="http://www.w3.org/1999/xlink" x="0px" y="0px"
	 viewBox="0 0 76 76" style="enable-background:new 0 0 76 76;" xml:space="preserve">
<g id="icon">
	<g>
		<path d="M52.7,38.6c-0.1,0-0.2-0.1-0.3-0.1c-3.2-0.6-5.9-0.4-7.9,0.6c0.2-1.2,0.1-2.4-0.4-3.6h8h0.1h0.1c0,0,0,0,0.1,0
			c0,0,0.1,0,0.1-0.1l0.1-0.1l0.1-0.1l0.1-0.1v-0.1c0-0.1,0-0.1,0-0.2l0,0c0,0,0,0,0-0.1v-0.1C51.1,27.8,45.1,23,38.1,23
			S25,27.8,23.4,34.7v0.1c0,0,0,0,0,0.1l0,0c0,0.1,0,0.1,0,0.2v0.1c0.1,0,0.1,0,0.1,0.1c0,0,0,0.1,0.1,0.1l0.1,0.1
			c0,0,0.1,0,0.1,0.1c0,0,0,0,0.1,0s0.1,0,0.2,0l0,0h8c-0.5,1.2-0.6,2.4-0.4,3.6c-2.1-1.1-4.8-1.3-8-0.7h-0.1c0,0-0.1,0-0.1,0.1
			l-0.1,0.1l-0.1,0.1v0.1c0,0.1-0.1,0.1-0.1,0.2v0.1c0,0.1,0,0.1,0,0.2c0.6,6.8,5.6,12.4,12.3,13.6h0.1c0.4,0,0.7-0.3,0.7-0.6l0,0
			l0,0c0-0.2,0.7-4.4-0.6-8.2c0.8,0.3,1.6,0.5,2.4,0.5c0.8,0,1.6-0.2,2.4-0.5c-1.3,3.8-0.6,7.9-0.5,8.2l0,0l0,0c0,0.1,0,0.1,0.1,0.2
			v0.1c0.1,0.2,0.4,0.4,0.6,0.4h0.1l0,0l0,0l0,0c6.7-1.2,11.7-6.8,12.3-13.5C53,39,52.9,38.8,52.7,38.6z M25.1,34.1
			c1.7-5.7,6.9-9.6,13-9.6s11.2,3.9,13,9.6h-7.9c-0.2-0.2-0.3-0.4-0.5-0.6c-1.2-1.2-2.8-1.9-4.6-1.9c-1.8,0-3.4,0.7-4.6,1.9
			c-0.2,0.2-0.4,0.4-0.5,0.6H25.1z M24.6,39.8c3.4-0.6,6,0,7.7,1.6c2.8,2.7,2.7,7.8,2.5,9.7C29.5,49.8,25.4,45.3,24.6,39.8z
			 M34.5,41.6c-1.9-1.9-1.9-5.1,0-7c0.9-0.9,2.2-1.5,3.5-1.5s2.6,0.5,3.5,1.5c1.9,1.9,1.9,5.1,0,7c-0.9,0.9-2.2,1.5-3.5,1.5
			S35.5,42.5,34.5,41.6z M41.2,51.2c-0.2-1.9-0.4-7,2.4-9.7c1.7-1.7,4.3-2.2,7.8-1.6C50.7,45.3,46.7,49.8,41.2,51.2z"/>
		<path d="M38.1,19.5c-10.3,0-18.6,8.3-18.6,18.6c0,10.2,8.3,18.6,18.6,18.6c10.2,0,18.6-8.3,18.6-18.6
			C56.5,27.8,48.2,19.5,38.1,19.5z M38.1,55c-9.4,0-17-7.6-17-17s7.6-17,17-17s17,7.6,17,17S47.5,55,38.1,55z"/>
	</g>
</g>
</svg>
