<?xml version="1.0" encoding="utf-8"?>
<svg version="1.1" xmlns="http://www.w3.org/2000/svg" xmlns:xlink="http://www.w3.org/1999/xlink" x="0px" y="0px"
	 viewBox="0 0 76 76" style="enable-background:new 0 0 76 76;" xml:space="preserve">
<g id="icon">
	<g>
		<path d="M44.4,38.5H31.5c-0.3,0-0.6,0.3-0.6,0.6s0.3,0.6,0.6,0.6h12.9c0.3,0,0.6-0.3,0.6-0.6S44.8,38.5,44.4,38.5z"/>
		<path d="M44.4,42.2H31.5c-0.3,0-0.6,0.3-0.6,0.6s0.3,0.6,0.6,0.6h12.9c0.3,0,0.6-0.3,0.6-0.6C45,42.5,44.8,42.2,44.4,42.2z"/>
		<path d="M44.4,34.8H31.5c-0.3,0-0.6,0.3-0.6,0.6c0,0.3,0.3,0.6,0.6,0.6h12.9c0.3,0,0.6-0.3,0.6-0.6C45,35,44.8,34.8,44.4,34.8z"/>
		<path d="M31.5,32.3h6.2c0.3,0,0.6-0.3,0.6-0.6s-0.3-0.6-0.6-0.6h-6.2c-0.3,0-0.6,0.3-0.6,0.6S31.2,32.3,31.5,32.3z"/>
		<path d="M49.7,28l-4.3-4.2c-0.3-0.3-0.7-0.5-1.1-0.5l0,0H27.4c-0.9,0-1.6,0.7-1.6,1.6v24c0,0.2,0.1,0.3,0.2,0.4l3.3,3.2
			c0.2,0.2,0.6,0.2,0.8,0l3.7-3.5l3.8,3.7c0.2,0.2,0.6,0.2,0.8,0l3.8-3.7l3.8,3.7c0.1,0.1,0.3,0.2,0.4,0.2c0.1,0,0.3-0.1,0.4-0.2
			l3.1-3c0.1-0.1,0.2-0.3,0.2-0.4V29C50.2,28.6,50,28.2,49.7,28z M48.6,28.5h-3.7v-3.6L48.6,28.5z M46.4,51.3l-3.8-3.7
			c-0.1-0.1-0.3-0.2-0.4-0.2c-0.1,0-0.3,0.1-0.4,0.2L38,51.3l-3.8-3.7c-0.2-0.2-0.6-0.2-0.8,0l-3.7,3.6L27,48.7V24.9
			c0-0.2,0.2-0.4,0.4-0.4h16.3V29c0,0.3,0.3,0.6,0.6,0.6H49v19.2L46.4,51.3z"/>
	</g>
</g>
</svg>
