<?xml version="1.0" encoding="utf-8"?>
<svg version="1.1" xmlns="http://www.w3.org/2000/svg" xmlns:xlink="http://www.w3.org/1999/xlink" x="0px" y="0px"
	 viewBox="0 0 76 76" style="enable-background:new 0 0 76 76;" xml:space="preserve">
<g>
	<path d="M38.1,27.4c0.6,0,1.1-0.5,1.1-1.1s-0.5-1.1-1.1-1.1S37,25.7,37,26.3S37.5,27.4,38.1,27.4z M38.1,25.9
		c0.2,0,0.3,0.2,0.3,0.3c0,0.2-0.2,0.3-0.3,0.3c-0.2,0-0.3-0.2-0.3-0.3C37.7,26.1,37.9,25.9,38.1,25.9z"/>
	<path d="M41.3,26.6c-1,0-1.7,0.8-1.7,1.7c0,1,0.8,1.7,1.7,1.7c1,0,1.7-0.8,1.7-1.7S42.3,26.6,41.3,26.6z M41.3,29.2
		c-0.5,0-0.8-0.4-0.8-0.8c0-0.5,0.4-0.8,0.8-0.8c0.5,0,0.8,0.4,0.8,0.8C42.1,28.8,41.8,29.2,41.3,29.2z"/>
	<path d="M49.1,28c-0.2,0-0.4-0.1-0.6-0.1h-0.1c-0.3,0-0.5-0.1-0.8,0c-0.1,0-0.2,0-0.3,0c-1.1-2.8-3.8-4.7-6.9-4.7
		c-0.3,0-0.6,0-0.9,0c-1.7-2.1-4.1-3.2-6.8-3.2c-4.8,0-8.8,3.9-8.8,8.8c0,0.1,0,0.1,0,0.2c-2.3,1.6-3.6,4.1-3.6,6.8
		c0,4.6,3.7,8.3,8.3,8.3c0,0-0.5,0,1.1,0c0.2-0.5,0.4-0.9,0.7-1.4c-1.9,0-1.7,0-1.7,0c-3.8,0-6.9-3.1-6.9-6.9c0-2.4,1.2-4.6,3.3-5.8
		c0.2-0.1,0.4-0.4,0.3-0.7v-0.1c0-0.1,0-0.3,0-0.4c0-4,3.3-7.3,7.3-7.3c2.3,0,4.5,1.1,5.9,3c0.2,0.2,0.4,0.3,0.7,0.3
		c0.4,0,0.8-0.1,1.1-0.1c2.7,0,5,1.7,5.7,4.2c0.1,0.3,0.4,0.5,0.8,0.5c0.2,0,0.4,0,0.6,0h0.1c0.2,0,0.4,0,0.6,0h0.1
		c0.2,0,0.3,0,0.5,0.1c3.1,0.6,5.4,3.4,5.4,6.5c0,3.7-3,6.7-6.7,6.7c-0.1,0-2.4,0-6.6,0c-0.2,0.5-0.4,1-0.7,1.4c4.5,0,7.2,0,7.3,0
		c4.5,0,8.1-3.6,8.1-8.1C55.6,32,52.9,28.7,49.1,28z"/>
	<path d="M44.1,33.2l-1-0.5c-2.9-1.3-3.9-1.8-6-2.7c-0.3-0.1-0.7,0-0.8,0.3s0,0.7,0.3,0.8l0.4,0.2c-1.3,2.8-3.3,7.2-5.1,11.2
		c-0.2,0.5-0.4,1-0.7,1.4c-1.6,3.6-3,6.5-3.3,7.3c-0.8,1.7,0,3.7,1.7,4.5s3.7,0,4.5-1.7c1-2.2,2.8-6.1,4.6-10.1
		c0.2-0.5,0.4-1,0.7-1.4c1.5-3.3,3-6.5,3.9-8.4l0.4,0.2c0.3,0.1,0.7,0,0.8-0.3C44.5,33.7,44.4,33.4,44.1,33.2z M37.9,42.6L37.3,44
		l-4.4,9.6c-0.5,1.1-1.8,1.5-2.8,1c-1.1-0.5-1.5-1.8-1-2.8l3.6-7.8l0.7-1.4l1.7-3.7h4.7L37.9,42.6z M40.2,37.6h-4.7l2.6-5.8l3.9,1.8
		L40.2,37.6z"/>
</g>
</svg>
