<?xml version="1.0" encoding="utf-8"?>
<svg version="1.1" xmlns="http://www.w3.org/2000/svg" xmlns:xlink="http://www.w3.org/1999/xlink" x="0px" y="0px"
	 viewBox="0 0 76 76" style="enable-background:new 0 0 76 76;" xml:space="preserve">
<g id="icon">
	<path d="M52.8,37.2c0.3,1.3,1.5,2.3,2.9,2.3c1.6,0,2.9-1.3,2.9-2.9c0-1.6-1.3-2.9-2.9-2.9c-1.4,0-2.6,1-2.9,2.3h-12V36
		c2.3-1,4.9-2.9,7.2-6.3c2-3,3.8-2.9,4.9-2.9c0.2,1.3,1.4,2.3,2.7,2.3c1.6,0,2.9-1.3,2.9-2.9s-1.3-2.9-2.9-2.9
		c-1.5,0-2.7,1.1-2.9,2.5c-1.3-0.1-3.5,0-5.8,3.4c-1.9,2.9-4.2,4.6-6.2,5.6V26c0-3.5-5.9-5-11.7-5c-5.4,0-11,1.4-11.5,4.5
		c-0.1,0.1-0.1,0.2-0.1,0.3v0.1V26v24.1c0,0.2,0,0.4,0.1,0.5c0.8,3.2,6.7,4.3,11.6,4.3s10.8-1.1,11.6-4.3c0.1-0.2,0.1-0.4,0.1-0.5
		V38.7c2,1,4.2,2.7,6.2,5.6c2,3,4,3.4,5.3,3.4c0.2,0,0.3,0,0.5,0c0.2,1.4,1.4,2.5,2.9,2.5c1.6,0,2.9-1.3,2.9-2.9s-1.3-2.9-2.9-2.9
		c-1.4,0-2.5,0.9-2.8,2.2c-1.1,0.1-2.9,0.1-4.9-2.9c-2.2-3.4-4.9-5.2-7.2-6.3v-0.1C40.8,37.2,52.8,37.2,52.8,37.2z M55.6,34.8
		c1,0,1.8,0.8,1.8,1.8s-0.8,1.8-1.8,1.8s-1.8-0.8-1.8-1.8C53.8,35.6,54.7,34.8,55.6,34.8z M55.6,24.3c1,0,1.8,0.8,1.8,1.8
		s-0.8,1.8-1.8,1.8s-1.8-0.8-1.8-1.8S54.7,24.3,55.6,24.3z M29.1,22.4c4.7,0,9.6,1.1,10.2,3.2v0.1c0,0,0,0,0,0.1
		c-0.2,0.7-3.7,3-10.2,3c-6.4,0-9.9-2.2-10.2-2.9C19.2,23.6,24.3,22.4,29.1,22.4z M18.8,27.6c1.9,1.3,5.5,2.5,10.2,2.5
		c4.9,0,8.5-1.2,10.4-2.5v6c0,0.1-0.1,0.2-0.1,0.3c0,0,0,0,0,0.1c-0.2,0.7-3.7,3-10.2,3c-6.6,0-10-2.3-10.2-3l0,0L18.8,27.6
		L18.8,27.6z M18.8,35.8c1.9,1.3,5.5,2.5,10.2,2.5c4.9,0,8.5-1.2,10.4-2.5v6c0,0.1-0.1,0.2-0.1,0.3c0,0,0,0,0,0.1
		c-0.2,0.7-3.7,3-10.2,3s-10-2.3-10.2-3l0,0L18.8,35.8L18.8,35.8z M39.4,50.2L39.4,50.2c-0.5,2-4.8,3.3-10.3,3.3s-9.8-1.4-10.3-3.3
		v-0.1V50v-6.2c1.9,1.3,5.5,2.5,10.2,2.5c4.9,0,8.5-1.2,10.4-2.5v6.3C39.4,50.2,39.4,50.2,39.4,50.2z M55.6,45.3
		c1,0,1.8,0.8,1.8,1.8s-0.8,1.8-1.8,1.8s-1.8-0.8-1.8-1.8S54.7,45.3,55.6,45.3z"/>
</g>
</svg>
