<?xml version="1.0" encoding="utf-8"?>
<svg version="1.1" xmlns="http://www.w3.org/2000/svg" xmlns:xlink="http://www.w3.org/1999/xlink" x="0px" y="0px"
	 viewBox="0 0 76 76" style="enable-background:new 0 0 76 76;" xml:space="preserve">
<g id="icon">
	<g>
		<g>
			<path d="M50.9,27.4c-2.8,0-5.5,1.1-7.4,3l-5.6,4.9l0,0l-3,2.6l0,0l-5.3,4.7c-1.3,1.2-2.9,1.9-4.7,1.9c-3.7,0-6.7-3-6.7-6.6
				c0-3.6,3-6.6,6.7-6.6c1.8,0,3.5,0.7,4.8,2l2.2,2l3-2.6l-2.5-2.2c-2-2-4.7-3.1-7.5-3.1c-5.8,0-10.6,4.7-10.6,10.6
				S19.2,48.6,25,48.6c2.8,0,5.5-1.1,7.4-3l5.6-4.9l0,0l3-2.6l0,0l5.3-4.7c1.3-1.3,2.9-1.9,4.7-1.9c3.7,0,6.7,3,6.7,6.6
				c0,3.6-3,6.6-6.7,6.6c-1.8,0-3.5-0.7-4.8-2l-2.2-2l-3,2.6l2.5,2.2c2,2,4.7,3.1,7.5,3.1c5.9,0,10.6-4.7,10.6-10.6
				S56.8,27.4,50.9,27.4z"/>
		</g>
	</g>
</g>
</svg>
