<?xml version="1.0" encoding="utf-8"?>
<svg version="1.1" xmlns="http://www.w3.org/2000/svg" xmlns:xlink="http://www.w3.org/1999/xlink" x="0px" y="0px"
	 viewBox="0 0 76 76" style="enable-background:new 0 0 76 76;" xml:space="preserve">
<g>
	<path d="M48,28.8h6.5l-4.8,4.8c-0.2,0.2-0.3,0.5-0.3,0.8c0,0.3,0.1,0.6,0.3,0.8c0.4,0.4,1.2,0.4,1.6,0l6.7-6.7
		c0.2-0.2,0.3-0.5,0.3-0.8c0-0.3-0.1-0.6-0.3-0.8l-6.7-6.7c-0.4-0.4-1.1-0.4-1.6,0c-0.4,0.4-0.4,1.1,0,1.6l4.8,4.8H48
		c-6.3,0-11.4,5.1-11.4,11.4v0.6c0,5.1-4.1,9.2-9.2,9.2h-8.5c-0.6,0.1-1.1,0.6-1.1,1.2s0.5,1.1,1.1,1.1h8.4
		c6.3,0,11.4-5.1,11.4-11.4v-0.6C38.7,33,42.9,28.8,48,28.8z"/>
	<path d="M51.2,40.8c-0.4-0.4-1.1-0.4-1.6,0c-0.2,0.2-0.3,0.5-0.3,0.8s0.1,0.6,0.3,0.8l4.8,4.8h-6.5c-2.2,0-4.4-0.8-6.1-2.3
		c-0.5-0.4-1.2-0.4-1.6,0.1c-0.2,0.2-0.3,0.5-0.3,0.8s0.2,0.6,0.4,0.8c2.1,1.8,4.8,2.8,7.5,2.8h6.5l-4.8,4.8c-0.4,0.4-0.4,1.1,0,1.6
		c0.2,0.2,0.5,0.3,0.8,0.3s0.6-0.1,0.8-0.3l6.7-6.7c0.2-0.2,0.3-0.5,0.3-0.8c0-0.3-0.1-0.6-0.3-0.8L51.2,40.8z"/>
	<path d="M18.9,28.2h8.4c2.2,0,4.4,0.8,6.1,2.3c0.2,0.2,0.5,0.3,0.7,0.3c0.3,0,0.6-0.1,0.8-0.4c0.4-0.5,0.4-1.2-0.1-1.6
		c-2.1-1.9-4.7-2.9-7.5-2.9h-8.4c-0.6,0-1.1,0.5-1.1,1.1C17.8,27.7,18.3,28.2,18.9,28.2z"/>
</g>
</svg>
