<?xml version="1.0" encoding="utf-8"?>
<svg version="1.1" xmlns="http://www.w3.org/2000/svg" xmlns:xlink="http://www.w3.org/1999/xlink" x="0px" y="0px"
	 viewBox="0 0 76 76" style="enable-background:new 0 0 76 76;" xml:space="preserve">
<g id="icon">
	<g>
		<path d="M23.8,36.5h14.1c0.3,0,0.6-0.3,0.6-0.6v-0.4c0-0.3-0.3-0.6-0.6-0.6H23.8c-0.3,0-0.6,0.3-0.6,0.6v0.4
			C23.2,36.3,23.5,36.5,23.8,36.5z"/>
		<path d="M33.7,40.5h-10c-0.3,0-0.6,0.3-0.6,0.6v0.4c0,0.3,0.3,0.6,0.6,0.6h10c0.3,0,0.6-0.3,0.6-0.6v-0.4
			C34.2,40.7,34,40.5,33.7,40.5z"/>
		<path d="M40.6,37.8H23.8c-0.3,0-0.6,0.3-0.6,0.6v0.4c0,0.3,0.3,0.6,0.6,0.6h16.9c0.3,0,0.6-0.3,0.6-0.6v-0.4
			C41.2,38.1,40.8,37.8,40.6,37.8z"/>
		<path d="M48.3,50.5h0.1H48.3z"/>
		<path d="M18.8,49.1V29.8h31.6v3.4h1.4v-4.1V21c0-0.4-0.3-0.7-0.7-0.7h-33c-0.4,0-0.7,0.3-0.7,0.7v8.1v20.7c0,0.4,0.3,0.7,0.7,0.7
			H47l0.3-1.4C47.2,49.1,18.8,49.1,18.8,49.1z M18.8,21.7h31.6v6.8H18.8V21.7z"/>
		<path d="M35.1,25.9h-3.5c-0.4,0-0.7,0.3-0.7,0.7s0.3,0.7,0.7,0.7h3.5c0.4,0,0.7-0.3,0.7-0.7S35.5,25.9,35.1,25.9z"/>
		<path d="M48.1,23.1c-0.3-0.3-0.7-0.3-1,0l-1,1l-1-1c-0.3-0.3-0.7-0.3-1,0c-0.3,0.3-0.3,0.7,0,1l1,1l-1,1c-0.3,0.3-0.3,0.7,0,1
			c0.1,0.1,0.3,0.2,0.5,0.2c0.2,0,0.4-0.1,0.5-0.2l1-1l1,1c0.1,0.1,0.3,0.2,0.5,0.2c0.2,0,0.4-0.1,0.5-0.2c0.3-0.3,0.3-0.7,0-1l-1-1
			l1-1C48.3,23.8,48.3,23.4,48.1,23.1z"/>
		<path d="M41.2,23H38c-0.3,0-0.7,0.3-0.7,0.7v2.8c0,0.4,0.3,0.7,0.7,0.7h3.1c0.4,0,0.7-0.3,0.7-0.7v-2.8C41.8,23.3,41.6,23,41.2,23
			z M40.5,25.9h-1.7v-1.5h1.7V25.9z"/>
		<path d="M58.6,42.2c0.1-0.2,0.1-0.5-0.1-0.7c-0.2-0.2-0.4-0.4-0.7-0.4H55l1.5-5.6c0.1-0.2,0-0.5-0.2-0.7c-0.2-0.2-0.4-0.3-0.6-0.3
			h-6.3c-0.3,0-0.5,0.2-0.6,0.4l-2.6,10c-0.1,0.2,0,0.5,0.2,0.6c0.2,0.2,0.4,0.3,0.6,0.3h2.7l-2.1,8.8c-0.1,0.2,0,0.5,0.2,0.6
			s0.4,0.3,0.6,0.3L58.6,42.2z M49.7,51.9l1.5-6.4c0.1-0.2,0-0.5-0.2-0.6c-0.2-0.1-0.4-0.3-0.6-0.3h-2.7l2.2-8.6h4.9l-1.4,5.6
			c-0.1,0.2,0,0.5,0.2,0.7c0.2,0.2,0.4,0.3,0.6,0.3h2.1L49.7,51.9z"/>
	</g>
</g>
</svg>
