<?xml version="1.0" encoding="utf-8"?>
<svg version="1.1" xmlns="http://www.w3.org/2000/svg" xmlns:xlink="http://www.w3.org/1999/xlink" x="0px" y="0px"
	 viewBox="0 0 76 76" style="enable-background:new 0 0 76 76;" xml:space="preserve">
<g id="icon">
	<g>
		<path d="M23.4,28.2c0-0.3,0.3-0.6,0.6-0.6h15.4c0.3,0,0.6,0.3,0.6,0.6v0.5c0,0.3-0.3,0.6-0.6,0.6H24.1c-0.4,0-0.7-0.3-0.7-0.6
			V28.2z M35.6,34.8c0,0.3-0.3,0.6-0.6,0.6H24.1c-0.3,0-0.6-0.3-0.6-0.6v-0.5c0-0.3,0.3-0.6,0.6-0.6H35c0.3,0,0.6,0.3,0.6,0.6V34.8
			L35.6,34.8z M43.1,31.9c0,0.3-0.3,0.6-0.6,0.6H24.1c-0.4,0-0.7-0.3-0.7-0.6v-0.5c0-0.3,0.3-0.6,0.6-0.6h18.5
			c0.3,0,0.6,0.3,0.6,0.6V31.9z"/>
		<path d="M42.6,50.5c-0.1-0.4-0.5-0.7-0.9-0.6c-0.4,0.1-0.7,0.5-0.6,0.9l0.7,4.3H30.6l0.7-4.3c0.1-0.4-0.2-0.8-0.6-0.9
			c-0.4-0.1-0.8,0.2-0.9,0.6L29.1,55v0.1c0,0.7,0.7,1.4,1.5,1.4h11.3c0.8,0,1.5-0.6,1.5-1.4V55L42.6,50.5z"/>
		<path d="M24.1,29.4h15.4c0.3,0,0.6-0.3,0.6-0.6v-0.5c0-0.3-0.3-0.6-0.6-0.6H24.1c-0.4,0-0.7,0.3-0.7,0.6v0.5
			C23.4,29.1,23.7,29.4,24.1,29.4z"/>
		<path d="M34.9,33.7H24.1c-0.3,0-0.6,0.3-0.6,0.6v0.5c0,0.3,0.3,0.6,0.6,0.6H35c0.3,0,0.6-0.3,0.6-0.6v-0.5
			C35.6,34,35.3,33.7,34.9,33.7z"/>
		<path d="M42.5,30.8H24.1c-0.3,0-0.6,0.3-0.6,0.6v0.5c-0.1,0.3,0.2,0.6,0.6,0.6h18.5c0.3,0,0.6-0.3,0.6-0.6v-0.5
			C43.1,31.1,42.8,30.8,42.5,30.8z"/>
		<path d="M20.7,46.1c-1,0-1.8-0.8-1.8-1.8V43h26.7l0.4-1.5H18.9V22.8c0-1,0.8-1.8,1.8-1.8h30.9c1,0,1.8,0.8,1.8,1.8v1.5v0.9h1.5
			v-0.9v-1.5c0-1.8-1.5-3.3-3.3-3.3H20.7c-1.8,0-3.3,1.5-3.3,3.3v21.5c0,1.8,1.5,3.3,3.3,3.3h23.8l0.4-1.5L20.7,46.1L20.7,46.1z"/>
		<rect x="53.4" y="25.2" width="1.5" height="0.8"/>
		<path d="M58.5,35.8c0.1-0.2,0.1-0.5-0.1-0.8c-0.2-0.2-0.4-0.4-0.7-0.4h-3.1l1.7-6.1c0.1-0.2,0-0.5-0.2-0.7
			c-0.2-0.2-0.4-0.3-0.7-0.3h-7c-0.3,0-0.6,0.2-0.6,0.5l-2.9,10.9c-0.1,0.2,0,0.5,0.2,0.7c0.2,0.2,0.4,0.3,0.7,0.3h3l-2.4,9.7
			c-0.1,0.2,0,0.5,0.2,0.7c0.2,0.2,0.4,0.3,0.7,0.3L58.5,35.8z M48.8,46.3l1.7-7c0.1-0.2,0-0.5-0.2-0.7c-0.2-0.2-0.4-0.3-0.7-0.3h-3
			l2.5-9.4h5.4l-1.7,6.1c-0.1,0.2,0,0.5,0.2,0.7c0.2,0.2,0.4,0.3,0.7,0.3H56L48.8,46.3z"/>
	</g>
</g>
</svg>
