<?xml version="1.0" encoding="utf-8"?>
<svg version="1.1" xmlns="http://www.w3.org/2000/svg" xmlns:xlink="http://www.w3.org/1999/xlink" x="0px" y="0px"
	 viewBox="0 0 76 76" style="enable-background:new 0 0 76 76;" xml:space="preserve">
<g id="icon">
	<g>
		<path d="M57.7,41.2H44.4L40.8,38c-0.4-0.4-1-0.4-1.5-0.2c-0.5,0.3-0.7,0.8-0.6,1.3l0.4,2h-20V23.2h38.6c0.5,0,0.9-0.4,0.9-0.9
			s-0.4-0.9-0.9-0.9H18.3c-0.5,0.1-0.9,0.5-0.9,1v19.7c0,0.5,0.4,0.9,0.9,0.9h21.1l1.5,8.3c0.1,0.5,0.4,0.9,0.9,1
			c0.4,0.1,1,0,1.3-0.3l1-1l1.7,3c0.2,0.3,0.5,0.5,0.8,0.6c0.1,0,0.2,0,0.3,0c0.3,0,0.5-0.1,0.7-0.2l2.3-1.6
			c0.3-0.2,0.5-0.5,0.6-0.9c0.1-0.3,0-0.7-0.2-1l-1.7-2.3l0.8-0.1c0.5-0.1,0.9-0.4,1-0.9s0-1-0.4-1.3l-3.7-3.4h11.4
			c0.5,0,0.9-0.4,0.9-0.9S58.2,41.2,57.7,41.2z M48.5,51.6l-1.6,1.1l-2.5-4.6l-2,2l-1.8-10l7.7,6.9l-2.8,0.5L48.5,51.6z"/>
		<path d="M52.9,27.5v9.8c0,0.5,0.4,0.9,0.9,0.9s0.9-0.4,0.9-0.9v-9.8c0-0.5-0.4-0.9-0.9-0.9S52.9,27,52.9,27.5z"/>
		<path d="M29.1,30.7l-1,3.2l-1-3.2c-0.2-0.3-0.5-0.6-0.8-0.6h-0.1c-0.4,0-0.7,0.3-0.8,0.7l-1,3.2l-1-3.2c-0.2-0.4-0.5-0.7-0.9-0.7
			c-0.5,0-0.8,0.4-0.8,0.8c0,0.1,0,0.3,0.1,0.4l1.6,4.5c0.1,0.4,0.5,0.7,0.9,0.7l0,0c0.4,0,0.7-0.3,0.9-0.7l1-3.1l1,3.1
			c0.1,0.4,0.4,0.7,0.9,0.7l0,0c0.4,0,0.7-0.3,0.9-0.7l1.6-4.6c0-0.1,0.1-0.2,0.1-0.3c0-0.4-0.3-0.8-0.8-0.8
			C29.6,30.1,29.3,30.3,29.1,30.7z"/>
		<path d="M38.6,30.7l-1,3.2l-1-3.2c-0.1-0.4-0.4-0.6-0.8-0.6h-0.1c-0.4,0-0.7,0.2-0.8,0.6l-1,3.2l-1-3.2c-0.1-0.4-0.4-0.6-0.8-0.6
			c-0.5,0-0.8,0.4-0.8,0.8c0,0.1,0,0.3,0.1,0.4l1.6,4.5c0.1,0.4,0.5,0.7,0.9,0.7l0,0c0.4,0,0.7-0.3,0.9-0.7l1-3.1l1,3.1
			c0.1,0.4,0.4,0.7,0.9,0.7l0,0c0.4,0,0.7-0.3,0.9-0.7l1.6-4.6c0,0,0.1-0.2,0.1-0.3c0-0.4-0.3-0.8-0.8-0.8
			C39,30.1,38.7,30.3,38.6,30.7z"/>
		<path d="M48,30.7l-1,3.2l-1-3.2c-0.1-0.4-0.4-0.6-0.8-0.6h-0.1c-0.4,0-0.7,0.2-0.8,0.6l-1,3.2l-1-3.2c-0.1-0.4-0.4-0.6-0.8-0.6
			c-0.5,0-0.8,0.4-0.8,0.8c0,0.1,0,0.3,0.1,0.4l1.6,4.5c0.1,0.4,0.5,0.7,0.9,0.7l0,0c0.4,0,0.7-0.3,0.9-0.7l1-3.1l1,3.1
			c0.1,0.4,0.4,0.7,0.9,0.7l0,0c0.4,0,0.7-0.3,0.9-0.7l1.6-4.6c0-0.1,0.1-0.2,0.1-0.3c0-0.4-0.3-0.8-0.8-0.8
			C48.5,30.1,48.2,30.3,48,30.7z"/>
		<path d="M49.7,35.4L49.7,35.4c0,0.6,0.4,1,0.9,1s0.9-0.4,0.9-0.9v-0.1c0-0.5-0.4-0.9-0.9-0.9S49.7,34.9,49.7,35.4z"/>
	</g>
</g>
</svg>
