<?xml version="1.0" encoding="utf-8"?>
<svg version="1.1" xmlns="http://www.w3.org/2000/svg" xmlns:xlink="http://www.w3.org/1999/xlink" x="0px" y="0px"
	 viewBox="0 0 76 76" style="enable-background:new 0 0 76 76;" xml:space="preserve">
<g id="icon">
	<g>
		<path d="M49.2,64.3c0-1.2,0-5.3,0-10.4c0-3.5-1.2-5.9-2.6-7C55.2,46,64,42.8,64,28.2c0-4.1-1.5-7.5-3.9-10.2c0.4-1,1.7-4.8-0.4-10
			c0,0-3.2-1-10.4,3.9c-3-0.8-6.3-1.3-9.5-1.3s-6.5,0.4-9.5,1.3C23.2,7,20,8,20,8c-2.1,5.2-0.8,9.1-0.4,10c-2.4,2.7-3.9,6-3.9,10.2
			c0,14.5,8.9,17.8,17.3,18.8c-1.1,0.9-2.1,2.6-2.4,5.1c-2.2,1-7.7,2.6-11-3.2c0,0-2-3.6-5.8-3.9c0,0-3.7,0-0.3,2.3
			c0,0,2.5,1.2,4.2,5.6c0,0,2.2,7.4,12.8,5.1c0,3.2,0.1,5.6,0.1,6.5c0,1-0.7,2.1-2.5,1.8c3.7,1.2,7.8,1.9,11.9,1.9
			c4.2,0,8.2-0.7,11.9-1.9C50,66.4,49.2,65.3,49.2,64.3z"/>
	</g>
</g>
</svg>
