<?xml version="1.0" encoding="utf-8"?>
<svg version="1.1" xmlns="http://www.w3.org/2000/svg" xmlns:xlink="http://www.w3.org/1999/xlink" x="0px" y="0px"
	 viewBox="0 0 76 76" style="enable-background:new 0 0 76 76;" xml:space="preserve">
<g id="icon">
	<g>
		<path d="M28.1,51.3h-8.8c-0.4,0-0.8,0.4-0.8,0.8v6.8c0,0.4,0.4,0.8,0.8,0.8h8.8c0.4,0,0.8-0.4,0.8-0.8v-6.8
			C28.9,51.7,28.5,51.3,28.1,51.3z M27.2,58.2h-7.2V53h7.2V58.2z"/>
		<path d="M42.5,51.3h-8.8c-0.4,0-0.8,0.4-0.8,0.8v6.8c0,0.4,0.4,0.8,0.8,0.8h8.8c0.4,0,0.8-0.4,0.8-0.8v-6.8
			C43.2,51.7,42.8,51.3,42.5,51.3z M41.7,58.2h-7.2V53h7.2V58.2z"/>
		<path d="M56.8,51.3H48c-0.4,0-0.8,0.4-0.8,0.8v6.8c0,0.4,0.4,0.8,0.8,0.8h8.8c0.4,0,0.8-0.4,0.8-0.8v-6.8
			C57.5,51.7,57.2,51.3,56.8,51.3z M56,58.2h-7.2V53H56V58.2z"/>
		<path d="M23.2,48.7c0.4,0,0.8-0.4,0.8-0.8V45h13.3v2.9c0,0.4,0.4,0.8,0.8,0.8s0.8-0.4,0.8-0.8V45H52v2.9c0,0.4,0.4,0.8,0.8,0.8
			c0.4,0,0.8-0.4,0.8-0.8v-3.7c0-0.4-0.4-0.8-0.8-0.8h-14v-3.1c0-0.4-0.4-0.8-0.8-0.8c-0.4,0-0.8,0.4-0.8,0.8v3.1h-14
			c-0.4,0-0.8,0.4-0.8,0.8v3.7C22.5,48.3,22.8,48.7,23.2,48.7z"/>
		<g>
			<path d="M38.1,16.3c-5.7,0-10.3,4.6-10.3,10.2S32.3,36.7,38,36.7s10.2-4.6,10.2-10.2S43.7,16.3,38.1,16.3z M47,26.5
				c0,4.9-4,8.9-8.9,8.9s-8.9-4-8.9-8.9s4-8.9,8.9-8.9S47,21.6,47,26.5z"/>
			<path d="M44.6,24.5c0,0-0.1,0.1-0.3,0.2c-1.3,0.7-1.1,1.4-0.6,2.6c0.2,0.7-1.1,3.1-1.9,4c0-0.2-0.1-0.5-0.1-0.8v-1.1
				c0,0,0-0.1-0.2-1.4l-0.3-1.1c0-0.1-0.1-0.2-0.1-0.3l-0.9-1c-0.1-0.1-0.1-0.1-0.2-0.2c-0.3-0.1-1.8-0.7-2.6-0.9l0,0
				c0-0.2,0.1-0.6,0.4-0.7c0.1-0.1,0.2-0.1,0.3,0c0.2,0,0.5,0.1,0.8-0.2c0.3-0.3,0.3-0.7,0.2-1.4c-0.1-0.6-0.3-1.1-0.6-1.4
				c-0.6-0.5-1.3-0.4-1.8-0.3c-0.1,0-0.2,0-0.3,0c-0.9,0-1.2,0.6-1.5,1.7c0-0.2,0-0.5-0.1-0.7c0-0.3-0.2-0.5-0.5-0.6
				s-0.6,0.1-0.7,0.3L33,22.4v0.1c0,0.1-0.1,0.2-0.6,0.5c-0.1,0-0.2,0.1-0.3,0.1l0,0c0.1-0.3,0-0.7-0.3-0.9c-0.3-0.1-0.7,0-0.9,0.3
				C30.5,23.3,31,23.9,31,24c0.2,0.2,0.6,0.5,1.3,0.2c0.6-0.2,1-0.5,1.3-0.7c0,0.1,0.1,0.2,0.1,0.3c0.1,0.1,0.5,0.9,1.2,0.8
				c0.3,0,0.7-0.3,0.8-1l0.1-0.3c0.1-0.5,0.3-1.3,0.4-1.4c0.1,0,0.3,0,0.5,0c0.3,0,0.7-0.1,0.8,0c0,0,0.1,0.1,0.1,0.5
				c0,0.1,0,0.2,0,0.2c-0.2,0-0.4,0.1-0.6,0.2c-0.8,0.4-1.2,1.4-1.1,2.1c0.1,0.6,0.4,1,1,1.2c0.6,0.1,1.9,0.6,2.3,0.8l0.7,0.7
				l0.2,0.8c0.1,0.6,0.2,1.1,0.2,1.2v1.1c0,0.7,0.1,1.9,0.8,2.2c0.1,0,0.2,0.1,0.4,0.1s0.4-0.1,0.6-0.2c0.8-0.5,3.3-4.2,2.7-5.8
				c-0.3-0.8-0.3-0.8,0-1c0.9-0.5,0.9-0.9,0.8-1.4c0-0.1,0-0.2-0.1-0.4c0-0.2-0.1-0.3-0.2-0.5c-0.1-0.1-0.3-0.2-0.5-0.2
				s-0.3,0.1-0.4,0.2c-0.1,0.1-0.2,0.3-0.2,0.5C44.3,24.3,44.5,24.4,44.6,24.5L44.6,24.5z"/>
			<path d="M34.1,27.5L34,27.7l0,0L34.1,27.5c-0.2-0.1-0.6-0.2-0.7-0.3c-0.3-0.3-0.6-0.5-0.8-0.6c-0.1-0.1-0.3-0.2-0.5-0.3
				c-0.2-0.2-0.6-0.2-0.8-0.1c-0.4,0.2-0.8,0.6-1,2.8c0,0.2,0,0.3,0.1,0.5c0.1,0.1,0.3,0.2,0.4,0.2c0.2,0,0.3,0,0.5-0.1
				c0.1-0.1,0.2-0.3,0.2-0.5c0-0.5,0.1-1.1,0.2-1.4l0.1,0.1c0.2,0.1,0.3,0.2,0.5,0.4c0.3,0.3,0.7,0.4,1.2,0.6c0.1,0,0.2,0.1,0.3,0.1
				c-0.4,0.4-0.6,0.6-0.9,1.1c-0.3,0.6-0.8,1.9-0.8,2.1c-0.1,0.2,0,0.3,0,0.5c0.1,0.2,0.2,0.3,0.4,0.3c0.1,0,0.1,0,0.2,0
				c0.3,0,0.5-0.2,0.6-0.4c0,0,0.5-1.3,0.7-1.9c0.2-0.5,0.3-0.5,0.8-1l0.1-0.1c0.4-0.3,0.4-0.7,0.3-0.9C35.3,28,34.8,27.7,34.1,27.5
				z"/>
		</g>
	</g>
</g>
</svg>
