<?xml version="1.0" encoding="utf-8"?>
<svg version="1.1" xmlns="http://www.w3.org/2000/svg" xmlns:xlink="http://www.w3.org/1999/xlink" x="0px" y="0px"
	 viewBox="0 0 76 76" style="enable-background:new 0 0 76 76;" xml:space="preserve">
<g>
	<path d="M32.4,49.7c0,0.5,0.4,0.8,0.8,0.8c0.5,0,0.8-0.4,0.8-0.8v-4.1h8.2v4.1c0,0.5,0.4,0.8,0.8,0.8c0.5,0,0.8-0.4,0.8-0.8v-4.9
		c0-0.5-0.4-0.8-0.8-0.8h-9.9c-0.5,0-0.8,0.4-0.8,0.8v4.9H32.4z"/>
	<path d="M48.8,23.4c0-2.3-1.9-4.2-4.2-4.2h-13c-2.3,0-4.2,1.9-4.2,4.2v4.9c0,0.5,0.4,0.8,0.8,0.8l0,0c0.5,0,0.8-0.4,0.8-0.8v-2.5
		h18.1v26.3H29V41.5c0-0.5-0.4-0.8-0.8-0.8c-0.5,0-0.8,0.4-0.8,0.8v13.1c0,2.3,1.9,4.2,4.2,4.2h13c2.3,0,4.2-1.9,4.2-4.2
		C48.8,53.9,48.8,23.4,48.8,23.4z M29,24.2v-0.8c0-1.4,1.1-2.5,2.5-2.5h13c1.4,0,2.5,1.1,2.5,2.5v0.8H29z M44.6,57.1h-13
		c-1.4,0-2.5-1.1-2.5-2.5v-0.8h18.1v0.8C47.1,56,46,57.1,44.6,57.1z"/>
	<path d="M30.8,31.6c0-0.5-0.4-0.8-0.8-0.8h-9.9c-0.5,0-0.8,0.4-0.8,0.8c0,0.5,0.4,0.8,0.8,0.8H30C30.4,32.4,30.8,32.1,30.8,31.6z"
		/>
	<path d="M30.8,34.9c0-0.5-0.4-0.8-0.8-0.8h-6.6c-0.5,0-0.8,0.4-0.8,0.8c0,0.5,0.4,0.8,0.8,0.8H30C30.4,35.7,30.8,35.3,30.8,34.9z"
		/>
	<path d="M30.8,38.2c0-0.5-0.4-0.8-0.8-0.8h-3.3c-0.5,0-0.8,0.4-0.8,0.8c0,0.5,0.4,0.8,0.8,0.8H30C30.4,39,30.8,38.6,30.8,38.2z"/>
	<path d="M43.1,29.2H37h-3.8c-0.5,0-0.8,0.4-0.8,0.8v2.6v6.8v0.4c0,0.5,0.4,0.8,0.8,0.8h0.1h9.8c0.5,0,0.8-0.4,0.8-0.8v-4v-2.4V30
		C43.9,29.6,43.5,29.2,43.1,29.2z M34,30.8h2c0,0.8-0.6,1.5-1.4,1.5c-0.2,0-0.4-0.1-0.6-0.1V30.8z M42.3,39.1h-8l2.2-3.7l1.9,2.6
		c0.1,0.2,0.3,0.3,0.6,0.3c0.2,0,0.4-0.1,0.6-0.3l2.7-4.3V39.1z M42.3,32.7C42.2,32.7,42.2,32.7,42.3,32.7c-0.3,0-0.5,0.1-0.6,0.3
		L39,37.3l-2-2.6c-0.1-0.2-0.3-0.3-0.6-0.3c-0.2,0-0.4,0.1-0.6,0.3l-1.8,3V33c0.2,0,0.3,0.1,0.5,0.1c1.2,0,2.3-1,2.3-2.3h5.5
		C42.3,30.8,42.3,32.7,42.3,32.7z"/>
</g>
</svg>
