<?xml version="1.0" encoding="utf-8"?>
<svg version="1.1" xmlns="http://www.w3.org/2000/svg" xmlns:xlink="http://www.w3.org/1999/xlink" x="0px" y="0px"
	 viewBox="0 0 76 76" style="enable-background:new 0 0 76 76;" xml:space="preserve">
<g>
	<g>
		<path d="M31.4,49.9c-0.4-0.1-0.8,0.2-0.9,0.6L29.4,55c-0.1,0.4,0.2,0.8,0.6,0.9c0.1,0,0.1,0,0.2,0c0.3,0,0.7-0.2,0.7-0.6l1.1-4.5
			C32,50.4,31.8,50,31.4,49.9z"/>
		<path d="M45.6,50.5c-0.1-0.4-0.5-0.7-0.9-0.6c-0.4,0.1-0.7,0.5-0.6,0.9l1.1,4.5c0.1,0.4,0.4,0.6,0.7,0.6c0.1,0,0.1,0,0.2,0
			c0.4-0.1,0.7-0.5,0.6-0.9L45.6,50.5z"/>
		<path d="M55.6,22.3H44.1v-1.5c0-0.4-0.3-0.8-0.8-0.8s-0.8,0.3-0.8,0.8v1.5h-9.2v-1.5c0-0.4-0.3-0.8-0.8-0.8
			c-0.4,0-0.8,0.3-0.8,0.8v1.5H20.4c-0.4,0-0.8,0.3-0.8,0.8v24.5c0,0.4,0.3,0.8,0.8,0.8h35.3c0.4,0,0.8-0.3,0.8-0.8V23.1
			C56.4,22.7,56.1,22.3,55.6,22.3z M54.9,46.9H21.1v-23h33.7L54.9,46.9L54.9,46.9z"/>
		<path d="M37.9,33.4c-0.2,0-0.3,0-4.3,2l1-4.2c0-0.3-0.1-0.7-0.3-0.9c-0.3-0.4-0.9-0.6-1.7-0.6c-2.5,0-6.3,1.9-6.8,6.1
			c-0.2,2,0.4,3.9,1.7,5.4c1.3,1.5,3.2,2.3,5.2,2.3c2.3,0,4.4-1.1,5.7-3s1.6-4.3,0.7-6.5C38.8,33.7,38.4,33.4,37.9,33.4z M37,39.8
			c-1,1.5-2.6,2.4-4.5,2.4c-1.5,0-3-0.7-4-1.8c-1-1.2-1.5-2.7-1.3-4.2c0.4-3.6,3.8-4.8,5.3-4.8c0.2,0,0.3,0,0.4,0l-1.2,5.4
			c-0.1,0.3,0,0.6,0.3,0.8c0.2,0.2,0.6,0.2,0.8,0.1c1.6-0.8,4-2,4.9-2.5C38.2,36.7,38,38.4,37,39.8z"/>
		<path d="M36.4,27.6c-0.8,0-1.1,0.5-1.1,0.9v0.2c-0.6,4.4-0.5,4.5-0.1,4.8c0.1,0.1,0.3,0.2,0.5,0.2c0,0,4.5-1.4,4.8-2.2
			c0.1-0.2,0.1-0.5,0-0.8C39.6,28.7,37.5,27.6,36.4,27.6z M36.4,31.8c0-0.5,0.1-1.3,0.3-2.6c0.6,0.2,1.5,0.7,2.1,1.6
			C38.2,31.1,37.2,31.6,36.4,31.8z"/>
		<path d="M49.5,39.2h-6.1c-0.4,0-0.8,0.3-0.8,0.8c0,0.4,0.3,0.8,0.8,0.8h6.1c0.4,0,0.8-0.3,0.8-0.8C50.2,39.5,49.9,39.2,49.5,39.2z
			"/>
		<path d="M49.5,34.6h-6.1c-0.4,0-0.8,0.3-0.8,0.8c0,0.4,0.3,0.8,0.8,0.8h6.1c0.4,0,0.8-0.3,0.8-0.8C50.2,34.9,49.9,34.6,49.5,34.6z
			"/>
		<path d="M42.6,30.8c0,0.4,0.3,0.8,0.8,0.8h6.1c0.4,0,0.8-0.3,0.8-0.8c0-0.4-0.3-0.8-0.8-0.8h-6.1C42.9,30,42.6,30.3,42.6,30.8z"/>
	</g>
</g>
</svg>
