<?xml version="1.0" encoding="utf-8"?>
<svg version="1.1" xmlns="http://www.w3.org/2000/svg" xmlns:xlink="http://www.w3.org/1999/xlink" x="0px" y="0px"
	 viewBox="0 0 76 76" style="enable-background:new 0 0 76 76;" xml:space="preserve">
<g>
	<g>
		<path d="M36.8,49.6c-1.1,0-2,0.9-2,2s0.9,2,2,2s2-0.9,2-2S37.9,49.6,36.8,49.6z M36.8,52.1c-0.3,0-0.5-0.2-0.5-0.5
			s0.2-0.5,0.5-0.5s0.5,0.2,0.5,0.5C37.3,51.9,37.1,52.1,36.8,52.1z"/>
		<path d="M45.8,52.3c0,1.3-1,2.3-2.3,2.3H30.1c-1.3,0-2.3-1-2.3-2.3v-3.7h10.5V47H27.8V26h18v0.9h1.5v-1.7c0,0,0,0,0-0.1v-1.4
			c0-2.1-1.7-3.8-3.8-3.8H30.1c-2.1,0-3.8,1.7-3.8,3.8v28.5c0,2.1,1.7,3.8,3.8,3.8h13.4c2.1,0,3.8-1.7,3.8-3.8v-0.7h-1.5V52.3z
			 M27.8,23.7c0-1.3,1-2.3,2.3-2.3h13.4c1.3,0,2.3,1,2.3,2.3v0.7h-18V23.7z"/>
		<path d="M49,28.1h-5.5H40c-0.4,0-0.7,0.3-0.7,0.7v2.4v1.4h-3.4h-1.2h-0.8l0.8-0.8l1.2-1.2l0.5-0.5c0.1-0.1,0.2-0.3,0.2-0.5
			s-0.1-0.4-0.2-0.5L36,28.6l-0.1-0.1c-0.1-0.1-0.2-0.1-0.4-0.1s-0.4,0.1-0.5,0.2L34.6,29l-1.3,1.3l-1.2,1.2l-0.9,0.8L30.5,33
			c-0.1,0.1-0.2,0.3-0.2,0.5s0.1,0.4,0.2,0.5l0.7,0.7l0.9,0.8l1.2,1.2l1.3,1.3l0.4,0.4c0.1,0.1,0.3,0.2,0.5,0.2c0.1,0,0.3,0,0.4-0.1
			c0,0,0.1,0,0.1-0.1l0.4-0.4c0.1-0.1,0.2-0.3,0.2-0.5s-0.1-0.3-0.2-0.5l-0.5-0.5l-1.2-1.2l-0.9-0.9h0.9h1.2h3.4v2.9v0.4
			c0,0.4,0.3,0.7,0.7,0.7h0.1H49c0.4,0,0.7-0.3,0.7-0.7v-3.6V32v-3.2C49.7,28.4,49.4,28.1,49,28.1z M40.7,29.6h1.8
			c0,0.7-0.6,1.3-1.2,1.3c-0.2,0-0.4,0-0.5-0.1L40.7,29.6L40.7,29.6z M48.2,37.1h-7.3l2-3.4l1.8,2.4c0.1,0.2,0.3,0.2,0.5,0.3
			c0.2,0,0.4-0.1,0.5-0.3l2.5-3.9V37.1z M48.2,31.3C48.2,31.3,48.2,31.2,48.2,31.3c-0.2,0-0.4,0.1-0.6,0.3l-2.5,3.9l-1.8-2.4
			c-0.1-0.2-0.3-0.3-0.5-0.3s-0.4,0.1-0.5,0.3l-1.6,2.7v-4.2c0.1,0,0.3,0,0.4,0c1.1,0,2.1-0.9,2.1-2.1h5
			C48.2,29.5,48.2,31.3,48.2,31.3z"/>
		<path d="M49,40.1h-5.5H40c-0.4,0-0.7,0.3-0.7,0.7v2.3v6.2v0.4c0,0.4,0.3,0.7,0.7,0.7h0.1H49c0.4,0,0.7-0.3,0.7-0.7v-3.6V44v-3.1
			C49.7,40.4,49.4,40.1,49,40.1z M40.8,41.6h1.8c0,0.7-0.6,1.3-1.2,1.3c-0.2,0-0.4,0-0.5-0.1L40.8,41.6L40.8,41.6z M48.2,49H41
			l2-3.3l1.7,2.4c0.1,0.2,0.3,0.2,0.5,0.3c0.2,0,0.4-0.1,0.5-0.3l2.5-3.9V49z M48.2,43.2L48.2,43.2c-0.2,0-0.4,0.1-0.6,0.3l-2.5,3.9
			L43.4,45c-0.1-0.2-0.3-0.3-0.5-0.3s-0.4,0.1-0.5,0.3l-1.6,2.7v-4.2c0.1,0,0.3,0,0.4,0c1.1,0,2-0.9,2-2h5
			C48.2,41.5,48.2,43.2,48.2,43.2z"/>
	</g>
</g>
</svg>
