<?xml version="1.0" encoding="utf-8"?>
<svg version="1.1" xmlns="http://www.w3.org/2000/svg" xmlns:xlink="http://www.w3.org/1999/xlink" x="0px" y="0px"
	 viewBox="0 0 76 76" style="enable-background:new 0 0 76 76;" xml:space="preserve">
<g id="icon">
	<g>
		<path d="M56.1,26.6l-6.7-6.7c-0.2-0.1-0.3-0.2-0.5-0.2h-3.2H30.4h-10c-0.4,0-0.7,0.3-0.7,0.7v35.1c0,0.4,0.3,0.7,0.7,0.7H26h24
			h5.6c0.4,0,0.7-0.3,0.7-0.7V27.1C56.3,26.9,56.2,26.7,56.1,26.6z M44.9,21.2V31H31.1v-9.8H44.9z M26.7,54.8V36.2h22.5v18.5
			L26.7,54.8L26.7,54.8z M54.8,54.8h-4.1V35.5c0-0.4-0.3-0.7-0.7-0.7H26c-0.4,0-0.7,0.3-0.7,0.7v19.3h-4.1V21.2h8.4v10.5
			c0,0.4,0.3,0.7,0.7,0.7h15.3c0.4,0,0.7-0.3,0.7-0.7V21.2h2.2l6.2,6.2C54.8,27.4,54.8,54.8,54.8,54.8z"/>
		<path d="M39.9,29.6h2.2c0.4,0,0.7-0.3,0.7-0.7v-6.6c0-0.4-0.3-0.7-0.7-0.7h-2.2c-0.4,0-0.7,0.3-0.7,0.7v6.5
			C39.1,29.2,39.5,29.6,39.9,29.6z M40.6,23.1h0.7v5h-0.7V23.1z"/>
		<path d="M45.6,40H30.4c-0.4,0-0.7,0.3-0.7,0.7s0.3,0.7,0.7,0.7h15.3c0.4,0,0.7-0.3,0.7-0.7C46.4,40.3,46,40,45.6,40z"/>
		<path d="M45.6,44.5H30.4c-0.4,0-0.7,0.3-0.7,0.7s0.3,0.7,0.7,0.7h15.3c0.4,0,0.7-0.3,0.7-0.7C46.4,44.8,46,44.5,45.6,44.5z"/>
		<path d="M45.6,48.9H30.4c-0.4,0-0.7,0.3-0.7,0.7s0.3,0.7,0.7,0.7h15.3c0.4,0,0.7-0.3,0.7-0.7C46.4,49.3,46,48.9,45.6,48.9z"/>
	</g>
</g>
</svg>
