<?xml version="1.0" encoding="utf-8"?>
<svg version="1.1" xmlns="http://www.w3.org/2000/svg" xmlns:xlink="http://www.w3.org/1999/xlink" x="0px" y="0px"
	 viewBox="0 0 76 76" style="enable-background:new 0 0 76 76;" xml:space="preserve">
<g>
	<g>
		<g>
			<path d="M44.7,19.9H31.3c-2.1,0-3.8,1.7-3.8,3.8v1.1v24.3v3.2c0,2.1,1.7,3.8,3.8,3.8h13.5c2.1,0,3.8-1.7,3.8-3.8
				v-3.2V24.9v-1.1C48.5,21.6,46.8,19.9,44.7,19.9z M28.9,26.3h18.1v21.4H28.9V26.3z M47.1,52.3c0,1.3-1,2.3-2.3,2.3H31.3
				c-1.3,0-2.3-1-2.3-2.3v-3.2h18.1V52.3z M28.9,24.9v-1.1c0-1.3,1-2.3,2.3-2.3h13.5c1.3,0,2.3,1,2.3,2.3v1.1H28.9z"/>
			<path class="st2" d="M38,53.6c1,0,1.8-0.8,1.8-1.8c0-1-0.8-1.8-1.8-1.8c-1,0-1.8,0.8-1.8,1.8C36.2,52.8,37,53.6,38,53.6z
				 M38,51.4c0.2,0,0.4,0.2,0.4,0.4c0,0.2-0.2,0.4-0.4,0.4c-0.2,0-0.4-0.2-0.4-0.4C37.6,51.6,37.8,51.4,38,51.4z"/>
		</g>
		<path d="M45.3,36.8c0-4-3.2-7.3-7.2-7.3c0,0,0,0,0,0v0c0,0,0,0,0,0c0,0,0,0,0,0v0c0,0,0,0,0,0c-4,0-7.3,3.3-7.3,7.3
			c0,4,3.3,7.3,7.3,7.3c0,0,0,0,0,0v0c0,0,0,0,0,0c0,0,0,0,0,0v0c0,0,0,0,0,0C42.1,44.1,45.3,40.8,45.3,36.8z M31.3,37.1h2.9
			c0,1,0.1,1.9,0.3,2.7H32C31.6,39,31.3,38.1,31.3,37.1z M44.7,36.5h-2.9c0-0.9-0.1-1.8-0.3-2.6H44C44.4,34.7,44.7,35.6,44.7,36.5z
			 M41.2,36.5h-2.9v-2.6h2.6C41.1,34.7,41.2,35.6,41.2,36.5z M38.3,33.3v-3.2c1,0.2,1.9,1.4,2.5,3.2H38.3z M37.7,30.1v3.2h-2.4
			C35.8,31.5,36.7,30.3,37.7,30.1z M37.7,33.9v2.6h-2.9c0-0.9,0.1-1.8,0.3-2.6H37.7z M34.2,36.5h-2.9c0-0.9,0.3-1.8,0.7-2.6h2.5
			C34.3,34.7,34.2,35.6,34.2,36.5z M34.8,37.1h2.9v2.7h-2.6C34.9,39,34.8,38.1,34.8,37.1z M37.7,40.4v3.1c-1-0.2-1.9-1.4-2.4-3.1
			H37.7z M38.3,43.5v-3.1h2.4C40.2,42.1,39.3,43.3,38.3,43.5z M38.3,39.8v-2.7h2.9c0,1-0.1,1.9-0.3,2.7H38.3z M41.8,37.1h2.9
			c0,1-0.3,1.9-0.7,2.7h-2.5C41.7,39,41.8,38.1,41.8,37.1z M43.7,33.3h-2.3C41,32,40.5,31,39.8,30.3C41.5,30.8,42.8,31.9,43.7,33.3z
			 M36.2,30.3C35.5,31,35,32,34.6,33.3h-2.4C33.2,31.9,34.5,30.8,36.2,30.3z M32.3,40.4h2.3c0.4,1.2,0.9,2.2,1.5,2.9
			C34.6,42.8,33.2,41.8,32.3,40.4z M39.8,43.3c0.6-0.7,1.2-1.7,1.5-2.9h2.3C42.8,41.8,41.5,42.8,39.8,43.3z"/>
	</g>
</g>
</svg>
