<?xml version="1.0" encoding="utf-8"?>
<svg version="1.1" xmlns="http://www.w3.org/2000/svg" xmlns:xlink="http://www.w3.org/1999/xlink" x="0px" y="0px"
	 viewBox="0 0 76 76" style="enable-background:new 0 0 76 76;" xml:space="preserve">
<g id="icon">
	<g>
		<path d="M45.7,17.5H30.4c-2.4,0-4.3,1.9-4.3,4.3v1.3v27.5v3.6c0,2.4,1.9,4.3,4.3,4.3h15.3c2.4,0,4.3-1.9,4.3-4.3v-3.6V23.1v-1.3
			C50,19.4,48,17.5,45.7,17.5z M27.6,24.7h20.6V49H27.6V24.7z M48.2,54.2c0,1.5-1.2,2.7-2.7,2.7H30.4c-1.5,0-2.7-1.2-2.7-2.7v-3.6
			h20.6V54.2z M27.6,23.1v-1.3c0-1.5,1.2-2.7,2.7-2.7h15.3c1.5,0,2.7,1.2,2.7,2.7v1.3C48.4,23.1,27.6,23.1,27.6,23.1z"/>
		<path d="M38,55.7c1.2,0,2.1-0.9,2.1-2.1c0-1.2-0.9-2.1-2.1-2.1s-2.1,1-2.1,2.1C35.8,54.8,36.8,55.7,38,55.7z M38,53.2
			c0.2,0,0.4,0.2,0.4,0.4S38.2,54,38,54s-0.4-0.2-0.4-0.4S37.8,53.2,38,53.2z"/>
	</g>
	<path d="M43.5,35.4c0.1-0.2,0.1-0.4,0-0.6c-0.1-0.2-0.4-0.3-0.6-0.3h-2.5l1.4-5c0.1-0.2,0-0.4-0.1-0.6c-0.1-0.2-0.3-0.3-0.6-0.3
		h-5.8c-0.3,0-0.5,0.2-0.5,0.4l-2.3,8.9c0,0.2,0,0.4,0.1,0.6c0.1,0.2,0.3,0.3,0.5,0.3h2.4l-1.9,7.9c0,0.2,0,0.4,0.1,0.6
		c0.1,0.2,0.3,0.3,0.5,0.3L43.5,35.4z M35.5,44l1.4-5.7c0-0.2,0-0.4-0.1-0.6c-0.1-0.2-0.3-0.3-0.5-0.3h-2.5l2-7.7h4.4l-1.4,5
		c-0.1,0.2,0,0.4,0.1,0.6c0.1,0.2,0.3,0.3,0.6,0.3h1.9L35.5,44z"/>
</g>
</svg>
