<?xml version="1.0" encoding="utf-8"?>
<svg version="1.1" xmlns="http://www.w3.org/2000/svg" xmlns:xlink="http://www.w3.org/1999/xlink" x="0px" y="0px"
	 viewBox="0 0 76 76" style="enable-background:new 0 0 76 76;" xml:space="preserve">
<g>
	<path d="M49.5,45c0.1-0.1,0.2-0.2,0.3-0.3c0.3-0.3,0.5-0.6,0.8-0.9l0.1-0.1c1.6-2,2.8-4.5,3.3-7.2c1.2-6.3-1.5-12.5-6.4-16.1
		c0,0-0.8-0.6-2.3-1.3c-1.4-0.7-2.8-1.2-4.4-1.5c-2-0.4-4-0.4-5.9,0c-0.4,0.1-0.8,0.1-1.2,0.2c-3.5,0.9-6.6,3-8.8,5.9
		c0,0.1-0.1,0.2-0.1,0.2s0,0.1-0.1,0.1l0,0c-0.1,0.2-0.1,0.3-0.2,0.3c-1.2,1.8-2.1,3.9-2.5,6.1c-0.3,1.8-0.4,3.6-0.1,5.4
		c0.1,0.6,0.1,1.2,0.3,1.9c1,3.8,3.3,7,6.5,9.2c-1.4,0.6-2.3,1.6-2.3,3.5v0.6c-1.2,0.3-2,1.4-2,2.6v2.3c0,1.5,1.2,2.8,2.8,2.8h21.6
		c1.5,0,2.8-1.2,2.8-2.8v-2.3c0-1.3-0.9-2.3-2-2.6v-0.6c0-1.9-0.9-3-2.4-3.5c0.6-0.4,1.2-0.9,1.8-1.4C49.2,45.2,49.2,45.2,49.5,45z
		 M49,52.5h0.2c0.5,0,0.9,0.4,0.9,0.9v2.9c0,0.5-0.4,0.9-0.9,0.9H26.8c-0.5,0.1-1-0.3-1-0.8v-2.9c0-0.5,0.4-0.9,0.9-0.9h0.2L49,52.5
		L49,52.5z M48.2,50.3v0.6H27.9v-0.6c0-1.9,1-2.4,2.4-2.5l0,0c1.4,0.8,3,1.3,4.7,1.7c3.7,0.7,7.5,0.1,10.7-1.7l0,0l0,0
		C47.2,48,48.2,48.5,48.2,50.3z M48.5,44c-0.2,0.2-0.3,0.3-0.5,0.4c-0.8,0.8-1.8,1.4-2.8,2l0,0c-1,0.6-2.1,1-3.2,1.4l0,0
		c-1.3,0.4-2.6,0.5-4,0.5c-0.9,0-1.9-0.1-2.8-0.3c-0.4-0.1-0.8-0.2-1.2-0.3c-1.2-0.3-2.3-0.8-3.3-1.3l0,0c-2-1.1-3.7-2.7-5-4.6
		c-2.2-3.3-3.1-7.2-2.3-11.2c0.6-3,2-5.7,4.1-7.8c0.3-0.1,0.5-0.3,0.8-0.6c0,0,0.1,0,0.1-0.1c0.4-0.3,0.8-0.6,1.2-0.8
		c3.3-2.2,7.2-3.1,11.2-2.3c7,1.3,12.1,7.4,12.1,14.5c0,0.9-0.1,1.9-0.3,2.8c-0.5,2.4-1.5,4.7-3,6.5l0,0c-0.2,0.3-0.5,0.6-0.8,0.9
		C48.7,43.8,48.5,43.8,48.5,44z"/>
	<path d="M47.2,35.8h-7.4c-0.3,0-0.6,0.3-0.6,0.6c0,0.3,0.3,0.6,0.6,0.6h7.4c0.3,0,0.6-0.3,0.6-0.6C47.8,36,47.5,35.8,47.2,35.8z"/>
	<path d="M47.2,33h-7.4c-0.3,0-0.6,0.3-0.6,0.6c0,0.3,0.3,0.6,0.6,0.6h7.4c0.3,0,0.6-0.3,0.6-0.6C47.8,33.3,47.5,33,47.2,33z"/>
	<path d="M47.2,38.5h-7.4c-0.3,0-0.6,0.3-0.6,0.6c0,0.3,0.3,0.6,0.6,0.6h7.4c0.3,0,0.6-0.3,0.6-0.6C47.8,38.8,47.5,38.5,47.2,38.5z"
		/>
	<path d="M47.2,30.4h-7.4c-0.3,0-0.6,0.3-0.6,0.6s0.3,0.6,0.6,0.6h7.4c0.3,0,0.6-0.3,0.6-0.6S47.5,30.4,47.2,30.4z"/>
	<path d="M47.2,27.5h-7.4c-0.3,0-0.6,0.3-0.6,0.6c0,0.3,0.3,0.6,0.6,0.6h7.4c0.3,0,0.6-0.3,0.6-0.6C47.8,27.9,47.5,27.5,47.2,27.5z"
		/>
	<path d="M36.2,35.8h-7.3c-0.3,0-0.6,0.3-0.6,0.6c0,0.3,0.3,0.6,0.6,0.6h7.4c0.3,0,0.6-0.3,0.6-0.6C36.8,36,36.5,35.8,36.2,35.8z"/>
	<path d="M36.2,38.5h-7.3c-0.3,0-0.6,0.3-0.6,0.6c0,0.3,0.3,0.6,0.6,0.6h7.4c0.3,0,0.6-0.3,0.6-0.6C36.8,38.8,36.5,38.5,36.2,38.5z"
		/>
	<path d="M28.9,34.2h7.4c0.3,0,0.6-0.3,0.6-0.6v-5.5c0-0.3-0.3-0.6-0.6-0.6h-7.4c-0.3,0-0.6,0.3-0.6,0.6v5.5
		C28.2,34,28.5,34.2,28.9,34.2z M29.5,28.8h6.2V33h-6.2V28.8z"/>
</g>
</svg>
