<?xml version="1.0" encoding="utf-8"?>
<svg version="1.1" xmlns="http://www.w3.org/2000/svg" xmlns:xlink="http://www.w3.org/1999/xlink" x="0px" y="0px"
	 viewBox="0 0 76 76" style="enable-background:new 0 0 76 76;" xml:space="preserve">
<g id="icon">
	<path d="M25.8,19.6h-6.7c-0.3,0-0.6,0.3-0.6,0.6v6.7c0,0.3,0.3,0.6,0.6,0.6h6.7c0.3,0,0.6-0.3,0.6-0.6v-6.7
		C26.4,19.9,26.2,19.6,25.8,19.6z M25.2,26.3h-5.4v-5.4h5.4V26.3z"/>
	<path d="M25.8,30.6h-6.7c-0.3,0-0.6,0.3-0.6,0.6v6.7c0,0.3,0.3,0.6,0.6,0.6h6.7c0.3,0,0.6-0.3,0.6-0.6v-6.7
		C26.4,31,26.2,30.6,25.8,30.6z M25.2,37.3h-5.4V32h5.4V37.3z"/>
	<path d="M25.8,41.7h-6.7c-0.3,0-0.6,0.2-0.6,0.6v6.7c0,0.3,0.3,0.6,0.6,0.6h6.7c0.3,0,0.6-0.3,0.6-0.6v-6.7
		C26.4,41.8,26.2,41.7,25.8,41.7z M25.2,48.2h-5.4v-5.4h5.4V48.2z"/>
	<path d="M30.5,35.2h16.1c0.3,0,0.6-0.3,0.6-0.6c0-0.3-0.3-0.6-0.6-0.6H30.5c-0.3,0-0.6,0.3-0.6,0.6C29.9,35,30.1,35.2,30.5,35.2z"
		/>
	<path d="M30.5,46h8.1c0.3,0,0.6-0.3,0.6-0.6c0-0.3-0.3-0.6-0.6-0.6h-8.1c-0.3,0-0.6,0.3-0.6,0.6C29.9,45.8,30.1,46,30.5,46z"/>
	<path d="M30.5,24.5h16.1c0.3,0,0.6-0.3,0.6-0.6c0-0.3-0.3-0.6-0.6-0.6H30.5c-0.3,0-0.6,0.3-0.6,0.6C29.9,24.1,30.1,24.5,30.5,24.5z
		"/>
	<path d="M20.8,25.3c0.1,0.1,0.3,0.2,0.4,0.2s0.4-0.1,0.5-0.2l0.9-0.8l0.8,0.8c0.1,0.1,0.3,0.2,0.4,0.2c0.2,0,0.3-0.1,0.4-0.2
		c0.2-0.2,0.2-0.6,0-0.9l-0.8-0.8l0.8-0.8c0.2-0.2,0.2-0.6,0-0.9c-0.2-0.3-0.6-0.3-0.8,0l-0.8,0.8l-0.9-0.8c-0.2-0.3-0.6-0.3-0.9,0
		c-0.2,0.2-0.2,0.6,0,0.8l0.9,0.9l-0.9,0.8C20.5,24.8,20.5,25.1,20.8,25.3z"/>
	<path d="M48.8,44.2c-2,0-3.5,1.6-3.5,3.5c0,1.9,1.6,3.5,3.5,3.5c2,0,3.5-1.6,3.5-3.5C52.2,45.8,50.8,44.2,48.8,44.2z M48.8,50.2
		c-1.4,0-2.5-1.1-2.5-2.5c0-1.4,1.1-2.5,2.5-2.5s2.5,1.1,2.5,2.5C51.2,49,50.2,50.2,48.8,50.2z"/>
	<path d="M57.3,46.5c0-0.2-0.2-0.4-0.5-0.5l-1.9-0.2c-0.1-0.4-0.3-0.8-0.5-1.2l1.1-1.5c0.1-0.2,0.1-0.5,0-0.6
		c-0.5-0.6-1.1-1.2-1.7-1.7c-0.2-0.1-0.5-0.1-0.6,0l-1.5,1.1c-0.4-0.2-0.8-0.4-1.2-0.5l-0.2-1.9c0-0.2-0.2-0.4-0.5-0.5
		c-0.8-0.1-1.6-0.1-2.4,0c-0.2,0-0.4,0.2-0.5,0.5l-0.2,1.9c-0.4,0.1-0.8,0.3-1.2,0.5L44,40.8c-0.2-0.1-0.5-0.1-0.6,0
		c-0.3,0.2-0.6,0.5-0.8,0.7l0,0.1c-0.2,0.2-0.4,0.5-0.6,0.7l-0.1,0.1c-0.1,0.2-0.1,0.5,0,0.6l0.5,0.6l0.7,0.9
		c-0.2,0.4-0.4,0.8-0.5,1.2L40.8,46c-0.2,0-0.4,0.2-0.5,0.5c0,0.4-0.1,0.7-0.1,1.1v0.2c0,0.4,0,0.7,0.1,1.1c0,0.2,0.2,0.4,0.5,0.5
		l1.8,0.3c0.1,0.4,0.3,0.8,0.5,1.2l-1.1,1.5c-0.1,0.2-0.1,0.5,0,0.6c0.2,0.3,0.5,0.6,0.7,0.8l0.1,0.1c0.3,0.3,0.5,0.5,0.8,0.7
		c0.2,0.1,0.5,0.1,0.6,0l1.5-1.1c0.4,0.2,0.8,0.4,1.2,0.5l0.2,1.9c0,0.2,0.2,0.4,0.5,0.5c0.4,0.1,0.8,0.1,1.2,0.1s0.8,0,1.2-0.1
		c0.2,0,0.4-0.2,0.5-0.5l0.2-1.9c0.4-0.1,0.8-0.3,1.2-0.5l1.5,1.1c0.2,0.1,0.5,0.1,0.6,0c0.6-0.5,1.2-1.1,1.7-1.7
		c0.1-0.2,0.1-0.5,0-0.6l-1.1-1.4c0.2-0.4,0.4-0.8,0.5-1.2l1.9-0.2c0.2,0,0.4-0.2,0.5-0.5c0.1-0.4,0.1-0.8,0.1-1.2
		C57.5,47.3,57.5,46.9,57.3,46.5z M56.3,48.3l-1.8,0.3c-0.2,0-0.4,0.2-0.4,0.4c-0.1,0.6-0.4,1.1-0.7,1.6c-0.1,0.2-0.1,0.4,0,0.6
		l1.1,1.4c-0.3,0.3-0.6,0.6-0.9,0.9l-1.4-1.1c-0.2-0.1-0.4-0.1-0.6,0c-0.5,0.3-1,0.5-1.6,0.7c-0.2,0.1-0.4,0.2-0.4,0.4l-0.2,1.8
		c-0.4,0-0.9,0-1.3,0l-0.2-1.8c0-0.2-0.2-0.4-0.4-0.4c-0.6-0.1-1.1-0.4-1.6-0.7c-0.2-0.1-0.4-0.1-0.6,0l-1.4,1.1
		c-0.1-0.1-0.3-0.2-0.4-0.4l-0.1-0.1c-0.1-0.1-0.3-0.3-0.4-0.4l1.1-1.4c0.1-0.2,0.1-0.4,0-0.6c-0.3-0.5-0.5-1-0.7-1.6
		c-0.1-0.2-0.2-0.4-0.4-0.4l-1.8-0.2c0-0.2,0-0.4,0-0.5v-0.3c0-0.2,0-0.4,0-0.5l1.8-0.2c0.2,0,0.4-0.2,0.4-0.4
		c0.1-0.6,0.4-1.1,0.7-1.6c0.1-0.2,0.1-0.4,0-0.6l-0.4-0.5L43,42.9c0.1-0.1,0.2-0.3,0.4-0.4l0,0l0.1-0.1c0.1-0.1,0.3-0.3,0.4-0.4
		l0.6,0.5l0.8,0.6c0.2,0.1,0.4,0.1,0.6,0c0.5-0.3,1-0.5,1.6-0.7l0,0c0.2-0.1,0.4-0.2,0.4-0.4l0.2-1.8c0.4,0,0.9,0,1.3,0l0.2,1.8
		c0,0.2,0.2,0.4,0.4,0.4l0,0c0.6,0.1,1.1,0.4,1.6,0.7c0.2,0.1,0.4,0.1,0.6,0l0.6-0.4l0.9-0.7c0.3,0.3,0.6,0.6,0.9,0.9l-1.1,1.3
		c-0.1,0.2-0.1,0.4,0,0.6c0.3,0.5,0.5,1,0.7,1.6c0.1,0.2,0.2,0.4,0.4,0.4l1.8,0.2c0,0.2,0,0.4,0,0.7C56.5,48.1,56.3,48.2,56.3,48.3z
		"/>
</g>
</svg>
