<?xml version="1.0" encoding="utf-8"?>
<svg version="1.1" xmlns="http://www.w3.org/2000/svg" xmlns:xlink="http://www.w3.org/1999/xlink" x="0px" y="0px"
	 viewBox="0 0 76 76" style="enable-background:new 0 0 76 76;" xml:space="preserve">
<g>
	<g>
		<path d="M56.9,19.9H19.1c-0.5,0-0.8,0.4-0.8,0.8v34.4c0,0.5,0.4,0.8,0.8,0.8h37.7c0.5,0,0.8-0.4,0.8-0.8V20.8
			C57.7,20.3,57.3,19.9,56.9,19.9z M56,21.6v3.3H20v-3.3H56z M20,54.4V26.5h36v27.9H20z"/>
		<path d="M35.5,42.9H24c-0.5,0-0.8,0.4-0.8,0.8v6.6c0,0.5,0.4,0.8,0.8,0.8h11.5c0.5,0,0.8-0.4,0.8-0.8v-6.6
			C36.3,43.3,35.9,42.9,35.5,42.9z M34.7,49.4h-9.8v-4.9h9.8V49.4z"/>
		<path d="M51.9,42.9H40.4c-0.5,0-0.8,0.4-0.8,0.8v6.6c0,0.5,0.4,0.8,0.8,0.8h11.5c0.5,0,0.8-0.4,0.8-0.8v-6.6
			C52.7,43.3,52.3,42.9,51.9,42.9z M51.1,49.4h-9.8v-4.9h9.8V49.4z"/>
		<path d="M35.5,31.4H24c-0.5,0-0.8,0.4-0.8,0.8v6.6c0,0.5,0.4,0.8,0.8,0.8h11.5c0.5,0,0.8-0.4,0.8-0.8v-6.6
			C36.3,31.8,35.9,31.4,35.5,31.4z M34.7,38h-9.8v-4.9h9.8V38z"/>
		<path d="M51.9,31.4H40.4c-0.5,0-0.8,0.4-0.8,0.8v6.6c0,0.5,0.4,0.8,0.8,0.8h11.5c0.5,0,0.8-0.4,0.8-0.8v-6.6
			C52.7,31.8,52.3,31.4,51.9,31.4z M51.1,38h-9.8v-4.9h9.8V38z"/>
	</g>
</g>
</svg>
