<?xml version="1.0" encoding="utf-8"?>
<svg version="1.1" xmlns="http://www.w3.org/2000/svg" xmlns:xlink="http://www.w3.org/1999/xlink" x="0px" y="0px"
	 viewBox="0 0 76 76" style="enable-background:new 0 0 76 76;" xml:space="preserve">
<g id="icon">
	<g>
		<g>
			<path d="M38,33.4c-3,0-5.5,2.5-5.5,5.5s2.5,5.5,5.5,5.5s5.5-2.5,5.5-5.5S41,33.4,38,33.4z M38,42.8c-2.1,0-3.9-1.7-3.9-3.9
				c0-2.1,1.7-3.9,3.9-3.9c2.1,0,3.9,1.7,3.9,3.9C41.8,41,40.1,42.8,38,42.8z"/>
			<path d="M50.6,36.3l-2.9-0.4c-0.2-0.6-0.5-1.3-0.8-1.9l1.8-2.3c0.2-0.3,0.2-0.7,0-1c-0.8-1-1.6-1.9-2.6-2.6c-0.3-0.2-0.7-0.2-1,0
				l-2.3,1.8c-0.6-0.3-1.2-0.6-1.9-0.8l-0.4-2.9c0-0.4-0.3-0.7-0.7-0.7c-1.3-0.2-2.5-0.2-3.7,0c-0.4,0.1-0.7,0.3-0.7,0.7L35,29.1
				c-0.6,0.2-1.3,0.5-1.9,0.8l-2.3-1.8c-0.3-0.2-0.7-0.2-1,0c-0.5,0.3-0.9,0.7-1.3,1.1l-0.1,0.3c-0.4,0.4-0.8,0.8-1.1,1.3
				c-0.2,0.3-0.2,0.7,0,1l1.8,2.3c-0.3,0.6-0.6,1.2-0.8,1.9l-2.9,0.3c-0.4,0-0.7,0.3-0.7,0.7c-0.1,0.5-0.1,1.1-0.1,1.7v0.4
				c0,0.6,0,1.1,0.1,1.7c0,0.3,0.3,0.6,0.7,0.7l2.9,0.4c0.2,0.7,0.5,1.3,0.8,1.9l-1.8,2.3c-0.2,0.3-0.2,0.7,0,1
				c0.3,0.5,0.7,0.9,1.1,1.3l0.2,0.2c0.4,0.4,0.9,0.8,1.3,1.1c0.3,0.2,0.7,0.2,1,0l2.3-1.8c0.6,0.3,1.2,0.6,1.9,0.8l0.3,2.8
				c0,0.4,0.3,0.7,0.7,0.7c0.6,0.1,1.2,0.1,1.9,0.1c0.6,0,1.2,0,1.9-0.1c0.4-0.1,0.7-0.3,0.7-0.7l0.4-2.9c0.6-0.2,1.3-0.5,1.9-0.8
				l2.3,1.8c0.3,0.2,0.7,0.2,1,0c1-0.8,1.9-1.6,2.6-2.6c0.2-0.3,0.2-0.7,0-1L47,43.8c0.3-0.6,0.6-1.2,0.8-1.9l2.9-0.4
				c0.4,0,0.7-0.3,0.7-0.7c0.1-0.6,0.1-1.3,0.1-1.9c0-0.6,0-1.2-0.1-1.9C51.3,36.8,51,36.4,50.6,36.3z M49.8,39.9L47,40.3
				c-0.3,0-0.6,0.3-0.7,0.6c-0.2,0.9-0.5,1.7-1,2.4c-0.2,0.3-0.2,0.7,0,0.9l1.7,2.2c-0.4,0.5-0.9,1-1.4,1.4l-2.2-1.6
				c-0.3-0.2-0.6-0.2-0.9,0c-0.8,0.5-1.6,0.8-2.4,1c-0.3,0.1-0.6,0.4-0.6,0.7l-0.4,2.8c-0.7,0.1-1.3,0.1-2,0L36.7,48
				c0-0.3-0.3-0.6-0.6-0.7c-0.9-0.2-1.7-0.5-2.4-1c-0.3-0.2-0.7-0.2-0.9,0L30.4,48c-0.2-0.2-0.4-0.4-0.6-0.6l-0.2-0.2
				c-0.2-0.2-0.4-0.4-0.6-0.7l1.7-2.2c0.2-0.3,0.2-0.6,0-0.9c-0.5-0.8-0.8-1.6-1-2.5c-0.1-0.3-0.4-0.6-0.7-0.6l-2.8-0.4
				c0-0.3,0-0.6,0-0.8v-0.4c0-0.3,0-0.6,0-0.8l2.8-0.4c0.3,0,0.6-0.3,0.7-0.6c0.2-0.9,0.6-1.7,1-2.5c0.2-0.3,0.2-0.7,0-0.9L29,31.4
				c0.2-0.2,0.4-0.4,0.6-0.6l0.2-0.2c0.2-0.2,0.4-0.4,0.7-0.6l2.2,1.7c0.3,0.2,0.6,0.2,0.9,0c0.8-0.5,1.6-0.8,2.4-1
				c0.3-0.1,0.6-0.4,0.6-0.7l0.4-2.8c0.7-0.1,1.3-0.1,2,0l0.4,2.8c0,0.3,0.3,0.6,0.6,0.7c0.9,0.2,1.7,0.5,2.4,1
				c0.3,0.2,0.7,0.2,0.9,0l2.2-1.7c0.5,0.4,1,0.9,1.4,1.4l-1.6,2.2c-0.2,0.3-0.2,0.6,0,0.9c0.5,0.8,0.8,1.6,1,2.4
				c0.1,0.3,0.4,0.6,0.7,0.6l2.8,0.4c0,0.3,0,0.7,0,1C49.8,39.2,49.8,39.7,49.8,39.9z"/>
		</g>
		<path d="M57.6,22.1c-0.6-0.4-1.4-0.6-2.1-0.4c0,0-1.1,0.3-2.7,0.3c-3.5,0-8.6-1.3-12.9-7.5c-0.4-0.6-1.2-1-2-1s-1.5,0.4-2,1
			c-4.2,6.2-9.3,7.5-12.8,7.5c-1.6,0-2.6-0.3-2.6-0.3c-0.7-0.2-1.5-0.1-2.1,0.4c-0.6,0.4-1,1.2-1,1.9v13.3c0,19.2,19.7,25,19.9,25
			s0.4,0.1,0.6,0.1c0.2,0,0.4,0,0.6-0.1s19.9-5.8,19.9-25V24C58.6,23.3,58.2,22.6,57.6,22.1z M56.6,37.3c0,17.7-18.3,23-18.5,23.1
			c-0.1,0-0.2,0-0.2,0c-0.2,0-18.5-5.3-18.5-23.1V24c0-0.1,0.1-0.3,0.2-0.3c0.1-0.1,0.2-0.1,0.3-0.1H20c0.2,0.1,1.5,0.4,3.2,0.4
			c4,0,9.7-1.4,14.5-8.4c0.1-0.2,0.5-0.2,0.7,0c4.8,6.9,10.5,8.4,14.5,8.4c2,0,3.2-0.4,3.2-0.4c0.1,0,0.3,0,0.4,0.1
			c0.1,0.1,0.2,0.2,0.2,0.3L56.6,37.3L56.6,37.3z"/>
	</g>
</g>
</svg>
