<?xml version="1.0" encoding="utf-8"?>
<svg version="1.1" xmlns="http://www.w3.org/2000/svg" xmlns:xlink="http://www.w3.org/1999/xlink" x="0px" y="0px"
	 viewBox="0 0 76 76" style="enable-background:new 0 0 76 76;" xml:space="preserve">
<g id="icon">
	<path d="M57.4,22.2c-0.6-0.4-1.4-0.6-2.1-0.4c0,0-1,0.3-2.6,0.3c-3.5,0-8.5-1.3-12.7-7.4c-0.4-0.6-1.2-1-2-1c-0.8,0-1.5,0.4-2,1
		c-4.2,6.1-9.3,7.4-12.7,7.4c-1.6,0-2.6-0.3-2.6-0.3c-0.7-0.2-1.5,0-2.1,0.4c-0.6,0.5-1,1.2-1,1.9v13.2c0,19,19.6,24.7,19.8,24.8
		c0.2,0.1,0.4,0.1,0.6,0.1s0.4,0,0.6-0.1c0.2-0.1,19.8-5.7,19.8-24.8V24.1C58.4,23.5,58,22.8,57.4,22.2z M56.7,37.3
		c0,17.9-18.4,23.2-18.6,23.3c-0.1,0-0.2,0-0.2,0c-0.2-0.1-18.6-5.4-18.6-23.3V24c0-0.1,0.1-0.3,0.2-0.3c0-0.1,0.1-0.1,0.2-0.1h0.1
		c0.2,0.1,1.5,0.4,3.3,0.4c4,0,9.8-1.5,14.6-8.4c0.1-0.2,0.5-0.2,0.7,0C43.2,22.5,49,24,53,24c2,0,3.2-0.4,3.2-0.4
		c0.1,0,0.3,0,0.4,0.1c0.1,0.1,0.2,0.2,0.2,0.3v13.4H56.7z"/>
	<g>
		<path d="M28.4,34.8c-0.2-0.2-0.4-0.4-0.7-0.5S27.1,34,26.8,34c-0.2,0-0.4,0-0.5,0.1c-0.2,0-0.3,0.1-0.5,0.2
			c-0.1,0.1-0.2,0.2-0.3,0.4c-0.1,0.2-0.1,0.3-0.1,0.5c0,0.3,0.1,0.5,0.3,0.7s0.5,0.3,0.8,0.4c0.3,0.1,0.7,0.2,1,0.3
			c0.3,0.1,0.7,0.3,1,0.5c0.3,0.2,0.6,0.5,0.8,0.8c0.2,0.3,0.3,0.7,0.3,1.3c0,0.5-0.1,0.9-0.3,1.3c-0.2,0.4-0.4,0.7-0.7,0.9
			c-0.3,0.2-0.6,0.4-1,0.5c-0.4,0.1-0.8,0.2-1.2,0.2c-0.6,0-1.1-0.1-1.6-0.3c-0.5-0.2-1-0.5-1.3-0.9l1.1-1.4
			c0.2,0.3,0.4,0.5,0.8,0.7c0.3,0.2,0.6,0.2,1,0.2c0.2,0,0.4,0,0.6-0.1c0.2,0,0.4-0.1,0.5-0.2c0.1-0.1,0.3-0.2,0.4-0.4
			c0.1-0.2,0.1-0.3,0.1-0.5c0-0.3-0.1-0.6-0.3-0.8s-0.5-0.3-0.8-0.4c-0.3-0.1-0.7-0.2-1-0.3c-0.4-0.1-0.7-0.3-1-0.4
			c-0.3-0.1-0.6-0.4-0.8-0.8c-0.2-0.3-0.3-0.7-0.3-1.3c0-0.5,0.1-0.9,0.3-1.2s0.4-0.6,0.7-0.8c0.3-0.2,0.7-0.4,1.1-0.5
			c0.4-0.1,0.8-0.2,1.2-0.2c0.5,0,0.9,0.1,1.4,0.2s0.8,0.4,1.2,0.7L28.4,34.8z"/>
		<path d="M31.2,32.8h1.6v9h-1.6V32.8z"/>
		<path d="M34.8,32.8h5.9v1.4h-4.3v2.2h4.1v1.4h-4.1v2.4h4.5v1.6h-6.1C34.8,41.8,34.8,32.8,34.8,32.8z"/>
		<path d="M42.5,32.8h2.4l2.4,6.2l2.4-6.2h2.4v9h-1.5v-7.4l0,0l-2.7,7.4h-1.1l-2.7-7.4l0,0v7.4h-1.5L42.5,32.8L42.5,32.8z"/>
	</g>
</g>
</svg>
