<?xml version="1.0" encoding="utf-8"?>
<svg version="1.1" xmlns="http://www.w3.org/2000/svg" xmlns:xlink="http://www.w3.org/1999/xlink" x="0px" y="0px"
	 viewBox="0 0 76 76" style="enable-background:new 0 0 76 76;" xml:space="preserve">
<g id="icon">
	<g>
		<path d="M45.2,27.9c0-0.5-0.4-0.9-0.9-0.9H33.4c-0.5,0-0.9,0.4-0.9,0.9s0.4,0.9,0.9,0.9h10.9C44.8,28.8,45.2,28.4,45.2,27.9z"/>
		<path d="M41.6,38.9c0-0.5-0.4-0.9-0.9-0.9h-7.2c-0.5,0-0.9,0.4-0.9,0.9s0.4,0.9,0.9,0.9h7.2C41.2,39.8,41.6,39.4,41.6,38.9z"/>
		<path d="M30.4,23.9c-0.4-0.3-1-0.2-1.3,0.1l-3.3,4.2l-0.8-1c-0.3-0.4-0.9-0.4-1.3-0.1c-0.4,0.3-0.4,0.9-0.1,1.3l1.6,1.8
			c0.2,0.2,0.4,0.3,0.7,0.3l0,0c0.3,0,0.5-0.1,0.7-0.3l4-5C30.9,24.8,30.8,24.2,30.4,23.9z"/>
		<path d="M30.4,34.9c-0.4-0.3-1-0.2-1.3,0.1l-3.3,4.2l-0.8-1c-0.3-0.4-0.9-0.4-1.3-0.1c-0.4,0.3-0.4,0.9-0.1,1.3l1.6,1.8
			c0.2,0.2,0.4,0.3,0.7,0.3l0,0c0.3,0,0.5-0.1,0.7-0.3l4-5C30.9,35.8,30.8,35.2,30.4,34.9z"/>
		<path d="M33.4,49c-0.5,0-0.9,0.4-0.9,0.9s0.4,0.9,0.9,0.9h1.8c0.5,0,0.9-0.4,0.9-0.9S35.7,49,35.2,49H33.4z"/>
		<path d="M24.2,47.2c-0.5,0-0.9,0.4-0.9,0.9v3.7c0,0.5,0.4,0.9,0.9,0.9h3.7c0.5,0,0.9-0.4,0.9-0.9V48c0-0.5-0.4-0.9-0.9-0.9H24.2z
			 M26.9,50.8h-1.8V49h1.8V50.8z"/>
		<path d="M57.8,33.3l-2.5-2.5c-0.4-0.4-0.9-0.4-1.3,0L40.4,44.3c-0.1,0.1-0.2,0.2-2.4,4.4c-0.4,0.6-0.3,1.2,0.1,1.7
			c0.4,0.4,1,0.5,1.6,0.1c4.3-2.2,4.3-2.3,4.5-2.4l13.5-13.6C58.1,34.2,58.1,33.7,57.8,33.3z M41.3,46.5l0.8,0.8
			c-0.5,0.2-1,0.5-1.6,0.8C40.8,47.5,41.1,46.9,41.3,46.5z M43.6,46.2L42.4,45l12.3-12.3l1.2,1.2L43.6,46.2z"/>
		<path d="M49.9,45.3c-0.5,0-0.9,0.4-0.9,0.9v10.9c0,0.5-0.4,0.9-0.9,0.9H20.6c-0.5,0-0.9-0.4-0.9-0.9V18.8c0-0.5,0.4-0.9,0.9-0.9
			H48c0.5,0,0.9,0.4,0.9,0.9v12.8c0,0.5,0.4,0.9,0.9,0.9c0.5,0,0.9-0.4,0.9-0.9V18.8c0-1.5-1.2-2.7-2.7-2.7H20.6
			c-1.5,0-2.7,1.2-2.7,2.7v38.4c0,1.5,1.2,2.7,2.7,2.7H48c1.5,0,2.7-1.2,2.7-2.7V46.2C50.8,45.8,50.4,45.3,49.9,45.3z"/>
	</g>
</g>
</svg>
