<?xml version="1.0" encoding="utf-8"?>
<svg version="1.1" xmlns="http://www.w3.org/2000/svg" xmlns:xlink="http://www.w3.org/1999/xlink" x="0px" y="0px"
	 viewBox="0 0 76 76" style="enable-background:new 0 0 76 76;" xml:space="preserve">
<g id="icon">
	<g>
		<path d="M31,41.4h14.1c0.8,0,1.4-0.6,1.4-1.4v-1.9c0-0.6-0.4-1.1-0.9-1.3c-3.8-1.5-4.7-2.1-4.8-2.3v-0.2c0.4-0.5,0.8-1.2,1-1.9
			c0.3-0.3,0.5-0.7,0.6-1.2s0-0.9-0.3-1.3v-1.5c0-2.4-1.5-3.8-4.1-3.8c-2.5,0-4.1,1.5-4.1,3.8V30c-0.2,0.3-0.3,0.7-0.2,1.2
			c0.1,0.5,0.3,0.9,0.6,1.2c0.2,0.7,0.6,1.4,1,1.9v0.2c-0.2,0.2-1.2,0.9-4.8,2.3C30,37,29.5,37.5,29.5,38v1.9
			C29.5,40.8,30.2,41.4,31,41.4z M31.2,38.3c4.9-1.9,5.5-2.7,5.7-3.3c0-0.1,0-0.2,0-0.3V34c0-0.2-0.1-0.4-0.2-0.6
			c-0.4-0.4-0.7-1-0.9-1.7c-0.1-0.2-0.2-0.4-0.3-0.5c-0.1-0.1-0.1-0.2-0.2-0.3c0-0.1,0-0.2,0.1-0.3c0.1-0.2,0.2-0.3,0.2-0.5v-1.7
			c0-1.4,0.8-2.1,2.4-2.1s2.4,0.7,2.4,2.1v1.7c0,0.2,0.1,0.4,0.2,0.5c0.1,0.1,0.1,0.2,0.1,0.3s-0.1,0.2-0.2,0.3
			c-0.2,0.1-0.3,0.3-0.3,0.5c-0.2,0.7-0.5,1.3-0.9,1.7c-0.2,0.2-0.2,0.4-0.2,0.6v0.8c0,0.1,0,0.2,0,0.3c0.2,0.6,0.8,1.4,5.7,3.3v1.4
			H31.2V38.3z"/>
		<path d="M45.7,46.4H30.3c-0.5,0-0.8,0.4-0.8,0.8c0,0.4,0.4,0.8,0.8,0.8h15.3c0.5,0,0.8-0.4,0.8-0.8C46.4,46.8,46.2,46.4,45.7,46.4
			z"/>
		<path d="M43.9,49.8H32c-0.5,0-0.8,0.4-0.8,0.8c0,0.4,0.4,0.8,0.8,0.8h11.9c0.5,0,0.8-0.4,0.8-0.8C44.8,50.2,44.4,49.8,43.9,49.8z"
			/>
		<path d="M48.9,17.6h-22c-1.4,0-2.5,1.1-2.5,2.5v35.6c0,1.4,1.1,2.5,2.5,2.5h22c1.4,0,2.5-1.1,2.5-2.5V20.1
			C51.6,18.8,50.3,17.6,48.9,17.6z M49.8,55.8c0,0.5-0.4,0.8-0.8,0.8h-22c-0.5,0-0.8-0.4-0.8-0.8V20.1c0-0.5,0.4-0.8,0.8-0.8h22
			c0.5,0,0.8,0.4,0.8,0.8V55.8z"/>
		<path d="M20.1,22.8h1.7c0.5,0,0.8-0.4,0.8-0.8S22.3,21,21.8,21h-1.7c-1.4,0-2.5,1.1-2.5,2.5v28.8c0,1.4,1.1,2.5,2.5,2.5h1.7
			c0.5,0,0.8-0.4,0.8-0.8c0-0.4-0.4-0.8-0.8-0.8h-1.7c-0.5,0-0.8-0.4-0.8-0.8V23.5C19.4,23.1,19.8,22.8,20.1,22.8z"/>
		<path d="M55.8,21H54c-0.5,0-0.8,0.4-0.8,0.8s0.4,0.8,0.8,0.8h1.7c0.5,0,0.8,0.4,0.8,0.8v28.8c0,0.5-0.4,0.8-0.8,0.8H54
			c-0.5,0-0.8,0.4-0.8,0.8c0,0.4,0.4,0.8,0.8,0.8h1.7c1.4,0,2.5-1.1,2.5-2.5V23.5C58.3,22.1,57.2,21,55.8,21z"/>
	</g>
</g>
</svg>
