<?xml version="1.0" encoding="utf-8"?>
<svg version="1.1" xmlns="http://www.w3.org/2000/svg" xmlns:xlink="http://www.w3.org/1999/xlink" x="0px" y="0px"
	 viewBox="0 0 76 76" style="enable-background:new 0 0 76 76;" xml:space="preserve">
<g>
	<g>
		<path d="M57.7,53.5L47,42.8c1.8-2.6,2.8-5.8,2.8-9.2c0-8.9-7.3-16.2-16.2-16.2s-16.2,7.3-16.2,16.2s7.3,16.2,16.2,16.2
			c3.4,0,6.5-1.1,9.2-2.8l10.8,10.8c0.6,0.6,1.3,0.9,2.1,0.9s1.5-0.3,2.1-0.9c0.6-0.6,0.9-1.3,0.9-2.1
			C58.6,54.8,58.3,54.1,57.7,53.5z M19.1,33.6c0-8,6.5-14.5,14.5-14.5s14.5,6.5,14.5,14.5s-6.5,14.5-14.5,14.5S19.1,41.6,19.1,33.6z
			 M56.5,56.5c-0.5,0.5-1.2,0.5-1.7,0L44.1,45.9c0.6-0.5,1.2-1.1,1.7-1.7l10.6,10.6c0.2,0.2,0.4,0.5,0.4,0.9
			C56.8,55.9,56.7,56.3,56.5,56.5z"/>
		<path d="M42.9,39.1v-0.2c0.5-0.5,0.8-1.2,1.1-2c0.3-0.3,0.6-0.8,0.6-1.3c0-0.1,0-0.2,0-0.3c0-0.4-0.1-0.7-0.3-1.1v-1.5
			c0-2.5-1.6-4-4.2-4c-2.6,0-4.2,1.5-4.2,4v1.5c-0.2,0.3-0.3,0.7-0.3,1.1c0,0.1,0,0.2,0,0.3c0.1,0.5,0.3,0.9,0.6,1.3
			c0.3,0.9,0.7,1.7,1.3,2.3c0.3,0.3,0.9,0.4,1.2,0c0.2-0.2,0.3-0.4,0.3-0.6c0-0.2-0.1-0.4-0.3-0.6c-0.4-0.4-0.8-1.1-1-1.8
			c-0.1-0.2-0.2-0.4-0.3-0.5s-0.1-0.2-0.2-0.3c0,0,0,0,0-0.1s0-0.2,0.1-0.3c0.1-0.2,0.2-0.4,0.2-0.6v-1.8c0-1.5,0.8-2.2,2.5-2.2
			s2.5,0.7,2.5,2.2v1.8c0,0.2,0.1,0.4,0.2,0.6c0.1,0.1,0.1,0.2,0.1,0.3c0,0,0,0,0,0.1s-0.1,0.2-0.2,0.3c-0.2,0.1-0.3,0.3-0.3,0.5
			c-0.2,0.7-0.5,1.3-1,1.8c-0.2,0.2-0.3,0.4-0.3,0.6v0.8c0,0.1,0,0.2,0,0.3c0.1,0.4,0.5,0.8,1.1,1.3c0.2,0.1,0.3,0.2,0.5,0.2
			c0.3,0,0.6-0.1,0.7-0.4c0.1-0.2,0.2-0.3,0.2-0.5c0-0.3-0.1-0.5-0.4-0.7C43.1,39.3,43,39.1,42.9,39.1z"/>
		<path d="M39,40.5c-5.3-2.1-6.3-3-6.6-3.2v-0.5c0.6-0.7,1.1-1.6,1.4-2.7c0.4-0.4,0.7-0.9,0.8-1.5c0.1-0.6,0-1.2-0.3-1.7v-2
			c0-3.1-1.9-4.9-5.2-4.9S24,25.8,24,28.9v2c-0.3,0.5-0.4,1.1-0.3,1.7s0.4,1.1,0.8,1.5c0.3,1,0.8,1.9,1.4,2.7v0.5
			c-0.2,0.2-0.8,0.7-2.2,1.5C23.1,39,23,39.6,23.2,40s0.8,0.6,1.2,0.4c2.8-1.5,3-2.3,3.1-2.6c0-0.1,0-0.2,0-0.3v-1
			c0-0.2-0.1-0.4-0.2-0.6c-0.6-0.6-1-1.5-1.3-2.4c-0.1-0.2-0.2-0.4-0.3-0.5c-0.2-0.1-0.3-0.3-0.3-0.5s0-0.5,0.2-0.6
			c0.1-0.2,0.2-0.3,0.2-0.5v-2.3c0-2.1,1.2-3.2,3.4-3.2c2.3,0,3.4,1,3.4,3.2v2.3c0,0.2,0.1,0.4,0.2,0.5c0.1,0.2,0.2,0.4,0.2,0.6
			s-0.1,0.4-0.3,0.5s-0.3,0.3-0.3,0.5c-0.3,1-0.7,1.8-1.3,2.4c-0.2,0.2-0.2,0.4-0.2,0.6v1c0,0.1,0,0.2,0,0.3c0.2,0.8,1,1.8,7.5,4.3
			v1c0,0.5,0.4,0.9,0.9,0.9s0.7-0.5,0.7-1v-1C40,41.4,39.6,40.8,39,40.5z"/>
	</g>
</g>
</svg>
