<?xml version="1.0" encoding="utf-8"?>
<svg version="1.1" xmlns="http://www.w3.org/2000/svg" xmlns:xlink="http://www.w3.org/1999/xlink" x="0px" y="0px"
	 viewBox="0 0 76 76" style="enable-background:new 0 0 76 76;" xml:space="preserve">
<g>
	<g>
		<path d="M41.8,41.9c-0.7-0.5-0.9-0.8-1-0.9v-1.2c1-1.2,1.8-2.7,2.3-4.4c0.6-0.5,1.1-1.3,1.2-2.2c0.1-0.9-0.1-1.7-0.6-2.5v-3.5
			c0-4.6-2.8-7.3-7.7-7.3c-4.8,0-7.7,2.7-7.7,7.3v3.5c-0.5,0.7-0.7,1.6-0.6,2.5s0.5,1.6,1.2,2.2c0.5,1.7,1.3,3.2,2.3,4.4V41
			c-0.3,0.5-1.8,2-10.9,5.6c-0.8,0.3-1.2,1-1.2,1.9v1.8c0,0.4,0.4,0.8,0.8,0.8s0.8-0.4,0.8-0.8v-1.8c0-0.2,0.1-0.3,0.2-0.4
			c9.9-3.9,11.6-5.6,11.9-6.7c0-0.1,0-0.2,0-0.2v-1.7c0-0.2-0.1-0.4-0.2-0.6c-1-1-1.8-2.5-2.2-4.2c0-0.2-0.2-0.3-0.3-0.4
			c-0.4-0.3-0.7-0.8-0.8-1.3c-0.1-0.5,0.1-1.1,0.4-1.5c0.1-0.1,0.2-0.3,0.2-0.5v-3.7c0-3.7,2.2-5.7,6.1-5.7c4,0,6.1,2,6.1,5.7V31
			c0,0.2,0.1,0.4,0.2,0.5c0.3,0.4,0.5,1,0.4,1.5s-0.3,1-0.8,1.3c-0.1,0.1-0.3,0.3-0.3,0.4c-0.5,1.7-1.2,3.2-2.2,4.2
			c-0.1,0.1-0.2,0.3-0.2,0.6v1.7c0,0.1,0,0.2,0,0.2c0.2,0.6,0.7,1.2,1.7,1.8c0.4,0.3,0.9,0.2,1.1-0.2C42.2,42.6,42.2,42.1,41.8,41.9
			z"/>
		<path d="M55.3,42.8c-1.5-1.5-3.4-2.3-5.5-2.3s-4,0.8-5.5,2.3c-3,3-3,7.9,0,10.9c1.5,1.5,3.4,2.3,5.5,2.3s4-0.8,5.5-2.3
			C58.3,50.8,58.3,45.9,55.3,42.8z M54.2,52.6c-2.3,2.3-6.3,2.3-8.6,0c-2.4-2.4-2.4-6.3,0-8.6c1.2-1.2,2.7-1.8,4.3-1.8
			s3.2,0.6,4.3,1.8C56.5,46.4,56.5,50.2,54.2,52.6z"/>
		<path d="M52.5,45.8l-3.8,4.1l-1.5-1.6c-0.3-0.3-0.8-0.3-1.1,0s-0.3,0.8,0,1.1l2.1,2.2l0,0l0,0c0,0,0.1,0.1,0.2,0.1
			c0,0,0.1,0,0.1,0.1c0.1,0,0.2,0.1,0.3,0.1s0.2,0,0.3-0.1c0,0,0.1,0,0.1-0.1c0.1,0,0.1-0.1,0.2-0.1l0,0l0,0l4.4-4.7
			c0.3-0.3,0.3-0.8,0-1.1C53.3,45.5,52.8,45.5,52.5,45.8z"/>
	</g>
</g>
</svg>
