<?xml version="1.0" encoding="utf-8"?>
<svg version="1.1" xmlns="http://www.w3.org/2000/svg" xmlns:xlink="http://www.w3.org/1999/xlink" x="0px" y="0px"
	 viewBox="0 0 76 76" style="enable-background:new 0 0 76 76;" xml:space="preserve">
<g id="icon">
	<g>
		<path d="M48,47.4c-9.4-3.6-11.1-5.2-11.4-5.7v-1.1c1.1-1.2,1.9-2.7,2.4-4.5c0.8-0.7,1.3-1.8,1.3-2.9c0-0.8-0.2-1.5-0.6-2.1v-3.4
			c0-4.9-3-7.7-8.3-7.7c-5.2,0-8.3,2.9-8.3,7.7v3.5c-0.4,0.6-0.6,1.3-0.6,2.1c0,1.1,0.5,2.2,1.3,2.9c0.5,1.8,1.4,3.3,2.4,4.5v1.1
			c-0.3,0.5-2,2-11.4,5.7c-0.8,0.2-1.4,1.1-1.4,2v4.3c0,1.2,1,2.2,2.2,2.2h31.6c1.2,0,2.2-1,2.2-2.2v-4.3
			C49.5,48.6,48.9,47.7,48,47.4z M47.5,53.8c0,0.1-0.1,0.2-0.2,0.2H15.7c-0.1,0-0.2-0.1-0.2-0.2v-4.3c0-0.1,0.1-0.2,0.1-0.2
			c10.5-4,12.3-5.8,12.7-7c0-0.1,0-0.2,0-0.3v-1.7c0-0.3-0.1-0.5-0.3-0.7c-1-1.1-1.8-2.5-2.3-4.2c-0.1-0.2-0.2-0.4-0.4-0.5
			c-0.5-0.3-0.7-0.9-0.7-1.5c0-0.5,0.2-0.9,0.4-1.1c0.1-0.2,0.2-0.4,0.2-0.6v-4c0-3.7,2.2-5.7,6.3-5.7c4.2,0,6.3,1.9,6.3,5.7v3.8
			c0,0.2,0.1,0.5,0.2,0.6c0.2,0.2,0.4,0.6,0.4,1.1c0,0.6-0.3,1.1-0.7,1.5c-0.2,0.1-0.3,0.3-0.4,0.5c-0.5,1.7-1.3,3.2-2.3,4.2
			c-0.2,0.2-0.3,0.4-0.3,0.7V42c0,0.1,0,0.2,0,0.3c0.4,1.3,2.2,3,12.7,7c0.1,0,0.1,0.1,0.1,0.2V53.8L47.5,53.8z"/>
		<path d="M61.4,49c-6.9-2.7-8.3-3.8-8.6-4.2v-0.7c0.8-0.9,1.4-2.1,1.8-3.4c0.6-0.6,1-1.4,1-2.3c0-0.6-0.2-1.2-0.5-1.7v-2.6
			c0-3.9-2.4-6.1-6.6-6.1c-4.1,0-6.6,2.3-6.6,6.1v2.6c-0.3,0.5-0.5,1.1-0.5,1.7c0,0.9,0.4,1.7,1,2.3c0.5,1.5,1.2,2.8,2.1,3.7
			c0.4,0.4,1,0.4,1.4,0c0.4-0.4,0.4-1,0-1.4c-0.8-0.8-1.4-1.9-1.7-3.2c-0.1-0.2-0.2-0.4-0.4-0.5c-0.3-0.2-0.5-0.6-0.5-0.9
			c0-0.3,0.1-0.6,0.3-0.7c0.1-0.2,0.2-0.4,0.2-0.6v-2.9c0-2.7,1.6-4.1,4.6-4.1s4.6,1.4,4.6,4.1V37c0,0.2,0.1,0.5,0.2,0.6
			c0.1,0.1,0.3,0.4,0.3,0.7c0,0.4-0.2,0.7-0.5,0.9c-0.2,0.1-0.3,0.3-0.4,0.5c-0.4,1.3-1,2.4-1.7,3.2c-0.2,0.2-0.3,0.4-0.3,0.7V45
			c0,0.1,0,0.2,0,0.3c0.3,0.9,1.3,2.2,9.8,5.5l0.1,3.2H52c-0.6,0-1,0.4-1,1s0.4,1,1,1h8.4c1.1,0,1.9-0.9,1.9-1.9v-3.3
			C62.5,50,62,49.2,61.4,49z"/>
	</g>
</g>
</svg>
