<?xml version="1.0" encoding="utf-8"?>
<svg version="1.1" xmlns="http://www.w3.org/2000/svg" xmlns:xlink="http://www.w3.org/1999/xlink" x="0px" y="0px"
	 viewBox="0 0 76 76" style="enable-background:new 0 0 76 76;" xml:space="preserve">
<g>
	<g>
		<path id="path5" d="M36.5,22.8c6.5-1,13-1.9,19.5-2.8c0,5.7,0,11.4,0,17.1c-6.5,0-13,0.1-19.5,0.1C36.5,32.4,36.5,27.6,36.5,22.8
			L36.5,22.8z"/>
		<path id="path7" d="M20,25.1c4.9-0.8,9.8-1.4,14.7-2c0,4.7,0,9.5,0,14.2c-4.9,0-9.8,0.1-14.7,0.1V25.1L20,25.1z"/>
		<path id="path29" d="M20,38.8c4.9,0,9.8,0.1,14.7,0.1c0,4.8,0,9.5,0,14.3c-4.9-0.7-9.8-1.4-14.7-2V38.8z"/>
		<path id="path31" d="M36.5,39c6.5,0,13.1,0,19.6,0c0,5.7,0,11.4,0,17.1c-6.5-1-13-1.9-19.5-2.8C36.5,48.5,36.5,43.8,36.5,39z"/>
	</g>
</g>
</svg>
