<?xml version="1.0" encoding="utf-8"?>
<svg version="1.1" xmlns="http://www.w3.org/2000/svg" xmlns:xlink="http://www.w3.org/1999/xlink" x="0px" y="0px"
	 viewBox="0 0 76 76" style="enable-background:new 0 0 76 76;" xml:space="preserve">
<g id="icon">
	<g>
		<path d="M20.3,38c0,7,4.1,13,10,15.9l-8.4-23.1C20.9,33,20.3,35.4,20.3,38z"/>
		<path d="M49.9,37.1c0-2.2-0.8-3.7-1.5-4.9c-0.9-1.5-1.7-2.7-1.7-4.1c0-1.6,1.2-3.1,3-3.1c0.1,0,0.2,0,0.2,0
			c-3.1-2.9-7.3-4.6-11.9-4.6c-6.2,0-11.6,3.2-14.8,8c0.4,0,0.8,0,1.1,0c1.8,0,4.7-0.2,4.7-0.2c1-0.1,1.1,1.3,0.1,1.5
			c0,0-1,0.1-2,0.2l6.4,19.1l3.9-11.6l-2.8-7.5c-1-0.1-1.9-0.2-1.9-0.2c-1-0.1-0.8-1.5,0.1-1.5c0,0,2.9,0.2,4.7,0.2
			c1.8,0,4.7-0.2,4.7-0.2c1-0.1,1.1,1.3,0.1,1.5c0,0-1,0.1-2,0.2l6.4,19l1.8-5.9C49.3,40.4,49.9,38.6,49.9,37.1z"/>
		<path d="M38.3,39.5L33,54.9c1.6,0.5,3.3,0.7,5,0.7c2.1,0,4-0.4,5.9-1c0-0.1-0.1-0.2-0.1-0.2L38.3,39.5z"/>
		<path d="M53.5,29.5c0.1,0.6,0.1,1.2,0.1,1.8c0,1.8-0.3,3.8-1.3,6.3l-5.4,15.6c5.2-3.1,8.8-8.7,8.8-15.3
			C55.7,34.9,54.9,32,53.5,29.5z"/>
		<path d="M38,17.4c-11.4,0-20.6,9.2-20.6,20.6S26.7,58.6,38,58.6S58.6,49.3,58.6,38C58.6,26.6,49.3,17.4,38,17.4z M38,57.6
			c-10.8,0-19.6-8.8-19.6-19.6c0-10.8,8.8-19.6,19.6-19.6c10.8,0,19.6,8.8,19.6,19.6C57.6,48.8,48.8,57.6,38,57.6z"/>
	</g>
</g>
</svg>
