<?xml version="1.0" encoding="utf-8"?>
<svg version="1.1" xmlns="http://www.w3.org/2000/svg" xmlns:xlink="http://www.w3.org/1999/xlink" x="0px" y="0px"
	 viewBox="0 0 76 76" style="enable-background:new 0 0 76 76;" xml:space="preserve">
<g>
	<path d="M53.6,23.3L53.6,23.3L53.6,23.3L53.6,23.3c0-0.2,0-0.4-0.1-0.5l0,0c-0.1-0.1-0.1-0.2-0.2-0.3l0,0l0,0
		c-0.1-0.1-0.2-0.1-0.3-0.1h-0.1l0,0c-3.1-0.3-5.1-1.2-6-2.5c-0.8-1.2-0.4-2.4-0.4-2.5c0.1-0.3,0-0.7-0.2-0.9
		c-0.2-0.2-0.6-0.3-0.9-0.2L23,22.8l0,0c0,0,0,0-0.1,0l-0.1,0.1L22.7,23l0,0c0,0,0,0.1-0.1,0.1l-0.1,0.1l0,0v0.1c0,0.1,0,0.1,0,0.2
		l0,0l0,0l0,0l0,0v29c0,0.1,0.1,6.4,8.2,7.1l0,0l0,0l0,0h0.1c0.2,0,0.3,0,0.4-0.1L53,53.8c0.4-0.1,0.7-0.5,0.7-0.9L53.6,23.3
		C53.6,23.4,53.6,23.4,53.6,23.3z M30.6,28.3c-1.4-0.1-2.4-0.4-3.3-0.8l19-5.5c0.7,0.6,1.5,1,2.5,1.4L30.6,28.3z M45,20.4l-19.6,5.7
		c-0.6-0.7-0.9-1.4-1.1-1.9l20.1-6C44.5,19,44.6,19.7,45,20.4z M24.2,52.7V27.6c0.1,0.1,0.2,0.2,0.3,0.3c0,0,0,0,0.1,0.1
		c1.1,0.9,2.7,1.7,5.1,2.1v27.8C24.4,56.9,24.2,52.9,24.2,52.7z M51.8,52.2l-20.3,5.5V30l20.3-5.5V52.2z"/>
</g>
</svg>
