<?xml version="1.0" encoding="utf-8"?>
<svg version="1.1" xmlns="http://www.w3.org/2000/svg" xmlns:xlink="http://www.w3.org/1999/xlink" x="0px" y="0px"
	 viewBox="0 0 76 76" style="enable-background:new 0 0 76 76;" xml:space="preserve">
<g id="icon">
	<g>
		<path d="M51.7,29.6v-0.1c0-0.2,0.1-0.4,0.1-0.7c0-0.8-0.7-1.9-1.1-2.3c-0.1-0.1-0.4-0.4-0.5-0.5c-0.1-0.8-0.6-1.7-1.8-1.7v-0.1
			c0-0.2-0.1-0.5-0.4-0.7c0,0-0.1-0.1-0.1-0.2c-0.3-0.4-0.7-0.9-1.5-0.9c-0.1,0-0.2,0-0.3,0c-0.2-0.3-0.5-0.7-1-0.8
			c-0.1,0-0.2-0.1-0.2-0.1c-0.4-0.2-1.1-0.4-1.8-0.2c-0.1-0.2-0.2-0.4-0.4-0.6c-0.6-0.6-1.8-0.6-2.5,0c-0.1,0-0.2-0.1-0.3-0.2
			c-0.2-0.3-0.7-0.5-1.2-0.5c-0.2,0-1.1,0-1.5,0.5c-0.2,0.1-0.8,0.3-1.3,0.3c-0.3,0-1.6,0.2-2.1,0.7c-0.1,0.1-0.2,0.2-0.2,0.4
			c-0.3,0.3-1.2,0.9-1.9,1.1s-1.6,0.9-1.5,2.4c0,0,0,0.4-0.9,1.3c-0.6,0.7-0.6,1.2-0.5,1.6c0,0.1,0,0.2,0,0.3
			c-0.1,0.4-0.1,0.6-0.1,0.8c0,0.2,0,0.3-0.1,0.7c-0.3,1.1,0.5,2.6,0.7,2.9l0.2,0.3l0.3,0.1c0.2,0.1,0.5,0.3,0.6,0.4
			c0,0.8,0.6,1.3,1.4,1.3c0.3,0,0.5-0.1,0.7-0.1c0.1,0,0.2,0,0.2,0c0.2,0,0.7,0.1,1.4,0.8c0.4,0.4,0.8,0.7,1.4,0.7
			c0.5,0,0.8-0.2,1.1-0.4c0.1-0.1,0.2-0.1,0.3-0.2c0,0,0,0,0.1,0c0.1,0,0.1,0.1,0.2,0.2l0.2,0.2c0.8,0.8,2.2,0.7,2.8,0
			c0.1,0,0.3-0.1,1.1-0.1v0.1c-0.2,0.5-0.1,0.9,0.1,1.2c0.1,0.2,0.4,0.5,1,0.5c0.2,0,0.4,0,0.6-0.1c0.1,0.2,0.2,0.4,0.4,0.6
			c0.4,0.7,1,1,1.3,1.2c0.2,0.1,0.4,0.2,0.5,0.3c0.3,0.3,0.7,0.4,0.9,0.4l0,0c0.8,0,1.2-0.7,1.6-1.3c0.1-0.2,0.3-0.4,0.4-0.6
			c0.4-0.4,0.9-0.6,1.7-0.7c0.5,0,0.9-0.2,1.2-0.5c0.4-0.5,0.3-1,0.2-1.3c0-0.1,0-0.1,0-0.2c0-0.5,0-0.7,0.1-0.9
			c0.3-0.4,1.2-1.4,0.5-2.3c0-0.1,0.1-0.1,0.2-0.2C52.6,31.6,52.4,30.3,51.7,29.6z M50.1,33.4c-0.1,0.1-0.2,0.2-0.2,0.3
			c-0.6,0.7-0.6,1.5-0.6,2.1c0,0.1,0,0.2,0,0.2c-1.1,0.1-2,0.5-2.7,1.3c-0.2,0.2-0.4,0.5-0.5,0.7c-0.1,0.1-0.1,0.2-0.2,0.3
			c-0.2-0.1-0.3-0.2-0.4-0.3c-0.3-0.2-0.5-0.3-0.7-0.6c-0.1-0.2-0.2-0.4-0.3-0.6c-0.2-0.4-0.5-0.9-1.2-1c0.1-0.4,0.1-0.7-0.1-1.1
			c-0.2-0.2-0.5-0.5-1.2-0.5l0,0h-0.3h-0.3c-0.9,0-1.9,0.1-2.4,0.7c-0.1,0.1-0.2,0.1-0.3,0l-0.2-0.2c-0.3-0.3-0.7-0.7-1.4-0.7
			c-0.3,0-0.7,0.1-1,0.3c-0.2,0.1-0.3,0.2-0.5,0.3l0,0l-0.1-0.1c-0.8-0.8-1.8-1.3-2.7-1.3l0,0c-0.1,0-0.3,0-0.5,0.1h-0.1
			c-0.2-0.8-0.9-1.2-1.4-1.4c-0.2-0.5-0.4-1-0.3-1.2c0.2-0.5,0.2-0.8,0.2-1.1c0-0.1,0-0.3,0-0.5c0.1-0.4,0-0.7,0-0.9v-0.1
			c0,0,0-0.1,0.1-0.2c1-1.1,1.4-1.9,1.4-2.6c0-0.5,0.1-0.6,0.3-0.7c0,0,2.2-0.9,2.9-1.9c0.2-0.1,0.6-0.2,0.8-0.2
			c0,0,1.7-0.1,2.4-0.8c0.1,0,0.3,0,0.4,0c0.4,0.3,1,0.7,1.6,0.7c0.4,0,0.8-0.2,1.1-0.4c0.1,0.4,0.4,1.2,1.3,1.2
			c0.2,0,0.5-0.1,0.7-0.2c0,0,0.1,0,0.1,0c0.1,0,0.3,0.1,0.5,0.1c0.1,0,0.2,0.1,0.3,0.1c0,0,0.1,0.1,0.1,0.2
			c0.2,0.3,0.6,0.8,1.3,0.8c0.1,0,0.2,0,0.4-0.1c0,0.1,0.1,0.1,0.1,0.2c0.1,0.1,0.2,0.3,0.3,0.3c0,0,0,0.1,0.1,0.1
			c0.1,0.3,0.5,1.2,1.7,1.1V26c0,0.7,0.6,1.2,1,1.6c0.2,0.2,0.5,0.9,0.6,1.1v0.2c-0.1,0.4-0.3,1.1,0.4,1.8c0.1,0.1,0.2,0.3,0.2,0.3
			l0,0C49.7,32.2,49.8,32.9,50.1,33.4z"/>
		<path d="M56.1,26.9C54.9,18,42.8,16,40.7,16H40c-14.7,0-16.6,10.1-16.9,13.1c-0.2,2.1-1.2,6.1-2.6,7.6c-0.5,0.5-1.6,1.6-1,3
			C20,41,21.4,41,22.2,41c0,0.2-0.1,0.4-0.1,0.5c-0.1,0.3-0.2,0.6-0.2,1.1c0,0.6,0.3,1.2,0.7,1.5c-0.3,0.8-0.1,1.5,0.6,2.2
			c0,0.1,0.1,0.4,0.1,1.4c0,3,2.9,4.4,5.2,4h0.2c0.5-0.1,1-0.2,1.4-0.2c0.6,0,0.8,0.1,0.9,0.3c0.3,0.4,0.5,0.7,0.8,0.9
			c0.7,0.8,1.2,1.3,1.2,3.4c0,1.8,0.2,2.6,0.3,2.9l0.1,0.3c0.1,0.4,0.5,0.6,0.8,0.6c0.1,0,0.2,0,0.3,0l15.1-4.5
			c0.4-0.1,0.7-0.5,0.6-1c-0.4-2.9,0-7.8,2.2-11.9c0.6-1.1,1.1-2,1.6-2.8C56.7,35.2,57.2,34.3,56.1,26.9z M52.5,38.9
			c-0.5,0.8-1,1.7-1.6,2.8c-2.3,4.1-2.8,8.9-2.5,12.2l-13.6,4c-0.1-0.4-0.1-0.9-0.1-1.7c0-2.6-0.6-3.5-1.6-4.6
			c-0.2-0.2-0.4-0.5-0.7-0.8c-0.7-0.9-1.7-1-2.3-1s-1.2,0.1-1.7,0.2h-0.2c-1.4,0.2-3.1-0.5-3.1-2.2s-0.1-2.1-0.6-2.7
			c-0.1-0.1-0.2-0.2,0-0.6c0.1-0.1,0.1-0.2,0.2-0.2c0.1-0.2,0.2-0.5,0.1-0.8c-0.1-0.3-0.3-0.5-0.6-0.5c-0.4-0.1-0.4-0.2-0.4-0.3
			c0-0.2,0-0.4,0.1-0.6c0.1-0.3,0.2-0.8,0.3-1.8c0-0.5-0.3-0.9-0.7-1c-0.3-0.1-0.8-0.1-1.1-0.1c-0.6,0-1.1,0-1.2-0.2
			c-0.1-0.2,0.1-0.5,0.7-1c2.4-2.4,3.1-8.6,3.1-8.6c0.8-10.8,11.7-11.6,15-11.6h0.6c1.6,0,12.6,1.8,13.7,9.4
			C55.4,34,55,34.5,52.5,38.9z"/>
	</g>
</g>
</svg>
