<?xml version="1.0" encoding="utf-8"?>
<svg version="1.1" xmlns="http://www.w3.org/2000/svg" xmlns:xlink="http://www.w3.org/1999/xlink" x="0px" y="0px"
	 viewBox="0 0 76 76" style="enable-background:new 0 0 76 76;" xml:space="preserve">
<g id="icon">
	<g>
		<path d="M52.5,19H23.6C21,19,19,21,19,23.6v29c0,2.5,2,4.6,4.6,4.6h28.9c2.5,0,4.6-2,4.6-4.6v-29C57,21,55,19,52.5,19z M55.5,52.5
			c0,1.7-1.3,3-3,3H23.6c-1.7,0-3-1.3-3-3v-29c0-1.7,1.3-3,3-3h28.9c1.7,0,3,1.3,3,3V52.5z"/>
		<path d="M29.6,26.6v-1.2c0-0.4-0.3-0.8-0.8-0.8s-0.7,0.4-0.7,0.8v1.2c-1.9,0.4-3.3,2-3.3,4s1.4,3.6,3.3,4v16.3
			c0,0.4,0.3,0.8,0.8,0.8s0.8-0.3,0.8-0.8V34.5c1.9-0.4,3.3-2,3.3-4S31.5,26.9,29.6,26.6z M28.9,33c-1.4,0-2.5-1.1-2.5-2.5
			s1.1-2.5,2.5-2.5s2.5,1.1,2.5,2.5C31.3,31.9,30.2,33,28.9,33z"/>
		<path d="M38.9,40.5V25.4c0-0.4-0.3-0.8-0.8-0.8s-0.7,0.4-0.7,0.8v15.1c-1.9,0.4-3.3,2-3.3,4s1.4,3.6,3.3,4V51
			c0,0.4,0.3,0.8,0.8,0.8S39,51.5,39,51v-2.5c1.9-0.4,3.3-2,3.3-4S40.8,40.8,38.9,40.5z M38.2,46.8c-1.4,0-2.5-1.1-2.5-2.5
			c0-1.4,1.1-2.5,2.5-2.5s2.5,1.1,2.5,2.5C40.7,45.8,39.5,46.8,38.2,46.8z"/>
		<path d="M48.2,30.5v-5.1c0-0.4-0.3-0.8-0.8-0.8s-0.7,0.4-0.7,0.8v5.2c-1.9,0.4-3.3,2-3.3,4s1.4,3.6,3.3,4V51
			c0,0.4,0.3,0.8,0.8,0.8s0.8-0.3,0.8-0.8V38.5c1.9-0.4,3.3-2,3.3-4S50.1,30.9,48.2,30.5z M48.2,36.8C48,37,47.7,37,47.5,37l0,0
			c-0.3,0-0.5-0.1-0.8-0.1c-1-0.3-1.7-1.3-1.7-2.4s0.7-2,1.7-2.4c0.2-0.1,0.5-0.1,0.8-0.1l0,0c0.3,0,0.5,0.1,0.8,0.1
			c1,0.3,1.7,1.3,1.7,2.4S49.2,36.5,48.2,36.8z"/>
	</g>
</g>
</svg>
