<?xml version="1.0" encoding="utf-8"?>
<svg version="1.1" xmlns="http://www.w3.org/2000/svg" xmlns:xlink="http://www.w3.org/1999/xlink" x="0px" y="0px"
	 viewBox="0 0 76 76" style="enable-background:new 0 0 76 76;" xml:space="preserve">
<g>
	<path d="M48.5,48c0-0.1-0.1-0.2-0.2-0.3l-5.2-5.2c-0.3-0.3-0.9-0.3-1.2,0s-0.3,0.9,0,1.2l3.8,3.8h-8.4c0,0-3,0-4.7-1.7
		c-0.7-0.7-1.1-1.7-1.1-2.8c0-1.3-0.4-2.4-1.3-3.3c-0.7-0.7-1.7-1.2-2.6-1.6c1-0.4,1.9-0.9,2.6-1.6c0.9-0.9,1.3-2,1.3-3.3
		c0-1.2,0.3-2.1,1-2.8c1.6-1.7,4.7-1.7,4.7-1.7h23l-3.8,3.8c-0.3,0.3-0.3,0.9,0,1.2c0.2,0.2,0.4,0.3,0.6,0.3c0.2,0,0.4-0.1,0.6-0.3
		l5.2-5.2c0.1-0.1,0.1-0.2,0.2-0.3c0.1-0.2,0.1-0.4,0-0.7c0-0.1-0.1-0.2-0.2-0.3L57.6,22c-0.3-0.3-0.9-0.3-1.2,0s-0.3,0.9,0,1.2
		l3.8,3.8h-23c-0.2,0-3.8,0-5.9,2.2c-1,1.1-1.6,2.4-1.5,4.1c0,0.8-0.3,1.5-0.8,2.1c-1.9,1.9-6.2,1.9-6.3,1.9h-9
		c-0.5,0-0.9,0.4-0.9,0.9l0,0l0,0c0,0.5,0.4,0.9,0.9,0.9h9c0,0,4.4,0,6.3,1.9c0.6,0.6,0.8,1.3,0.8,2.1c0,1.6,0.5,3,1.5,4.1
		c2.2,2.2,5.8,2.2,5.9,2.2h8.4l-3.8,3.8c-0.3,0.3-0.3,0.9,0,1.2c0.2,0.2,0.4,0.3,0.6,0.3c0.2,0,0.4-0.1,0.6-0.3l5.2-5.2
		c0.1-0.1,0.1-0.2,0.2-0.3C48.6,48.4,48.6,48.2,48.5,48z"/>
</g>
</svg>
