<?xml version="1.0" encoding="utf-8"?>
<svg version="1.1" xmlns="http://www.w3.org/2000/svg" xmlns:xlink="http://www.w3.org/1999/xlink" x="0px" y="0px"
	 viewBox="0 0 76 76" style="enable-background:new 0 0 76 76;" xml:space="preserve">
<g id="icon">
	<g>
		<path d="M49.8,44.7c-6.7-2.6-7.9-3.7-8.1-4v-0.8c0.8-0.8,1.3-1.9,1.7-3.2c0.6-0.5,0.9-1.2,0.9-2c0-0.5-0.2-1-0.4-1.5v-2.5
			c-0.1-3.5-2.2-5.5-5.9-5.5c-3.7,0-5.9,2-5.9,5.5v2.5c-0.3,0.4-0.4,1-0.4,1.5c0,0.8,0.3,1.5,0.9,2c0.4,1.2,1,2.3,1.7,3.2v0.8
			c-0.2,0.3-1.4,1.4-8.1,4c-0.6,0.2-1,0.8-1,1.5v3c0,0.9,0.7,1.6,1.6,1.6h22.4c0.9,0,1.6-0.7,1.6-1.6v-3
			C50.8,45.5,50.4,44.9,49.8,44.7z M49.3,49.2c0,0.1-0.1,0.2-0.1,0.2H26.8c-0.1,0-0.1-0.1-0.1-0.2v-3c0-0.1,0-0.1,0.1-0.1
			c7.4-2.9,8.7-4.1,9-5c0-0.1,0-0.1,0-0.2v-1.2c0-0.2-0.1-0.4-0.2-0.5c-0.7-0.8-1.3-1.8-1.6-3c0-0.2-0.1-0.3-0.3-0.4
			c-0.3-0.2-0.5-0.6-0.5-1c0-0.4,0.2-0.6,0.3-0.8c0.1-0.1,0.2-0.3,0.2-0.4v-2.9c0-2.6,1.5-4,4.4-4c3,0,4.4,1.4,4.4,4v2.7
			c0,0.2,0.1,0.3,0.2,0.4c0,0.2,0.2,0.5,0.2,0.8c0,0.4-0.2,0.8-0.5,1c-0.1,0.1-0.2,0.2-0.3,0.4c-0.3,1.2-0.9,2.3-1.6,3
			c-0.1,0.1-0.2,0.3-0.2,0.5v1.2c0,0.1,0,0.1,0,0.2c0.3,0.9,1.6,2.1,9,5c0.1,0,0.1,0.1,0.1,0.1L49.3,49.2L49.3,49.2z"/>
		<path d="M59.2,45.8c-4.9-1.9-5.9-2.7-6.1-3v-0.5c0.6-0.6,1-1.5,1.3-2.4c0.5-0.4,0.7-1,0.7-1.7c0-0.4-0.1-0.8-0.3-1.2v-1.8
			c0-2.8-1.7-4.3-4.7-4.3c-2.9,0-4.7,1.6-4.7,4.3v1.9c-0.2,0.4-0.3,0.8-0.3,1.2c0,0.6,0.3,1.2,0.7,1.7c0.3,1,0.8,2,1.5,2.6
			c0.3,0.3,0.7,0.3,1,0c0.3-0.3,0.3-0.7,0-1c-0.5-0.6-1-1.3-1.2-2.2c0-0.2-0.1-0.3-0.3-0.4c-0.2-0.1-0.3-0.4-0.3-0.7
			c0-0.2,0.1-0.4,0.2-0.5c0.1-0.1,0.2-0.3,0.2-0.4v-2.2c0-1.9,1.1-2.9,3.2-2.9c2.2,0,3.2,1,3.2,2.9v2.1c0,0.2,0.1,0.3,0.2,0.4
			c0.1,0.1,0.2,0.3,0.2,0.5c0,0.3-0.1,0.5-0.3,0.7c-0.1,0.1-0.2,0.2-0.3,0.4c-0.3,0.9-0.7,1.7-1.2,2.2c-0.1,0.1-0.2,0.3-0.2,0.5v0.9
			c0,0.1,0,0.1,0,0.2c0.2,0.7,0.9,1.6,7,3.9l0.1,2.3h-5.9c-0.4,0-0.7,0.3-0.7,0.7s0.3,0.7,0.7,0.7h5.9c0.8,0,1.4-0.6,1.4-1.4V47
			C60.1,46.5,59.7,46,59.2,45.8z"/>
		<path d="M16.8,45.8c4.9-1.9,5.9-2.7,6.1-3v-0.5c-0.6-0.6-1-1.5-1.3-2.4c-0.5-0.4-0.7-1-0.7-1.7c0-0.4,0.1-0.8,0.3-1.2v-1.8
			c0-2.8,1.7-4.4,4.7-4.4c2.9,0,4.7,1.6,4.7,4.3V37c0.2,0.4,0.3,0.8,0.3,1.2c0,0.6-0.3,1.2-0.7,1.7c-0.3,1-0.8,2-1.5,2.6
			c-0.3,0.3-0.7,0.3-1,0c-0.3-0.3-0.3-0.7,0-1c0.5-0.6,1-1.3,1.2-2.2c0-0.2,0.1-0.3,0.3-0.4c0.2-0.1,0.3-0.4,0.3-0.7
			c0-0.2-0.1-0.4-0.2-0.5c-0.1-0.1-0.2-0.3-0.2-0.4v-2.1c0-1.9-1.1-2.9-3.2-2.9c-2.2,0-3.2,1-3.2,2.9v2.1c0,0.2-0.1,0.3-0.2,0.4
			c-0.1,0.1-0.2,0.3-0.2,0.5c0,0.3,0.1,0.5,0.3,0.7c0.1,0.1,0.2,0.2,0.3,0.4c0.3,0.9,0.7,1.7,1.2,2.2c0.1,0.1,0.2,0.3,0.2,0.5v0.9
			c0,0.1,0,0.1,0,0.2c-0.2,0.7-0.9,1.6-7,3.9l-0.1,2.3h5.9c0.4,0,0.7,0.3,0.7,0.7s-0.3,0.7-0.7,0.7h-5.8c-0.8,0-1.4-0.6-1.4-1.4V47
			C15.9,46.5,16.3,46,16.8,45.8z"/>
	</g>
</g>
</svg>
