<?xml version="1.0" encoding="utf-8"?>
<svg version="1.1" xmlns="http://www.w3.org/2000/svg" xmlns:xlink="http://www.w3.org/1999/xlink" x="0px" y="0px"
	 viewBox="0 0 76 76" style="enable-background:new 0 0 76 76;" xml:space="preserve">
<g>
	<g>
		<path d="M43.5,37.1c1.9-1.2,5-2,9.8-2.6c6.2-0.7,5.9-5.8,4.2-8.1c-2-2.6-6.5-2.4-9.8-1.6c-2.2,0.6-3.9,1.4-5.2,2.4l-0.2,1.3
			C41.7,31.9,42.1,34.7,43.5,37.1z"/>
		<path d="M52.5,46.4c-4.2-2.6-7.4-5-9.3-7.8c-0.1-0.1-0.2-0.2-0.2-0.3c-0.1-0.2-0.2-0.4-0.3-0.5c-1.5-2.6-2-5.6-1.4-9.5
			c-0.1,0.1-0.2,0.2-0.3,0.3l-0.1,0.1c-0.1,0.1-0.1,0.1-0.2,0.2c0,0,0,0.1-0.1,0.1c-0.1,0.1-0.1,0.1-0.2,0.2c-0.7,0.9-1.9,2.6-2.9,5
			c-0.4,1.1-0.8,2.2-1.1,3.6c-0.2,1.1-2,10.7,5.9,16.6c2.7,2.1,5.9,3.2,8.9,2.4C54.3,56,57.9,49.8,52.5,46.4z"/>
		<path d="M34.5,25.8l0.3-1.2c-0.6-1-1.5-2.1-2.8-3.1c-2-1.7-5.2-3.3-7.5-2.1c-2,1-3.9,4.5,0.3,7.1c3.1,1.9,5,3.5,5.9,5
			C32.6,30.2,33.8,28.4,34.5,25.8z"/>
		<g>
			<path d="M35.8,27L35.8,27C35.8,27,35.8,26.9,35.8,27c0-0.1-0.1-0.1-0.1-0.2l-0.5,0.1c0,0.1-0.1,0.1-0.1,0.2
				c-0.9,2.4-2.1,4.1-3.9,5.3c-0.2,0.1-0.4,0.2-0.5,0.3s-0.2,0.1-0.3,0.2c-2.3,1.3-5.2,1.8-9,2.3c-5,0.6-4.6,6.2-2.6,7.8
				c1.8,1.5,4.5,1.8,7.2,1.3c7.6-1.6,9.6-9,9.8-9.8c0.2-0.8,0.3-1.5,0.4-2.2C36.4,29.8,36.1,28,35.8,27z"/>
			<path d="M35.7,26.5L35.7,26.5L35.7,26.5v-0.1l0,0l0,0c-0.1-0.2-0.1-0.3-0.1-0.3l0,0c0,0.1-0.1,0.3-0.1,0.4l0,0v0.1l0,0
				c0,0.1-0.1,0.2-0.1,0.3l0.5-0.1C35.8,26.7,35.7,26.6,35.7,26.5z"/>
		</g>
	</g>
</g>
</svg>
