<?xml version="1.0" encoding="utf-8"?>
<svg version="1.1" xmlns="http://www.w3.org/2000/svg" xmlns:xlink="http://www.w3.org/1999/xlink" x="0px" y="0px"
	 viewBox="0 0 76 76" style="enable-background:new 0 0 76 76;" xml:space="preserve">
<path d="M56,41.1c1.7,0,3.1-1.4,3.1-3.1s-1.4-3.1-3.1-3.1c-1.5,0-2.7,1-3.1,2.5h-5.3l6.5-5.8c0.5,0.4,1.2,0.6,1.8,0.6
	c1.7,0,3.1-1.4,3.1-3.1S57.6,26,55.9,26s-3.1,1.4-3.1,3.1c0,0.5,0.1,1,0.4,1.5l-7.7,6.8h-4.4c-0.1-0.5-0.3-0.9-0.6-1.2
	c-0.1-0.1-0.1-0.2-0.2-0.3c0,0,0,0-0.1-0.1c-0.4-0.4-1-0.7-1.6-0.8v-4.4l6.5-7.6c0.5,0.2,0.9,0.4,1.5,0.4c1.7,0,3.1-1.4,3.1-3.1
	c0-1.7-1.4-3.1-3.1-3.1s-3.1,1.4-3.1,3.1c0,0.7,0.2,1.3,0.6,1.9l-5.4,6.4v-5.5c1.4-0.3,2.5-1.6,2.5-3.1c0-1.7-1.4-3.1-3.1-3.1
	S35,18.3,35,20c0,1.5,1,2.7,2.5,3.1v5.3l-6-6.5c0.4-0.5,0.6-1.2,0.6-1.8c0-1.7-1.4-3.1-3.1-3.1s-3.1,1.4-3.1,3.1
	c0,1.7,1.4,3.1,3.1,3.1c0.5,0,1-0.1,1.5-0.4l6.8,7.7v4.4c-0.4,0.1-0.9,0.3-1.2,0.6c-0.1,0.1-0.2,0.1-0.3,0.2c0,0,0,0-0.1,0.1
	c-0.4,0.4-0.7,1-0.8,1.6h-4.4l-7.7-6.5c0.2-0.4,0.4-0.9,0.4-1.5c0-1.7-1.4-3.1-3.1-3.1c-1.8,0-3.2,1.4-3.2,3.1s1.4,3.1,3.1,3.1
	c0.7,0,1.3-0.2,1.9-0.6l6.4,5.4h-5.2c-0.3-1.4-1.6-2.4-3.1-2.4c-1.7,0-3.1,1.4-3.1,3.1s1.4,3.1,3.1,3.1c1.5,0,2.7-1,3.1-2.5h5.3
	l-6.5,5.9c-0.6-0.4-1.2-0.6-1.9-0.6c-1.7,0-3.1,1.4-3.1,3.2c0,1.8,1.4,3.1,3.1,3.1s3.1-1.4,3.1-3.1c0-0.5-0.1-1-0.4-1.5l7.7-6.8h4.5
	c0.1,0.4,0.3,0.9,0.6,1.2c0.1,0.1,0.1,0.2,0.2,0.3c0,0,0,0,0.1,0.1c0.4,0.4,1,0.7,1.6,0.8v4.4l-6.5,7.6c-0.5-0.2-0.9-0.4-1.5-0.4
	c-1.7,0-3.1,1.4-3.1,3.1s1.4,3.1,3.1,3.1c1.7,0,3.1-1.4,3.1-3.1c0-0.7-0.2-1.3-0.6-1.9l5.4-6.4v5.3c-1.4,0.3-2.4,1.6-2.4,3.1
	c0,1.7,1.4,3.1,3.1,3.1s3.1-1.4,3.1-3.1c0-1.5-1-2.7-2.5-3.1v-5.3l5.8,6.5c-0.4,0.5-0.6,1.2-0.6,1.8c0,1.7,1.4,3.1,3.1,3.1
	c1.7,0,3.1-1.4,3.1-3.1s-1.4-3.1-3.1-3.1c-0.5,0-1,0.1-1.5,0.4l-6.8-7.7v-4.4c0.5-0.1,0.9-0.3,1.2-0.6c0.1-0.1,0.2-0.1,0.3-0.2
	c0,0,0,0,0.1-0.1c0.4-0.4,0.7-1,0.8-1.6h4.4l7.7,6.5c-0.2,0.5-0.4,0.9-0.4,1.5c0,1.7,1.4,3.1,3.1,3.1s3.1-1.4,3.1-3.1
	s-1.4-3.1-3.1-3.1c-0.7,0-1.3,0.2-1.9,0.6l-6.4-5.4h5.4C53.2,40.1,54.5,41.1,56,41.1z M54.2,46.6c0-1,0.8-1.8,1.8-1.8
	s1.8,0.8,1.8,1.8S57,48.4,56,48.4S54.2,47.6,54.2,46.6z M54.2,29c0-1,0.8-1.8,1.8-1.8s1.8,0.8,1.8,1.8S57,30.8,56,30.8
	S54.2,29.9,54.2,29z M54.2,38c0-1,0.8-1.8,1.8-1.8s1.8,0.8,1.8,1.8S57,39.8,56,39.8S54.2,38.9,54.2,38z M45.3,56
	c0-1,0.8-1.8,1.8-1.8s1.8,0.8,1.8,1.8s-0.8,1.8-1.8,1.8S45.3,56.9,45.3,56z M31.2,56c0,1-0.8,1.8-1.8,1.8S27.6,57,27.6,56
	s0.8-1.8,1.8-1.8S31.2,55,31.2,56z M39.8,56c0,1-0.8,1.8-1.8,1.8S36.2,57,36.2,56s0.8-1.8,1.8-1.8S39.8,55,39.8,56z M30.7,20
	c0,1-0.8,1.8-1.8,1.8S27.1,21,27.1,20s0.8-1.8,1.8-1.8C29.9,18.3,30.7,19.1,30.7,20z M44.8,20c0-1,0.8-1.8,1.8-1.8s1.8,0.8,1.8,1.8
	s-0.8,1.8-1.8,1.8S44.8,21,44.8,20z M36.2,20c0-1,0.8-1.8,1.8-1.8s1.8,0.8,1.8,1.8S39,21.8,38,21.8S36.2,21,36.2,20z M39.2,39.2
	c-0.3,0.3-0.7,0.5-1.2,0.5s-0.9-0.2-1.2-0.5c-0.3-0.3-0.5-0.7-0.5-1.2s0.2-0.9,0.5-1.2c0.3-0.3,0.7-0.5,1.2-0.5s0.9,0.2,1.2,0.5
	c0.3,0.3,0.5,0.7,0.5,1.2S39.5,38.9,39.2,39.2z M21.8,47.1c0,1-0.8,1.8-1.8,1.8s-1.8-0.8-1.8-1.8s0.8-1.8,1.8-1.8
	C21,45.3,21.8,46.1,21.8,47.1z M21.8,29.4c0,1-0.8,1.8-1.8,1.8s-1.8-0.8-1.8-1.8s0.8-1.8,1.8-1.8C21,27.7,21.8,28.4,21.8,29.4z
	 M21.8,38c0,1-0.8,1.8-1.8,1.8S18.2,39,18.2,38s0.8-1.8,1.8-1.8C21,36.3,21.8,37.1,21.8,38z"/>
</svg>
