<?xml version="1.0" encoding="utf-8"?>
<svg version="1.1" xmlns="http://www.w3.org/2000/svg" xmlns:xlink="http://www.w3.org/1999/xlink" x="0px" y="0px"
	 viewBox="0 0 76 76" style="enable-background:new 0 0 76 76;" xml:space="preserve">
<g id="icon">
	<g>
		<path d="M24,36.3h16c0.2,1,1.1,1.7,2.1,1.7s1.9-0.7,2.1-1.7h2.2c0.2,0,0.4-0.2,0.4-0.4s-0.2-0.4-0.4-0.4h-2.2
			c-0.2-1-1.1-1.7-2.1-1.7s-1.9,0.7-2.1,1.7h-16c-0.2,0-0.4,0.2-0.4,0.4S23.7,36.3,24,36.3z M40.7,36c0-0.7,0.6-1.3,1.3-1.3
			c0.7,0,1.3,0.6,1.3,1.3s-0.6,1.3-1.3,1.3C41.2,37.2,40.7,36.7,40.7,36z"/>
		<path d="M52.1,46.2h-7.9c-0.2-1-1.1-1.7-2.1-1.7s-2,0.7-2.2,1.7h-16c-0.2,0-0.4,0.2-0.4,0.4c0,0.2,0.2,0.4,0.4,0.4h16
			c0.2,1,1.1,1.7,2.1,1.7s1.9-0.7,2.1-1.7H52c0.2,0,0.4-0.2,0.4-0.4C52.4,46.5,52.2,46.2,52.1,46.2z M43.3,46.7
			c0,0.7-0.6,1.3-1.3,1.3c-0.7,0-1.3-0.6-1.3-1.3c0-0.7,0.6-1.3,1.3-1.3C42.8,45.3,43.3,46,43.3,46.7z"/>
		<path d="M24,41.8h7.9c0.2,1,1.1,1.7,2.1,1.7s1.9-0.7,2.1-1.7h16c0.2,0,0.4-0.2,0.4-0.4c0-0.2-0.2-0.4-0.4-0.4h-16
			c-0.2-1-1.1-1.7-2.1-1.7S32.1,40,31.9,41H24c-0.2,0-0.4,0.2-0.4,0.4C23.5,41.5,23.7,41.8,24,41.8z M34,42.7
			c-0.7,0-1.3-0.6-1.3-1.3c0-0.7,0.6-1.3,1.3-1.3s1.3,0.6,1.3,1.3C35.2,42,34.7,42.7,34,42.7z"/>
	</g>
	<g>
		<path d="M51.6,33.2c-0.2,0-0.5-0.1-0.8-0.1h-0.1c-0.3,0-0.6,0-0.9,0l0,0c-0.1,0-0.2,0-0.3,0c-1.4-3.5-4.7-5.8-8.5-5.8
			c-0.3,0-0.7,0-1.1,0c-2.1-2.5-5.1-4-8.3-4c-6,0-10.8,4.8-10.8,10.8c0,0.1,0,0.1,0,0.2c-2.8,1.9-4.4,5-4.4,8.3
			c0,5.7,4.6,10.2,10.2,10.2c0,0,23,0,23.1,0c5.5,0,9.9-4.5,9.9-9.9C59.6,38.2,56.2,34,51.6,33.2z M49.7,51c-0.2,0-23.1,0-23.1,0
			c-4.6,0-8.4-3.8-8.4-8.4c0-2.9,1.5-5.6,4-7.2c0.3-0.2,0.4-0.5,0.4-0.8v-0.1c0-0.1,0-0.3,0-0.5c0-5,4-9,9-9c2.9,0,5.5,1.3,7.2,3.6
			c0.2,0.3,0.5,0.4,0.8,0.3c0.4-0.1,1-0.1,1.4-0.1c3.2,0,6.1,2.1,7,5.2c0.1,0.4,0.5,0.7,0.9,0.6c0.3,0,0.5,0,0.7,0c0,0,0.1,0,0.2,0
			c0.2,0,0.5,0,0.8,0h0.1c0.2,0,0.4,0.1,0.6,0.1c3.8,0.7,6.6,4.1,6.6,8C57.8,47.3,54.2,51,49.7,51z"/>
	</g>
</g>
</svg>
