<?xml version="1.0" encoding="utf-8"?>
<svg version="1.1" xmlns="http://www.w3.org/2000/svg" xmlns:xlink="http://www.w3.org/1999/xlink" x="0px" y="0px"
	 viewBox="0 0 76 76" style="enable-background:new 0 0 76 76;" xml:space="preserve">
<g>
	<path d="M61,41.8c-0.2-0.5-0.7-0.9-1.3-0.9l-7.1-0.1l-2.4-6.6c-0.2-0.5-0.7-0.9-1.3-0.9s-1.1,0.4-1.3,0.9l-2.3,6.7l-7.1,0.2
		c-0.6,0-1.1,0.4-1.2,0.9c-0.2,0.5,0,1.1,0.5,1.5l5.7,4.2l-2,6.7c-0.2,0.5,0,1.1,0.5,1.5c0.2,0.2,0.5,0.3,0.8,0.3s0.5-0.1,0.8-0.2
		l5.8-4.1l5.9,4c0.5,0.3,1.1,0.3,1.5,0c0.5-0.3,0.6-0.9,0.5-1.5l-2.1-6.7l5.6-4.3C61,42.9,61.2,42.4,61,41.8z M53.7,46.8
		c-0.2,0.2-0.3,0.5-0.2,0.7l2.2,7.2l-6.2-4.2c-0.2-0.2-0.5-0.2-0.7,0l-6.2,4.3l0,0l0,0l2.1-7.2c0.1-0.3,0-0.5-0.2-0.7l-6-4.5
		l7.6-0.2c0.3,0,0.5-0.2,0.6-0.4l2.5-7.1l2.5,7.1c0.1,0.3,0.3,0.4,0.6,0.4l7.6,0.1L53.7,46.8z"/>
	<path d="M19.4,31.6h23.4c0.4,0,0.7-0.3,0.7-0.7v-2.5c0-0.4-0.3-0.7-0.7-0.7H19.4c-0.4,0.1-0.7,0.4-0.7,0.7v2.5
		C18.7,31.3,19,31.6,19.4,31.6z M20.1,29.1h22.1v1.2H20.1V29.1z"/>
	<path d="M29.4,33.6H19.3c-0.4,0-0.7,0.3-0.7,0.7v9.3c0,0.4,0.3,0.7,0.7,0.7h10.1c0.4,0,0.7-0.3,0.7-0.7v-9.3
		C30.1,33.9,29.8,33.6,29.4,33.6z M28.8,42.9H20v-8h8.8V42.9z"/>
	<path d="M46.6,19.9H15.7c-0.4,0-0.7,0.3-0.7,0.7v0.3V24v23.6c0,0.4,0.3,0.7,0.7,0.7h24.1l0,0c0.3,0,0.6-0.3,0.6-0.6
		s-0.3-0.6-0.6-0.6l0,0H16.3V24.7h29.6V33l0,0c0,0.3,0.3,0.6,0.6,0.6s0.6-0.3,0.6-0.6l0,0v-9v-3.1v-0.3
		C47.2,20.2,46.9,19.9,46.6,19.9z M16.3,23.4v-1.9h29.6v1.8C45.9,23.4,16.3,23.4,16.3,23.4z"/>
	<path d="M42.8,33.6H32.7c-0.4,0-0.7,0.3-0.7,0.7v9.3c0,0.4,0.3,0.7,0.7,0.7h2.4l0,0c0.3,0,0.6-0.3,0.6-0.6s-0.3-0.6-0.6-0.6l0,0
		h-1.8v-8h8.8v4.4c0,0.4,0.3,0.7,0.7,0.7s0.7-0.3,0.7-0.7v-5.1C43.5,33.9,43.2,33.6,42.8,33.6z"/>
</g>
</svg>
