<?xml version="1.0" encoding="utf-8"?>
<svg version="1.1" xmlns="http://www.w3.org/2000/svg" xmlns:xlink="http://www.w3.org/1999/xlink" x="0px" y="0px"
	 viewBox="0 0 76 76" style="enable-background:new 0 0 76 76;" xml:space="preserve">
<g id="icon">
	<g>
		<g>
			<path d="M44.9,51.5c-0.1-0.4-0.5-0.8-0.9-0.7s-0.8,0.5-0.7,0.9l0.8,4.6H31.9l0.8-4.6c0.1-0.4-0.2-0.9-0.7-0.9
				c-0.4-0.1-0.9,0.2-0.9,0.7l-0.8,4.9v0.1c0,0.8,0.7,1.5,1.6,1.5h12.3c0.9,0,1.6-0.7,1.6-1.5v-0.1L44.9,51.5z"/>
			<path d="M54.8,17.9H21.2c-2,0-3.6,1.6-3.6,3.6v23.3c0,2,1.6,3.6,3.6,3.6h33.5c2,0,3.6-1.6,3.6-3.6V21.5
				C58.3,19.5,56.8,17.9,54.8,17.9z M21.2,19.5h33.5c1.1,0,2,0.9,2,2v20.2H19.2V21.5C19.2,20.4,20.1,19.5,21.2,19.5z M54.8,46.7
				H21.2c-1.1,0-2-0.9-2-2v-1.4h37.4v1.4C56.7,45.9,55.8,46.7,54.8,46.7z"/>
		</g>
		<path d="M35.5,25.4H27c-0.5,0-0.8,0.4-0.8,0.8c0,0.5,0.4,0.8,0.8,0.8h8.7c0.5,0,0.8-0.4,0.8-0.8C36.4,25.8,36,25.4,35.5,25.4z"/>
		<path d="M23.5,24.5c-1,0-1.8,0.7-1.8,1.7s0.8,1.8,1.8,1.8s1.8-0.8,1.8-1.8C25.1,25.2,24.3,24.5,23.5,24.5z M23.5,26.6
			c-0.2,0-0.4-0.2-0.4-0.4c0-0.2,0.2-0.4,0.4-0.4c0.2,0,0.4,0.2,0.4,0.4C23.8,26.4,23.6,26.6,23.5,26.6z"/>
		<path d="M35.5,29.9H27c-0.5,0-0.8,0.4-0.8,0.8c0,0.5,0.4,0.8,0.8,0.8h8.7c0.5,0,0.8-0.4,0.8-0.8C36.4,30.3,36,29.9,35.5,29.9z"/>
		<path d="M23.5,29c-1,0-1.8,0.8-1.8,1.8s0.8,1.8,1.8,1.8s1.8-0.8,1.8-1.8C25.1,29.8,24.3,29,23.5,29z M23.5,31.1
			c-0.2,0-0.4-0.2-0.4-0.4c0-0.2,0.2-0.4,0.4-0.4c0.2,0,0.4,0.2,0.4,0.4C23.8,31,23.6,31.1,23.5,31.1z"/>
		<path d="M35.5,34.5H27c-0.5,0-0.8,0.4-0.8,0.8s0.4,0.8,0.8,0.8h8.7c0.5,0,0.8-0.4,0.8-0.8C36.4,34.8,36,34.5,35.5,34.5z"/>
		<path d="M23.5,33.5c-1,0-1.8,0.8-1.8,1.8s0.8,1.8,1.8,1.8s1.8-0.8,1.8-1.8C25.1,34.3,24.3,33.5,23.5,33.5z M23.5,35.7
			c-0.2,0-0.4-0.2-0.4-0.4s0.2-0.4,0.4-0.4c0.2,0,0.4,0.2,0.4,0.4C23.8,35.5,23.6,35.7,23.5,35.7z"/>
		<path d="M53.1,25.4h-8.7c-0.5,0-0.8,0.4-0.8,0.8c0,0.5,0.4,0.8,0.8,0.8h8.7c0.5,0,0.8-0.4,0.8-0.8C53.8,25.8,53.4,25.4,53.1,25.4z
			"/>
		<path d="M40.8,24.5c-1,0-1.8,0.8-1.8,1.8s0.8,1.8,1.8,1.8s1.8-0.8,1.8-1.8C42.5,25.2,41.8,24.5,40.8,24.5z M40.8,26.6
			c-0.2,0-0.4-0.2-0.4-0.4c0-0.2,0.2-0.4,0.4-0.4c0.2,0,0.4,0.2,0.4,0.4C41.2,26.4,41,26.6,40.8,26.6z"/>
		<path d="M53.1,29.9h-8.7c-0.5,0-0.8,0.4-0.8,0.8c0,0.5,0.4,0.8,0.8,0.8h8.7c0.5,0,0.8-0.4,0.8-0.8C53.8,30.3,53.4,29.9,53.1,29.9z
			"/>
		<path d="M40.8,29c-1,0-1.8,0.8-1.8,1.8s0.8,1.8,1.8,1.8s1.8-0.8,1.8-1.8C42.5,29.8,41.8,29,40.8,29z M40.8,31.1
			c-0.2,0-0.4-0.2-0.4-0.4c0-0.2,0.2-0.4,0.4-0.4c0.2,0,0.4,0.2,0.4,0.4C41.2,31,41,31.1,40.8,31.1z"/>
		<path d="M53.1,34.5h-8.7c-0.5,0-0.8,0.4-0.8,0.8s0.4,0.8,0.8,0.8h8.7c0.5,0,0.8-0.4,0.8-0.8C53.8,34.8,53.4,34.5,53.1,34.5z"/>
		<path d="M40.8,33.5c-1,0-1.8,0.8-1.8,1.8s0.8,1.8,1.8,1.8s1.8-0.8,1.8-1.8C42.5,34.3,41.8,33.5,40.8,33.5z M40.8,35.7
			c-0.2,0-0.4-0.2-0.4-0.4s0.2-0.4,0.4-0.4c0.2,0,0.4,0.2,0.4,0.4S41,35.7,40.8,35.7z"/>
	</g>
</g>
</svg>
