<?xml version="1.0" encoding="utf-8"?>
<svg version="1.1" xmlns="http://www.w3.org/2000/svg" xmlns:xlink="http://www.w3.org/1999/xlink" x="0px" y="0px"
	 viewBox="0 0 76 76" style="enable-background:new 0 0 76 76;" xml:space="preserve">
<g id="icon">
	<g>
		<path d="M57.8,57h-0.9V46.6h0.9c0.5,0,0.9-0.4,0.9-0.9s-0.4-0.9-0.9-0.9h-3.4h-0.9v-5.2h0.9c0.5,0,0.9-0.4,0.9-0.9
			s-0.4-0.9-0.9-0.9H44.3c2-1.7,3.5-4.4,4-7.2c0.5-2.3,0-4.6-1.3-6.4c-1.2-1.7-3-2.8-5.1-3.1c-1.1-0.1-2.2,0-3.2,0.5
			c0-1.1,0.1-2.4,0.7-3.1c0.3-0.2,0.2-0.7-0.1-1c-0.4-0.3-1-0.2-1.3,0.1c-0.9,1.1-1.1,2.8-1.1,4.1c-1-0.4-2-0.6-3-0.4
			c-2.1,0.3-3.9,1.4-5,3.1c-1.2,1.7-1.6,4-1.3,6.3c0.3,2.4,1.4,4.7,3,6.4c0.3,0.3,0.6,0.6,0.9,0.8h-6.4c-2.4,0-4.3,1.9-4.3,4.3
			c0,1.2,0.5,2.2,1.2,3c-2.7,1-4.7,3.6-4.7,6.6c0,3.8,3.1,6.9,6.9,6.9h33.6c0.5,0,0.9-0.4,0.9-0.9S58.3,57,57.8,57z M29.3,30.5
			c-0.3-1.9,0.1-3.7,1-5.1c0.9-1.3,2.3-2.2,3.8-2.4c0.2,0,0.3,0,0.5,0c1.1,0,2.1,0.5,2.8,1l0,0c0.1,0.1,0.3,0.1,0.4,0.1l0,0h0.1
			c0.1,0,0.2-0.1,0.3-0.1l0,0c0.8-0.5,1.9-1.1,3.3-0.9l0,0c1.6,0.2,2.9,1.1,3.9,2.4c1,1.4,1.4,3.2,1,5c-0.8,3.9-3.8,8-6.9,7.5
			c-0.5-0.1-0.9-0.2-1.4-0.4c-0.2-0.1-0.5-0.1-0.7,0C37,37.8,36.5,37.9,36,38c-1.5,0.2-3-0.5-4.4-2C30.5,34.5,29.6,32.5,29.3,30.5z
			 M25.1,39.7h26.7v1.7h-4.3c-0.5,0-0.9,0.4-0.9,0.9s0.4,0.9,0.9,0.9h4.3v1.7H25.1c-1.4,0-2.6-1.2-2.6-2.6S23.6,39.7,25.1,39.7z
			 M19,51.8c0-2.9,2.3-5.2,5.2-5.2h0.9h29.3h0.9v1.7h-7.8c-0.5,0-0.9,0.4-0.9,0.9c0,0.5,0.4,0.9,0.9,0.9h7.8v1.7H51
			c-0.5,0-0.9,0.4-0.9,0.9s0.4,0.9,0.9,0.9h4.3v3.5h-31C21.3,57,19,54.6,19,51.8z"/>
		<path d="M32.2,31.6c0.5,0,0.8-0.5,0.8-0.9c-0.4-3.5,1.4-4.4,1.5-4.4c0.4-0.2,0.6-0.7,0.4-1.1c-0.2-0.4-0.7-0.6-1.1-0.5
			c-0.1,0.1-3.1,1.4-2.6,6.2C31.3,31.3,31.6,31.6,32.2,31.6C32.1,31.6,32.1,31.6,32.2,31.6z"/>
	</g>
</g>
</svg>
