<?xml version="1.0" encoding="utf-8"?>
<svg version="1.1" xmlns="http://www.w3.org/2000/svg" xmlns:xlink="http://www.w3.org/1999/xlink" x="0px" y="0px"
	 viewBox="0 0 76 76" style="enable-background:new 0 0 76 76;" xml:space="preserve">
<g id="icon">
	<g>
		<path d="M13.2,32.5h1.9v4.4h5.1v-4.4h2v10.9h-1.9v-4.8h-5.2v4.8h-1.9V32.5z"/>
		<path d="M26.5,34.3h-3.4v-1.8h8.7v1.8h-3.4v9.2h-1.9C26.5,43.5,26.5,34.3,26.5,34.3z"/>
		<path d="M35.9,34.3h-3.4v-1.8h8.7v1.8h-3.4v9.2h-1.9V34.3z"/>
		<path d="M42.4,32.5h3.7c0.5,0,1,0.1,1.5,0.2c0.5,0.1,0.9,0.3,1.3,0.5c0.4,0.2,0.7,0.6,0.9,1c0.2,0.4,0.3,0.9,0.3,1.5
			c0,0.7-0.1,1.2-0.4,1.7c-0.2,0.4-0.6,0.7-1,1c-0.4,0.3-0.9,0.4-1.4,0.5C46.8,39,46.2,39,45.6,39h-1.4v4.5h-1.9
			C42.4,43.5,42.4,32.5,42.4,32.5z M45.5,37.3c0.3,0,0.6,0,0.9,0c0.3,0,0.6-0.1,0.8-0.2c0.3-0.1,0.5-0.3,0.6-0.5
			c0.2-0.2,0.2-0.5,0.2-0.9c0-0.3-0.1-0.6-0.2-0.8c-0.1-0.2-0.3-0.4-0.6-0.5c-0.2-0.1-0.5-0.2-0.8-0.2s-0.5,0-0.8,0h-1.4v3.1H45.5
			L45.5,37.3z"/>
		<path d="M51.4,33.5c0-0.3,0.1-0.6,0.3-0.8c0.3-0.2,0.6-0.3,0.9-0.3s0.6,0.1,0.9,0.3c0.2,0.2,0.3,0.5,0.3,0.8s-0.1,0.6-0.3,0.8
			s-0.5,0.3-0.9,0.3s-0.6-0.1-0.8-0.3C51.5,34.1,51.4,33.8,51.4,33.5z M51.7,36h1.9v7.4h-1.9V36z"/>
		<path d="M57.2,40.4c0.1,0.6,0.3,1,0.7,1.3c0.3,0.3,0.7,0.5,1.3,0.5c0.5,0,0.9-0.1,1.2-0.3c0.2-0.2,0.5-0.5,0.8-0.8l1.3,1
			c-0.4,0.5-0.9,0.9-1.5,1.1c-0.5,0.2-1.1,0.3-1.7,0.3c-0.6,0-1.1-0.1-1.6-0.3s-0.9-0.4-1.3-0.8c-0.4-0.3-0.6-0.8-0.9-1.2
			c-0.2-0.5-0.3-1-0.3-1.6c0-0.6,0.1-1.1,0.3-1.6s0.5-0.9,0.9-1.2s0.8-0.6,1.3-0.8s1-0.3,1.6-0.3c0.5,0,1,0.1,1.4,0.3
			s0.8,0.4,1.1,0.8c0.3,0.4,0.5,0.8,0.7,1.3s0.3,1.1,0.3,1.7v0.6H57.2L57.2,40.4z M61,39c0-0.5-0.2-1-0.5-1.3s-0.8-0.5-1.4-0.5
			c-0.6,0-1,0.2-1.3,0.5c-0.4,0.3-0.6,0.8-0.6,1.3H61z"/>
	</g>
</g>
</svg>
