<?xml version="1.0" encoding="utf-8"?>
<svg version="1.1" xmlns="http://www.w3.org/2000/svg" xmlns:xlink="http://www.w3.org/1999/xlink" x="0px" y="0px"
	 viewBox="0 0 76 76" style="enable-background:new 0 0 76 76;" xml:space="preserve">
<g id="icon">
	<g>
		<g>
			<path d="M33.2,44c0-0.4-0.3-0.8-0.8-0.8h-8.6c-0.4,0-0.8,0.3-0.8,0.8s0.3,0.8,0.8,0.8h8.7C32.8,44.8,33.2,44.5,33.2,44z"/>
			<path d="M18.4,38.8h14c0.4,0,0.8-0.3,0.8-0.8s-0.4-0.7-0.8-0.7h-14c-0.5,0-0.8,0.3-0.8,0.8C17.6,38.5,17.9,38.8,18.4,38.8z"/>
			<path d="M26,32.7h6.4c0.4,0,0.8-0.3,0.8-0.8c0-0.4-0.3-0.8-0.8-0.8H26c-0.4,0-0.8,0.3-0.8,0.8C25.2,32.3,25.5,32.7,26,32.7z"/>
		</g>
		<g>
			<g>
				<path d="M54.4,19.2h-14c-2.2,0-3.9,1.8-3.9,3.9v1.2v25.2v3.3c0,2.2,1.8,3.9,3.9,3.9h14c2.2,0,3.9-1.8,3.9-3.9v-3.3V24.4v-1.2
					C58.3,21,56.6,19.2,54.4,19.2z M38,25.9h18.8v22.2H38V25.9z M56.8,52.8c0,1.3-1.1,2.4-2.4,2.4h-14c-1.3,0-2.4-1.1-2.4-2.4v-3.3
					h18.8C56.8,49.5,56.8,52.8,56.8,52.8z M38,24.4v-1.2c0-1.3,1.1-2.4,2.4-2.4h14c1.3,0,2.4,1.1,2.4,2.4v1.2
					C56.8,24.4,38,24.4,38,24.4z"/>
				<path d="M47.4,54.2c1.1,0,1.9-0.9,1.9-1.9c0-1.1-0.9-1.9-1.9-1.9c-1.1,0-1.9,0.9-1.9,1.9S46.3,54.2,47.4,54.2z M47.4,52
					c0.2,0,0.4,0.2,0.4,0.4s-0.2,0.4-0.4,0.4c-0.2,0-0.4-0.2-0.4-0.4C47,52,47.2,52,47.4,52z"/>
			</g>
			<path d="M44.2,42.5c0.2,0.4,0.6,0.6,1.1,0.6l0,0l0,0c0.4,0,0.7-0.2,1-0.4c0,0,3.4-2.7,5.5-4.3c0.1-0.1,0.5-0.5,0.5-1
				c0-0.4-0.2-0.8-0.5-1.1l-5.7-4.5c-0.2-0.1-0.5-0.3-0.8-0.3c-0.5,0-1.1,0.4-1.2,1c0,0.2,0,0.4,0,0.4V42C44,42.2,44,42.3,44.2,42.5
				z M50.8,37.2c-1.8,1.4-4.5,3.6-5.2,4.1v-8.2L50.8,37.2z"/>
		</g>
	</g>
</g>
</svg>
