<?xml version="1.0" encoding="utf-8"?>
<svg version="1.1" xmlns="http://www.w3.org/2000/svg" xmlns:xlink="http://www.w3.org/1999/xlink" x="0px" y="0px"
	 viewBox="0 0 76 76" style="enable-background:new 0 0 76 76;" xml:space="preserve">
<g id="icon">
	<g>
		<path d="M60.8,30.2c-0.5-0.3-1.2-0.4-1.7-0.1l-8.7,3.8v-3.5c0-1.2-0.9-2.1-2.1-2.1H28.9c-1.2,0-2.1,0.9-2.1,2.1v15.1
			c0,1.2,0.9,2.1,2.1,2.1h19.5c1.2,0,2.1-0.9,2.1-2.1V42l8.7,3.8c0.2,0.1,0.5,0.2,0.7,0.2c0.3,0,0.7-0.1,1-0.3
			c0.5-0.3,0.8-0.9,0.8-1.5V31.8C61.7,31.1,61.4,30.6,60.8,30.2z M49.1,45.5c0,0.4-0.3,0.7-0.7,0.7H28.9c-0.4,0-0.7-0.3-0.7-0.7
			V30.4c0-0.4,0.3-0.7,0.7-0.7h19.5c0.4,0,0.7,0.3,0.7,0.7v5.3v4.5V45.5z M60.2,44.2c0,0.1-0.1,0.2-0.2,0.3c-0.1,0.1-0.2,0.1-0.4,0
			l-9-4c-0.1-0.1-0.2-0.2-0.2-0.3v-4.5c0-0.1,0.1-0.3,0.2-0.3l9-4c0,0,0.1,0,0.2,0c0.1,0,0.1,0,0.2,0.1c0.1,0.1,0.2,0.2,0.2,0.3
			V44.2L60.2,44.2z"/>
		<path d="M43.5,34.9h-9.7c-1.8,0-3.3,1.5-3.3,3.3s1.5,3.3,3.3,3.3s3.3-1.5,3.3-3.3c0-0.7-0.2-1.4-0.6-1.9h4.2
			c-0.4,0.5-0.6,1.2-0.6,1.9c0,1.8,1.5,3.3,3.3,3.3c1.8,0,3.3-1.5,3.3-3.3C46.9,36.4,45.4,34.9,43.5,34.9z M35.8,38.3
			c0,1.1-0.9,1.9-1.9,1.9c-1.1,0-1.9-0.9-1.9-1.9c0-1.1,0.9-1.9,1.9-1.9S35.8,37.2,35.8,38.3z M43.5,40.2c-1.1,0-1.9-0.9-1.9-1.9
			c0-1.1,0.9-1.9,1.9-1.9c1.1,0,1.9,0.9,1.9,1.9C45.5,39.3,44.6,40.2,43.5,40.2z"/>
	</g>
	<g>
		<path d="M24.5,42.9c0-0.4-0.3-0.7-0.7-0.7H15c-0.4,0-0.7,0.3-0.7,0.7c0,0.4,0.3,0.7,0.7,0.7h8.8C24.2,43.6,24.5,43.3,24.5,42.9z"
			/>
		<path d="M15,37.9h8.8c0.4,0,0.7-0.3,0.7-0.7s-0.3-0.7-0.7-0.7H15c-0.4,0-0.7,0.3-0.7,0.7C14.3,37.6,14.6,37.9,15,37.9z"/>
		<path d="M15,32.3h8.8c0.4,0,0.7-0.3,0.7-0.7s-0.3-0.8-0.7-0.8H15c-0.4,0-0.7,0.4-0.7,0.8C14.3,31.9,14.6,32.3,15,32.3z"/>
	</g>
</g>
</svg>
