<?xml version="1.0" encoding="utf-8"?>
<svg version="1.1" xmlns="http://www.w3.org/2000/svg" xmlns:xlink="http://www.w3.org/1999/xlink" x="0px" y="0px"
	 viewBox="0 0 76 76" style="enable-background:new 0 0 76 76;" xml:space="preserve">
<g id="icon">
	<g>
		<path d="M34.7,44.8c-0.5,0-0.8,0.4-0.8,0.8v2.5c0,1.4-1.1,2.6-2.6,2.6H19.9c-0.5,0-0.8,0.4-0.8,0.8c0,0.4,0.4,0.8,0.8,0.8h11.5
			c2.3,0,4.2-1.9,4.2-4.2v-2.5C35.6,45.2,35.2,44.8,34.7,44.8z"/>
		<path d="M58.5,37.2C58.4,37,58.2,37,58,36.8l-1.4-0.3l0.5-0.6c0.5-0.7,0.7-1.5,0.5-2.4c-0.3-0.8-0.9-1.4-1.8-1.6l-32.5-8.3
			c-0.6-0.2-1.3-0.1-1.9,0.2c-0.6,0.4-1,0.9-1.1,1.6l-2.8,10.9c-0.2,0.6-0.1,1.3,0.3,1.9c0.3,0.6,0.9,1,1.5,1.1l27.4,7
			c0.2,0.1,0.4,0.1,0.6,0.1c0.7,0,1.4-0.3,1.9-0.9l0.8-0.9l5.6,1.5c0.1,0,0.1,0,0.2,0c0.4,0,0.7-0.2,0.8-0.6l2-7.5
			C58.6,37.7,58.6,37.5,58.5,37.2z M47.1,44.8l-27.4-7c-0.2-0.1-0.4-0.2-0.5-0.4s-0.1-0.4-0.1-0.6l2.8-10.9c0.1-0.2,0.2-0.4,0.4-0.5
			c0.1-0.1,0.2-0.1,0.4-0.1c0.1,0,0.1,0,0.2,0l32.5,8.3c0.3,0.1,0.5,0.3,0.6,0.5s0,0.6-0.1,0.8L48,44.5
			C47.7,44.7,47.4,44.8,47.1,44.8z M55.2,44.2l-4-1l4.3-5.2l1.2,0.3L55.2,44.2z"/>
		<path d="M46.9,35.8c-0.7-0.2-1.3,0.2-1.5,0.9c-0.2,0.7,0.2,1.3,0.9,1.5s1.3-0.2,1.5-0.9C48,36.7,47.6,36,46.9,35.8z"/>
	</g>
</g>
</svg>
