<?xml version="1.0" encoding="utf-8"?>
<svg version="1.1" xmlns="http://www.w3.org/2000/svg" xmlns:xlink="http://www.w3.org/1999/xlink" x="0px" y="0px"
	 viewBox="0 0 76 76" style="enable-background:new 0 0 76 76;" xml:space="preserve">
<g>
	<g>
		<path d="M51,25.4l-5-4.9c-0.2-0.2-0.6-0.6-1.2-0.6H26.4c-1.1,0-1.9,0.9-1.9,2v32.2c0,1.1,0.9,2,1.9,2h23.2c1.1,0,1.9-0.9,1.9-2
			V26.7C51.5,26.1,51.2,25.7,51,25.4z M49.4,26h-3.8v-3.8L49.4,26z M49.6,54.6H26.4c-0.2,0-0.4-0.2-0.4-0.5V21.9
			c0-0.2,0.2-0.5,0.4-0.5H44v5.3c0,0.4,0.3,0.8,0.8,0.8H50v26.6C50,54.4,49.8,54.6,49.6,54.6z"/>
		<path d="M46.2,33.5H35.9c-0.4,0-0.8,0.3-0.8,0.8s0.3,0.8,0.8,0.8h10.3c0.4,0,0.8-0.3,0.8-0.8S46.6,33.5,46.2,33.5z"/>
		<path d="M32.6,31.9h-2.9c-0.4,0-0.8,0.3-0.8,0.8v3.1c0,0.4,0.3,0.8,0.8,0.8h2.9c0.4,0,0.8-0.3,0.8-0.8v-3.1
			C33.4,32.3,33.1,31.9,32.6,31.9z M31.9,35h-1.4v-1.6h1.4V35z"/>
		<path d="M46.2,39.5H35.9c-0.4,0-0.8,0.3-0.8,0.8s0.3,0.8,0.8,0.8h10.3c0.4,0,0.8-0.3,0.8-0.8S46.6,39.5,46.2,39.5z"/>
		<path d="M32.6,37.9h-2.9c-0.4,0-0.8,0.3-0.8,0.8v3.1c0,0.4,0.3,0.8,0.8,0.8h2.9c0.4,0,0.8-0.3,0.8-0.8v-3.1
			C33.4,38.3,33.1,37.9,32.6,37.9z M31.9,41h-1.4v-1.6h1.4V41z"/>
		<path d="M46.2,45.6H35.9c-0.4,0-0.8,0.3-0.8,0.8c0,0.4,0.3,0.8,0.8,0.8h10.3c0.4,0,0.8-0.3,0.8-0.8C47,45.9,46.6,45.6,46.2,45.6z"
			/>
		<path d="M32.6,44h-2.9c-0.4,0-0.8,0.3-0.8,0.8v3.1c0,0.4,0.3,0.8,0.8,0.8h2.9c0.4,0,0.8-0.3,0.8-0.8v-3.1
			C33.4,44.3,33.1,44,32.6,44z M31.9,47h-1.4v-1.6h1.4V47z"/>
	</g>
</g>
</svg>
