<?xml version="1.0" encoding="utf-8"?>
<svg version="1.1" xmlns="http://www.w3.org/2000/svg" xmlns:xlink="http://www.w3.org/1999/xlink" x="0px" y="0px"
	 viewBox="0 0 76 76" style="enable-background:new 0 0 76 76;" xml:space="preserve">
<g id="icon">
	<path d="M44,51.2c-2.8-1.1-3.5-1.6-3.7-1.7v-0.1c0.3-0.4,0.6-0.9,0.8-1.5c0.3-0.3,0.4-0.6,0.5-1s0-0.8-0.2-1.1v-1.1
		c0-2-1.3-3.2-3.4-3.2c-2.1,0-3.4,1.2-3.4,3.2v1.1c-0.2,0.3-0.3,0.7-0.2,1.1c0.1,0.4,0.2,0.8,0.5,1c0.2,0.6,0.5,1.1,0.8,1.5l0,0
		c-0.2,0.2-1.1,0.7-3.7,1.8c-0.5,0.2-0.8,0.7-0.8,1.2v1.5c0,0.7,0.6,1.3,1.3,1.3h11.1c0.7,0,1.3-0.6,1.3-1.3v-1.5
		C44.8,51.8,44.5,51.3,44,51.2z M43.1,53.5H32.9v-0.8c3.5-1.4,4.3-2,4.5-2.7c0-0.1,0-0.2,0-0.3v-0.6c0-0.2-0.1-0.4-0.2-0.6
		c-0.3-0.3-0.5-0.8-0.7-1.3c-0.1-0.2-0.2-0.6-0.3-0.7c0.1-0.2,0.2-0.3,0.2-0.5v-1.4c0-1,0.5-1.5,1.7-1.5c1.2,0,1.7,0.5,1.7,1.5V46
		c0,0.2,0,0.6,0.2,0.7c-0.2,0.1-0.3,0.3-0.3,0.5c-0.1,0.5-0.4,1-0.7,1.3c-0.2,0.2-0.2,0.4-0.2,0.6v0.7c0,0.1,0,0.2,0,0.3
		c0.2,0.6,0.7,1.2,4.5,2.7L43.1,53.5L43.1,53.5z"/>
	<path d="M57.8,32.2c-2.8-1.1-3.5-1.6-3.7-1.7l0,0c0.3-0.4,0.6-0.9,0.8-1.5c0.3-0.3,0.4-0.6,0.5-1c0.1-0.4,0-0.8-0.2-1.1v-1.2
		c0-2-1.3-3.2-3.4-3.2c-2.1,0-3.4,1.2-3.4,3.2v1.1c-0.2,0.3-0.3,0.7-0.2,1.1c0.1,0.4,0.2,0.8,0.5,1c0.2,0.6,0.5,1.1,0.8,1.5l0,0
		c-0.2,0.2-1.1,0.7-3.7,1.8C45.3,32.5,45,33,45,33.5V35c0,0.7,0.6,1.3,1.3,1.3h11.1c0.7,0,1.3-0.6,1.3-1.3v-1.5
		C58.6,33,58.3,32.5,57.8,32.2z"/>
	<path d="M30.3,32.2c-2.8-1.1-3.5-1.6-3.7-1.7l0,0c0.3-0.5,0.6-1,0.8-1.5c0.3-0.3,0.4-0.6,0.5-1c0.1-0.4,0-0.8-0.2-1.1v-1.2
		c0-2-1.3-3.2-3.4-3.2c-2.2-0.1-3.5,1.2-3.5,3.2v1.1c-0.2,0.3-0.2,0.7-0.2,1.1c0.1,0.4,0.2,0.8,0.5,1c0.2,0.6,0.5,1.1,0.8,1.5l0,0
		c-0.2,0.2-1.1,0.7-3.7,1.8c-0.5,0.2-0.8,0.7-0.8,1.2V35c0,0.7,0.6,1.3,1.3,1.3h11.1c0.7,0,1.3-0.6,1.3-1.3v-1.5
		C31.1,33,30.8,32.5,30.3,32.2z"/>
	<path d="M31.2,24.4c4.3-2.5,9.8-2.5,14.1,0c0.1,0.1,0.3,0.1,0.4,0.1c0.3,0,0.6-0.2,0.7-0.4c0.2-0.4,0.1-0.9-0.3-1.2
		c-4.8-2.8-11-2.8-15.8,0C29.9,23,29.8,23.6,30,24C30.2,24.5,30.8,24.5,31.2,24.4z"/>
	<path d="M53.1,37.2c-0.5-0.1-0.9,0.3-1,0.8c-0.5,4.1-2.7,7.8-6.2,10.1c-0.2,0.2-0.4,0.4-0.4,0.7c0,0.2,0,0.3,0.1,0.5
		c0.2,0.2,0.4,0.4,0.7,0.4c0.2,0,0.3,0,0.5-0.1c3.9-2.6,6.4-6.7,6.9-11.3v-0.1C53.8,37.7,53.5,37.3,53.1,37.2z"/>
	<path d="M24.3,38c-0.1-0.5-0.5-0.8-1-0.8c-0.4,0-0.8,0.4-0.8,0.9v0.1c0.5,4.6,3.1,8.7,6.9,11.3c0.1,0.1,0.3,0.1,0.5,0.1
		c0.3,0,0.5-0.1,0.7-0.4c0.1-0.1,0.1-0.3,0.1-0.5c0-0.3-0.1-0.6-0.4-0.7C27,45.8,24.8,42.2,24.3,38z"/>
</g>
</svg>
