<?xml version="1.0" encoding="utf-8"?>
<svg version="1.1" xmlns="http://www.w3.org/2000/svg" xmlns:xlink="http://www.w3.org/1999/xlink" x="0px" y="0px"
	 viewBox="0 0 76 76" style="enable-background:new 0 0 76 76;" xml:space="preserve">
<g>
	<path d="M34.8,30v-1.8l-6.4-3.5c-0.2-0.1-0.5-0.1-0.7,0l-12.3,6.6C15.2,31.5,15,31.7,15,32s0.1,0.6,0.4,0.7l12.2,7.1
		c0.1,0.1,0.3,0.1,0.4,0.1c0.1,0,0.3,0,0.4-0.1l6.4-3.7v-1.9l-6.8,4l-10.6-6.1L28,26.4L34.8,30z"/>
	<path d="M17.3,37.7l1.9-1.1c0.2-0.1,0.3-0.3,0.4-0.5c0.1-0.2,0-0.4-0.1-0.6c-0.2-0.4-0.7-0.5-1.1-0.3l-3,1.8
		c-0.3,0.1-0.4,0.4-0.4,0.7s0.1,0.5,0.4,0.7l12.2,7.1c0.1,0.1,0.3,0.1,0.4,0.1c0.1,0,0.3,0,0.4-0.1l6.4-3.7V40L28,43.8L17.3,37.7z"
		/>
	<path d="M17.3,43.5l1.9-1.1c0.2-0.1,0.3-0.3,0.4-0.5s0-0.4-0.1-0.6S19.2,41,19,40.9c-0.2,0-0.4,0-0.6,0.1l-3,1.8
		c-0.3,0.1-0.4,0.4-0.4,0.7s0.1,0.5,0.4,0.7l12.2,7.1c0.1,0.1,0.3,0.1,0.4,0.1c0.1,0,0.3,0,0.4-0.1l6.3-3.6l0.1-0.1v-1.9L28,49.6
		L17.3,43.5z"/>
	<path d="M57.9,25.6H39.4c-1.7,0-3.2,1.4-3.2,3.2v18.5c0,1.7,1.4,3.2,3.2,3.2h18.4c1.7,0,3.2-1.4,3.2-3.2V28.8
		C61,27,59.6,25.6,57.9,25.6z M59.5,28.8v18.5c0,0.9-0.7,1.7-1.7,1.7H39.4c-0.9,0-1.7-0.7-1.7-1.7V28.8c0-0.9,0.7-1.7,1.7-1.7h18.4
		C58.8,27.1,59.5,27.9,59.5,28.8z"/>
	<path d="M43.6,30.5v-0.6c0-0.4-0.3-0.7-0.7-0.7s-0.7,0.3-0.7,0.7v0.6C40.8,30.8,40,32,40,33.2s0.9,2.4,2.1,2.7v10.2
		c0,0.4,0.3,0.7,0.7,0.7c0.4,0,0.7-0.3,0.7-0.7V36c1.2-0.3,2.1-1.4,2.1-2.7C45.6,32,44.8,30.8,43.6,30.5z M44.2,33.2
		c0,0.7-0.6,1.3-1.3,1.3c-0.7,0-1.3-0.6-1.3-1.3s0.6-1.3,1.3-1.3C43.5,31.9,44.2,32.5,44.2,33.2z"/>
	<path d="M49.5,39.3v-9.4c0-0.4-0.3-0.7-0.7-0.7s-0.7,0.3-0.7,0.7v9.4C46.9,39.6,46,40.7,46,42c0,1.3,0.9,2.4,2.1,2.7v1.4
		c0,0.4,0.3,0.7,0.7,0.7s0.7-0.3,0.7-0.7v-1.4c1.2-0.3,2.1-1.4,2.1-2.7C51.6,40.7,50.7,39.7,49.5,39.3z M50.1,42.1
		c0,0.7-0.6,1.3-1.3,1.3s-1.3-0.6-1.3-1.3c0-0.7,0.5-1.4,1.2-1.4C49.5,40.7,50.1,41.3,50.1,42.1z"/>
	<path d="M55.4,33v-3.1c0-0.4-0.3-0.7-0.7-0.7S54,29.5,54,29.9V33c-1.2,0.3-2.1,1.4-2.1,2.7c0,1.3,0.9,2.4,2.1,2.7v7.7
		c0,0.4,0.3,0.7,0.7,0.7s0.7-0.3,0.7-0.7v-7.7c1.2-0.3,2.1-1.4,2.1-2.7C57.5,34.5,56.6,33.4,55.4,33z M56,35.8
		c0,0.6-0.4,1.1-0.9,1.3c-0.3,0.1-0.5,0.1-0.8,0c-0.6-0.2-0.9-0.7-0.9-1.3c0-0.6,0.4-1.1,0.9-1.3c0.2,0,0.3-0.1,0.4-0.1
		s0.3,0,0.4,0.1C55.6,34.7,56,35.2,56,35.8z"/>
</g>
</svg>
