<?xml version="1.0" encoding="utf-8"?>
<svg version="1.1" xmlns="http://www.w3.org/2000/svg" xmlns:xlink="http://www.w3.org/1999/xlink" x="0px" y="0px"
	 viewBox="0 0 76 76" style="enable-background:new 0 0 76 76;" xml:space="preserve">
<g id="icon">
	<g>
		<path d="M41.8,40.2c0.2,0.2,0.4,0.3,0.6,0.3s0.5-0.1,0.6-0.3c0.4-0.4,0.4-0.9,0-1.3l-5.8-5.8c-0.2-0.2-0.4-0.3-0.6-0.3
			s-0.5,0.1-0.6,0.3l-5.9,5.8c-0.4,0.4-0.4,0.9,0,1.3c0.4,0.4,0.9,0.4,1.3,0l4.3-4.3v19.5c0,0.5,0.4,0.9,0.9,0.9s0.9-0.4,0.9-0.9
			V35.9L41.8,40.2z"/>
		<path d="M50.3,28.1c-0.1,0-0.2,0-0.4,0c-1.4-3.6-4.9-6-8.8-6c-0.4,0-0.9,0-1.3,0.1c-2.2-1.7-4.6-2.6-7.4-2.6
			c-6,0-10.9,4.1-12.1,10.1c-2.6,1.8-4.2,4.6-4.2,7.2c0,4.9,4.1,8.8,9.1,8.8H31c0.5,0,0.9-0.4,0.9-0.9s-0.4-0.9-0.9-0.9h-5.8
			c-4,0-7.3-3.2-7.3-7c0-2.2,1.5-4.5,3.7-5.9c0.2-0.1,0.4-0.4,0.4-0.6c0.9-5.3,5.2-9,10.4-9c2.5,0,4.6,0.8,6.6,2.5
			c0.2,0.2,0.4,0.2,0.7,0.2c0.5-0.1,1.1-0.1,1.5-0.1c3.3,0,6.3,2.2,7.3,5.4c0.1,0.4,0.5,0.7,0.9,0.6c0.3,0,0.6,0,0.9,0
			c4.2,0,7.7,3.2,7.7,7s-3.5,7-7.7,7h-8.1c-0.5,0-0.9,0.4-0.9,0.9s0.4,0.9,0.9,0.9h8.1c5.1,0,9.5-4,9.5-8.8
			C59.8,32.2,55.4,28.1,50.3,28.1z"/>
	</g>
</g>
</svg>
