<?xml version="1.0" encoding="utf-8"?>
<svg version="1.1" xmlns="http://www.w3.org/2000/svg" xmlns:xlink="http://www.w3.org/1999/xlink" x="0px" y="0px"
	 viewBox="0 0 76 76" style="enable-background:new 0 0 76 76;" xml:space="preserve">
<g>
	<path d="M58.5,47.5c-0.9-3.2-3.8-5.4-7.1-5.4c-0.6,0-1.3,0.1-1.9,0.3c-3.9,1.1-6.2,5.1-5.2,9c0.9,3.2,3.8,5.4,7.1,5.4
		c0.6,0,1.3-0.1,1.9-0.3c1.9-0.5,3.5-1.7,4.5-3.4S59,49.3,58.5,47.5z M56.8,52.5C56,53.9,54.6,55,53,55.4c-0.5,0.1-1.1,0.2-1.6,0.2
		c-2.8,0-5.3-1.9-6-4.6c-0.9-3.3,1.1-6.8,4.4-7.6c0.5-0.1,1.1-0.2,1.6-0.2c2.8,0,5.3,1.9,6,4.6C57.9,49.3,57.6,51,56.8,52.5z"/>
	<path d="M33.7,28.2c0-0.4-0.3-0.7-0.7-0.7H21.9c-0.4,0-0.7,0.3-0.7,0.7V35c0,0.4,0.3,0.7,0.7,0.7H33c0.4,0,0.7-0.3,0.7-0.7V28.2z
		 M32.3,34.2h-9.6V29h9.6V34.2z"/>
	<path d="M33,38H21.9c-0.4,0-0.7,0.3-0.7,0.7v6.7c0,0.4,0.3,0.8,0.7,0.8H33c0.4,0,0.7-0.3,0.7-0.7v-6.7C33.7,38.3,33.4,38,33,38z
		 M32.3,44.8h-9.6v-5.3h9.6V44.8z"/>
	<path d="M36.6,27.5c-0.4,0-0.7,0.3-0.7,0.7V35c0,0.4,0.3,0.7,0.7,0.7h11.1c0.4,0,0.7-0.3,0.7-0.7v-6.7c0-0.4-0.3-0.7-0.7-0.7H36.6z
		 M46.9,34.2h-9.6V29h9.6V34.2z"/>
	<path d="M37.3,44.8v-5.3h9.6V42c0.4-0.3,0.9-0.5,1.4-0.7v-2.5c0-0.4-0.3-0.7-0.7-0.7h-11c-0.4,0-0.7,0.3-0.7,0.7v6.7
		c0,0.4,0.3,0.7,0.7,0.7h6.8c0.2-0.5,0.4-1,0.7-1.4C44.1,44.8,37.3,44.8,37.3,44.8z"/>
	<path d="M42.7,48.8H18.6V24.5H51v16.2c0.2,0,0.4,0,0.5,0c0.3,0,0.6,0,0.9,0.1v-17v-3.4V20c0-0.4-0.3-0.7-0.7-0.7H17.9
		c-0.4,0-0.7,0.3-0.7,0.7v0.4v3.4v25.8c0,0.4,0.3,0.7,0.7,0.7h24.8C42.7,49.8,42.7,49.3,42.7,48.8z M18.6,21H51v2H18.6V21z"/>
	<path d="M55.3,46.2c-0.4-0.6-1.1-1-1.9-1c-0.6,0-1.2,0.2-1.6,0.7c-0.6,0.6-0.8,1.3-0.6,2.1l-3.6,3.6c-0.1,0.1-0.2,0.3-0.1,0.4
		l0.3,0.6c0.1,0.2,0.2,0.2,0.4,0.2h1.4l0.3-1l1.1-0.2l0.2-1.2H52l0.8-0.8c0.9,0.3,2-0.1,2.6-0.9C55.7,47.8,55.7,47,55.3,46.2
		L55.3,46.2z M52.8,48.8c-0.2-0.1-0.3,0-0.5,0.1l-0.8,0.8h-0.6c-0.2,0-0.6,0.4-0.7,0.6V51l-1,0.2L49,52.1h-0.5L48.4,52l3.5-3.5
		c0.1-0.1,0.1-0.3,0.1-0.4c-0.2-0.5-0.1-1.1,0.3-1.5c0.3-0.3,0.6-0.4,1-0.4c0.5,0,1,0.3,1.3,0.7c0.2,0.4,0.2,1,0,1.4
		C54.2,48.8,53.4,49,52.8,48.8z"/>
	<path d="M54.2,46.5c-0.3-0.3-0.7-0.3-1,0C53.1,46.7,53,46.8,53,47s0.1,0.4,0.2,0.5c0.1,0.1,0.3,0.2,0.5,0.2s0.4-0.1,0.5-0.2
		C54.5,47.2,54.5,46.8,54.2,46.5z M53.8,47.2c-0.1,0.1-0.2,0.1-0.2,0V47v-0.1h0.1h0.1C53.9,47,53.9,47,53.8,47.2z"/>
</g>
</svg>
