<?xml version="1.0" encoding="utf-8"?>
<svg version="1.1" xmlns="http://www.w3.org/2000/svg" xmlns:xlink="http://www.w3.org/1999/xlink" x="0px" y="0px"
	 viewBox="0 0 76 76" style="enable-background:new 0 0 76 76;" xml:space="preserve">
<g>
	<path d="M57.5,22.2c-0.6-0.4-1.4-0.6-2.1-0.4c0,0-1.1,0.3-2.6,0.3c-3.5,0-8.5-1.3-12.8-7.4c-0.4-0.6-1.2-1-2-1s-1.5,0.4-2,1
		c-4.2,6.1-9.2,7.4-12.7,7.4c-1.6,0-2.6-0.3-2.6-0.3c-0.7-0.2-1.5,0-2.1,0.4c-0.6,0.5-1,1.2-1,1.9v13.2c0,19.1,19.6,24.8,19.8,24.8
		c0.2,0.1,0.4,0.1,0.6,0.1c0.2,0,0.4,0,0.6-0.1s19.8-5.7,19.8-24.8V24.1C58.5,23.4,58,22.7,57.5,22.2z M56.5,37.4
		c0,17.6-18.2,22.9-18.3,22.9s-0.2,0-0.2,0c-0.3,0-18.4-5.3-18.4-22.9V24.1c0-0.1,0.1-0.3,0.2-0.3c0,0,0.1-0.1,0.2-0.1H20
		c0.2,0.1,1.5,0.4,3.2,0.4c3.9,0,9.6-1.4,14.4-8.3c0.1-0.2,0.5-0.2,0.7,0c4.8,6.9,10.5,8.3,14.4,8.3c1.9,0,3.2-0.4,3.2-0.4
		c0.1,0,0.3,0,0.4,0.1c0.1,0.1,0.2,0.2,0.2,0.3L56.5,37.4L56.5,37.4z"/>
	<g>
		<ellipse cx="38" cy="39" rx="0.8" ry="0.8"/>
		<path d="M43.5,25.5h-11c-0.4,0-0.8,0.4-0.8,0.8v25.4c0,0.4,0.4,0.8,0.8,0.8h11c0.4,0,0.8-0.4,0.8-0.8V26.3
			C44.2,25.9,43.9,25.5,43.5,25.5z M42.8,27.1v23.8h-9.5V27.1H42.8z"/>
		<path d="M35.5,30.3h4.9c0.4,0,0.6-0.3,0.6-0.8c0-0.4-0.3-0.8-0.6-0.8h-4.9c-0.4,0-0.6,0.3-0.6,0.8S35.2,30.3,35.5,30.3z"/>
		<path d="M35.5,33.5h4.9c0.4,0,0.6-0.3,0.6-0.8s-0.3-0.8-0.6-0.8h-4.9c-0.4,0-0.6,0.3-0.6,0.8S35.2,33.5,35.5,33.5z"/>
		<path d="M35.5,36.7h4.9c0.4,0,0.6-0.3,0.6-0.8c0-0.4-0.3-0.8-0.6-0.8h-4.9c-0.4,0-0.6,0.3-0.6,0.8S35.2,36.7,35.5,36.7z"/>
		<path d="M35.5,42.8h4.9c0.4,0,0.6-0.3,0.6-0.8s-0.3-0.8-0.6-0.8h-4.9c-0.4,0-0.6,0.3-0.6,0.8S35.2,42.8,35.5,42.8z"/>
		<path d="M35.5,46h4.9c0.4,0,0.6-0.3,0.6-0.8s-0.3-0.8-0.6-0.8h-4.9c-0.4,0-0.6,0.3-0.6,0.8S35.2,46,35.5,46z"/>
		<path d="M35.5,49.2h4.9c0.4,0,0.6-0.3,0.6-0.8s-0.3-0.7-0.6-0.7h-4.9c-0.4,0-0.6,0.3-0.6,0.8S35.2,49.2,35.5,49.2z"/>
	</g>
</g>
</svg>
