<?xml version="1.0" encoding="utf-8"?>
<svg version="1.1" xmlns="http://www.w3.org/2000/svg" xmlns:xlink="http://www.w3.org/1999/xlink" x="0px" y="0px"
	 viewBox="0 0 76 76" style="enable-background:new 0 0 76 76;" xml:space="preserve">
<g>
	<path d="M22.4,36.5h31.2c3.2,0,5.8-2.6,5.8-5.8S56.8,25,53.6,25H22.4c-3.2,0-5.8,2.6-5.8,5.8S19.2,36.5,22.4,36.5z M22.4,26.5h31.2
		c2.3,0,4.2,1.9,4.2,4.2S55.9,35,53.6,35H22.4c-2.3,0-4.2-1.9-4.2-4.2S20.1,26.5,22.4,26.5z"/>
	<polygon points="26.1,31.1 28.6,31.1 28.6,33.4 29.5,33.4 29.5,28.1 28.6,28.1 28.6,30.2 26.1,30.2 26.1,28.1 25.2,28.1 25.2,33.4 
		26.1,33.4 	"/>
	<polygon points="32,33.4 33,33.4 33,29 34.6,29 34.6,28.1 30.4,28.1 30.4,29 32,29 	"/>
	<polygon points="36.8,29 36.8,33.4 37.7,33.4 37.7,29 39.3,29 39.3,28.1 35.1,28.1 35.1,29 36.7,29 	"/>
	<path d="M40.9,31.3h0.7c0.3,0,0.5-0.1,0.8-0.1c0.3,0,0.5-0.1,0.7-0.2c0.2-0.1,0.4-0.3,0.5-0.5c0.1-0.2,0.2-0.5,0.2-0.8
		s-0.1-0.5-0.2-0.7c-0.1-0.2-0.2-0.4-0.4-0.5c-0.2-0.2-0.4-0.3-0.6-0.3c-0.2-0.1-0.4-0.1-0.7-0.1h-1.8H40v5.4h0.9V31.3z M41.6,30.5
		h-0.7V29h0.7c0.1,0,0.3,0,0.4,0c0.2,0,0.3,0,0.4,0.1c0.1,0,0.2,0.1,0.3,0.2c0.1,0.1,0.1,0.2,0.1,0.4s0,0.3-0.1,0.4
		c-0.1,0.1-0.2,0.2-0.3,0.2c-0.1,0.1-0.3,0.1-0.4,0.1"/>
	<polygon points="44.4,33.8 46.7,28 46.1,27.8 43.8,33.6 	"/>
	<path d="M47.5,32.5v1.1H51v-0.8h-2.5l1.6-1.5c0.3-0.2,0.5-0.4,0.6-0.7c0.1-0.3,0.2-0.6,0.2-0.9s0-0.5-0.1-0.7
		c-0.1-0.2-0.2-0.4-0.4-0.5c-0.1-0.1-0.3-0.2-0.5-0.3c-0.2-0.1-0.5-0.1-0.7-0.1c-0.3,0-0.5,0-0.7,0.1c-0.2,0.1-0.3,0.2-0.5,0.3
		c-0.2,0.2-0.3,0.3-0.4,0.5c-0.1,0.1-0.2,0.4-0.2,0.6l0.9,0.1c0.1-0.2,0.2-0.4,0.3-0.5c0.2-0.1,0.4-0.2,0.6-0.2c0.1,0,0.2,0,0.3,0
		c0,0,0.1,0,0.2,0.1c0.1,0,0.2,0.1,0.2,0.2c0.1,0.1,0.1,0.2,0.1,0.3c0,0.1-0.1,0.2-0.1,0.3c0,0,0,0.1-0.1,0.2
		c-0.1,0.1-0.1,0.1-0.2,0.2c-0.1,0.1-0.1,0.1-0.2,0.2"/>
	<path d="M53.6,39.5H22.4c-3.2,0-5.8,2.6-5.8,5.8s2.6,5.8,5.8,5.8h31.2c3.2,0,5.8-2.6,5.8-5.8S56.8,39.5,53.6,39.5z M53.6,49.5H22.4
		c-2.3,0-4.2-1.9-4.2-4.2s1.9-4.2,4.2-4.2h31.2c2.3,0,4.2,1.9,4.2,4.2S55.9,49.5,53.6,49.5z"/>
	<rect x="30.6" y="42.4" width="1" height="5.6"/>
	<path d="M35.8,42.8c-0.1-0.2-0.4-0.2-0.6-0.3c-0.3-0.1-0.5-0.1-0.8-0.1h-1.9V48h1v-2.3h0.7c0.3,0,0.5-0.1,0.8-0.1s0.5-0.1,0.7-0.2
		c0.2-0.1,0.4-0.3,0.5-0.5c0.1-0.2,0.2-0.5,0.2-0.8c0-0.3-0.1-0.6-0.2-0.8C36.1,43.1,36,42.9,35.8,42.8z M35.1,44.5
		c-0.1,0.1-0.2,0.1-0.3,0.2c-0.1,0.1-0.3,0.1-0.4,0.1c-0.1,0-0.3,0-0.4,0v0.1h-0.7v-1.5H34c0.1,0,0.3,0,0.4,0c0.2,0,0.3,0,0.4,0.1
		c0.1,0,0.2,0.1,0.3,0.2c0.1,0.1,0.1,0.2,0.1,0.4C35.2,44.3,35.2,44.4,35.1,44.5z"/>
	<polygon points="39,46.8 38,44.2 37,44.2 38.5,48 39.5,48 41,44.2 40,44.2 	"/>
	<path d="M45,44.8c-0.1-0.2-0.3-0.3-0.5-0.4c-0.2-0.1-0.5-0.1-0.7-0.1c-0.1,0-0.2,0-0.3,0s-0.1,0.1-0.2,0.1l1.3-2h-1.1l-1.4,2.2
		c-0.2,0.2-0.3,0.5-0.4,0.7c-0.1,0.2-0.1,0.5-0.1,0.8c0,0.3,0,0.6,0.1,0.8c0.1,0.2,0.2,0.4,0.4,0.6c0.2,0.2,0.4,0.3,0.6,0.4
		c0.2,0.1,0.5,0.1,0.8,0.1c0.2,0,0.5,0,0.8-0.1c0.2-0.1,0.4-0.2,0.6-0.4c0.2-0.2,0.3-0.4,0.4-0.6c0.1-0.3,0.1-0.5,0.1-0.8
		c0-0.3,0-0.5-0.1-0.7C45.3,45.1,45.1,45,45,44.8z M44.4,46.6c0,0.1-0.1,0.2-0.2,0.3C44.1,47,44,47,43.9,47.1
		c-0.1,0.1-0.3,0.1-0.4,0.1s-0.3,0-0.4-0.1c-0.1,0-0.2-0.1-0.3-0.2c-0.1-0.1-0.1-0.2-0.2-0.3c-0.1-0.1-0.1-0.3-0.1-0.4
		c0-0.2,0-0.3,0.1-0.4c0-0.1,0.1-0.2,0.2-0.3c0.1-0.1,0.2-0.1,0.3-0.2c0.1-0.1,0.3-0.1,0.4-0.1s0.3,0,0.4,0.1c0.1,0,0.2,0.1,0.3,0.2
		c0.1,0.1,0.1,0.2,0.2,0.3c0.1,0.1,0.1,0.3,0.1,0.4C44.5,46.3,44.5,46.5,44.4,46.6z"/>
</g>
</svg>
