<?xml version="1.0" encoding="utf-8"?>
<svg version="1.1" xmlns="http://www.w3.org/2000/svg" xmlns:xlink="http://www.w3.org/1999/xlink" x="0px" y="0px"
	 viewBox="0 0 76 76" style="enable-background:new 0 0 76 76;" xml:space="preserve">
<g>
	<g>
		<path d="M49.2,38c0.1-1.4-1-2.6-2.4-2.7c-1.4-0.1-2.6,1-2.7,2.4c-0.1,1.4,1,2.6,2.4,2.7h0.1C48,40.5,49.2,39.4,49.2,38L49.2,38z"
			/>
		<path d="M27,52.1c-1.3,0-1.7-0.3-1.9-1.6c-0.2-1.6-0.1-3.2-0.2-4.8c-0.2-2.9-0.5-5.8-3.4-7.7c1.5-0.9,2.5-2.4,2.9-4.1
			c0.2-1.2,0.4-2.4,0.5-3.6c0-1.2,0-2.5,0-3.7c0.2-2,0.3-2.7,2.6-2.7c0.3,0,0.7,0,1.1,0V20c-0.9,0-1.8,0-2.6,0
			c-2.6-0.2-4.8,1.7-5.1,4.3c-0.3,2-0.3,4-0.4,5.9c0,1-0.1,2-0.3,3c-0.1,1.5-1.4,2.6-2.8,2.5c-0.1,0-0.1,0-0.2,0
			c-0.2,0-0.5,0.1-0.7,0.1V40c3.3,0.2,3.8,1.3,4,4.8c0,1.3,0,2.5,0,3.8c0,1.2,0.2,2.5,0.5,3.7c0.8,3.2,3.8,4.3,7.6,3.6v-3.8H27z"/>
		<path d="M29.5,35.5c-1.4-0.1-2.6,0.9-2.7,2.2c-0.1,1.4,0.9,2.6,2.2,2.7c0.2,0,0.3,0,0.5,0c1.3,0,2.4-1.1,2.4-2.5
			C31.9,36.7,30.8,35.6,29.5,35.5z"/>
		<path d="M38,35.5c-1.3,0-2.4,1-2.5,2.3c0,0.1,0,0.1,0,0.2c-0.1,1.3,0.9,2.4,2.2,2.5c0.1,0,0.2,0,0.3,0c1.3,0.1,2.4-0.8,2.5-2.1
			c0-0.1,0-0.3,0-0.4c0.1-1.3-0.9-2.4-2.2-2.5C38.2,35.5,38.1,35.5,38,35.5z"/>
		<path d="M55.9,33.6c-0.2-1-0.4-1.9-0.4-2.9c-0.1-1.8,0-3.7-0.2-5.5c-0.3-4.2-3.4-5.8-8-5.1v3.8h1.8c1,0,1.7,0.4,1.8,1.5s0,2,0.2,3
			c0.2,2,0.3,4,0.6,5.9c0.4,1.6,1.4,2.9,2.8,3.7c-2.1,1.5-3.3,3.9-3.2,6.5c0,1.8-0.1,3.6-0.2,5.4S50.4,52,48.8,52h-1.4v3.8
			c1,0,1.8,0,2.7,0c2.5,0.1,4.7-1.8,5-4.3c0.2-1.5,0.4-3,0.4-4.4s0-2.7,0.2-4.1c-0.1-1.7,1.2-3,2.9-3.1c0.1,0,0.3,0,0.4,0
			c0.2,0,0.4-0.1,0.6-0.1v-4h-0.9C57.3,36,56,35,55.9,33.6L55.9,33.6z"/>
	</g>
</g>
</svg>
