<?xml version="1.0" encoding="utf-8"?>
<svg version="1.1" xmlns="http://www.w3.org/2000/svg" xmlns:xlink="http://www.w3.org/1999/xlink" x="0px" y="0px"
	 viewBox="0 0 76 76" style="enable-background:new 0 0 76 76;" xml:space="preserve">
<g id="icon">
	<g>
		<path d="M39.8,30.3c1.8,5,7.4,7.6,12.4,5.8c5-1.8,7.6-7.4,5.8-12.4c-1.8-5-7.4-7.6-12.4-5.8C40.6,19.7,38,25.2,39.8,30.3"/>
		<path d="M27.5,48.2c-1.9,3.4-0.7,7.6,2.6,9.5c3.4,1.9,7.6,0.7,9.5-2.6c1.9-3.4,0.7-7.6-2.6-9.5C33.7,43.7,29.4,44.9,27.5,48.2"/>
		<path d="M17.5,34.7c-0.4,2.2,1,4.3,3.2,4.8c2.2,0.4,4.3-1,4.8-3.2c0.4-2.2-1-4.3-3.2-4.8S17.9,32.5,17.5,34.7"/>
	</g>
</g>
</svg>
