<?xml version="1.0" encoding="utf-8"?>
<svg version="1.1" xmlns="http://www.w3.org/2000/svg" xmlns:xlink="http://www.w3.org/1999/xlink" x="0px" y="0px"
	 viewBox="0 0 76 76" style="enable-background:new 0 0 76 76;" xml:space="preserve">
<g id="icon">
	<g>
		<g>
			<path d="M58.1,19.6H17.9c-0.4,0-0.8,0.4-0.8,0.8v9.9v25.1c0,0.5,0.4,0.8,0.8,0.8h40.2c0.5,0,0.8-0.4,0.8-0.8V30.3v-9.9
				C58.9,20,58.5,19.6,58.1,19.6z M18.4,21h39.3v8.5H18.4V21z M18.4,55.2V31h39.3v24.2H18.4z"/>
			<path d="M38.7,26.5h-4.3c-0.5,0-0.8,0.4-0.8,0.8S34,28,34.4,28h4.3c0.5,0,0.8-0.4,0.8-0.8S39.1,26.5,38.7,26.5z"/>
			<path d="M54.5,23c-0.3-0.3-0.9-0.3-1.2,0l-1.2,1.2L50.9,23c-0.3-0.3-0.9-0.3-1.2,0c-0.3,0.3-0.3,0.9,0,1.2l1.2,1.2l-1.2,1.2
				c-0.3,0.3-0.3,0.9,0,1.2c0.2,0.2,0.4,0.2,0.6,0.2s0.4-0.1,0.6-0.2l1.2-1.2l1.2,1.2c0.2,0.2,0.4,0.2,0.6,0.2s0.4-0.1,0.6-0.2
				c0.3-0.3,0.3-0.9,0-1.2l-1.2-1.2l1.2-1.2C54.8,23.8,54.8,23.4,54.5,23z"/>
			<path d="M46,22.9h-3.7c-0.5,0-0.8,0.4-0.8,0.8v3.4c0,0.5,0.4,0.8,0.8,0.8H46c0.5,0,0.8-0.4,0.8-0.8v-3.3
				C46.9,23.4,46.5,22.9,46,22.9z M45.2,26.5h-2v-1.8h2V26.5z"/>
		</g>
		<g>
			<path d="M38,36.2c-6.7,0-12.2,5.5-12.2,12.2c0,2.8,1,5.6,2.8,7.8c0.1,0.1,0.2,0.2,0.4,0.2h17.9c0.1,0,0.3-0.1,0.4-0.2
				c1.8-2.2,2.8-4.9,2.8-7.8C50.2,41.5,44.7,36.2,38,36.2z M46.4,55.2H29.6c-1.6-2-2.5-4.4-2.5-7c0-6.2,4.7-11,10.9-11s11,5,11,11.1
				C49,50.9,48,53.2,46.4,55.2z"/>
			<path d="M43.3,44.3c-0.3,0-0.6,0.1-0.9,0.3l0,0l-5.6,4.6c-0.6,0.4-0.9,1.1-0.9,1.8c0,1.2,1,2.1,2.1,2.1c0.6,0,1.1-0.2,1.5-0.7
				c0.1-0.1,0.2-0.2,0.2-0.3l4.6-5.6c0,0,0,0,0-0.1c0.2-0.2,0.3-0.5,0.3-0.8C44.7,44.9,44.1,44.3,43.3,44.3z M43.7,46
				C43.6,46,43.6,46,43.7,46L39,51.7l0,0c0,0.1-0.1,0.1-0.2,0.2c-0.2,0.2-0.5,0.3-0.8,0.3c-0.6,0-1.1-0.5-1.1-1.1
				c0-0.4,0.2-0.7,0.5-1l5.6-4.6l0,0c0.1,0,0.1-0.1,0.3-0.1s0.4,0.2,0.4,0.4C43.8,45.8,43.7,45.9,43.7,46z"/>
			<path d="M29.7,47.9h-0.9c-0.3,0-0.5,0.2-0.5,0.5c0,0.3,0.2,0.5,0.5,0.5h0.9c0.3,0,0.5-0.2,0.5-0.5C30.2,48.2,30,47.9,29.7,47.9z"
				/>
			<path d="M31.6,41.7c-0.2-0.2-0.5-0.2-0.7,0c-0.2,0.2-0.2,0.5,0,0.7l0.7,0.7c0.1,0.1,0.2,0.1,0.4,0.1s0.3,0,0.4-0.1
				c0.2-0.2,0.2-0.5,0-0.7L31.6,41.7z"/>
			<path d="M38.1,40.4c0.3,0,0.5-0.2,0.5-0.5V39c0-0.3-0.2-0.5-0.5-0.5c-0.3,0-0.5,0.2-0.5,0.5v0.9C37.6,40.2,37.8,40.4,38.1,40.4z"
				/>
			<path d="M44.5,41.7l-0.7,0.7c-0.2,0.2-0.2,0.5,0,0.7c0.1,0.1,0.2,0.1,0.4,0.1c0.1,0,0.3,0,0.4-0.1l0.7-0.7c0.2-0.2,0.2-0.5,0-0.7
				C45,41.4,44.7,41.4,44.5,41.7z"/>
			<path d="M47.1,47.9h-0.9c-0.3,0-0.5,0.2-0.5,0.5c0,0.3,0.2,0.5,0.5,0.5h0.9c0.3,0,0.5-0.2,0.5-0.5C47.6,48.2,47.4,47.9,47.1,47.9
				z"/>
		</g>
	</g>
</g>
</svg>
