<?xml version="1.0" encoding="utf-8"?>
<svg version="1.1" xmlns="http://www.w3.org/2000/svg" xmlns:xlink="http://www.w3.org/1999/xlink" x="0px" y="0px"
	 viewBox="0 0 76 76" style="enable-background:new 0 0 76 76;" xml:space="preserve">
<g id="icon">
	<g>
		<path d="M49.5,27.7l-4.1-4.1c-0.3-0.3-0.7-0.5-1.2-0.5l0,0H27.7c-0.9,0-1.7,0.7-1.7,1.7v26.4c0,0.9,0.7,1.7,1.7,1.7h20.5
			c0.9,0,1.7-0.7,1.7-1.7V28.9C50,28.4,49.8,28,49.5,27.7z M48.1,28.2h-3.2l0-3.2L48.1,28.2z M43.5,28.9c0,0.4,0.3,0.7,0.7,0.7h4.5
			v21.7c0,0.2-0.1,0.3-0.3,0.3H27.7c-0.2,0-0.3-0.1-0.3-0.3V24.8c0-0.2,0.1-0.3,0.3-0.3h15.7"/>
	</g>
</g>
</svg>
