<svg xmlns="http://www.w3.org/2000/svg" xmlns:xlink="http://www.w3.org/1999/xlink" width="560" height="477.62"><rect width="560" height="477.62" rx="0" ry="0" class="a"/><svg height="477.62" viewBox="0 0 56 47.762" width="560" xmlns="http://www.w3.org/2000/svg" xmlns:xlink="http://www.w3.org/1999/xlink"><style>@keyframes j{0%{transform:translateX(0)}.53%{transform:translateX(-56px)}.84%{transform:translateX(-112px)}1.01%{transform:translateX(-616px)}8.76%{transform:translateX(-784px)}8.79%{transform:translateX(-840px)}10.14%{transform:translateX(-952px)}17.89%{transform:translateX(-1008px)}17.9%{transform:translateX(-1064px)}17.91%{transform:translateX(-1120px)}25.66%{transform:translateX(-1232px)}26.1%{transform:translateX(-1288px)}26.11%{transform:translateX(-1344px)}33.86%{transform:translateX(-1456px)}33.87%{transform:translateX(-1512px)}34.03%{transform:translateX(-1568px)}34.35%{transform:translateX(-1624px)}34.67%{transform:translateX(-1680px)}35%{transform:translateX(-1736px)}35.32%{transform:translateX(-1792px)}36.88%{transform:translateX(-1848px)}38.44%{transform:translateX(-1904px)}40.01%{transform:translateX(-1960px)}41.57%{transform:translateX(-2016px)}43.13%{transform:translateX(-2072px)}43.45%{transform:translateX(-2128px)}44.24%{transform:translateX(-2184px)}45.8%{transform:translateX(-2240px)}46.12%{transform:translateX(-2296px)}47.68%{transform:translateX(-2352px)}47.85%{transform:translateX(-2464px)}49.42%{transform:translateX(-2520px)}50.98%{transform:translateX(-2576px)}51.14%{transform:translateX(-2632px)}52.71%{transform:translateX(-2688px)}52.88%{transform:translateX(-2744px)}53.2%{transform:translateX(-2800px)}53.52%{transform:translateX(-2856px)}55.08%{transform:translateX(-2912px)}55.4%{transform:translateX(-2968px)}55.72%{transform:translateX(-3080px)}63.47%{transform:translateX(-3248px)}63.49%{transform:translateX(-3304px)}65.23%{transform:translateX(-3416px)}67.12%{transform:translateX(-3528px)}74.87%{transform:translateX(-3584px)}74.88%{transform:translateX(-3640px)}82.63%{transform:translateX(-3752px)}82.67%{transform:translateX(-4256px)}90.42%{transform:translateX(-4424px)}90.46%{transform:translateX(-4480px)}92.24%{transform:translateX(-4536px)}92.25%{transform:translateX(-4592px)}to{transform:translateX(-4648px)}}.a{fill:transparent}.c{fill:#b9c0cb}.d{fill:#dbab79}.e{fill:#71bef2}.f{fill:#a8cc8c}.g{fill:#e88388}</style><g font-size="1.67" font-family="'Source Code Pro',Monaco,Consolas,Menlo,'Bitstream Vera Sans Mono','Powerline Symbols',monospace"><defs><symbol id="1"><text y="1.67" class="c">$</text></symbol><symbol id="2"><text y="1.67" class="c">$</text><text x="2.004" y="1.67" class="c">akamai</text><text x="9.018" y="1.67" class="c">help</text></symbol><symbol id="3"><text y="1.67" class="d">Usage:</text></symbol><symbol id="4"><text x="3.006" y="1.67" class="e">akamai</text><text x="10.02" y="1.67" class="e">command</text><text x="18.036" y="1.67" class="e">[flags]</text><text x="26.052" y="1.67" class="e">[arguments...]</text></symbol><symbol id="5"><text y="1.67" class="d">Built-In</text><text x="9.018" y="1.67" class="d">Commands:</text></symbol><symbol id="6"><text x="3.006" y="1.67" class="c">help</text></symbol><symbol id="7"><text x="3.006" y="1.67" class="c">list</text></symbol><symbol id="8"><text x="3.006" y="1.67" class="c">get</text></symbol><symbol id="9"><text x="3.006" y="1.67" class="c">update</text></symbol><symbol id="10"><text y="1.67" class="d">Global</text><text x="7.014" y="1.67" class="d">Flags:</text></symbol><symbol id="11"><text x="6.012" y="1.67" class="c">--version,</text><text x="17.034" y="1.67" class="c">-v</text><text x="26.052" y="1.67" class="c">print</text><text x="32.064" y="1.67" class="c">the</text><text x="36.072" y="1.67" class="c">version</text></symbol><symbol id="12"><text y="1.67" class="d">Author:</text></symbol><symbol id="13"><text x="3.006" y="1.67" class="c">Davey</text><text x="9.018" y="1.67" class="c">Shafik</text><text x="16.032" y="1.67" class="c">&lt;dshafik@akamai.com&gt;</text></symbol><symbol id="14"><text y="1.67" class="d">Copyright:</text></symbol><symbol id="15"><text x="3.006" y="1.67" class="c">Copyright</text><text x="13.026" y="1.67" class="c">(C)</text><text x="17.034" y="1.67" class="c">Akamai</text><text x="24.048" y="1.67" class="c">Technologies,</text><text x="38.076" y="1.67" class="c">Inc</text></symbol><symbol id="16"><text y="1.67" class="c">$</text><text x="2.004" y="1.67" class="c">akamai</text><text x="9.018" y="1.67" class="c">install</text><text x="17.034" y="1.67" class="c">property</text></symbol><symbol id="17"><text y="1.67" class="c">Attempting</text><text x="11.022" y="1.67" class="c">to</text><text x="14.028" y="1.67" class="c">fetch</text><text x="20.04" y="1.67" class="c">command...</text></symbol><symbol id="18"><text y="1.67" class="c">Attempting</text><text x="11.022" y="1.67" class="c">to</text><text x="14.028" y="1.67" class="c">fetch</text><text x="20.04" y="1.67" class="c">command......</text><text x="34.068" y="1.67" class="c">[</text><text x="35.07" y="1.67" class="f">OK</text><text x="37.074" y="1.67" class="c">]</text></symbol><symbol id="19"><text y="1.67" class="c">Installing...</text></symbol><symbol id="20"><text y="1.67" class="c">Installing......</text><text x="17.034" y="1.67" class="c">[</text><text x="18.036" y="1.67" class="f">OK</text><text x="20.04" y="1.67" class="c">]</text></symbol><symbol id="21"><text y="1.67" class="d">Available</text><text x="10.02" y="1.67" class="d">Commands:</text></symbol><symbol id="22"><text x="2.004" y="1.67" class="c">help</text><text x="8.016" y="1.67" class="c">Displays</text><text x="17.034" y="1.67" class="c">help</text><text x="22.044" y="1.67" class="c">information</text></symbol><symbol id="23"><text x="2.004" y="1.67" class="c">list</text><text x="8.016" y="1.67" class="c">Displays</text><text x="17.034" y="1.67" class="c">available</text><text x="27.054" y="1.67" class="c">commands</text></symbol><symbol id="24"><text x="2.004" y="1.67" class="c">get</text><text x="8.016" y="1.67" class="c">Fetch</text><text x="14.028" y="1.67" class="c">and</text><text x="18.036" y="1.67" class="c">install</text><text x="26.052" y="1.67" class="c">a</text><text x="28.056" y="1.67" class="c">sub-command</text><text x="40.08" y="1.67" class="c">from</text><text x="45.09" y="1.67" class="c">git</text></symbol><symbol id="25"><text x="2.004" y="1.67" class="c">update</text><text x="16.032" y="1.67" class="c">Update</text><text x="23.046" y="1.67" class="c">a</text><text x="25.05" y="1.67" class="c">sub-command.</text></symbol><symbol id="26"><text x="2.004" y="1.67" class="f">property</text><text x="16.032" y="1.67" class="c">Manage</text><text x="23.046" y="1.67" class="c">Akamai</text><text x="30.06" y="1.67" class="c">property</text><text x="39.078" y="1.67" class="c">configs</text></symbol><symbol id="27"><text y="1.67" class="c">See</text><text x="4.008" y="1.67" class="c">&quot;</text><text x="5.01" y="1.67" class="e">akamai</text><text x="12.024" y="1.67" class="e">help</text><text x="17.034" y="1.67" class="e">[command]</text><text x="26.052" y="1.67" class="c">&quot;</text><text x="28.056" y="1.67" class="c">for</text><text x="32.064" y="1.67" class="c">details.</text></symbol><symbol id="28"><text y="1.67" class="c">$</text><text x="2.004" y="1.67" class="c">akamai</text><text x="9.018" y="1.67" class="c">help</text><text x="14.028" y="1.67" class="c">property</text></symbol><symbol id="29"><text x="2.004" y="1.67" class="c">Usage:</text><text x="9.018" y="1.67" class="c">akamai</text><text x="16.032" y="1.67" class="c">property</text><text x="25.05" y="1.67" class="c">[options]</text><text x="35.07" y="1.67" class="c">[command]</text></symbol><symbol id="30"><text x="2.004" y="1.67" class="c">Commands:</text></symbol><symbol id="31"><text x="4.008" y="1.67" class="c">help</text><text x="9.018" y="1.67" class="c">[command]</text></symbol><symbol id="32"><text x="4.008" y="1.67" class="c">activate</text><text x="13.026" y="1.67" class="c">[options]</text><text x="23.046" y="1.67" class="c">&lt;property&gt;</text></symbol><symbol id="33"><text x="4.008" y="1.67" class="c">create</text><text x="11.022" y="1.67" class="c">[options]</text><text x="21.042" y="1.67" class="c">&lt;property&gt;</text></symbol><symbol id="34"><text x="4.008" y="1.67" class="c">deactivate</text><text x="15.03" y="1.67" class="c">[options]</text><text x="25.05" y="1.67" class="c">&lt;property&gt;</text></symbol><symbol id="35"><text x="4.008" y="1.67" class="c">formats</text><text x="12.024" y="1.67" class="c">[options]</text></symbol><symbol id="36"><text x="4.008" y="1.67" class="c">delete</text><text x="11.022" y="1.67" class="c">[options]</text><text x="21.042" y="1.67" class="c">&lt;property&gt;</text></symbol><symbol id="37"><text x="4.008" y="1.67" class="c">retrieve</text><text x="13.026" y="1.67" class="c">[options]</text><text x="23.046" y="1.67" class="c">&lt;property&gt;</text></symbol><symbol id="38"><text x="4.008" y="1.67" class="c">update</text><text x="11.022" y="1.67" class="c">[options]</text><text x="21.042" y="1.67" class="c">&lt;property&gt;</text></symbol><symbol id="39"><text x="4.008" y="1.67" class="c">modify</text><text x="11.022" y="1.67" class="c">[options]</text><text x="21.042" y="1.67" class="c">&lt;property&gt;</text></symbol><symbol id="40"><text x="2.004" y="1.67" class="c">Options:</text></symbol><symbol id="41"><text x="4.008" y="1.67" class="c">-h,</text><text x="8.016" y="1.67" class="c">--help</text><text x="16.032" y="1.67" class="c">output</text><text x="23.046" y="1.67" class="c">usage</text><text x="29.058" y="1.67" class="c">information</text></symbol><symbol id="42"><text y="1.67" class="c">$</text><text x="2.004" y="1.67" class="c">akamai</text><text x="9.018" y="1.67" class="c">property</text><text x="18.036" y="1.67" class="c">create</text><text x="25.05" y="1.67" class="c">example.org</text></symbol><symbol id="43"><text y="1.67" class="c">Creating</text><text x="9.018" y="1.67" class="c">new</text><text x="13.026" y="1.67" class="c">property</text><text x="22.044" y="1.67" class="c">example.org</text></symbol><symbol id="44"><text y="1.67" class="c">Init</text><text x="5.01" y="1.67" class="c">PropertyManager</text><text x="21.042" y="1.67" class="c">cache</text><text x="27.054" y="1.67" class="c">(hostnames</text><text x="38.076" y="1.67" class="c">and</text><text x="42.084" y="1.67" class="c">property</text><text x="51.102" y="1.67" class="c">list)</text></symbol><symbol id="45"><text y="1.67" class="c">...</text><text x="4.008" y="1.67" class="c">retrieving</text><text x="15.03" y="1.67" class="c">list</text><text x="20.04" y="1.67" class="c">of</text><text x="23.046" y="1.67" class="c">Group</text><text x="29.058" y="1.67" class="c">Ids</text></symbol><symbol id="46"><text y="1.67" class="c">...</text><text x="4.008" y="1.67" class="c">retrieving</text><text x="15.03" y="1.67" class="c">properties</text><text x="26.052" y="1.67" class="c">from</text><text x="31.062" y="1.67" class="c">20</text><text x="34.068" y="1.67" class="c">groups</text></symbol><symbol id="47"><text y="1.67" class="c">...</text><text x="4.008" y="1.67" class="c">no</text><text x="7.014" y="1.67" class="c">permissions,</text><text x="20.04" y="1.67" class="c">ignoring</text><text x="30.06" y="1.67" class="c">{ctr_TESTING</text><text x="43.086" y="1.67" class="c">:</text><text x="45.09" y="1.67" class="c">grp_123456}</text></symbol><symbol id="48"><text y="1.67" class="c">...</text><text x="4.008" y="1.67" class="c">retrieving</text><text x="15.03" y="1.67" class="c">Hosts</text><text x="21.042" y="1.67" class="c">from</text><text x="26.052" y="1.67" class="c">119</text><text x="30.06" y="1.67" class="c">properties</text></symbol><symbol id="49"><text y="1.67" class="c">Init</text><text x="5.01" y="1.67" class="c">PropertyManager</text><text x="21.042" y="1.67" class="c">cache:</text><text x="28.056" y="1.67" class="c">12157.522ms</text></symbol><symbol id="50"><text y="1.67" class="c">...</text><text x="4.008" y="1.67" class="c">retrieving</text><text x="15.03" y="1.67" class="c">clone</text><text x="21.042" y="1.67" class="c">info</text></symbol><symbol id="51"><text y="1.67" class="c">...</text><text x="4.008" y="1.67" class="c">retrieving</text><text x="15.03" y="1.67" class="c">clone</text><text x="21.042" y="1.67" class="c">rules</text><text x="27.054" y="1.67" class="c">for</text><text x="31.062" y="1.67" class="c">cpcode</text></symbol><symbol id="52"><text y="1.67" class="c">Creating</text><text x="9.018" y="1.67" class="c">property</text><text x="18.036" y="1.67" class="c">config</text><text x="25.05" y="1.67" class="c">example.org</text></symbol><symbol id="53"><text y="1.67" class="c">...</text><text x="4.008" y="1.67" class="c">creating:</text><text x="14.028" y="1.67" class="c">4123.982ms</text></symbol><symbol id="54"><text y="1.67" class="c">Retrieving</text><text x="11.022" y="1.67" class="c">example.org</text><text x="23.046" y="1.67" class="c">v1</text></symbol><symbol id="55"><text y="1.67" class="c">...</text><text x="4.008" y="1.67" class="c">retrieving</text><text x="15.03" y="1.67" class="c">property</text><text x="24.048" y="1.67" class="c">(prp_654321)</text><text x="37.074" y="1.67" class="c">v1</text></symbol><symbol id="56"><text y="1.67" class="c">...</text><text x="4.008" y="1.67" class="c">retrieving:</text><text x="16.032" y="1.67" class="c">1981.079ms</text></symbol><symbol id="57"><text y="1.67" class="c">...</text><text x="4.008" y="1.67" class="c">updating</text><text x="13.026" y="1.67" class="c">property</text><text x="22.044" y="1.67" class="c">(example.org)</text><text x="36.072" y="1.67" class="c">v1</text></symbol><symbol id="58"><text y="1.67" class="c">...</text><text x="4.008" y="1.67" class="c">updating:</text><text x="14.028" y="1.67" class="c">5174.311ms</text></symbol><symbol id="59"><text y="1.67" class="c">Updating</text><text x="9.018" y="1.67" class="c">property</text><text x="18.036" y="1.67" class="c">hostnames</text></symbol><symbol id="60"><text y="1.67" class="c">Adding</text><text x="7.014" y="1.67" class="c">hostname</text><text x="16.032" y="1.67" class="c">example.org</text></symbol><symbol id="61"><text y="1.67" class="c">...</text><text x="4.008" y="1.67" class="c">updating</text><text x="13.026" y="1.67" class="c">hostname:</text><text x="23.046" y="1.67" class="c">7822.882ms</text></symbol><symbol id="62"><text y="1.67" class="c">Creation</text><text x="9.018" y="1.67" class="c">complete</text></symbol><symbol id="63"><text y="1.67" class="c">Property</text><text x="9.018" y="1.67" class="c">created</text></symbol><symbol id="64"><text y="1.67" class="c">$</text><text x="2.004" y="1.67" class="c">akamai</text><text x="9.018" y="1.67" class="c">install</text><text x="17.034" y="1.67" class="c">purge</text></symbol><symbol id="65"><text y="1.67" class="c">Installing......</text><text x="17.034" y="1.67" class="c">[</text><text x="18.036" y="1.67" class="g">FAIL</text><text x="22.044" y="1.67" class="c">]</text></symbol><symbol id="66"><text y="1.67" class="g">Unable</text><text x="7.014" y="1.67" class="g">to</text><text x="10.02" y="1.67" class="g">locate</text><text x="17.034" y="1.67" class="g">Go</text><text x="20.04" y="1.67" class="g">runtime</text></symbol><symbol id="67"><text y="1.67" class="c">Binary</text><text x="7.014" y="1.67" class="c">command(s)</text><text x="18.036" y="1.67" class="c">found,</text><text x="25.05" y="1.67" class="c">would</text><text x="31.062" y="1.67" class="c">you</text><text x="35.07" y="1.67" class="c">like</text><text x="40.08" y="1.67" class="c">to</text><text x="43.086" y="1.67" class="c">try</text><text x="47.094" y="1.67" class="c">download</text></symbol><symbol id="68"><text y="1.67" class="c">and</text><text x="4.008" y="1.67" class="c">install</text><text x="12.024" y="1.67" class="c">it?</text><text x="16.032" y="1.67" class="c">(Y/n):</text></symbol><symbol id="69"><text y="1.67" class="c">Downloading</text><text x="12.024" y="1.67" class="c">binary......</text><text x="25.05" y="1.67" class="c">[</text><text x="26.052" y="1.67" class="f">OK</text><text x="28.056" y="1.67" class="c">]</text></symbol><symbol id="70"><text x="2.004" y="1.67" class="c">property</text><text x="16.032" y="1.67" class="c">Manage</text><text x="23.046" y="1.67" class="c">Akamai</text><text x="30.06" y="1.67" class="c">property</text><text x="39.078" y="1.67" class="c">configs</text></symbol><symbol id="71"><text x="2.004" y="1.67" class="f">purge</text><text x="8.016" y="1.67" class="c">Purge</text><text x="14.028" y="1.67" class="c">content</text><text x="22.044" y="1.67" class="c">from</text><text x="27.054" y="1.67" class="c">the</text><text x="31.062" y="1.67" class="c">Edge</text></symbol><symbol id="72"><text y="1.67" class="c">$</text><text x="2.004" y="1.67" class="c">akamai</text><text x="9.018" y="1.67" class="c">help</text><text x="14.028" y="1.67" class="c">purge</text></symbol><symbol id="73"><text x="3.006" y="1.67" class="e">akamai</text><text x="10.02" y="1.67" class="e">purge</text><text x="16.032" y="1.67" class="e">[global</text><text x="24.048" y="1.67" class="e">flags]</text><text x="31.062" y="1.67" class="e">command</text><text x="39.078" y="1.67" class="e">[command</text><text x="48.096" y="1.67" class="e">flags]</text><text x="55.11" y="1.67" class="e">[</text></symbol><symbol id="74"><text y="1.67" class="e">arguments...]</text></symbol><symbol id="75"><text y="1.67" class="d">Description:</text></symbol><symbol id="76"><text x="3.006" y="1.67" class="c">Purge</text><text x="9.018" y="1.67" class="c">Content</text><text x="17.034" y="1.67" class="c">from</text><text x="22.044" y="1.67" class="c">the</text><text x="26.052" y="1.67" class="c">Edge.</text><text x="32.064" y="1.67" class="c">URLs/CPCodes</text><text x="45.09" y="1.67" class="c">may</text><text x="49.098" y="1.67" class="c">be</text><text x="52.104" y="1.67" class="c">spec</text></symbol><symbol id="77"><text y="1.67" class="c">ified</text><text x="6.012" y="1.67" class="c">as</text><text x="9.018" y="1.67" class="c">a</text><text x="11.022" y="1.67" class="c">list</text><text x="16.032" y="1.67" class="c">of</text><text x="19.038" y="1.67" class="c">arguments,</text><text x="30.06" y="1.67" class="c">or</text><text x="33.066" y="1.67" class="c">piped</text><text x="39.078" y="1.67" class="c">in</text><text x="42.084" y="1.67" class="c">via</text><text x="46.092" y="1.67" class="c">STDIN</text></symbol><symbol id="78"><text y="1.67" class="d">Commands:</text></symbol><symbol id="79"><text x="3.006" y="1.67" class="c">invalidate</text><text x="15.03" y="1.67" class="c">Invalidate</text><text x="26.052" y="1.67" class="c">content</text></symbol><symbol id="80"><text x="3.006" y="1.67" class="c">delete</text><text x="19.038" y="1.67" class="c">Delete</text><text x="26.052" y="1.67" class="c">content</text></symbol><symbol id="81"><text x="3.006" y="1.67" class="c">list</text><text x="19.038" y="1.67" class="c">List</text><text x="24.048" y="1.67" class="c">commands</text></symbol><symbol id="82"><text x="3.006" y="1.67" class="c">help,</text><text x="9.018" y="1.67" class="c">h</text><text x="19.038" y="1.67" class="c">Displays</text><text x="28.056" y="1.67" class="c">help</text><text x="33.066" y="1.67" class="c">information</text></symbol><symbol id="83"><text x="3.006" y="1.67" class="c">--help,</text><text x="11.022" y="1.67" class="c">-h</text><text x="23.046" y="1.67" class="c">show</text><text x="28.056" y="1.67" class="c">help</text></symbol><symbol id="84"><text x="3.006" y="1.67" class="c">--version,</text><text x="14.028" y="1.67" class="c">-v</text><text x="23.046" y="1.67" class="c">print</text><text x="29.058" y="1.67" class="c">the</text><text x="33.066" y="1.67" class="c">version</text></symbol><symbol id="85"><text y="1.67" class="c">$</text><text x="2.004" y="1.67" class="c">akamai</text><text x="9.018" y="1.67" class="c">purge</text><text x="15.03" y="1.67" class="c">--section</text><text x="25.05" y="1.67" class="c">ccu</text><text x="29.058" y="1.67" class="c">invalidate</text><text x="40.08" y="1.67" class="c">&lt;</text><text x="42.084" y="1.67" class="c">urls.txt</text></symbol><symbol id="86"><text y="1.67" class="c">Purging......</text><text x="14.028" y="1.67" class="c">[</text><text x="15.03" y="1.67" class="f">OK</text><text x="17.034" y="1.67" class="c">]</text><text x="19.038" y="1.67" class="c">(URLs:</text><text x="26.052" y="1.67" class="e">53</text><text x="28.056" y="1.67" class="c">,</text><text x="30.06" y="1.67" class="c">ETA:</text><text x="35.07" y="1.67" class="e">5</text><text x="37.074" y="1.67" class="e">seconds</text><text x="44.088" y="1.67" class="c">)</text></symbol><symbol id="a"><path fill="transparent" d="M0 0h56v22H0z"/></symbol><symbol id="b"><path fill="#6f7683" d="M0 0h1.102v2.171H0z"/></symbol></defs><path class="a" d="M0 0h56v47.762H0z"/><g style="animation-duration:64.50627600000001s;animation-iteration-count:infinite;animation-name:j;animation-timing-function:steps(1,end)"><svg width="4704"><svg><use xlink:href="#a"/><use xlink:href="#b" x="-.004"/></svg><svg x="56"><use xlink:href="#a"/><use xlink:href="#b" x="1.996"/><use xlink:href="#1"/></svg><svg x="112"><use xlink:href="#a"/><use xlink:href="#b" x="-.004" y="2.146"/><use xlink:href="#2"/></svg><svg x="168"><use xlink:href="#a"/><use xlink:href="#b" x="-.004" y="4.317"/><use xlink:href="#2"/><use xlink:href="#3" y="2.171"/></svg><svg x="224"><use xlink:href="#a"/><use xlink:href="#b" x="-.004" y="10.83"/><use xlink:href="#2"/><use xlink:href="#3" y="2.171"/><use xlink:href="#4" y="4.342"/><use xlink:href="#5" y="8.684"/></svg><svg x="280"><use xlink:href="#a"/><use xlink:href="#b" x="-.004" y="15.172"/><use xlink:href="#2"/><use xlink:href="#3" y="2.171"/><use xlink:href="#4" y="4.342"/><use xlink:href="#5" y="8.684"/><use xlink:href="#6" y="10.855"/><use xlink:href="#7" y="13.026"/></svg><svg x="336"><use xlink:href="#a"/><use xlink:href="#b" x="-.004" y="23.856"/><use xlink:href="#2"/><use xlink:href="#3" y="2.171"/><use xlink:href="#4" y="4.342"/><use xlink:href="#5" y="8.684"/><use xlink:href="#6" y="10.855"/><use xlink:href="#7" y="13.026"/><use xlink:href="#8" y="15.197"/><use xlink:href="#9" y="17.368"/><use xlink:href="#10" y="21.71"/></svg><svg x="392"><use xlink:href="#a"/><use xlink:href="#b" x="-.004" y="28.198"/><use xlink:href="#2"/><use xlink:href="#3" y="2.171"/><use xlink:href="#4" y="4.342"/><use xlink:href="#5" y="8.684"/><use xlink:href="#6" y="10.855"/><use xlink:href="#7" y="13.026"/><use xlink:href="#8" y="15.197"/><use xlink:href="#9" y="17.368"/><use xlink:href="#10" y="21.71"/><use xlink:href="#11" y="23.881"/></svg><svg x="448"><use xlink:href="#a"/><use xlink:href="#b" x="-.004" y="30.369"/><use xlink:href="#2"/><use xlink:href="#3" y="2.171"/><use xlink:href="#4" y="4.342"/><use xlink:href="#5" y="8.684"/><use xlink:href="#6" y="10.855"/><use xlink:href="#7" y="13.026"/><use xlink:href="#8" y="15.197"/><use xlink:href="#9" y="17.368"/><use xlink:href="#10" y="21.71"/><use xlink:href="#11" y="23.881"/><use xlink:href="#12" y="28.223"/></svg><svg x="504"><use xlink:href="#a"/><use xlink:href="#b" x="-.004" y="36.882"/><use xlink:href="#2"/><use xlink:href="#3" y="2.171"/><use xlink:href="#4" y="4.342"/><use xlink:href="#5" y="8.684"/><use xlink:href="#6" y="10.855"/><use xlink:href="#7" y="13.026"/><use xlink:href="#8" y="15.197"/><use xlink:href="#9" y="17.368"/><use xlink:href="#10" y="21.71"/><use xlink:href="#11" y="23.881"/><use xlink:href="#12" y="28.223"/><use xlink:href="#13" y="30.394"/><use xlink:href="#14" y="34.736"/></svg><svg x="560"><use xlink:href="#a"/><use xlink:href="#b" x="-.004" y="39.053"/><use xlink:href="#2"/><use xlink:href="#3" y="2.171"/><use xlink:href="#4" y="4.342"/><use xlink:href="#5" y="8.684"/><use xlink:href="#6" y="10.855"/><use xlink:href="#7" y="13.026"/><use xlink:href="#8" y="15.197"/><use xlink:href="#9" y="17.368"/><use xlink:href="#10" y="21.71"/><use xlink:href="#11" y="23.881"/><use xlink:href="#12" y="28.223"/><use xlink:href="#13" y="30.394"/><use xlink:href="#14" y="34.736"/><use xlink:href="#15" y="36.907"/></svg><svg x="616"><use xlink:href="#a"/><use xlink:href="#b" x="1.996" y="39.053"/><use xlink:href="#2"/><use xlink:href="#3" y="2.171"/><use xlink:href="#4" y="4.342"/><use xlink:href="#5" y="8.684"/><use xlink:href="#6" y="10.855"/><use xlink:href="#7" y="13.026"/><use xlink:href="#8" y="15.197"/><use xlink:href="#9" y="17.368"/><use xlink:href="#10" y="21.71"/><use xlink:href="#11" y="23.881"/><use xlink:href="#12" y="28.223"/><use xlink:href="#13" y="30.394"/><use xlink:href="#14" y="34.736"/><use xlink:href="#15" y="36.907"/><use xlink:href="#1" y="39.078"/></svg><svg x="672"><use xlink:href="#a"/><use xlink:href="#b" x="-.004"/></svg><svg x="728"><use xlink:href="#a"/><use xlink:href="#b" x="1.996"/><use xlink:href="#1"/></svg><svg x="784"><use xlink:href="#a"/><use xlink:href="#b" x="-.004" y="2.146"/><use xlink:href="#16"/></svg><svg x="840"><use xlink:href="#a"/><use xlink:href="#b" x="29.996" y="2.146"/><use xlink:href="#16"/><use xlink:href="#17" y="2.171"/></svg><svg x="896"><use xlink:href="#a"/><use xlink:href="#b" x="-.004" y="4.317"/><use xlink:href="#16"/><use xlink:href="#18" y="2.171"/></svg><svg x="952"><use xlink:href="#a"/><use xlink:href="#b" x="12.996" y="4.317"/><use xlink:href="#16"/><use xlink:href="#18" y="2.171"/><use xlink:href="#19" y="4.342"/></svg><svg x="1008"><use xlink:href="#a"/><use xlink:href="#b" x="-.004" y="10.83"/><use xlink:href="#16"/><use xlink:href="#18" y="2.171"/><use xlink:href="#20" y="4.342"/><use xlink:href="#21" y="8.684"/></svg><svg x="1064"><use xlink:href="#a"/><use xlink:href="#b" x="-.004" y="26.027"/><use xlink:href="#16"/><use xlink:href="#18" y="2.171"/><use xlink:href="#20" y="4.342"/><use xlink:href="#21" y="8.684"/><use xlink:href="#22" y="10.855"/><use xlink:href="#23" y="13.026"/><use xlink:href="#24" y="15.197"/><use xlink:href="#25" y="17.368"/><use xlink:href="#26" y="19.539"/><use xlink:href="#27" y="23.881"/></svg><svg x="1120"><use xlink:href="#a"/><use xlink:href="#b" x="1.996" y="26.027"/><use xlink:href="#16"/><use xlink:href="#18" y="2.171"/><use xlink:href="#20" y="4.342"/><use xlink:href="#21" y="8.684"/><use xlink:href="#22" y="10.855"/><use xlink:href="#23" y="13.026"/><use xlink:href="#24" y="15.197"/><use xlink:href="#25" y="17.368"/><use xlink:href="#26" y="19.539"/><use xlink:href="#27" y="23.881"/><use xlink:href="#1" y="26.052"/></svg><svg x="1176"><use xlink:href="#a"/><use xlink:href="#b" x="-.004"/></svg><svg x="1232"><use xlink:href="#a"/><use xlink:href="#b" x="-.004" y="2.146"/><use xlink:href="#28"/></svg><svg x="1288"><use xlink:href="#a"/><use xlink:href="#b" x="-.004" y="45.566"/><use xlink:href="#28"/><use xlink:href="#29" y="4.342"/><use xlink:href="#30" y="10.855"/><use xlink:href="#31" y="15.197"/><use xlink:href="#32" y="17.368"/><use xlink:href="#33" y="19.539"/><use xlink:href="#34" y="21.71"/><use xlink:href="#35" y="23.881"/><use xlink:href="#36" y="26.052"/><use xlink:href="#37" y="28.223"/><use xlink:href="#38" y="30.394"/><use xlink:href="#39" y="32.565"/><use xlink:href="#40" y="36.907"/><use xlink:href="#41" y="41.249"/></svg><svg x="1344"><use xlink:href="#a"/><use xlink:href="#b" x="1.996" y="45.566"/><use xlink:href="#28"/><use xlink:href="#29" y="4.342"/><use xlink:href="#30" y="10.855"/><use xlink:href="#31" y="15.197"/><use xlink:href="#32" y="17.368"/><use xlink:href="#33" y="19.539"/><use xlink:href="#34" y="21.71"/><use xlink:href="#35" y="23.881"/><use xlink:href="#36" y="26.052"/><use xlink:href="#37" y="28.223"/><use xlink:href="#38" y="30.394"/><use xlink:href="#39" y="32.565"/><use xlink:href="#40" y="36.907"/><use xlink:href="#41" y="41.249"/><use xlink:href="#1" y="45.591"/></svg><svg x="1400"><use xlink:href="#a"/><use xlink:href="#b" x="-.004"/></svg><svg x="1456"><use xlink:href="#a"/><use xlink:href="#b" x="1.996"/><use xlink:href="#1"/></svg><svg x="1512"><use xlink:href="#a"/><use xlink:href="#b" x="8.996"/><text y="1.67" class="c">$</text><text x="2.004" y="1.67" class="c">akamai</text></svg><svg x="1568"><use xlink:href="#a"/><use xlink:href="#b" x="23.996"/><text y="1.67" class="c">$</text><text x="2.004" y="1.67" class="c">akamai</text><text x="9.018" y="1.67" class="c">property</text><text x="18.036" y="1.67" class="c">create</text></svg><svg x="1624"><use xlink:href="#a"/><use xlink:href="#b" x="-.004" y="2.146"/><use xlink:href="#42"/></svg><svg x="1680"><use xlink:href="#a"/><use xlink:href="#b" x="-.004" y="4.317"/><use xlink:href="#42"/><use xlink:href="#43" y="2.171"/></svg><svg x="1736"><use xlink:href="#a"/><use xlink:href="#b" x="-.004" y="6.488"/><use xlink:href="#42"/><use xlink:href="#43" y="2.171"/><use xlink:href="#44" y="4.342"/></svg><svg x="1792"><use xlink:href="#a"/><use xlink:href="#b" x="-.004" y="8.659"/><use xlink:href="#42"/><use xlink:href="#43" y="2.171"/><use xlink:href="#44" y="4.342"/><use xlink:href="#45" y="6.513"/></svg><svg x="1848"><use xlink:href="#a"/><use xlink:href="#b" x="-.004" y="10.83"/><use xlink:href="#42"/><use xlink:href="#43" y="2.171"/><use xlink:href="#44" y="4.342"/><use xlink:href="#45" y="6.513"/><use xlink:href="#46" y="8.684"/></svg><svg x="1904"><use xlink:href="#a"/><use xlink:href="#b" x="-.004" y="13.001"/><use xlink:href="#42"/><use xlink:href="#43" y="2.171"/><use xlink:href="#44" y="4.342"/><use xlink:href="#45" y="6.513"/><use xlink:href="#46" y="8.684"/><use xlink:href="#47" y="10.855"/></svg><svg x="1960"><use xlink:href="#a"/><use xlink:href="#b" x="-.004" y="15.172"/><use xlink:href="#42"/><use xlink:href="#43" y="2.171"/><use xlink:href="#44" y="4.342"/><use xlink:href="#45" y="6.513"/><use xlink:href="#46" y="8.684"/><use xlink:href="#47" y="10.855"/><use xlink:href="#48" y="13.026"/></svg><svg x="2016"><use xlink:href="#a"/><use xlink:href="#b" x="27.996" y="15.172"/><use xlink:href="#42"/><use xlink:href="#43" y="2.171"/><use xlink:href="#44" y="4.342"/><use xlink:href="#45" y="6.513"/><use xlink:href="#46" y="8.684"/><use xlink:href="#47" y="10.855"/><use xlink:href="#48" y="13.026"/><text y="16.867" class="c">Init</text><text x="5.01" y="16.867" class="c">PropertyManager</text><text x="21.042" y="16.867" class="c">cache:</text></svg><svg x="2072"><use xlink:href="#a"/><use xlink:href="#b" x="-.004" y="17.343"/><use xlink:href="#42"/><use xlink:href="#43" y="2.171"/><use xlink:href="#44" y="4.342"/><use xlink:href="#45" y="6.513"/><use xlink:href="#46" y="8.684"/><use xlink:href="#47" y="10.855"/><use xlink:href="#48" y="13.026"/><use xlink:href="#49" y="15.197"/></svg><svg x="2128"><use xlink:href="#a"/><use xlink:href="#b" x="-.004" y="19.514"/><use xlink:href="#42"/><use xlink:href="#43" y="2.171"/><use xlink:href="#44" y="4.342"/><use xlink:href="#45" y="6.513"/><use xlink:href="#46" y="8.684"/><use xlink:href="#47" y="10.855"/><use xlink:href="#48" y="13.026"/><use xlink:href="#49" y="15.197"/><use xlink:href="#50" y="17.368"/></svg><svg x="2184"><use xlink:href="#a"/><use xlink:href="#b" x="-.004" y="21.685"/><use xlink:href="#42"/><use xlink:href="#43" y="2.171"/><use xlink:href="#44" y="4.342"/><use xlink:href="#45" y="6.513"/><use xlink:href="#46" y="8.684"/><use xlink:href="#47" y="10.855"/><use xlink:href="#48" y="13.026"/><use xlink:href="#49" y="15.197"/><use xlink:href="#50" y="17.368"/><use xlink:href="#51" y="19.539"/></svg><svg x="2240"><use xlink:href="#a"/><use xlink:href="#b" x="-.004" y="23.856"/><use xlink:href="#42"/><use xlink:href="#43" y="2.171"/><use xlink:href="#44" y="4.342"/><use xlink:href="#45" y="6.513"/><use xlink:href="#46" y="8.684"/><use xlink:href="#47" y="10.855"/><use xlink:href="#48" y="13.026"/><use xlink:href="#49" y="15.197"/><use xlink:href="#50" y="17.368"/><use xlink:href="#51" y="19.539"/><use xlink:href="#52" y="21.71"/></svg><svg x="2296"><use xlink:href="#a"/><use xlink:href="#b" x="13.996" y="23.856"/><use xlink:href="#42"/><use xlink:href="#43" y="2.171"/><use xlink:href="#44" y="4.342"/><use xlink:href="#45" y="6.513"/><use xlink:href="#46" y="8.684"/><use xlink:href="#47" y="10.855"/><use xlink:href="#48" y="13.026"/><use xlink:href="#49" y="15.197"/><use xlink:href="#50" y="17.368"/><use xlink:href="#51" y="19.539"/><use xlink:href="#52" y="21.71"/><text y="25.551" class="c">...</text><text x="4.008" y="25.551" class="c">creating:</text></svg><svg x="2352"><use xlink:href="#a"/><use xlink:href="#b" x="-.004" y="26.027"/><use xlink:href="#42"/><use xlink:href="#43" y="2.171"/><use xlink:href="#44" y="4.342"/><use xlink:href="#45" y="6.513"/><use xlink:href="#46" y="8.684"/><use xlink:href="#47" y="10.855"/><use xlink:href="#48" y="13.026"/><use xlink:href="#49" y="15.197"/><use xlink:href="#50" y="17.368"/><use xlink:href="#51" y="19.539"/><use xlink:href="#52" y="21.71"/><use xlink:href="#53" y="23.881"/></svg><svg x="2408"><use xlink:href="#a"/><use xlink:href="#b" x="-.004" y="28.198"/><use xlink:href="#42"/><use xlink:href="#43" y="2.171"/><use xlink:href="#44" y="4.342"/><use xlink:href="#45" y="6.513"/><use xlink:href="#46" y="8.684"/><use xlink:href="#47" y="10.855"/><use xlink:href="#48" y="13.026"/><use xlink:href="#49" y="15.197"/><use xlink:href="#50" y="17.368"/><use xlink:href="#51" y="19.539"/><use xlink:href="#52" y="21.71"/><use xlink:href="#53" y="23.881"/><use xlink:href="#54" y="26.052"/></svg><svg x="2464"><use xlink:href="#a"/><use xlink:href="#b" x="-.004" y="30.369"/><use xlink:href="#42"/><use xlink:href="#43" y="2.171"/><use xlink:href="#44" y="4.342"/><use xlink:href="#45" y="6.513"/><use xlink:href="#46" y="8.684"/><use xlink:href="#47" y="10.855"/><use xlink:href="#48" y="13.026"/><use xlink:href="#49" y="15.197"/><use xlink:href="#50" y="17.368"/><use xlink:href="#51" y="19.539"/><use xlink:href="#52" y="21.71"/><use xlink:href="#53" y="23.881"/><use xlink:href="#54" y="26.052"/><use xlink:href="#55" y="28.223"/></svg><svg x="2520"><use xlink:href="#a"/><use xlink:href="#b" x="15.996" y="30.369"/><use xlink:href="#42"/><use xlink:href="#43" y="2.171"/><use xlink:href="#44" y="4.342"/><use xlink:href="#45" y="6.513"/><use xlink:href="#46" y="8.684"/><use xlink:href="#47" y="10.855"/><use xlink:href="#48" y="13.026"/><use xlink:href="#49" y="15.197"/><use xlink:href="#50" y="17.368"/><use xlink:href="#51" y="19.539"/><use xlink:href="#52" y="21.71"/><use xlink:href="#53" y="23.881"/><use xlink:href="#54" y="26.052"/><use xlink:href="#55" y="28.223"/><text y="32.064" class="c">...</text><text x="4.008" y="32.064" class="c">retrieving:</text></svg><svg x="2576"><use xlink:href="#a"/><use xlink:href="#b" x="-.004" y="34.711"/><use xlink:href="#42"/><use xlink:href="#43" y="2.171"/><use xlink:href="#44" y="4.342"/><use xlink:href="#45" y="6.513"/><use xlink:href="#46" y="8.684"/><use xlink:href="#47" y="10.855"/><use xlink:href="#48" y="13.026"/><use xlink:href="#49" y="15.197"/><use xlink:href="#50" y="17.368"/><use xlink:href="#51" y="19.539"/><use xlink:href="#52" y="21.71"/><use xlink:href="#53" y="23.881"/><use xlink:href="#54" y="26.052"/><use xlink:href="#55" y="28.223"/><use xlink:href="#56" y="30.394"/><use xlink:href="#57" y="32.565"/></svg><svg x="2632"><use xlink:href="#a"/><use xlink:href="#b" x="13.996" y="34.711"/><use xlink:href="#42"/><use xlink:href="#43" y="2.171"/><use xlink:href="#44" y="4.342"/><use xlink:href="#45" y="6.513"/><use xlink:href="#46" y="8.684"/><use xlink:href="#47" y="10.855"/><use xlink:href="#48" y="13.026"/><use xlink:href="#49" y="15.197"/><use xlink:href="#50" y="17.368"/><use xlink:href="#51" y="19.539"/><use xlink:href="#52" y="21.71"/><use xlink:href="#53" y="23.881"/><use xlink:href="#54" y="26.052"/><use xlink:href="#55" y="28.223"/><use xlink:href="#56" y="30.394"/><use xlink:href="#57" y="32.565"/><text y="36.406" class="c">...</text><text x="4.008" y="36.406" class="c">updating:</text></svg><svg x="2688"><use xlink:href="#a"/><use xlink:href="#b" x="-.004" y="36.882"/><use xlink:href="#42"/><use xlink:href="#43" y="2.171"/><use xlink:href="#44" y="4.342"/><use xlink:href="#45" y="6.513"/><use xlink:href="#46" y="8.684"/><use xlink:href="#47" y="10.855"/><use xlink:href="#48" y="13.026"/><use xlink:href="#49" y="15.197"/><use xlink:href="#50" y="17.368"/><use xlink:href="#51" y="19.539"/><use xlink:href="#52" y="21.71"/><use xlink:href="#53" y="23.881"/><use xlink:href="#54" y="26.052"/><use xlink:href="#55" y="28.223"/><use xlink:href="#56" y="30.394"/><use xlink:href="#57" y="32.565"/><use xlink:href="#58" y="34.736"/></svg><svg x="2744"><use xlink:href="#a"/><use xlink:href="#b" x="-.004" y="39.053"/><use xlink:href="#42"/><use xlink:href="#43" y="2.171"/><use xlink:href="#44" y="4.342"/><use xlink:href="#45" y="6.513"/><use xlink:href="#46" y="8.684"/><use xlink:href="#47" y="10.855"/><use xlink:href="#48" y="13.026"/><use xlink:href="#49" y="15.197"/><use xlink:href="#50" y="17.368"/><use xlink:href="#51" y="19.539"/><use xlink:href="#52" y="21.71"/><use xlink:href="#53" y="23.881"/><use xlink:href="#54" y="26.052"/><use xlink:href="#55" y="28.223"/><use xlink:href="#56" y="30.394"/><use xlink:href="#57" y="32.565"/><use xlink:href="#58" y="34.736"/><use xlink:href="#59" y="36.907"/></svg><svg x="2800"><use xlink:href="#a"/><use xlink:href="#b" x="-.004" y="41.224"/><use xlink:href="#42"/><use xlink:href="#43" y="2.171"/><use xlink:href="#44" y="4.342"/><use xlink:href="#45" y="6.513"/><use xlink:href="#46" y="8.684"/><use xlink:href="#47" y="10.855"/><use xlink:href="#48" y="13.026"/><use xlink:href="#49" y="15.197"/><use xlink:href="#50" y="17.368"/><use xlink:href="#51" y="19.539"/><use xlink:href="#52" y="21.71"/><use xlink:href="#53" y="23.881"/><use xlink:href="#54" y="26.052"/><use xlink:href="#55" y="28.223"/><use xlink:href="#56" y="30.394"/><use xlink:href="#57" y="32.565"/><use xlink:href="#58" y="34.736"/><use xlink:href="#59" y="36.907"/><use xlink:href="#60" y="39.078"/></svg><svg x="2856"><use xlink:href="#a"/><use xlink:href="#b" x="22.996" y="41.224"/><use xlink:href="#42"/><use xlink:href="#43" y="2.171"/><use xlink:href="#44" y="4.342"/><use xlink:href="#45" y="6.513"/><use xlink:href="#46" y="8.684"/><use xlink:href="#47" y="10.855"/><use xlink:href="#48" y="13.026"/><use xlink:href="#49" y="15.197"/><use xlink:href="#50" y="17.368"/><use xlink:href="#51" y="19.539"/><use xlink:href="#52" y="21.71"/><use xlink:href="#53" y="23.881"/><use xlink:href="#54" y="26.052"/><use xlink:href="#55" y="28.223"/><use xlink:href="#56" y="30.394"/><use xlink:href="#57" y="32.565"/><use xlink:href="#58" y="34.736"/><use xlink:href="#59" y="36.907"/><use xlink:href="#60" y="39.078"/><text y="42.919" class="c">...</text><text x="4.008" y="42.919" class="c">updating</text><text x="13.026" y="42.919" class="c">hostname:</text></svg><svg x="2912"><use xlink:href="#a"/><use xlink:href="#b" x="-.004" y="43.395"/><use xlink:href="#42"/><use xlink:href="#43" y="2.171"/><use xlink:href="#44" y="4.342"/><use xlink:href="#45" y="6.513"/><use xlink:href="#46" y="8.684"/><use xlink:href="#47" y="10.855"/><use xlink:href="#48" y="13.026"/><use xlink:href="#49" y="15.197"/><use xlink:href="#50" y="17.368"/><use xlink:href="#51" y="19.539"/><use xlink:href="#52" y="21.71"/><use xlink:href="#53" y="23.881"/><use xlink:href="#54" y="26.052"/><use xlink:href="#55" y="28.223"/><use xlink:href="#56" y="30.394"/><use xlink:href="#57" y="32.565"/><use xlink:href="#58" y="34.736"/><use xlink:href="#59" y="36.907"/><use xlink:href="#60" y="39.078"/><use xlink:href="#61" y="41.249"/></svg><svg x="2968"><use xlink:href="#a"/><use xlink:href="#b" x="-.004" y="45.566"/><use xlink:href="#42"/><use xlink:href="#43" y="2.171"/><use xlink:href="#44" y="4.342"/><use xlink:href="#45" y="6.513"/><use xlink:href="#46" y="8.684"/><use xlink:href="#47" y="10.855"/><use xlink:href="#48" y="13.026"/><use xlink:href="#49" y="15.197"/><use xlink:href="#50" y="17.368"/><use xlink:href="#51" y="19.539"/><use xlink:href="#52" y="21.71"/><use xlink:href="#53" y="23.881"/><use xlink:href="#54" y="26.052"/><use xlink:href="#55" y="28.223"/><use xlink:href="#56" y="30.394"/><use xlink:href="#57" y="32.565"/><use xlink:href="#58" y="34.736"/><use xlink:href="#59" y="36.907"/><use xlink:href="#60" y="39.078"/><use xlink:href="#61" y="41.249"/><use xlink:href="#62" y="43.42"/></svg><svg x="3024"><use xlink:href="#a"/><use xlink:href="#b" x="-.004" y="45.566"/><use xlink:href="#43"/><use xlink:href="#44" y="2.171"/><use xlink:href="#45" y="4.342"/><use xlink:href="#46" y="6.513"/><use xlink:href="#47" y="8.684"/><use xlink:href="#48" y="10.855"/><use xlink:href="#49" y="13.026"/><use xlink:href="#50" y="15.197"/><use xlink:href="#51" y="17.368"/><use xlink:href="#52" y="19.539"/><use xlink:href="#53" y="21.71"/><use xlink:href="#54" y="23.881"/><use xlink:href="#55" y="26.052"/><use xlink:href="#56" y="28.223"/><use xlink:href="#57" y="30.394"/><use xlink:href="#58" y="32.565"/><use xlink:href="#59" y="34.736"/><use xlink:href="#60" y="36.907"/><use xlink:href="#61" y="39.078"/><use xlink:href="#62" y="41.249"/><use xlink:href="#63" y="43.42"/></svg><svg x="3080"><use xlink:href="#a"/><use xlink:href="#b" x="1.996" y="45.566"/><use xlink:href="#43"/><use xlink:href="#44" y="2.171"/><use xlink:href="#45" y="4.342"/><use xlink:href="#46" y="6.513"/><use xlink:href="#47" y="8.684"/><use xlink:href="#48" y="10.855"/><use xlink:href="#49" y="13.026"/><use xlink:href="#50" y="15.197"/><use xlink:href="#51" y="17.368"/><use xlink:href="#52" y="19.539"/><use xlink:href="#53" y="21.71"/><use xlink:href="#54" y="23.881"/><use xlink:href="#55" y="26.052"/><use xlink:href="#56" y="28.223"/><use xlink:href="#57" y="30.394"/><use xlink:href="#58" y="32.565"/><use xlink:href="#59" y="34.736"/><use xlink:href="#60" y="36.907"/><use xlink:href="#61" y="39.078"/><use xlink:href="#62" y="41.249"/><use xlink:href="#63" y="43.42"/><use xlink:href="#1" y="45.591"/></svg><svg x="3136"><use xlink:href="#a"/><use xlink:href="#b" x="-.004"/></svg><svg x="3192"><use xlink:href="#a"/><use xlink:href="#b" x="1.996"/><use xlink:href="#1"/></svg><svg x="3248"><use xlink:href="#a"/><use xlink:href="#b" x="-.004" y="2.146"/><use xlink:href="#64"/></svg><svg x="3304"><use xlink:href="#a"/><use xlink:href="#b" x="29.996" y="2.146"/><use xlink:href="#64"/><use xlink:href="#17" y="2.171"/></svg><svg x="3360"><use xlink:href="#a"/><use xlink:href="#b" x="12.996" y="4.317"/><use xlink:href="#64"/><use xlink:href="#18" y="2.171"/><use xlink:href="#19" y="4.342"/></svg><svg x="3416"><use xlink:href="#a"/><use xlink:href="#b" x="22.996" y="10.83"/><use xlink:href="#64"/><use xlink:href="#18" y="2.171"/><use xlink:href="#65" y="4.342"/><use xlink:href="#66" y="6.513"/><use xlink:href="#67" y="8.684"/><use xlink:href="#68" y="10.855"/></svg><svg x="3472"><use xlink:href="#a"/><use xlink:href="#b" x="-.004" y="13.001"/><use xlink:href="#64"/><use xlink:href="#18" y="2.171"/><use xlink:href="#65" y="4.342"/><use xlink:href="#66" y="6.513"/><use xlink:href="#67" y="8.684"/><use xlink:href="#68" y="10.855"/></svg><svg x="3528"><use xlink:href="#a"/><use xlink:href="#b" x="20.996" y="13.001"/><use xlink:href="#64"/><use xlink:href="#18" y="2.171"/><use xlink:href="#65" y="4.342"/><use xlink:href="#66" y="6.513"/><use xlink:href="#67" y="8.684"/><use xlink:href="#68" y="10.855"/><text y="14.696" class="c">Downloading</text><text x="12.024" y="14.696" class="c">binary...</text></svg><svg x="3584"><use xlink:href="#a"/><use xlink:href="#b" x="-.004" y="36.882"/><use xlink:href="#64"/><use xlink:href="#18" y="2.171"/><use xlink:href="#65" y="4.342"/><use xlink:href="#66" y="6.513"/><use xlink:href="#67" y="8.684"/><use xlink:href="#68" y="10.855"/><use xlink:href="#69" y="13.026"/><use xlink:href="#21" y="17.368"/><use xlink:href="#23" y="19.539"/><use xlink:href="#24" y="21.71"/><use xlink:href="#25" y="23.881"/><use xlink:href="#22" y="26.052"/><use xlink:href="#70" y="28.223"/><use xlink:href="#71" y="30.394"/><use xlink:href="#27" y="34.736"/></svg><svg x="3640"><use xlink:href="#a"/><use xlink:href="#b" x="1.996" y="36.882"/><use xlink:href="#64"/><use xlink:href="#18" y="2.171"/><use xlink:href="#65" y="4.342"/><use xlink:href="#66" y="6.513"/><use xlink:href="#67" y="8.684"/><use xlink:href="#68" y="10.855"/><use xlink:href="#69" y="13.026"/><use xlink:href="#21" y="17.368"/><use xlink:href="#23" y="19.539"/><use xlink:href="#24" y="21.71"/><use xlink:href="#25" y="23.881"/><use xlink:href="#22" y="26.052"/><use xlink:href="#70" y="28.223"/><use xlink:href="#71" y="30.394"/><use xlink:href="#27" y="34.736"/><use xlink:href="#1" y="36.907"/></svg><svg x="3696"><use xlink:href="#a"/><use xlink:href="#b" x="-.004"/></svg><svg x="3752"><use xlink:href="#a"/><use xlink:href="#b" x="-.004" y="2.146"/><use xlink:href="#72"/></svg><svg x="3808"><use xlink:href="#a"/><use xlink:href="#b" x="-.004" y="4.317"/><use xlink:href="#72"/><use xlink:href="#3" y="2.171"/></svg><svg x="3864"><use xlink:href="#a"/><use xlink:href="#b" x="-.004" y="13.001"/><use xlink:href="#72"/><use xlink:href="#3" y="2.171"/><use xlink:href="#73" y="4.342"/><use xlink:href="#74" y="6.513"/><use xlink:href="#75" y="10.855"/></svg><svg x="3920"><use xlink:href="#a"/><use xlink:href="#b" x="-.004" y="19.514"/><use xlink:href="#72"/><use xlink:href="#3" y="2.171"/><use xlink:href="#73" y="4.342"/><use xlink:href="#74" y="6.513"/><use xlink:href="#75" y="10.855"/><use xlink:href="#76" y="13.026"/><use xlink:href="#77" y="15.197"/></svg><svg x="3976"><use xlink:href="#a"/><use xlink:href="#b" x="-.004" y="21.685"/><use xlink:href="#72"/><use xlink:href="#3" y="2.171"/><use xlink:href="#73" y="4.342"/><use xlink:href="#74" y="6.513"/><use xlink:href="#75" y="10.855"/><use xlink:href="#76" y="13.026"/><use xlink:href="#77" y="15.197"/><use xlink:href="#78" y="19.539"/></svg><svg x="4032"><use xlink:href="#a"/><use xlink:href="#b" x="31.996" y="26.027"/><use xlink:href="#72"/><use xlink:href="#3" y="2.171"/><use xlink:href="#73" y="4.342"/><use xlink:href="#74" y="6.513"/><use xlink:href="#75" y="10.855"/><use xlink:href="#76" y="13.026"/><use xlink:href="#77" y="15.197"/><use xlink:href="#78" y="19.539"/><use xlink:href="#79" y="21.71"/><use xlink:href="#80" y="23.881"/><use xlink:href="#81" y="26.052"/></svg><svg x="4088"><use xlink:href="#a"/><use xlink:href="#b" x="-.004" y="34.711"/><use xlink:href="#72"/><use xlink:href="#3" y="2.171"/><use xlink:href="#73" y="4.342"/><use xlink:href="#74" y="6.513"/><use xlink:href="#75" y="10.855"/><use xlink:href="#76" y="13.026"/><use xlink:href="#77" y="15.197"/><use xlink:href="#78" y="19.539"/><use xlink:href="#79" y="21.71"/><use xlink:href="#80" y="23.881"/><use xlink:href="#81" y="26.052"/><use xlink:href="#82" y="28.223"/><use xlink:href="#10" y="32.565"/></svg><svg x="4144"><use xlink:href="#a"/><use xlink:href="#b" x="31.996" y="34.711"/><use xlink:href="#72"/><use xlink:href="#3" y="2.171"/><use xlink:href="#73" y="4.342"/><use xlink:href="#74" y="6.513"/><use xlink:href="#75" y="10.855"/><use xlink:href="#76" y="13.026"/><use xlink:href="#77" y="15.197"/><use xlink:href="#78" y="19.539"/><use xlink:href="#79" y="21.71"/><use xlink:href="#80" y="23.881"/><use xlink:href="#81" y="26.052"/><use xlink:href="#82" y="28.223"/><use xlink:href="#10" y="32.565"/><use xlink:href="#83" y="34.736"/></svg><svg x="4200"><use xlink:href="#a"/><use xlink:href="#b" x="-.004" y="41.224"/><use xlink:href="#72"/><use xlink:href="#3" y="2.171"/><use xlink:href="#73" y="4.342"/><use xlink:href="#74" y="6.513"/><use xlink:href="#75" y="10.855"/><use xlink:href="#76" y="13.026"/><use xlink:href="#77" y="15.197"/><use xlink:href="#78" y="19.539"/><use xlink:href="#79" y="21.71"/><use xlink:href="#80" y="23.881"/><use xlink:href="#81" y="26.052"/><use xlink:href="#82" y="28.223"/><use xlink:href="#10" y="32.565"/><use xlink:href="#83" y="34.736"/><use xlink:href="#84" y="36.907"/></svg><svg x="4256"><use xlink:href="#a"/><use xlink:href="#b" x="1.996" y="43.395"/><use xlink:href="#72"/><use xlink:href="#3" y="2.171"/><use xlink:href="#73" y="4.342"/><use xlink:href="#74" y="6.513"/><use xlink:href="#75" y="10.855"/><use xlink:href="#76" y="13.026"/><use xlink:href="#77" y="15.197"/><use xlink:href="#78" y="19.539"/><use xlink:href="#79" y="21.71"/><use xlink:href="#80" y="23.881"/><use xlink:href="#81" y="26.052"/><use xlink:href="#82" y="28.223"/><use xlink:href="#10" y="32.565"/><use xlink:href="#83" y="34.736"/><use xlink:href="#84" y="36.907"/><use xlink:href="#1" y="43.42"/></svg><svg x="4312"><use xlink:href="#a"/><use xlink:href="#b" x="-.004"/></svg><svg x="4368"><use xlink:href="#a"/><use xlink:href="#b" x="1.996"/><use xlink:href="#1"/></svg><svg x="4424"><use xlink:href="#a"/><use xlink:href="#b" x="-.004" y="2.146"/><use xlink:href="#85"/></svg><svg x="4480"><use xlink:href="#a"/><use xlink:href="#b" x="9.996" y="2.146"/><use xlink:href="#85"/><text y="3.841" class="c">Purging...</text></svg><svg x="4536"><use xlink:href="#a"/><use xlink:href="#b" x="-.004" y="4.317"/><use xlink:href="#85"/><use xlink:href="#86" y="2.171"/></svg><svg x="4592"><use xlink:href="#a"/><use xlink:href="#b" x=".996" y="4.317"/><use xlink:href="#85"/><use xlink:href="#86" y="2.171"/><use xlink:href="#1" y="4.342"/></svg><svg x="4648"><use xlink:href="#a"/><use xlink:href="#b" x=".996" y="4.317"/><use xlink:href="#85"/><use xlink:href="#86" y="2.171"/><use xlink:href="#1" y="4.342"/></svg></svg></g></g></svg></svg>