<?xml version="1.0" encoding="utf-8"?>
<svg version="1.1" xmlns="http://www.w3.org/2000/svg" xmlns:xlink="http://www.w3.org/1999/xlink" x="0px" y="0px"
	 viewBox="0 0 76 76" style="enable-background:new 0 0 76 76;" xml:space="preserve">
<g id="icon">
	<g>
		<path d="M44,52.7c-0.1-0.3-0.4-0.6-0.8-0.6h-2.8v-4.9c0-0.4-0.4-0.8-0.8-0.8s-0.8,0.4-0.8,0.8v4.9h-1.6v-4.9
			c0-0.4-0.4-0.8-0.8-0.8c-0.4,0-0.8,0.4-0.8,0.8v4.9h-2.8c-0.4,0-0.7,0.2-0.8,0.6l-1,3.7c-0.1,0.2,0,0.5,0.1,0.7
			c0.1,0.2,0.4,0.3,0.6,0.3h12.5l0,0c0.4,0,0.8-0.4,0.8-0.8c0-0.1,0-0.2-0.1-0.4L44,52.7z M32.8,55.8l0.6-2.2h9.2l0.6,2.2H32.8z"/>
		<path d="M52,24.2c-0.4-0.1-0.7-0.1-1.1-0.1c-0.2,0-0.3,0-0.5,0v-3.5c0-1.1-0.9-2-2-2H27.7c-1.1,0-2,0.9-2,2V24c-0.2,0-0.3,0-0.5,0
			c-0.4,0-0.7,0-1.1,0.1c-2.8,0.8-4.3,4.3-3.4,8c0.8,3.2,3.3,5.4,5.8,5.4c0.1,0,0.2,0,0.3,0c2,4.5,6.2,7.6,11.1,7.6S47.1,42,49,37.5
			c0.1,0,0.2,0,0.3,0c2.5,0,5-2.2,5.8-5.4C56.2,28.5,54.8,24.9,52,24.2z M22.2,31.7c-0.7-2.8,0.3-5.5,2.3-6.1c0.2,0,0.4,0,0.6,0
			c0.2,0,0.4,0,0.5,0v6.2c0,1.4,0.2,2.8,0.6,4C24.6,35.7,22.9,34,22.2,31.7z M48.8,31.9c0,6.4-4.8,11.7-10.7,11.7
			c-4.2,0-7.8-2.6-9.6-6.5c-0.2-0.5-0.4-1-0.6-1.5c-0.4-1.2-0.6-2.4-0.6-3.7v-5.6v-1.8v-3.9c0-0.2,0.2-0.4,0.4-0.4h20.6
			c0.2,0,0.4,0.2,0.4,0.4L48.8,31.9L48.8,31.9z M53.8,31.7c-0.6,2.3-2.3,4-4,4.2c0.4-1.3,0.6-2.6,0.6-4v-6.3c0.1,0,0.3,0,0.5,0
			c0.2,0,0.5,0,0.7,0.1C53.5,26.2,54.5,29,53.8,31.7z"/>
		<path d="M43.6,27.9l-3.4-0.1l-1.1-3.2c-0.2-0.5-0.6-0.8-1.1-0.8s-0.9,0.3-1.1,0.8l-1.1,3.2l-3.3,0.1c-0.5,0-0.9,0.3-1.1,0.8
			c-0.1,0.5,0,1,0.4,1.3l2.7,2l-1,3.2c-0.1,0.5,0,1,0.4,1.3c0.2,0.1,0.4,0.2,0.7,0.2c0.2,0,0.5-0.1,0.6-0.2l2.8-1.9l2.8,1.9
			c0.4,0.3,0.9,0.3,1.3,0c0.4-0.3,0.6-0.8,0.4-1.3l-1-3.2l2.7-2c0.4-0.3,0.5-0.8,0.4-1.3C44.6,28.2,44.1,27.9,43.6,27.9z M40.2,31.1
			c-0.3,0.2-0.4,0.5-0.3,0.9l0.8,2.6l-2.2-1.7c-0.3-0.2-0.6-0.2-0.9,0l-2.2,1.5l0.8-2.6c0.1-0.3,0-0.7-0.3-0.9l-2.1-1.6l2.7-0.1
			c0.3,0,0.6-0.2,0.7-0.5l0.9-2.5l0.9,2.5c0.1,0.3,0.4,0.5,0.7,0.5l2.7,0.1L40.2,31.1z"/>
	</g>
</g>
</svg>
