<?xml version="1.0" encoding="utf-8"?>
<svg version="1.1" xmlns="http://www.w3.org/2000/svg" xmlns:xlink="http://www.w3.org/1999/xlink" x="0px" y="0px"
	 viewBox="0 0 76 76" style="enable-background:new 0 0 76 76;" xml:space="preserve">
<g id="icon">
	<g>
		<path d="M40.5,41.6c-0.3-0.3-0.8-0.3-1.2,0l-5.3,5.3l-5-5l5.3-5.3c0.3-0.3,0.3-0.8,0-1.2c-0.3-0.3-0.8-0.3-1.2,0l-5.2,5.4L25,38
			c-0.3-0.3-0.8-0.3-1.2,0c-0.3,0.3-0.3,0.8,0,1.2l0.4,0.4l-1.9,1.9c-1.7,1.7-2.7,4-2.8,6.3c-0.1,2.1,0.6,4.1,1.9,5.6L16,58.8
			c-0.3,0.3-0.3,0.8,0,1.2c0.2,0.2,0.4,0.2,0.6,0.2s0.4-0.1,0.6-0.2l5.4-5.4c1.5,1.2,3.4,1.9,5.4,1.9c2.4,0,4.9-1,6.6-2.8l1.9-1.9
			l0.3,0.3c0.3,0.3,0.8,0.3,1.2,0c0.3-0.3,0.3-0.8,0-1.2l-2.8-2.8l5.3-5.3C40.8,42.5,40.8,41.9,40.5,41.6z M35.3,50.6l-1.9,1.9
			C32,54,30,54.8,28,54.8c-1.8,0-3.6-0.7-4.8-2c-1.3-1.3-2-3.1-2-5c0.1-2,0.9-3.8,2.3-5.2l1.9-1.9L35.3,50.6z"/>
		<path d="M59.9,16.1c-0.3-0.3-0.8-0.3-1.2,0l-5.8,5.8c-1.5-1.2-3.4-1.9-5.3-1.9c-2.4,0-4.9,1-6.6,2.8l-1.9,1.9l-0.3-0.3
			c-0.3-0.3-0.8-0.3-1.2,0c-0.2,0.2-0.2,0.4-0.2,0.6c0,0.2,0.1,0.4,0.2,0.6l0.3,0.3l-5.3,5.3c-0.2,0.2-0.2,0.4-0.2,0.6
			s0.1,0.4,0.2,0.6c0.3,0.3,0.8,0.3,1.2,0l5.3-5.3l4.2,4.2l-5.3,5.3c-0.2,0.2-0.2,0.4-0.2,0.6s0.1,0.4,0.2,0.6
			c0.3,0.3,0.8,0.3,1.2,0l5.3-5.3l4.5,4.5l-5.3,5.3c-0.2,0.2-0.2,0.4-0.2,0.6s0.1,0.4,0.2,0.6c0.2,0.2,0.4,0.2,0.6,0.2
			s0.4-0.1,0.6-0.2l5.3-5.3l0.4,0.4c0.3,0.3,0.8,0.3,1.2,0c0.2-0.2,0.2-0.4,0.2-0.6c0-0.2-0.1-0.4-0.2-0.6L51.5,37l1.9-1.9
			c1.7-1.7,2.7-4,2.8-6.3c0.1-2.1-0.6-4.1-1.9-5.6l5.8-5.8C60.2,17,60.2,16.4,59.9,16.1z M50.2,35.8l-9.9-9.9l1.9-1.9
			c1.5-1.5,3.5-2.3,5.5-2.3c1.8,0,3.6,0.7,4.8,2c1.3,1.3,2,3.1,2,5c-0.1,2-0.9,3.8-2.3,5.2L50.2,35.8z"/>
	</g>
</g>
</svg>
