<?xml version="1.0" encoding="utf-8"?>
<svg version="1.1" xmlns="http://www.w3.org/2000/svg" xmlns:xlink="http://www.w3.org/1999/xlink" x="0px" y="0px"
	 viewBox="0 0 76 76" style="enable-background:new 0 0 76 76;" xml:space="preserve">
<g>
	<path d="M40,35.5c0-0.4-0.1-0.7-0.3-1.1C39.3,33.8,39,33,39,32.1v-0.6c0-0.2-0.1-0.3-0.3-0.3h-2.9c-0.2,0-0.3,0.1-0.3,0.3v0.6
		c0,0.8-0.2,1.7-0.7,2.3c-0.2,0.3-0.3,0.7-0.3,1.1c0,0.6,0.2,1.1,0.7,1.5v2.6c0,1.1,0.9,2.1,2.1,2.1c1.1,0,2.1-0.9,2.1-2.1V37
		C39.8,36.6,40,36.1,40,35.5L40,35.5z M38.7,39.6c0,0.8-0.6,1.4-1.4,1.4c-0.8,0-1.4-0.6-1.4-1.4v-3c0-0.4,0.2-0.7,0.4-1
		c0.1,0.5,0.5,0.8,1,0.8s0.9-0.4,1-0.8c0.3,0.3,0.4,0.6,0.4,1V39.6z M36.9,35.5v-1.3c0-0.2,0.1-0.3,0.3-0.3s0.3,0.1,0.3,0.3v1.3
		c0,0.2-0.1,0.3-0.3,0.3C37.1,35.8,36.9,35.7,36.9,35.5L36.9,35.5z M39.2,36c-0.1-0.3-0.3-0.6-0.5-0.8c-0.1-0.1-0.3-0.3-0.5-0.3
		v-0.7c0-0.5-0.4-1-1-1c-0.5,0-1,0.4-1,1v0.7c-0.5,0.3-0.8,0.7-1,1.2c-0.1-0.2-0.1-0.3-0.1-0.5s0.1-0.5,0.2-0.7
		c0.5-0.8,0.8-1.7,0.8-2.7v-0.3h2.2v0.3c0,1,0.3,1.9,0.8,2.7c0.1,0.2,0.2,0.5,0.2,0.7C39.3,35.7,39.3,35.9,39.2,36L39.2,36z"/>
	<path d="M37.3,38.3c-0.5,0-0.9,0.4-0.9,0.9v0.5c0,0.5,0.4,0.9,0.9,0.9s0.9-0.4,0.9-0.9v-0.5C38.2,38.7,37.8,38.3,37.3,38.3
		L37.3,38.3z M37.5,39.6c0,0.1-0.1,0.2-0.2,0.2c-0.1,0-0.2-0.1-0.2-0.2v-0.5c0-0.1,0.1-0.2,0.2-0.2c0.1,0,0.2,0.1,0.2,0.2V39.6z"/>
	<path d="M36.2,42.7h1.1c0.2,0,0.3-0.1,0.3-0.3S37.5,42,37.3,42h-1.1c-0.2,0-0.3,0.1-0.3,0.3S36,42.7,36.2,42.7L36.2,42.7z"/>
	<path d="M38.3,43h-1.1c-0.2,0-0.3,0.1-0.3,0.3s0.1,0.3,0.3,0.3h1.1c0.2,0,0.3-0.1,0.3-0.3S38.5,43,38.3,43L38.3,43z"/>
	<path d="M36.2,44.5h1.1c0.2,0,0.3-0.1,0.3-0.3s-0.1-0.3-0.3-0.3h-1.1c-0.2,0-0.3,0.1-0.3,0.3S36,44.5,36.2,44.5L36.2,44.5z"/>
	<path d="M38.3,44.8h-1.1c-0.2,0-0.3,0.1-0.3,0.3s0.1,0.3,0.3,0.3h1.1c0.2,0,0.3-0.1,0.3-0.3S38.5,44.8,38.3,44.8L38.3,44.8z"/>
	<path d="M37.7,46.1c0-0.2-0.1-0.3-0.3-0.3h-1.1c-0.2,0-0.3,0.1-0.3,0.3s0.1,0.3,0.3,0.3h1.1C37.5,46.4,37.7,46.3,37.7,46.1
		L37.7,46.1z"/>
	<path d="M38.3,46.7h-1.1c-0.2,0-0.3,0.1-0.3,0.3s0.1,0.3,0.3,0.3h1.1c0.2,0,0.3-0.1,0.3-0.3C38.7,46.9,38.5,46.7,38.3,46.7
		L38.3,46.7z"/>
	<g>
		<path d="M50,49.5H25.6c-4,0-7.3-2.5-8.4-6.1c-0.8-2.7-0.1-6.4,3.8-9c0.8-4.1,3.6-7.5,7.5-8.9c3.9-1.4,8.1-0.8,11.3,1.8
			c4.6-0.4,8.3,1.7,9.8,5.6c2.6-0.1,5,0.8,6.9,2.5c1.7,1.6,2.6,3.7,2.6,5.8C59,45.7,55,49.5,50,49.5z M32.6,26.2
			c-1.2,0-2.4,0.2-3.6,0.6c-3.5,1.3-6,4.3-6.6,8.1c0,0.2-0.2,0.4-0.4,0.5c-2.9,1.8-4.2,4.6-3.4,7.5c0.7,2.5,3.1,5,6.9,5H50
			c4.1,0,7.5-3.1,7.5-6.9c0-1.7-0.7-3.4-2.1-4.7c-1.6-1.5-3.9-2.3-6.3-2c-0.4,0-0.7-0.2-0.8-0.5c-0.9-2.7-3.6-5.7-8.7-5.1
			c-0.2,0-0.4,0-0.6-0.2C37.2,27,34.9,26.2,32.6,26.2z"/>
	</g>
</g>
</svg>
