<?xml version="1.0" encoding="utf-8"?>
<svg version="1.1" xmlns="http://www.w3.org/2000/svg" xmlns:xlink="http://www.w3.org/1999/xlink" x="0px" y="0px"
	 viewBox="0 0 76 76" style="enable-background:new 0 0 76 76;" xml:space="preserve">
<g id="icon">
	<g>
		<path d="M38,48.2l-4,4V37.8c0-0.5-0.4-0.8-0.8-0.8c-0.4,0-0.8,0.4-0.8,0.8v14.2l-4-4c-0.3-0.3-0.8-0.3-1.2,0
			c-0.3,0.3-0.3,0.8,0,1.2l5.4,5.4c0.1,0.1,0.2,0.1,0.3,0.2c0.1,0,0.2,0.1,0.3,0.1s0.2,0,0.3-0.1c0.1,0,0.2-0.1,0.3-0.2l5.4-5.4
			c0.3-0.3,0.3-0.8,0-1.2C38.9,47.8,38.3,47.8,38,48.2z"/>
		<path d="M37.7,39.9l4-4v14.2c0,0.5,0.4,0.8,0.8,0.8c0.4,0,0.8-0.4,0.8-0.8V36l4,4c0.3,0.3,0.8,0.3,1.2,0c0.3-0.3,0.3-0.8,0-1.2
			l-5.4-5.4c-0.1-0.1-0.2-0.1-0.3-0.2c-0.1,0-0.2-0.1-0.3-0.1s-0.2,0-0.3,0.1c-0.1,0-0.2,0.1-0.3,0.2l-5.4,5.4
			c-0.3,0.3-0.3,0.8,0,1.2C36.8,40.3,37.4,40.2,37.7,39.9z"/>
		<path d="M49,29c-1.3-3.3-4.5-5.5-8.1-5.5c-0.4,0-0.8,0-1.2,0.1c-2-1.6-4.3-2.4-6.8-2.4c-5.5,0-10.1,3.8-11.1,9.3
			c-2.4,1.6-3.9,4.2-3.9,6.6c0,4.5,3.7,8.1,8.3,8.1l0,0c0.5,0,0.8-0.4,0.8-0.8c0-0.4-0.4-0.8-0.8-0.8l0,0c-3.7,0-6.7-2.9-6.7-6.5
			c0-2,1.3-4.1,3.4-5.4c0.2-0.1,0.3-0.3,0.4-0.6c0.8-4.9,4.7-8.3,9.6-8.3c2.3,0,4.2,0.7,6,2.3c0.2,0.1,0.4,0.2,0.6,0.2
			c0.5-0.1,1-0.1,1.4-0.1c3.1,0,5.8,2,6.7,4.9c0.1,0.4,0.5,0.6,0.9,0.6c0.3,0,0.5,0,0.8,0c3.8,0,7,3,7,6.5s-3.2,6.5-7,6.5h0.2
			c-0.5,0-0.8,0.4-0.8,0.8c0,0.5,0.4,0.8,0.8,0.8h-0.2c4.7,0,8.7-3.7,8.7-8.1C58.1,32.5,53.9,28.8,49,29z"/>
	</g>
</g>
</svg>
