<?xml version="1.0" encoding="utf-8"?>
<svg version="1.1" xmlns="http://www.w3.org/2000/svg" xmlns:xlink="http://www.w3.org/1999/xlink" x="0px" y="0px"
	 viewBox="0 0 76 76" style="enable-background:new 0 0 76 76;" xml:space="preserve">
<g id="icon">
	<g>
		<path d="M38.1,41H27.9c-0.5,0-0.8,0.4-0.8,0.8s0.4,0.8,0.8,0.8H38c0.5,0,0.8-0.4,0.8-0.8C38.8,41.4,38.6,41,38.1,41z"/>
		<path d="M38.1,37.2H27.9c-0.5,0-0.8,0.4-0.8,0.8s0.4,0.8,0.8,0.8H38c0.5,0,0.8-0.4,0.8-0.8S38.6,37.2,38.1,37.2z"/>
		<path d="M38.1,44.8H27.9c-0.5,0-0.8,0.4-0.8,0.8c0,0.4,0.4,0.8,0.8,0.8H38c0.5,0,0.8-0.4,0.8-0.8C39,45.1,38.6,44.8,38.1,44.8z"/>
		<path d="M38.1,33.4H27.9c-0.5,0-0.8,0.4-0.8,0.8s0.4,0.8,0.8,0.8H38c0.5,0,0.8-0.4,0.8-0.8S38.6,33.4,38.1,33.4z"/>
		<path d="M38.1,29.6H27.9c-0.4,0-0.8,0.4-0.8,0.8c0,0.5,0.4,0.8,0.8,0.8h10.2c0.5,0,0.8-0.4,0.8-0.8C39,30,38.6,29.6,38.1,29.6z"/>
		<path d="M53.2,41H43.1c-0.5,0-0.8,0.4-0.8,0.8s0.4,0.8,0.8,0.8h10.2c0.5,0,0.8-0.4,0.8-0.8S53.8,41,53.2,41z"/>
		<path d="M53.2,44.8H43.1c-0.5,0-0.8,0.4-0.8,0.8c0,0.4,0.4,0.8,0.8,0.8h10.2c0.5,0,0.8-0.4,0.8-0.8C54,45.1,53.8,44.8,53.2,44.8z"
			/>
		<path d="M54.7,24.6H23.6c-0.5,0-0.9,0.4-0.9,0.8v1.4h-4.4c-0.4,0-0.8,0.4-0.8,0.8V48c0,1.9,1.5,3.4,3.4,3.4h33.9
			c2.1,0,3.8-1.7,3.8-3.8V28.5C58.5,26.3,56.9,24.6,54.7,24.6z M19.2,48V28.5h3.6V48c0,1-0.8,1.8-1.8,1.8C20,49.8,19.2,49,19.2,48z
			 M56.9,47.7c0,1.2-0.9,2.1-2.1,2.1h-31c0.3-0.5,0.5-1.1,0.5-1.8V27.6v-1.3h30.3c1.2,0,2.2,1,2.2,2.2L56.9,47.7L56.9,47.7z"/>
		<path d="M43.1,38.8h10.2c0.5,0,0.8-0.4,0.8-0.8v-7.6c0-0.5-0.4-0.8-0.8-0.8H43.1c-0.5,0-0.8,0.4-0.8,0.8V38
			C42.2,38.5,42.7,38.8,43.1,38.8z M43.8,31.3h8.6v5.9H44v-5.9H43.8z"/>
	</g>
</g>
</svg>
