<?xml version="1.0" encoding="utf-8"?>
<svg version="1.1" xmlns="http://www.w3.org/2000/svg" xmlns:xlink="http://www.w3.org/1999/xlink" x="0px" y="0px"
	 viewBox="0 0 76 76" style="enable-background:new 0 0 76 76;" xml:space="preserve">
<g>
	<g>
		<path d="M49.1,32.2c0-6.8-5.1-12.3-11.3-12.3H27.3c-6.2,0-11.3,5.5-11.3,12.3c0,5.7,3.6,10.6,8.6,11.9v7.4c0,0.3,0.2,0.7,0.5,0.8
			c0.1,0.1,0.2,0.1,0.4,0.1c0.2,0,0.4-0.1,0.6-0.2l8.8-7.7h3C44.1,44.5,49.1,39,49.1,32.2z M34.5,42.7c-0.2,0-0.4,0.1-0.6,0.2
			l-7.6,6.7v-6.2c0-0.4-0.3-0.8-0.7-0.9c-4.6-0.9-7.9-5.2-7.9-10.3c0-5.8,4.3-10.5,9.5-10.5h10.5c5.3,0,9.5,4.7,9.5,10.5
			s-4.3,10.5-9.5,10.5H34.5L34.5,42.7z"/>
		<path d="M51.7,33.1c-0.5,0-0.9,0.4-0.9,0.9s0.4,0.9,0.9,0.9c3.6,0,6.5,3.2,6.5,7.2c0,3.9-2.8,7.1-6.3,7.2c-0.5,0-0.9,0.4-0.9,0.9
			V53l-3.3-3.5c-0.2-0.2-0.4-0.3-0.6-0.3h-2.9c-2.1,0-3.9-1-5.2-2.9c-0.3-0.4-0.8-0.5-1.2-0.2s-0.5,0.8-0.2,1.2
			c1.6,2.3,4,3.6,6.7,3.6h2.5l4.6,4.8c0.2,0.2,0.4,0.3,0.6,0.3c0.1,0,0.2,0,0.3-0.1c0.3-0.1,0.6-0.5,0.6-0.8v-4.3
			c4.1-0.6,7.1-4.3,7.1-8.9C60,37.1,56.3,33.1,51.7,33.1z"/>
		<path d="M41.3,29.5c0-0.5-0.4-0.9-0.9-0.9H24.6c-0.5,0-0.9,0.4-0.9,0.9s0.4,0.9,0.9,0.9h15.8C40.9,30.4,41.3,30,41.3,29.5z"/>
		<path d="M32.4,34.3h-7.8c-0.5,0-0.9,0.4-0.9,0.9s0.4,0.9,0.9,0.9h7.8c0.5,0,0.9-0.4,0.9-0.9C33.3,34.7,32.9,34.3,32.4,34.3z"/>
	</g>
</g>
</svg>
