<?xml version="1.0" encoding="utf-8"?>
<svg version="1.1" xmlns="http://www.w3.org/2000/svg" xmlns:xlink="http://www.w3.org/1999/xlink" x="0px" y="0px"
	 viewBox="0 0 76 76" style="enable-background:new 0 0 76 76;" xml:space="preserve">
<g id="icon">
	<g>
		<path d="M50.3,16H27.6h-2.2c-3.4,0-6.2,2.8-6.2,6.2v2.2c0,0.6,0.4,1,0.9,1h6.5v27.2c0,0.2,0.1,0.5,0.3,0.7
			c0.2,0.2,0.4,0.3,0.7,0.3h11.2c0.5,0,0.9-0.4,0.9-0.9s-0.4-0.9-0.9-0.9H28.5c0-0.4,0.1-33.4,0.1-33.7h21.7c2.5,0,4.5,2,4.5,4.4
			l-0.1,29.3h-1c-0.5,0-0.9,0.4-0.9,0.9s0.4,0.9,0.9,0.9h1.9c0.5,0,0.9-0.4,0.9-0.9l0.1-30.2C56.8,18.9,53.8,16,50.3,16z M21.1,23.5
			v-1.2c0-2.4,2-4.4,4.4-4.4h1.2v5.6H21.1z"/>
		<path d="M33.2,25.4h16.9c0.5,0,0.9-0.4,0.9-0.9s-0.4-0.9-0.9-0.9H33.2c-0.5,0-0.9,0.4-0.9,0.9S32.8,25.4,33.2,25.4z"/>
		<path d="M33.2,29.1h9.4c0.5,0,0.9-0.4,0.9-0.9s-0.4-0.9-0.9-0.9h-9.4c-0.5,0-0.9,0.4-0.9,0.9S32.8,29.1,33.2,29.1z"/>
		<path d="M51.3,53c1-1.1,1.6-2.6,1.6-4.2c0-3.6-2.9-6.6-6.6-6.6c-3.6,0-6.6,2.9-6.6,6.6c0,1.5,0.5,2.8,1.3,3.9l-1.6,4.5
			c-0.1,0.3-0.1,0.6,0.1,0.9c0.2,0.2,0.5,0.4,0.8,0.4h1.8l1.4,1.2c0.2,0.1,0.4,0.2,0.6,0.2c0.1,0,0.2,0,0.2,0
			c0.3-0.1,0.5-0.3,0.6-0.6l1.1-3l1.1,3c0.1,0.3,0.3,0.5,0.6,0.6c0.1,0,0.2,0,0.2,0c0.2,0,0.4-0.1,0.6-0.2l1.4-1.2h1.8
			c0.3,0,0.6-0.2,0.8-0.4s0.2-0.6,0.1-0.9L51.3,53z M46.3,44.2c2.6,0,4.7,2.1,4.7,4.7s-2.1,4.7-4.7,4.7s-4.7-2.1-4.7-4.7
			S43.8,44.2,46.3,44.2z M43.8,57.5L43,57c-0.2-0.1-0.4-0.2-0.6-0.2h-0.9l0.9-2.5c0.6,0.4,1.3,0.7,2,1L43.8,57.5z M49.8,56.6
			c-0.2,0-0.4,0.1-0.6,0.2l-0.7,0.5l-0.8-2.2c0.7-0.2,1.4-0.5,2.1-0.9l0.8,2.3L49.8,56.6z"/>
		<path d="M33.2,40.4c0.5,0,0.9-0.4,0.9-0.9c0-1.1,0.4-2.8,0.9-2.8c1,0,1.1,1.5,1.1,1.5c0,0.1,0.1,0.3,0.1,0.4
			c0.2,0.3,0.7,0.8,1.3,0.8c0.5,0,1-0.2,1.5-0.7c0.1,0,0.2,0,0.3,0c0.2,0,0.5,0,0.8,0c0.5,0,0.6,0.1,0.7,0.3
			c0.1,0.2,0.4,0.6,0.9,0.6l0,0c0.6,0,0.9-0.4,1.5-1.4c0.8-1.2,3.5-0.2,4.4,0.3c0.5,0.2,1,0.1,1.3-0.4c0.2-0.5,0.1-1-0.4-1.3
			c-1.9-1-5.4-1.9-6.8,0.4c-0.3-0.2-0.8-0.4-1.5-0.4c0,0,0,0-0.1,0c0.3-1,0.2-1.8-0.2-2.4c-0.3-0.4-0.8-0.6-1.2-0.5
			c-0.9,0.2-1,1.4-1,1.7l-0.1,0.8c0,0.1,0,0.2,0,0.3c-0.4-1-1.2-2-2.7-2c-2.1,0-2.8,2.5-2.8,4.7C32.3,39.9,32.8,40.4,33.2,40.4z"/>
	</g>
</g>
</svg>
