<?xml version="1.0" encoding="utf-8"?>
<svg version="1.1" xmlns="http://www.w3.org/2000/svg" xmlns:xlink="http://www.w3.org/1999/xlink" x="0px" y="0px"
	 viewBox="0 0 76 76" style="enable-background:new 0 0 76 76;" xml:space="preserve">
<g id="icon">
	<g>
		<g>
			<path d="M59.6,32.2v-5.3c0-4.1-3.3-7.4-7.4-7.4c-4.1,0-7.4,3.3-7.4,7.4v5.4c-3.5,2.4-5.8,6.4-5.8,10.9c0,7.3,5.9,13.2,13.2,13.2
				c7.3,0,13.2-5.9,13.2-13.2C65.3,38.7,63.1,34.7,59.6,32.2z M46.2,26.9c0-3.2,2.6-5.9,5.9-5.9c3.2,0,5.9,2.6,5.9,5.9v4.5
				c-1.8-0.9-3.8-1.4-5.9-1.4s-4.1,0.5-5.9,1.4V26.9z M52.2,55c-6.4,0-11.7-5.2-11.7-11.7c0-6.4,5.2-11.7,11.7-11.7
				c6.4,0,11.7,5.2,11.7,11.7C63.8,49.7,58.6,55,52.2,55z"/>
			<path d="M55.1,39.3l-1.3,1.3c-0.5-0.3-1.1-0.5-1.7-0.5c-0.9,0-1.7,0.3-2.3,0.9c-0.6,0.6-0.9,1.4-0.9,2.3c0,0.9,0.3,1.7,0.9,2.3
				c0.6,0.6,1.4,0.9,2.3,0.9s1.7-0.3,2.3-0.9c0.6-0.6,0.9-1.4,0.9-2.3c0-0.6-0.2-1.2-0.5-1.6l1.3-1.3c0.3-0.3,0.3-0.8,0-1.1
				C55.8,39,55.3,39,55.1,39.3z M53.3,44.5c-0.6,0.6-1.7,0.6-2.4,0c-0.3-0.3-0.5-0.7-0.5-1.2c0-0.4,0.2-0.9,0.5-1.2
				c0.3-0.3,0.7-0.5,1.2-0.5c0.4,0,0.9,0.2,1.2,0.5c0.3,0.3,0.5,0.7,0.5,1.2S53.7,44.2,53.3,44.5z"/>
			<path d="M61.2,42.5h-1.4c-0.4,0-0.8,0.3-0.8,0.8s0.3,0.8,0.8,0.8h1.4c0.4,0,0.8-0.3,0.8-0.8S61.7,42.5,61.2,42.5z"/>
			<path d="M45.2,43.3c0-0.4-0.3-0.8-0.8-0.8H43c-0.4,0-0.8,0.3-0.8,0.8s0.3,0.8,0.8,0.8h1.4C44.9,44,45.2,43.8,45.2,43.3z"/>
			<path d="M52.2,50.2c-0.4,0-0.8,0.3-0.8,0.8v1.4c0,0.4,0.3,0.8,0.8,0.8s0.8-0.3,0.8-0.8v-1.4C52.9,50.5,52.6,50.2,52.2,50.2z"/>
			<path d="M52.2,36.4c0.4,0,0.8-0.3,0.8-0.8v-1.4c0-0.4-0.3-0.8-0.8-0.8s-0.8,0.3-0.8,0.8v1.4C51.3,36.2,51.8,36.4,52.2,36.4z"/>
			<path d="M57.7,38.5c0.2,0,0.4-0.1,0.5-0.2l1-1c0.3-0.3,0.3-0.8,0-1.1c-0.3-0.3-0.8-0.3-1.1,0l-1,1c-0.3,0.3-0.3,0.8,0,1.1
				C57.2,38.4,57.4,38.5,57.7,38.5z"/>
			<path d="M46.1,48.3l-1,1c-0.3,0.3-0.3,0.8,0,1.1c0.1,0.1,0.3,0.2,0.5,0.2c0.2,0,0.4-0.1,0.5-0.2l1-1c0.3-0.3,0.3-0.8,0-1.1
				C46.8,48,46.3,48,46.1,48.3z"/>
			<path d="M58.2,48.3c-0.3-0.3-0.8-0.3-1.1,0c-0.3,0.3-0.3,0.8,0,1.1l1,1c0.1,0.1,0.3,0.2,0.5,0.2c0.2,0,0.4-0.1,0.5-0.2
				c0.3-0.3,0.3-0.8,0-1.1L58.2,48.3z"/>
			<path d="M46.2,36.2c-0.3-0.3-0.8-0.3-1.1,0c-0.3,0.3-0.3,0.8,0,1.1l1,1c0.1,0.1,0.3,0.2,0.5,0.2c0.2,0,0.4-0.1,0.5-0.2
				c0.3-0.3,0.3-0.8,0-1.1L46.2,36.2z"/>
		</g>
		<path d="M37.2,48.2h-18c-3.9,0-7.1-3.2-7.1-7.1c0-3.4,2.4-6.3,5.7-6.9c0.2,0,0.4-0.1,0.5-0.1h0.1c0.2,0,0.4,0,0.7,0h0.1
			c0.2,0,0.4,0,0.6,0l0.6,0.1l0.2-0.6c0.8-2.6,3.3-4.5,6.1-4.5c0.3,0,0.8,0,1.2,0.1h0.4l0.3-0.4c1.5-2,3.8-3,6.2-3.1
			c2.7-0.2,5.9,1,6.8,4.4c0.4-0.3,0.9-0.6,1.3-0.9C41.8,25.3,38,24,34.8,24c-2.8,0-5.4,1.2-7.2,3.4c-0.3,0-0.7,0-0.9,0
			c-3.3,0-6.2,2-7.3,5c-0.1,0-0.2,0-0.2,0h-0.1c-0.3,0-0.5,0-0.8,0h-0.1c-0.2,0-0.5,0.1-0.7,0.1c-4,0.8-6.9,4.3-6.9,8.4
			c0,4.7,3.8,8.6,8.6,8.6h18.6C37.5,49.2,37.3,48.7,37.2,48.2z"/>
	</g>
</g>
</svg>
