<?xml version="1.0" encoding="utf-8"?>
<svg version="1.1" xmlns="http://www.w3.org/2000/svg" xmlns:xlink="http://www.w3.org/1999/xlink" x="0px" y="0px"
	 viewBox="0 0 76 76" style="enable-background:new 0 0 76 76;" xml:space="preserve">
<g id="icon">
	<g>
		<path d="M52.6,44.2c-1-2.4-3.4-4-6.1-4c-0.3,0-0.6,0-0.8,0c-1.5-1.2-3.2-1.8-5.1-1.8c-4.2,0-7.6,2.8-8.4,7c-1.8,1.2-2.9,3.1-2.9,5
			c0,3.4,2.8,6.2,6.3,6.2h17.1c3.6,0,6.6-2.8,6.6-6.2S56.2,44.2,52.6,44.2z M52.7,55H35.6c-2.6,0-4.7-2.1-4.7-4.6
			c0-1.4,1-2.9,2.4-3.8l0.3-0.2l0.1-0.4c0.6-3.5,3.4-6,6.9-6c1.6,0,3,0.5,4.3,1.6l0.3,0.2h0.3c0.3,0,0.7-0.1,1-0.1
			c2.2,0,4.2,1.4,4.8,3.5l0.2,0.6l0.7-0.1c0.2,0,0.4,0,0.6,0c2.7,0,5,2.1,5,4.6C57.7,52.9,55.4,55,52.7,55z"/>
		<path d="M27.4,53.5c-5-0.2-8.8-1.6-9.2-3.4V50v-0.1v-6.5c1.8,1.3,5.2,2.4,9.7,2.6c0.4-0.5,1-1,1.5-1.4c-0.2,0-0.4,0-0.5,0
			c-6.9,0-10.5-2.4-10.7-3.1l0,0V35c1.9,1.4,5.8,2.6,10.8,2.6c5.1,0,9-1.3,10.9-2.7V37c0.5,0.1,1,0.2,1.5,0.3V24.6
			c0-3.6-6.2-5.2-12.3-5.2c-5.9,0-11.7,1.5-12.3,4.7c-0.1,0.1-0.1,0.2-0.1,0.3v0.1v0.1v25.3c0,0.2,0,0.4,0.1,0.6
			c0.8,3.3,6.9,4.5,11.9,4.5C28.2,54.6,27.8,54.1,27.4,53.5z M29,20.9c4.9,0,10.1,1.2,10.7,3.3v0.1v0.1c-0.2,0.8-3.9,3.1-10.7,3.1
			s-10.5-2.3-10.8-3.1C18.5,22.1,23.9,20.9,29,20.9z M18.2,26.3c1.9,1.4,5.8,2.6,10.8,2.6c5.1,0,9-1.3,10.9-2.7v6.3
			c0,0.1-0.1,0.2-0.1,0.3v0.1c-0.2,0.8-3.9,3.1-10.7,3.1s-10.7-2.4-10.9-3.1l0,0V26.3z"/>
	</g>
</g>
</svg>
