<?xml version="1.0" encoding="utf-8"?>
<svg version="1.1" xmlns="http://www.w3.org/2000/svg" xmlns:xlink="http://www.w3.org/1999/xlink" x="0px" y="0px"
	 viewBox="0 0 76 76" style="enable-background:new 0 0 76 76;" xml:space="preserve">
<g id="icon">
	<g>
		<path d="M30.9,39.5c-3.1,0-5.6,2.5-5.6,5.6c0,3.1,2.5,5.6,5.6,5.6s5.6-2.5,5.6-5.6C36.5,42,34,39.5,30.9,39.5z M30.9,49.1
			c-2.2,0-4-1.8-4-4s1.8-4,4-4c2.2,0,4,1.8,4,4S33.1,49.1,30.9,49.1z"/>
		<path d="M43.8,42.5l-3-0.4c-0.2-0.7-0.5-1.3-0.8-1.9l1.8-2.4c0.2-0.3,0.2-0.7,0-1c-0.8-1-1.7-1.9-2.7-2.7c-0.3-0.2-0.7-0.2-1,0
			L35.8,36c-0.6-0.3-1.3-0.6-1.9-0.8l-0.4-3c0-0.4-0.3-0.7-0.7-0.7c-1.3-0.2-2.5-0.2-3.8,0c-0.4,0.1-0.7,0.4-0.7,0.7l-0.4,3
			c-0.7,0.2-1.3,0.5-1.9,0.8l-2.4-1.8c-0.3-0.2-0.7-0.2-1,0c-0.5,0.3-0.9,0.7-1.3,1.2l-0.2,0.2c-0.4,0.4-0.8,0.9-1.1,1.3
			c-0.2,0.3-0.2,0.7,0,1l1.8,2.4c-0.3,0.6-0.6,1.3-0.8,1.9l-3,0.4c-0.4,0-0.7,0.3-0.7,0.7c-0.1,0.5-0.2,1.1-0.2,1.7v0.4
			c0,0.6,0.1,1.1,0.1,1.7c0.1,0.4,0.4,0.7,0.7,0.7l3,0.4c0.2,0.7,0.5,1.3,0.8,1.9l-1.8,2.4c-0.2,0.3-0.2,0.7,0,1
			c0.3,0.5,0.7,0.9,1.2,1.3l0.1,0.2c0.4,0.4,0.9,0.8,1.3,1.2c0.3,0.2,0.7,0.2,1,0l2.4-1.8c0.6,0.3,1.3,0.6,1.9,0.8l0.4,3
			c0,0.4,0.3,0.7,0.7,0.7c0.6,0.1,1.3,0.1,1.9,0.1c0.6,0,1.3,0,1.9-0.1c0.4-0.1,0.7-0.4,0.7-0.7l0.4-3c0.7-0.2,1.3-0.5,1.9-0.8
			l2.4,1.8c0.3,0.2,0.7,0.2,1,0c1-0.8,1.9-1.7,2.7-2.7c0.2-0.3,0.2-0.7,0-1l-1.7-2.4c0.3-0.6,0.6-1.3,0.8-1.9l3-0.4
			c0.4,0,0.7-0.3,0.7-0.7c0.1-0.6,0.1-1.3,0.1-1.9c0-0.6,0-1.3-0.1-1.9C44.5,42.9,44.2,42.6,43.8,42.5z M43,46.2l-2.9,0.4
			c-0.3,0-0.6,0.3-0.7,0.6c-0.2,0.9-0.6,1.7-1,2.5c-0.2,0.3-0.2,0.7,0.1,1l1.8,2.3c-0.4,0.5-0.9,1-1.5,1.5l-2.3-1.8
			c-0.3-0.2-0.7-0.2-1,0c-0.8,0.5-1.6,0.8-2.5,1c-0.3,0.1-0.6,0.4-0.6,0.7L32,57.3c-0.7,0.1-1.4,0.1-2.1,0l-0.4-2.9
			c0-0.3-0.3-0.6-0.6-0.7c-0.9-0.2-1.7-0.6-2.5-1c-0.3-0.2-0.7-0.2-1,0.1l-2.3,1.6c-0.2-0.2-0.5-0.4-0.7-0.6l-0.2-0.2
			c-0.2-0.2-0.4-0.4-0.6-0.7l1.8-2.3c0.2-0.3,0.2-0.7,0-1c-0.5-0.8-0.8-1.6-1-2.5c-0.1-0.3-0.4-0.6-0.7-0.6l-2.9-0.4
			c0-0.3,0-0.6,0-0.8V45c0-0.3,0-0.6,0-0.9l2.9-0.4c0.3,0,0.6-0.3,0.7-0.6c0.2-0.9,0.6-1.7,1-2.5c0.2-0.3,0.2-0.7,0-1l-1.8-2.3
			c0.2-0.2,0.4-0.4,0.6-0.7l0.2-0.2c0.2-0.2,0.4-0.4,0.7-0.6l2.3,1.8c0.3,0.2,0.7,0.2,1,0.1c0.8-0.5,1.6-0.8,2.5-1
			c0.3-0.1,0.6-0.4,0.6-0.7l0.4-2.9c0.7-0.1,1.4-0.1,2.1,0l0.4,2.9c0,0.3,0.3,0.6,0.6,0.7c0.9,0.2,1.7,0.6,2.5,1
			c0.3,0.2,0.7,0.2,1,0l2.3-1.8c0.5,0.4,1,0.9,1.5,1.5l-1.8,2.3c-0.2,0.3-0.2,0.7-0.1,1c0.5,0.8,0.8,1.6,1,2.5
			c0.1,0.3,0.4,0.6,0.7,0.6l2.9,0.4c0,0.4,0,0.7,0,1C43,45.5,43,45.8,43,46.2z"/>
		<path d="M50.5,23.2c-0.5-0.2-1-0.3-1.5-0.3c-1.6,0-3.1,1-3.7,2.5c-0.4,1-0.4,2.1,0,3c0.4,1,1.2,1.7,2.2,2.1c0.5,0.2,1,0.3,1.5,0.3
			c1.6,0,3.1-1,3.7-2.5c0.4-1,0.4-2.1,0-3C52.3,24.4,51.5,23.6,50.5,23.2z M51.1,27.8c-0.4,0.9-1.2,1.4-2.1,1.4
			c-0.3,0-0.6-0.1-0.9-0.2c-0.6-0.2-1-0.7-1.2-1.2c-0.2-0.6-0.2-1.2,0-1.7c0.4-0.9,1.2-1.4,2.1-1.4c0.3,0,0.6,0.1,0.9,0.2
			c0.5,0.1,1,0.6,1.2,1.1C51.3,26.6,51.3,27.2,51.1,27.8z"/>
		<path d="M58.5,28.5l-1.7-1c0-0.4,0-0.8,0-1.2l1.7-1c0.3-0.2,0.5-0.6,0.4-0.9c-0.2-0.9-0.6-1.8-1.1-2.6c-0.2-0.3-0.6-0.5-1-0.4
			l-1.9,0.5c-0.3-0.3-0.6-0.6-0.9-0.9l0.5-2c0.1-0.4-0.1-0.8-0.4-0.9c-0.4-0.2-0.8-0.5-1.3-0.6c-0.4-0.2-0.9-0.3-1.3-0.4
			s-0.8,0.1-0.9,0.4l-1,1.7c-0.4,0-0.8,0-1.2,0l-1-1.7c-0.2-0.3-0.6-0.5-0.9-0.4c-0.4,0.1-0.8,0.2-1.2,0.4l-0.2,0.1
			c-0.4,0.2-0.8,0.4-1.2,0.6c-0.3,0.2-0.5,0.6-0.4,1l0.4,1.8c-0.3,0.3-0.6,0.6-0.9,0.9l-1.9-0.5c-0.4-0.1-0.8,0.1-0.9,0.4
			c-0.2,0.4-0.4,0.7-0.6,1.1l-0.1,0.3c-0.1,0.4-0.3,0.8-0.4,1.2c-0.1,0.4,0.1,0.8,0.4,0.9l1.7,1c0,0.4,0,0.8,0,1.2l-1.7,1
			c-0.3,0.2-0.5,0.6-0.4,0.9c0.1,0.4,0.2,0.8,0.4,1.2l0.1,0.2c0.2,0.4,0.4,0.8,0.6,1.2c0.2,0.3,0.6,0.5,1,0.4l1.9-0.4
			c0.3,0.3,0.6,0.6,0.9,0.9l-0.5,1.9c-0.1,0.4,0.1,0.8,0.4,0.9c0.4,0.2,0.8,0.4,1.3,0.6c0.4,0.2,0.9,0.3,1.3,0.4c0.1,0,0.1,0,0.2,0
			c0.3,0,0.6-0.2,0.7-0.4l1-1.7c0.4,0,0.8,0,1.2,0l1,1.7c0.2,0.3,0.6,0.5,0.9,0.4c0.9-0.2,1.8-0.6,2.6-1.1c0.3-0.2,0.5-0.6,0.4-1
			l-0.4-1.8c0.3-0.3,0.6-0.6,0.9-0.9l1.9,0.5c0.4,0.1,0.8-0.1,0.9-0.4c0.2-0.4,0.5-0.8,0.6-1.3c0.2-0.4,0.3-0.9,0.4-1.3
			C59,29.1,58.8,28.7,58.5,28.5z M56.9,30.1c-0.1,0.2-0.1,0.3-0.2,0.5l-1.8-0.5c-0.3-0.1-0.7,0-0.9,0.3c-0.4,0.5-0.8,1-1.3,1.3
			c-0.3,0.2-0.4,0.6-0.3,0.9l0.5,1.8c-0.3,0.2-0.7,0.3-1,0.4L51,33.2c-0.2-0.3-0.5-0.5-0.9-0.4c-0.6,0.1-1.3,0.1-1.9,0
			c-0.3-0.1-0.7,0.1-0.9,0.4l-1,1.8c-0.2-0.1-0.3-0.1-0.5-0.2c-0.2-0.1-0.3-0.1-0.5-0.2l0.5-1.8c0.1-0.3,0-0.7-0.3-0.9
			c-0.5-0.4-1-0.8-1.3-1.3c-0.2-0.3-0.6-0.4-0.9-0.3l-1.8,0.5c-0.1-0.1-0.1-0.3-0.2-0.4l-0.2-0.3C41,30,41,29.8,40.9,29.7l1.6-0.9
			c0.3-0.2,0.5-0.5,0.4-0.9c-0.1-0.6-0.1-1.3,0-1.9c0.1-0.3-0.1-0.7-0.4-0.9l-1.6-0.9c0-0.1,0.1-0.3,0.1-0.4l0.1-0.2
			c0.1-0.1,0.1-0.3,0.2-0.4l1.8,0.5c0.3,0.1,0.7,0,0.9-0.3c0.4-0.5,0.8-1,1.3-1.3c0.3-0.2,0.4-0.6,0.3-0.9l-0.5-1.8
			c0.1-0.1,0.3-0.1,0.4-0.2l0.3-0.2c0.1,0,0.3-0.1,0.4-0.1l0.9,1.6c0.2,0.3,0.5,0.5,0.9,0.4c0.6-0.1,1.3-0.1,1.9,0
			c0.3,0.1,0.7-0.1,0.9-0.4l0.9-1.6c0.2,0,0.4,0.1,0.5,0.1c0.2,0.1,0.3,0.1,0.5,0.2L52.2,21c-0.1,0.3,0,0.7,0.3,0.9
			c0.5,0.4,1,0.8,1.3,1.3c0.2,0.3,0.6,0.4,0.9,0.3l1.8-0.5c0.2,0.3,0.3,0.7,0.4,1l-1.6,0.9c-0.3,0.2-0.5,0.5-0.4,0.9
			c0.1,0.6,0.1,1.3,0,1.9c-0.1,0.3,0.1,0.7,0.4,0.9l1.6,0.9C57,29.8,56.9,30,56.9,30.1z"/>
	</g>
</g>
</svg>
