<?xml version="1.0" encoding="utf-8"?>
<svg version="1.1" xmlns="http://www.w3.org/2000/svg" xmlns:xlink="http://www.w3.org/1999/xlink" x="0px" y="0px"
	 viewBox="0 0 76 76" style="enable-background:new 0 0 76 76;" xml:space="preserve">
<g id="icon">
	<g>
		<path d="M45.8,43.3H33.2c-0.4,0-0.7,0.3-0.7,0.7s0.3,0.7,0.7,0.7h12.7c0.4,0,0.7-0.3,0.7-0.7C46.5,43.6,46.2,43.3,45.8,43.3z"/>
		<path d="M45.8,39.1H33.2c-0.4,0-0.7,0.3-0.7,0.7s0.3,0.7,0.7,0.7h12.7c0.4,0,0.7-0.3,0.7-0.7C46.5,39.4,46.2,39.1,45.8,39.1z"/>
		<path d="M45.8,35H33.2c-0.4,0-0.7,0.3-0.7,0.7c0,0.4,0.3,0.7,0.7,0.7h12.7c0.4,0,0.7-0.3,0.7-0.7C46.5,35.3,46.2,35,45.8,35z"/>
		<path d="M33.2,32.2h5.7c0.4,0,0.7-0.3,0.7-0.7s-0.3-0.7-0.7-0.7h-5.7c-0.4,0.1-0.7,0.4-0.7,0.7S32.8,32.2,33.2,32.2z"/>
		<path d="M51,26L47,21.9c-0.3-0.2-0.7-0.4-1.2-0.4l0,0H29.5c-0.9,0-1.6,0.7-1.6,1.7v26.3c0,0.9,0.7,1.7,1.7,1.7H50
			c0.9,0,1.7-0.7,1.7-1.7V27.2C51.5,26.8,51.3,26.4,51,26z M49.7,26.6h-3.2v-3.2L49.7,26.6z M50,49.8H29.5c-0.2,0-0.3-0.1-0.3-0.3
			V23.2c0-0.2,0.1-0.3,0.3-0.3h15.7v4.4c0,0.4,0.3,0.7,0.7,0.7h4.4v21.5C50.2,49.7,50,49.8,50,49.8z"/>
		<path d="M47.5,52.2c-0.4,0-0.7,0.3-0.7,0.7c0,0.2-0.2,0.3-0.3,0.3H26.1c-0.2,0-0.3-0.2-0.3-0.3V26.4c0-0.2,0.2-0.3,0.3-0.3
			c0.4,0,0.7-0.3,0.7-0.7s-0.3-0.7-0.7-0.7c-0.9,0-1.7,0.7-1.7,1.7v26.5c0,0.9,0.8,1.6,1.7,1.6h20.3c0.9,0,1.7-0.8,1.7-1.7
			C48.2,52.5,47.8,52.2,47.5,52.2z"/>
	</g>
</g>
</svg>
