<?xml version="1.0" encoding="utf-8"?>
<svg version="1.1" xmlns="http://www.w3.org/2000/svg" xmlns:xlink="http://www.w3.org/1999/xlink" x="0px" y="0px"
	 viewBox="0 0 76 76" style="enable-background:new 0 0 76 76;" xml:space="preserve">
<g id="icon">
	<g>
		<path d="M55,29c-0.1,0-0.8-0.3-2.4-0.3c-2.3,0-6.2,0.5-12.1,2.9c2.3-2.2,6.6-5.1,13.3-5.5c0.4,0,0.7-0.4,0.7-0.7
			c0-0.4-0.4-0.7-0.7-0.7c-6.9,0.4-11.3,3.2-13.9,5.5c1.6-2.7,5-6.2,12.5-7.9c0.4-0.1,0.6-0.5,0.5-0.8c-0.1-0.4-0.4-0.7-0.8-0.6
			c-9.3,2.1-12.8,7-14.1,10c-1.3-3-4.8-7.9-14.1-10c-0.4-0.1-0.7,0.2-0.8,0.6c-0.1,0.3,0.1,0.7,0.5,0.8c7.5,1.7,10.9,5.2,12.5,7.9
			c-2.6-2.3-7-5.1-13.8-5.5c-0.4,0-0.7,0.3-0.8,0.7c0,0.4,0.3,0.7,0.7,0.7c6.7,0.4,11,3.3,13.3,5.5c-5.9-2.3-9.8-2.9-12.1-2.9
			C21.8,28.7,21,29,21,29c-0.3,0.1-0.5,0.4-0.5,0.7l1.9,20.2c0,0.4,0.3,0.6,0.7,0.6l0,0h0.3c6.8,0,12.6,3.4,13.9,4.3
			c0.1,0.1,0.1,0.2,0.2,0.2c0.1,0.1,0.2,0.1,0.3,0.1c0,0,0,0,0.1,0l0,0c0.1,0,0.2,0,0.3-0.1c0.1-0.1,0.2-0.1,0.2-0.2
			c1.3-0.8,7.1-4.3,13.9-4.3h0.3l0,0c0.4,0,0.7-0.3,0.7-0.6l2.2-20.2C55.5,29.4,55.3,29,55,29z M22,30.2c0.3,0,0.8-0.1,1.4-0.1
			c2.5,0,6.8,0.7,13.8,3.8v19.2c-2.3-1.3-7.4-3.9-13.5-3.9L22,30.2z M52.3,49.2c-6.1,0.1-11.2,2.6-13.5,3.9V33.8
			c7-3.1,11.4-3.8,13.8-3.8c0.6,0,1.1,0,1.4,0.1L52.3,49.2z"/>
		<g>
			<path d="M43.9,41c0.1,0.6,0.3,1,0.7,1.4c0.4,0.3,0.9,0.5,1.4,0.5s0.9-0.1,1.2-0.3c0.3-0.2,0.6-0.5,0.9-0.8l1.4,1
				c-0.5,0.6-1,1-1.5,1.2c-0.5,0.2-1.1,0.4-1.8,0.4c-0.6,0-1.1-0.1-1.6-0.3s-1-0.5-1.3-0.8c-0.4-0.4-0.7-0.8-0.9-1.3
				c-0.2-0.5-0.3-1.1-0.3-1.7s0.1-1.2,0.3-1.7s0.5-0.9,0.9-1.3c0.4-0.4,0.8-0.6,1.3-0.8c0.5-0.2,1.1-0.3,1.6-0.3s1,0.1,1.5,0.3
				c0.4,0.2,0.8,0.5,1.1,0.8c0.3,0.4,0.6,0.8,0.7,1.3c0.2,0.5,0.3,1.1,0.3,1.8v0.5L43.9,41L43.9,41z M47.9,39.6c0-0.6-0.2-1-0.5-1.3
				c-0.3-0.3-0.8-0.5-1.4-0.5s-1,0.2-1.4,0.5c-0.3,0.3-0.5,0.8-0.6,1.3H47.9z"/>
		</g>
	</g>
</g>
</svg>
