<?xml version="1.0" encoding="utf-8"?>
<svg version="1.1" xmlns="http://www.w3.org/2000/svg" xmlns:xlink="http://www.w3.org/1999/xlink" x="0px" y="0px"
	 viewBox="0 0 76 76" style="enable-background:new 0 0 76 76;" xml:space="preserve">
<g id="icon">
	<g>
		<g>
			<path d="M35,39.8L32.1,37h10.5c0.3,0,0.6-0.3,0.6-0.6c0-0.3-0.3-0.6-0.6-0.6H32l2.9-2.9c0.2-0.2,0.2-0.6,0-0.9s-0.6-0.2-0.9,0
				l-4,4C30,36.1,30,36.1,30,36.2s0,0.2,0,0.2v0.2c0,0.1,0.1,0.1,0.1,0.2l4,4c0.2,0.2,0.6,0.2,0.9,0C35.2,40.4,35.2,40,35,39.8z"/>
			<path d="M41,40.8l2.9,2.9H33.5c-0.3,0-0.6,0.3-0.6,0.6c0,0.3,0.3,0.6,0.6,0.6H44l-2.9,2.9c-0.2,0.2-0.2,0.6,0,0.9
				c0.2,0.3,0.6,0.2,0.9,0l4-4c0.1-0.1,0.1-0.1,0.1-0.2s0-0.2,0-0.2v-0.2c0-0.1-0.1-0.1-0.1-0.2l-4-4c-0.2-0.2-0.6-0.2-0.9,0
				C40.8,40.2,40.8,40.5,41,40.8z"/>
		</g>
		<path d="M51.7,33c-0.2,0-0.5-0.1-0.8-0.1h-0.1c-0.3,0-0.6,0-1,0l0,0c-0.1,0-0.2,0-0.3,0c-1.4-3.5-4.7-5.8-8.5-5.8
			c-0.3,0-0.7,0-1.1,0c-2.1-2.5-5.1-4-8.4-4c-5.9,0-10.8,4.9-10.8,10.8c0,0.1,0,0.1,0,0.2c-2.8,1.9-4.4,5-4.4,8.4
			c0,5.6,4.6,10.2,10.2,10.3c0,0,23.1,0,23.3,0c5.5,0,10-4.5,10-10C59.8,38,56.3,34,51.7,33z M49.8,51c-0.2,0-23.3,0-23.3,0
			c-4.7,0-8.5-3.8-8.5-8.5c0-3,1.5-5.7,4-7.2c0.3-0.2,0.4-0.5,0.4-0.8v-0.1c0-0.2,0-0.3,0-0.5c0-5,4.1-9.1,9.1-9.1
			c2.9,0,5.5,1.3,7.3,3.7c0.2,0.3,0.5,0.4,0.8,0.4c0.5-0.1,1-0.1,1.4-0.1c3.2,0,6.1,2.1,7.1,5.2c0.1,0.4,0.5,0.7,0.9,0.6
			c0.3,0,0.5,0,0.7,0c0,0,0.1,0,0.2,0c0.3,0,0.5,0,0.8,0h0.1c0.2,0,0.4,0.1,0.6,0.1c3.9,0.7,6.6,4.1,6.6,8.1
			C58,47.4,54.2,51,49.8,51z"/>
	</g>
</g>
</svg>
