<?xml version="1.0" encoding="utf-8"?>
<svg version="1.1" xmlns="http://www.w3.org/2000/svg" xmlns:xlink="http://www.w3.org/1999/xlink" x="0px" y="0px"
	 viewBox="0 0 76 76" style="enable-background:new 0 0 76 76;" xml:space="preserve">
<g>
	<path d="M37.3,49.5c-1.1,0-2,0.9-2,2s0.9,2,2,2s2-0.9,2-2S38.4,49.5,37.3,49.5z M37.3,52.1c-0.3,0-0.5-0.2-0.5-0.5s0.2-0.5,0.5-0.5
		s0.5,0.2,0.5,0.5C37.8,51.8,37.6,52.1,37.3,52.1z"/>
	<path d="M30.6,54.5c-1.3,0-2.3-1-2.3-2.3v-3.7h12.1l0.4-1.5H28.3V26h18v13.3h1.5V25.2c0,0,0,0,0-0.1v-1.4c0-2.1-1.7-3.8-3.8-3.8
		H30.6c-2.1,0-3.8,1.7-3.8,3.8v28.5c0,2.1,1.7,3.8,3.8,3.8H42l0.4-1.5H30.6z M28.3,23.7c0-1.3,1-2.3,2.3-2.3H44c1.3,0,2.3,1,2.3,2.3
		v0.7h-18V23.7z"/>
	<path d="M53.1,47.3C53,47.1,52.7,47,52.4,47h-2.8l1.5-5.6c0.1-0.2,0-0.5-0.2-0.6c-0.2-0.2-0.4-0.3-0.6-0.3h-2.6h-1.5h-2.4
		c-0.3,0-0.5,0.2-0.6,0.4L41.8,47l-0.4,1.5l-0.6,2.4c-0.1,0.2,0,0.5,0.2,0.6c0.2,0.2,0.4,0.3,0.6,0.3h2.7l-0.6,2.7L43.2,56l-1.1,4.6
		c-0.1,0.2,0,0.5,0.2,0.6c0.2,0.2,0.4,0.3,0.6,0.3L53.2,48C53.3,47.8,53.3,47.6,53.1,47.3z M47.7,52.8l-1.9,2.7l-1.6,2.2l0.4-1.8
		l0.4-1.8l0.7-2.8c0.1-0.2,0-0.5-0.2-0.6c-0.2-0.2-0.4-0.3-0.6-0.3h-2.7l0.5-2l0.4-1.5l1.3-5.2h1.7h1.5h1.7L48,47.4
		c-0.1,0.2,0,0.5,0.2,0.6c0.2,0.2,0.4,0.3,0.6,0.3h2.1L47.7,52.8z"/>
</g>
</svg>
