<?xml version="1.0" encoding="utf-8"?>
<svg version="1.1" xmlns="http://www.w3.org/2000/svg" xmlns:xlink="http://www.w3.org/1999/xlink" x="0px" y="0px"
	 viewBox="0 0 76 76" style="enable-background:new 0 0 76 76;" xml:space="preserve">
<g id="icon">
	<g>
		<path d="M38.7,37.8c-0.1-0.4-0.5-0.7-0.9-0.6c-0.4,0.1-0.7,0.5-0.6,0.9c1.2,5.9-0.4,11.8-4.4,16.3c-0.3,0.3-0.2,0.8,0.1,1.1
			c0.1,0.1,0.3,0.2,0.5,0.2s0.4-0.1,0.6-0.3C38.3,50.7,40,44.2,38.7,37.8z"/>
		<path d="M43,37c-0.3-1.3-1.1-2.5-2.2-3.3c-1.1-0.8-2.5-1-3.9-0.8c-1.3,0.3-2.5,1.1-3.3,2.2c-0.8,1.1-1,2.5-0.8,3.9v0.1l0,0
			c0.1,0.4,0.5,0.6,0.9,0.6c0.4-0.1,0.7-0.5,0.6-0.9v-0.1v-0.1c-0.2-0.9,0-1.8,0.6-2.6c0.5-0.8,1.4-1.4,2.3-1.6c1-0.2,1.9,0,2.7,0.5
			c0.8,0.5,1.3,1.3,1.5,2.2v0.1c1.3,6.2,0,12.6-3.6,17.8c-0.2,0.3-0.1,0.8,0.2,1c0.1,0.1,0.3,0.1,0.4,0.1c0.2,0,0.5-0.1,0.6-0.3
			C43,50.5,44.3,43.8,43,37L43,37z"/>
		<path d="M34,41L34,41c-0.4,0-0.8,0.3-0.8,0.8c0,4.1-1.6,8-4.6,10.8c-0.3,0.3-0.3,0.8,0,1.1c0.1,0.2,0.3,0.2,0.5,0.2
			s0.4-0.1,0.5-0.2c3.3-3.1,5.2-7.4,5.1-11.9C34.7,41.3,34.4,41,34,41z"/>
		<path d="M47,44.8c-0.4,0-0.8,0.2-0.8,0.6c-0.4,3-1.2,5.9-2.6,8.6c-0.2,0.4,0,0.8,0.3,1c0.1,0.1,0.2,0.1,0.3,0.1
			c0.3,0,0.5-0.2,0.7-0.4c1.4-2.9,2.3-5.9,2.7-9.1C47.7,45.2,47.4,44.8,47,44.8z"/>
		<path d="M36.1,28.6c-2.5,0.5-4.6,1.9-6,4.1c-1.4,2.1-1.9,4.7-1.4,7.2v0.1c0.7,3.7-0.7,7.4-3.6,9.8c-0.3,0.3-0.4,0.7-0.1,1.1
			c0.1,0.2,0.4,0.3,0.6,0.3c0.2,0,0.3-0.1,0.5-0.2c3.4-2.8,4.9-7.1,4.1-11.4v-0.1c-0.8-4.3,2-8.5,6.3-9.3c2.1-0.4,4.2,0,6,1.2
			s3,3,3.4,5.1c0.4,2.1,0.6,4.2,0.5,6.3c0,0.4,0.3,0.8,0.7,0.8s0.8-0.3,0.8-0.7c0.1-2.2-0.1-4.5-0.6-6.7
			C46.3,31,41.2,27.6,36.1,28.6z"/>
		<path d="M51.6,35.2c-1-4.6-4.2-8.4-8.6-10.2c-0.4-0.1-0.8,0-1,0.4c-0.2,0.4,0,0.8,0.4,1c4,1.5,6.9,4.9,7.7,9.1c0,0,0,0,0,0.1
			c1,4.9,0.8,9.8-0.4,14.5c-0.1,0.4,0.1,0.8,0.5,0.9c0.1,0,0.1,0,0.2,0c0.3,0,0.6-0.2,0.7-0.6C52.5,45.5,52.6,40.5,51.6,35.2
			L51.6,35.2z"/>
		<path d="M25,35.8c0.1,0,0.1,0,0.2,0c0.3,0,0.7-0.2,0.7-0.6c1.1-4.7,4.9-8.4,9.6-9.4c1.4-0.3,2.9-0.3,4.4-0.1
			c0.4,0.1,0.8-0.2,0.9-0.6c0.1-0.4-0.2-0.8-0.6-0.9c-1.7-0.3-3.3-0.2-4.9,0.1c-5.4,1.1-9.6,5.3-10.9,10.6
			C24.3,35.3,24.6,35.8,25,35.8z"/>
		<path d="M25.8,40.5L25.8,40.5c-0.1-0.9-0.2-1.7-0.2-2.6c0-0.4-0.3-0.8-0.7-0.8l0,0c-0.4,0-0.7,0.3-0.8,0.7c0,1,0.1,2,0.3,2.9v0.1
			c0.4,2.1-0.4,4.2-2,5.5c-0.3,0.3-0.4,0.7-0.1,1.1c0.2,0.3,0.4,0.4,0.6,0.4c0.2,0,0.3-0.1,0.5-0.2C25.4,45.8,26.4,43,25.8,40.5z"/>
		<path d="M55.9,34.5v-0.1c-2-9.8-11.7-16.2-21.5-14.2c-2.6,0.5-5,1.6-7.1,3.1c-0.3,0.2-0.4,0.7-0.2,1c0.2,0.3,0.7,0.4,1,0.2
			c1.9-1.4,4.1-2.4,6.5-2.8c9.1-1.9,18,4,19.8,13.1v0.1c0.2,1.2,0.3,2.4,0.3,3.5c0,0.4,0.3,0.8,0.7,0.8l0,0c0.4,0,0.7-0.3,0.8-0.7
			C56.3,37,56.2,35.8,55.9,34.5z"/>
		<path d="M21.5,41.3L21.5,41.3c-1.1-5.6,0.7-11.3,4.7-15.2c0.3-0.3,0.3-0.8,0-1.1c-0.3-0.3-0.8-0.3-1.1,0c-4.4,4.4-6.3,10.6-5,16.6
			v0.1c0,0.2,0.1,0.4,0.2,0.7s0.4,0.6,0.7,0.6c0.1,0,0.1,0,0.2,0c0.4-0.1,0.6-0.5,0.5-0.9C21.6,41.8,21.6,41.5,21.5,41.3z"/>
	</g>
</g>
</svg>
