<?xml version="1.0" encoding="utf-8"?>
<svg version="1.1" xmlns="http://www.w3.org/2000/svg" xmlns:xlink="http://www.w3.org/1999/xlink" x="0px" y="0px"
	 viewBox="0 0 76 76" style="enable-background:new 0 0 76 76;" xml:space="preserve">
<g>
	<path d="M40.4,47.2H30.3c-0.3,0-0.6-0.3-0.6-0.6c0-0.3,0.3-0.6,0.6-0.6h10.1c0.1,0,0.2,0,0.3,0.1"/>
	<g>
		<path d="M47.6,47.8L47.6,47.8c0.6,0.6,1.7,0.6,2.3,0c0.6-0.6,0.6-1.7,0-2.3s-1.7-0.6-2.3,0C47,46.2,47,47.2,47.6,47.8z M49,46.4
			c0.2,0.2,0.2,0.4,0,0.6s-0.4,0.2-0.6,0c-0.2-0.2-0.2-0.4,0-0.6C48.6,46.2,48.9,46.2,49,46.4z"/>
		<path d="M44.3,43.2l0.5,0.5c-0.3,0.4-0.5,0.8-0.7,1.2l-0.7-0.2c-0.3-0.1-0.6,0.1-0.7,0.4c-0.1,0.2,0,0.4,0.2,0.6
			c0.1,0.1,0.2,0.1,0.3,0.2l0.7,0.2c-0.1,0.5-0.1,0.9,0,1.4l-0.7,0.2c-0.3,0.1-0.5,0.4-0.4,0.7c0,0.1,0.1,0.2,0.2,0.3
			c0.1,0.1,0.4,0.2,0.6,0.2l0.7-0.2c0.2,0.4,0.4,0.8,0.7,1.2l-0.7,0.3c-0.2,0.2-0.2,0.6,0,0.8c0.2,0.2,0.6,0.2,0.8,0l0.5-0.5
			c0.4,0.3,0.8,0.5,1.2,0.7l-0.2,0.7c-0.1,0.2,0,0.4,0.2,0.6c0.1,0.1,0.2,0.1,0.3,0.2c0.3,0.1,0.6-0.1,0.7-0.4l0.2-0.7
			c0.5,0.1,0.9,0.1,1.4,0l0.2,0.7c0,0.1,0.1,0.2,0.2,0.3c0.1,0.1,0.4,0.2,0.6,0.2c0.3-0.1,0.5-0.4,0.4-0.7l-0.2-0.7
			c0.4-0.2,0.8-0.4,1.2-0.7l0.5,0.5c0.2,0.2,0.6,0.2,0.8,0c0.2-0.2,0.2-0.6,0-0.8l-0.5-0.5c0.3-0.4,0.5-0.8,0.7-1.2l0.7,0.2
			c0.3,0.1,0.6-0.1,0.7-0.4c0.1-0.3-0.1-0.6-0.4-0.7l-0.7-0.2c0.1-0.5,0.1-0.9,0-1.4l0.7-0.2c0.3-0.1,0.5-0.4,0.4-0.7
			c-0.1-0.3-0.4-0.5-0.7-0.4l-0.7-0.1c-0.2-0.4-0.4-0.8-0.7-1.2l0.5-0.5c0.2-0.2,0.2-0.6,0-0.8c-0.2-0.2-0.6-0.2-0.8,0l-0.5,0.5
			c-0.4-0.3-0.8-0.5-1.2-0.7l0.2-0.7c0.1-0.3-0.1-0.6-0.4-0.7c-0.3-0.1-0.6,0.1-0.7,0.4l-0.2,0.7c-0.5-0.1-0.9-0.1-1.4,0l-0.2-0.7
			c-0.1-0.3-0.4-0.5-0.7-0.4c-0.3,0.1-0.5,0.4-0.4,0.7l0.2,0.7c-0.4,0.2-0.8,0.4-1.2,0.7l-0.6-0.5c-0.2-0.2-0.6-0.2-0.8,0
			C44.1,42.5,44.1,42.9,44.3,43.2z M51.4,44c1.5,1.5,1.5,3.8,0,5.3s-3.8,1.5-5.3,0s-1.5-3.8,0-5.3S49.9,42.6,51.4,44z"/>
		<g>
			<path d="M30.4,42.2l5.2-7.1l2.3,3.1c0.1,0.1,0.3,0.2,0.5,0.2c0.2,0,0.4-0.1,0.5-0.3l3.1-4.8l3.7,5.4v0.6c0.4-0.2,0.7-0.3,1.1-0.4
				V27.6c0-0.7-0.6-1.3-1.3-1.3H25.2c-0.7,0-1.3,0.6-1.3,1.3v14.5c0,0.7,0.6,1.3,1.3,1.3h16.2c0.2-0.4,0.4-0.8,0.7-1.1
				C42.1,42.2,30.4,42.2,30.4,42.2z M25.2,42.2c-0.1,0-0.2-0.1-0.2-0.2V27.6c0-0.1,0.1-0.2,0.2-0.2h20.2c0.1,0,0.2,0.1,0.2,0.2v9.2
				L42.3,32c-0.1-0.2-0.3-0.3-0.5-0.2c-0.2,0-0.4,0.1-0.5,0.3l-3,4.8l-2.2-3c-0.1-0.1-0.3-0.2-0.5-0.2c-0.2,0-0.4,0.1-0.5,0.2
				L29,42.3L25.2,42.2L25.2,42.2z"/>
			<path d="M29.8,30.8c-1.4,0-2.6,1.2-2.6,2.6c0,1.4,1.2,2.6,2.6,2.6s2.6-1.2,2.6-2.6C32.4,31.9,31.2,30.8,29.8,30.8z M29.8,34.8
				c-0.8,0-1.5-0.7-1.5-1.5s0.7-1.5,1.5-1.5s1.5,0.7,1.5,1.5C31.2,34.2,30.6,34.8,29.8,34.8z"/>
			<path d="M22.8,50.1c-0.2,0-0.4-0.2-0.4-0.4v-25c0-0.2,0.2-0.4,0.4-0.4h25c0.2,0,0.4,0.2,0.4,0.4v14c0.2,0,0.4,0,0.5,0
				c0.2,0,0.4,0,0.6,0v-14c0-0.7-0.6-1.4-1.5-1.4h-25c-0.8,0-1.5,0.7-1.5,1.5v25c0,0.8,0.7,1.5,1.5,1.5H42c-0.2-0.4-0.4-0.7-0.6-1.1
				H22.8V50.1z"/>
		</g>
		<path d="M40.7,47.1c0.2-0.1,0.3-0.3,0.3-0.5s-0.1-0.4-0.2-0.5l0,0C40.7,46,40.6,46,40.5,46H30.3c-0.3,0-0.6,0.3-0.6,0.6
			c0,0.3,0.3,0.6,0.6,0.6h10.1C40.5,47.2,40.6,47.2,40.7,47.1"/>
	</g>
</g>
</svg>
