<?xml version="1.0" encoding="utf-8"?>
<svg version="1.1" xmlns="http://www.w3.org/2000/svg" xmlns:xlink="http://www.w3.org/1999/xlink" x="0px" y="0px"
	 viewBox="0 0 76 76" style="enable-background:new 0 0 76 76;" xml:space="preserve">
<g>
	<path d="M32.7,52.4c1.5-0.2,1.7-1.7,1-2.4c-0.6-0.6-3.7-2.9-4.5-3.8c-0.4-0.4-0.9-0.6-1.1-1.1c-0.5-1.1-0.9-2.7-0.2-3.8
		c0.1-0.2,0.2-0.1,0.1,0.3C27.4,44,29,46,29.3,45c0.2-0.7,0-1.9,0.1-2.9c0.2-1.7,1.8-5.1,2.5-5.3c-1.1-2,1.3-3.6,1.2-5.3
		c0-1.1,1,1.4,2,1.9c1.1,0.6,2.4-1.1,4.2-2c0.5-0.2,1.2-0.5,1.1-0.7c-0.2-1-2.3,1.3-4.2,1.3c-0.9,0-1.2-0.2-1.5-0.5
		c-1-1,0.1-0.2,1.6-0.4c0.7-0.1,0.9-0.2,1.6-0.5c0.7-0.3,1.5-0.7,2.3-0.9c0.6-0.2,0.5-0.6,0.3-0.7c-0.1-0.1-0.3-0.1-0.5,0.2
		c-0.3,0.6-2,0.9-2.5,1.1c-0.7,0.2-1.4,0.4-2.3,0.3c-1.5-0.1-1.1-0.7-2.2-1.3c-0.3-0.2-0.2-0.6,0.2-1c0.2-0.2,0.8-0.3,1.1-0.8
		c0-0.1,0.4-0.5,0.7-0.7c0.1-0.1,0.1-1.8-0.8-1.9c-0.8,0-1,0.6-1,1.2s0.3,1.1,0.6,1.1c0.4,0,0,0.4-0.2,0.5c-0.3,0.1-0.8-1.3-0.7-2
		s0.4-2,1.3-2c0.8,0,1.4,1.1,1.4,2.8c0,0.3,1.3-0.1,1.8,0.3c0.3,0.3-1.1-3.1,2-3.4c0.8,0.2,1.6,0.4,2,2.3c-0.1,0.2,0.2,1.5-0.3,1.7
		c-0.6,0.2-1,0-0.6-0.6c0.2-0.6,0-2.1-1.3-2s-1.1,2.3-0.7,2.4c0.3,0,1.2,0.7,1.8,0.8c2,0.4,0.5,1.5,0.8,2.9c0.3,1.6,1.3,1.2,2.2,5.3
		c0.2,0.3,1,0.5,1.7,3.7c0.7,2.9-0.3,4.9,1.3,4.8c0.4,0,0.9-0.1,1.1-1c0.6-2.1-0.3-4.6-1.2-6.4c-0.5-1-1-1.7-1.3-1.9
		c1.1,0.6,2.4,2.6,2.7,4.1c0.4,1.9,0.7,2.8,0.1,4.8c0.4,0.2,1.2,0.6,1.2,1c-0.9-0.8-3.7-0.9-3.8,0.9c-0.5,0-0.8,0-1.2,0.4
		c-1.1,1.3-0.1,4-0.2,5.5c-0.1,1.3-0.5,2.5-0.7,3.8c-0.7,0-0.6-0.5-0.4-1.2c0.2-0.6,0.5-1.4,0.5-2.1c0-0.7-0.1-1.1-0.2-1.2
		c-0.2-0.1-0.4,0.1-0.8,0.7c-0.8,1.2-2.5,1.8-4,2c-1.6,0.2-3,0-3.8-0.8c-0.3-0.3-0.7,0.1-0.8,0.2c-0.1,0.1,0.3,0.3,0.5,0.8
		c0.4,0.7,0.7,1.7-0.1,2.1C34.2,53.9,33.4,53.8,32.7,52.4L32.7,52.4z M32.1,52.3c0.6,0.9,2.5,4.6-0.9,5.1c-1.2,0.2-3-0.7-4.8-1.1
		c-1.6-0.4-3.3-0.6-4.2-0.9c-0.6-0.2-0.8-0.4-0.8-0.6c-0.1-0.6,0.7-1.5,0.7-2.2s-0.3-1.1-0.5-1.7c-0.3-0.6-0.3-1-0.1-1.3
		c0.2-0.2,0.5-0.3,1-0.2c0.7,0.1,1.5-0.1,1.9-0.3c0.7-0.4,1.1-1.3,0.7-2.4c0,1.1-0.3,1.5-1.2,1.9c-0.8,0.5-2.1,0.1-2.7,0.6
		c-0.7,0.6,0.3,2.2,0.2,3.3c-0.1,0.9-1,1.9-0.6,2.8c0.4,0.9,2.3,1,4.4,1.4c2.9,0.6,4.5,1.6,5.9,1.7c1.9,0.1,2.2-1.9,5.3-1.9
		c0.9,0,1.7-0.1,2.6-0.1c1,0,2,0,3,0c2,0,1.3,1.1,2.6,1.8c1.1,0.6,3.1,0.3,3.6-0.1c0.6-0.6,2.4-2.1,3.7-2.8c1.6-0.8,5.5-2.3,2.7-4
		c-0.7-0.4-2.2-0.8-2.3-3.8c-0.6,0.5-0.5,3.3,1.1,3.8c1.8,0.6,3,1.6-0.4,2.8c-2.2,0.8-2.6,1-4.4,2.5c-1.8,1.5-4.5,0.9-4-2.3
		c0.2-1.6,0.4-3,0-4.4c-0.2-0.7-0.3-1.6-0.2-2.2c0.3-1.2,0.9-1.6,1.6-0.4c0.4,0.7,0.5,1.6,2,1.7c2.3,0.1,2.7-2.2,3.5-2.3
		c0.5-0.1,1-1.5,0.6-3.7c-0.4-2.4-1.8-6.2-3.6-8.1c-1.5-1.6-2.4-3-3-5c-0.5-1.7-0.8-3.3-0.7-4.9c0.1-2-1-4.8-2.8-6.1
		c-1.1-0.8-2.9-1.3-4.4-1.3c-0.9,0-1.7,0.1-2.4,0.5c-2.6,1.4-3,3.5-3,5.8c0,2.2,0.1,4.7,0.4,7.1c-0.3,1.1-1.8,3.2-2.8,4.4
		c-1.3,1.3-2,3.8-2.8,6c-0.5,1.2-1.2,1.7-1.3,3.2c0,0.4,0,1.5,0.4,1.2C27.3,44.7,29.2,47.7,32.1,52.3L32.1,52.3z M40.2,20.6
		c-0.1,0.2-0.4,0.5-0.2,0.6c0.2,0.2,0.3-0.2,0.8-0.4c0.1,0,0.6,0,0.7-0.2c0-0.1-0.3-0.2-0.5-0.4c-0.2-0.2-0.4-0.3-0.5-0.3
		C40,19.9,40.2,20.4,40.2,20.6L40.2,20.6z M42.9,29.7c0.2-0.2,0.2,0.3,0.7,0.6c0.3,0.2,0.7,0.1,0.8,0.5c0.1,0.3-0.1,0.7-0.4,0.6
		C43.5,31.4,42.4,30.3,42.9,29.7L42.9,29.7z M35.6,26.9c-0.7-0.1-0.8,0.5-0.5,0.5C35.3,27.4,35.2,27,35.6,26.9L35.6,26.9z
		 M34.4,25.6c0.1,0,0.2,0.1,0.2,0.3c-0.1,0.3,0,0.5,0.2,0.5c0,0,0.1,0,0.1-0.1c0.1-0.6-0.2-1-0.3-1C34.2,25.2,34.2,25.6,34.4,25.6
		L34.4,25.6z M39.6,25.4c0.2,0.1,0.4,0.4,0.4,0.7c0,0,0.2,0,0.2-0.1c0-0.6-0.5-0.8-0.6-0.8C39.4,25.2,39.5,25.3,39.6,25.4L39.6,25.4
		z M36.9,27c0.7-0.3,0.9,0.2,0.7,0.2C37.4,27.3,37.4,26.9,36.9,27L36.9,27z M29,38.2c-0.3,0,0.1-0.3,0.3-0.6
		c0.2-0.3,0.2-0.7,0.3-0.7c0.2,0.1,0.1,0.3,0,0.7C29.4,38,29.1,38.2,29,38.2L29,38.2z"/>
</g>
</svg>
