<?xml version="1.0" encoding="utf-8"?>
<svg version="1.1" xmlns="http://www.w3.org/2000/svg" xmlns:xlink="http://www.w3.org/1999/xlink" x="0px" y="0px"
	 viewBox="0 0 76 76" style="enable-background:new 0 0 76 76;" xml:space="preserve">
<g id="icon">
	<g>
		<path d="M46.8,20.7c-0.1-0.1-0.3-0.1-0.4-0.1H46c-0.3,0-0.6,0.2-0.7,0.4c-0.2,0.3-0.2,0.6,0,0.8c2.9,5.9,2.6,12.5-0.9,18.1
			c-3.4,5.5-9.2,8.8-15.6,8.8c-2.4,0-4.8-0.5-7.2-1.4c-0.3-0.1-0.7,0-1,0.3c-0.2,0.3-0.3,0.7-0.1,1c4.1,7,9.1,10.5,16,11
			c0.5,0,1,0,1.5,0c11.1,0,20.3-8.3,20.8-19C59.3,32,54.8,24.5,46.8,20.7z M57.1,40.6c-0.5,9.7-8.9,17.3-19.1,17.3
			c-0.5,0-0.9,0-1.4,0c-5.5-0.4-9.8-3-13.3-8.1c1.8,0.5,3.7,0.7,5.5,0.7c6.9,0,13.3-3.6,17.1-9.6c3.3-5.4,4-11.9,1.8-17.7
			C54,26.9,57.5,33.2,57.1,40.6z"/>
		<path d="M21.4,32.2c-0.2,0.6,0,1.2,0.5,1.5l3.9,2.8l-1.4,4.4c-0.2,0.6,0,1.2,0.5,1.5s1.1,0.3,1.6,0l4.1-2.7l4.1,2.7
			c0.2,0.1,0.5,0.2,0.8,0.2s0.6-0.1,0.8-0.2c0.5-0.3,0.7-0.9,0.5-1.5l-1.4-4.4l3.9-2.8c0.5-0.3,0.7-1,0.5-1.5
			c-0.2-0.5-0.7-0.9-1.3-0.9l-5-0.1l-1.6-4.3c-0.2-0.5-0.7-0.9-1.3-0.9c-0.6,0-1.1,0.4-1.3,0.9l-1.6,4.4l-5,0.1
			C22.1,31.2,21.5,31.7,21.4,32.2z M28.3,33c0.4,0,0.7-0.2,0.8-0.6l1.5-4l1.5,4c0.1,0.3,0.4,0.6,0.8,0.6l4.4,0.1l-3.4,2.4
			c-0.3,0.2-0.5,0.6-0.3,1l1.3,3.9L31.1,38c-0.3-0.2-0.7-0.2-1,0l-3.7,2.4l1.3-3.9c0.1-0.4,0-0.8-0.3-1L24,33.1L28.3,33z"/>
		<path d="M23.7,25.5c0.2,0.1,0.4,0.2,0.6,0.2c0.2,0,0.5-0.1,0.7-0.2c0.4-0.3,0.6-0.8,0.4-1.2l-0.6-2l1.6-1.2
			c0.4-0.4,0.6-0.8,0.4-1.3c-0.1-0.5-0.5-0.8-1-0.8h-2.1l-0.6-1.9c-0.2-0.5-0.6-0.8-1.1-0.8s-0.9,0.3-1.1,0.8l-0.6,1.9h-2.1
			c-0.5,0-0.9,0.3-1,0.8s0,1,0.4,1.2l1.6,1.3l-0.6,2c-0.1,0.5,0,0.9,0.4,1.2c0.4,0.3,0.9,0.3,1.3,0l1.7-1.2L23.7,25.5z M20.8,23
			l0.2-0.8c0.1-0.4,0-0.7-0.3-1l-0.6-0.5h0.8c0.4,0,0.7-0.2,0.8-0.6l0.3-0.8l0.3,0.8c0.1,0.4,0.4,0.6,0.8,0.6h0.8l-0.6,0.5
			c-0.3,0.2-0.4,0.6-0.3,1l0.2,0.8l-0.7-0.5c-0.2-0.1-0.3-0.2-0.5-0.2c-0.2,0-0.3,0.1-0.5,0.2L20.8,23z"/>
	</g>
</g>
</svg>
