<?xml version="1.0" encoding="utf-8"?>
<svg version="1.1" xmlns="http://www.w3.org/2000/svg" xmlns:xlink="http://www.w3.org/1999/xlink" x="0px" y="0px"
	 viewBox="0 0 76 76" style="enable-background:new 0 0 76 76;" xml:space="preserve">
<g>
	<g>
		<path d="M60.3,53.2V22.7c0-1.5-1.2-2.8-2.6-2.8h-38c-1.4,0-2.6,1.3-2.6,2.8v30.4c0,1.5,1.2,2.8,2.6,2.8h38
			C59.1,56,60.3,54.7,60.3,53.2z M19.6,54.2c-0.4,0-0.8-0.4-0.8-1V22.7c0-0.6,0.4-1,0.8-1h38c0.4,0,0.8,0.4,0.8,1v30.4
			c0,0.6-0.4,1-0.8,1h-38V54.2z"/>
		<path d="M56.6,51.5v-27c0-0.5-0.4-0.9-0.9-0.9H23.3c-0.5,0-0.9,0.4-0.9,0.9v27c0,0.5,0.4,0.9,0.9,0.9h32.4
			C56.2,52.4,56.6,52,56.6,51.5z M24.2,50.6V25.4h30.6v25.2H24.2z"/>
		<path d="M21.2,37.3C21,37.1,20.8,37,20.6,37s-0.5,0.1-0.6,0.3c-0.2,0.2-0.3,0.4-0.3,0.6c0,0.2,0.1,0.5,0.3,0.6
			c0.2,0.2,0.4,0.3,0.6,0.3s0.5-0.1,0.6-0.3C21.6,38.3,21.6,37.7,21.2,37.3z"/>
	</g>
	<g>
		<path d="M42.3,38.6c0.2,0.2,0.4,0.3,0.6,0.3c0.2,0,0.5-0.1,0.6-0.3l2.6-2.6c0.4-0.4,0.4-0.9,0-1.3c-0.4-0.4-0.9-0.4-1.3,0l-1.8,2
			l-3.5-3.5c-0.4-0.4-0.9-0.4-1.3,0c-0.4,0.4-0.4,0.9,0,1.3L42.3,38.6z"/>
		<path d="M43,47.4c2.5,0,4.9-1,6.7-2.8c3.7-3.7,3.7-9.7,0-13.3c-1.8-1.8-4.1-2.8-6.7-2.8c-2.5,0-4.9,1-6.7,2.8
			c-3.7,3.7-3.7,9.7,0,13.3C38.1,46.4,40.5,47.4,43,47.4z M37.6,32.6c1.4-1.4,3.3-2.2,5.4-2.2c2,0,3.9,0.8,5.4,2.2c3,3,3,7.8,0,10.8
			c-1.4,1.4-3.3,2.2-5.4,2.2c-2,0-3.9-0.8-5.4-2.2C34.6,40.4,34.6,35.5,37.6,32.6z"/>
	</g>
	<path d="M33.1,33.8c0-0.5-0.4-0.9-0.9-0.9h-3.8c-0.5,0-0.9,0.4-0.9,0.9s0.4,0.9,0.9,0.9h3.8C32.6,34.8,33.1,34.4,33.1,33.8z"/>
	<path d="M32.1,37.4c0-0.5-0.4-0.9-0.9-0.9h-1.1c-0.5,0-0.9,0.4-0.9,0.9s0.4,0.9,0.9,0.9h1.1C31.7,38.3,32.1,37.9,32.1,37.4z"/>
	<path d="M34.9,30.1c0-0.5-0.4-0.9-0.9-0.9h-6.6c-0.5,0-0.9,0.4-0.9,0.9s0.4,0.9,0.9,0.9H34C34.5,31,34.9,30.6,34.9,30.1z"/>
</g>
</svg>
