<?xml version="1.0" encoding="utf-8"?>
<svg version="1.1" xmlns="http://www.w3.org/2000/svg" xmlns:xlink="http://www.w3.org/1999/xlink" x="0px" y="0px"
	 viewBox="0 0 76 76" style="enable-background:new 0 0 76 76;" xml:space="preserve">
<g id="icon">
	<g>
		<g>
			<path d="M30,37.2l3.4-10.8c0.3-1,1.7-1,2,0l6.4,19.8c0.1,0.4,0.6,0.4,0.7,0l2.8-9.2H54c-0.5-8.5-7.5-15.2-16.1-15.2
				s-15.7,6.8-16.1,15.4H30L30,37.2z"/>
			<path d="M46.5,38.8l-3.6,10.8c-0.2,0.7-1.2,0.7-1.4,0l-6.7-20.2c-0.1-0.3-0.5-0.3-0.6,0L31,38.8h-9c0.4,8.5,7.5,15.4,16.1,15.4
				s15.7-6.8,16.1-15.3H46.5L46.5,38.8z"/>
		</g>
		<g>
			<path d="M24,23.1c0.1-0.1,0.2-0.2,0.3-0.3C24.2,22.9,24.1,23,24,23.1z"/>
			<path d="M26.1,24.6c-0.2,0.1-0.3,0.2-0.5,0.4C25.8,24.9,26,24.7,26.1,24.6z"/>
			<path d="M55.7,34.1c0,0.1,0,0.3,0.1,0.4C55.7,34.2,55.7,34.2,55.7,34.1z"/>
			<path d="M58,33.5c0,0.1,0.1,0.3,0.1,0.4C58.2,33.7,58.2,33.6,58,33.5z"/>
			<path d="M32,57.7c-0.1,0-0.3-0.1-0.4-0.1C31.7,57.5,31.8,57.7,32,57.7z"/>
			<path d="M32.8,55.4c-0.2-0.1-0.3-0.1-0.5-0.2C32.5,55.2,32.6,55.2,32.8,55.4z"/>
			<path d="M29.7,54c-0.1-0.1-0.2-0.1-0.3-0.2C29.5,54,29.6,54,29.7,54z"/>
			<path d="M28.6,56.2c-0.1-0.1-0.2-0.1-0.3-0.2C28.4,56.2,28.5,56.2,28.6,56.2z"/>
			<path d="M29.7,54c-0.1-0.1-0.2-0.1-0.3-0.2c-5.6-3.1-9.4-9-9.4-15.9c0-5.2,2.2-9.8,5.6-13.1c0.1-0.1,0.3-0.3,0.4-0.4
				c0.1-0.2,0.2-0.4,0.2-0.7c0-0.7-0.6-1.3-1.3-1.3c-0.2,0.1-0.4,0.2-0.6,0.3c-0.1,0.1-0.2,0.2-0.3,0.3c-4,3.8-6.5,9.1-6.5,15
				c0,7.8,4.4,14.6,10.8,18.1c0.1,0.1,0.2,0.1,0.3,0.2c0.1,0,0.3,0.1,0.4,0.1c0.7,0,1.3-0.6,1.3-1.3C30.2,54.7,30.1,54.2,29.7,54z"
				/>
			<path d="M28.8,22.6c0.2-0.1,0.3-0.1,0.4-0.2C29.1,22.4,28.9,22.5,28.8,22.6z"/>
			<path d="M27.6,20.2C27.7,20.2,27.7,20.2,27.6,20.2C27.7,20.2,27.7,20.2,27.6,20.2z"/>
			<path d="M58.2,33.8c0-0.1-0.1-0.3-0.1-0.4c-2.1-9.1-10.3-16-20-16c-3.8,0-7.3,1-10.3,2.8c0,0-0.1,0-0.1,0.1
				c-0.3,0.2-0.5,0.6-0.5,1c0,0.7,0.6,1.3,1.3,1.3c0.1,0,0.3,0,0.4-0.1c0.1-0.1,0.3-0.2,0.4-0.2c2.6-1.5,5.6-2.3,8.9-2.3
				c8.6,0,15.8,6,17.6,14.1c0,0.1,0.1,0.3,0.1,0.4c0.2,0.5,0.6,0.8,1.2,0.8c0.7,0,1.3-0.6,1.3-1.3C58.2,33.8,58.2,33.8,58.2,33.8z"
				/>
			<path d="M56,37.7c0,0.1,0,0.2,0,0.2c0,0.1,0,0.2,0,0.3v-0.1C56,37.8,56,37.8,56,37.7z"/>
			<path d="M58.5,37.8L58.5,37.8L58.5,37.8L58.5,37.8z"/>
			<path d="M58.5,37.8L58.5,37.8c0-0.8-0.6-1.3-1.3-1.3c-0.6,0-1.1,0.4-1.2,1c0,0.1,0,0.3,0,0.4v0.1C56,48,47.9,56,37.9,56
				c-1.8,0-3.6-0.3-5.3-0.8c-0.2-0.1-0.3-0.1-0.5-0.2H32c-0.7,0-1.3,0.6-1.3,1.3c0,0.5,0.3,0.9,0.7,1.1c0.1,0,0.3,0.1,0.4,0.1
				c1.9,0.6,4,0.9,6.1,0.9C49.3,58.4,58.5,49.2,58.5,37.8C58.5,38,58.5,38,58.5,37.8z"/>
		</g>
	</g>
</g>
</svg>
