<?xml version="1.0" encoding="utf-8"?>
<svg version="1.1" xmlns="http://www.w3.org/2000/svg" xmlns:xlink="http://www.w3.org/1999/xlink" x="0px" y="0px"
	 viewBox="0 0 76 76" style="enable-background:new 0 0 76 76;" xml:space="preserve">
<g>
	<path d="M55.3,36.9L55.3,36.9c-0.7-2.3-4.7-3.3-8.7-3.3s-8,1-8.7,3.1c0,0.1,0,0.1-0.1,0.2c0,0.2-0.1,0.4-0.1,0.6v18.4
		c0,0.2,0,0.3,0.1,0.4c0.6,2.4,5.1,3.3,8.8,3.3s8.2-0.9,8.8-3.3c0.1-0.1,0.1-0.3,0.1-0.4V37.5C55.4,37.3,55.4,37.1,55.3,36.9z
		 M46.5,40.2c3.6,0,6.4-0.9,7.8-1.9v4.9c-0.2,0.6-2.9,2.3-7.8,2.3s-7.5-1.7-7.7-2.3l0,0v-4.9C40.2,39.3,42.9,40.2,46.5,40.2z
		 M38.8,44.8c1.4,1,4.1,1.9,7.7,1.9c3.6,0,6.3-0.9,7.8-1.9v4.8c-0.2,0.6-2.9,2.3-7.8,2.3s-7.5-1.7-7.7-2.3l0,0V44.8z M46.6,34.7
		c3.4,0,7.1,0.8,7.7,2.2c-0.3,0.6-3,2.1-7.7,2.1c-4.6,0-7.3-1.5-7.6-2.1C39.5,35.5,43.1,34.7,46.6,34.7z M54.3,56
		c-0.3,1.4-3.6,2.5-7.7,2.5s-7.4-1-7.7-2.5v-0.1v-4.8c1.4,1,4.1,1.9,7.7,1.9c3.6,0,6.3-0.9,7.8-1.9L54.3,56L54.3,56z"/>
	<path d="M50.4,31.3c0-2.1-0.5-4.1-1.3-6c0,0,0-0.1-0.1-0.1c-2.3-5.1-7.4-8.7-13.4-8.8h-0.1l0,0c0,0,0,0-0.1,0l0,0l0,0l0,0
		c-6,0-11.2,3.6-13.5,8.8c0,0,0,0.1-0.1,0.1c-0.8,1.8-1.3,3.8-1.3,6c0,0.2,0,0.3,0,0.5v0.1c0,0.1,0,0.1,0,0.2
		c0.1,2.3,0.7,4.5,1.8,6.4c0,0,0,0.1,0.1,0.1c2.5,4.5,7.4,7.6,12.9,7.7l0,0l0,0l0,0c0.2,0,0.4,0,0.6,0l0,0c0.3,0,0.6-0.3,0.6-0.6
		s-0.3-0.6-0.6-0.6l0,0v-0.6V39c0.3,0,0.6-0.3,0.6-0.6s-0.3-0.6-0.6-0.6v-5.1h5.9c0,0.3,0.3,0.6,0.6,0.6l0,0c0.3,0,0.6-0.3,0.6-0.6
		h5.8l0,0c0,0.3,0.3,0.6,0.6,0.6S50,33,50,32.7l0,0c0-0.2,0-0.4,0-0.6c0,0,0,0,0-0.1l0,0C50.4,31.7,50.4,31.5,50.4,31.3z M31.7,18.3
		c-1.4,1.5-2.6,3.8-3.3,6.7h-5C25.2,21.7,28.1,19.3,31.7,18.3z M22.9,26.2h5.3c-0.3,1.6-0.5,3.3-0.5,5.1h-5.8
		C21.9,29.5,22.2,27.8,22.9,26.2z M21.9,32.5h5.8c0.1,1.8,0.3,3.5,0.7,5.1h-5C22.6,36.1,22.1,34.4,21.9,32.5z M24.2,38.9h4.6
		c0.7,2.3,1.7,4.2,2.9,5.5C28.6,43.5,25.9,41.5,24.2,38.9z M34.9,44.9c-2-0.4-3.7-2.7-4.8-6h4.8V44.9z M34.9,37.6h-5.1
		c-0.4-1.6-0.7-3.3-0.7-5.1H35L34.9,37.6L34.9,37.6z M34.9,31.3H29c0-1.8,0.2-3.5,0.5-5.1h5.4V31.3z M34.9,24.9h-5.1
		c1-3.9,2.9-6.7,5.1-7.2V24.9z M36.1,17.8c2.2,0.4,4.1,3.2,5.2,7.2h-5.2V17.8z M36.1,31.3v-5.1h5.4c0.3,1.6,0.5,3.3,0.5,5.1H36.1z
		 M42.6,24.9c-0.7-2.8-1.8-5.2-3.2-6.7c3.5,1,6.5,3.5,8.2,6.7C47.6,24.9,42.6,24.9,42.6,24.9z M43.4,31.3c0-1.8-0.2-3.5-0.5-5.1h5.2
		c0.6,1.6,1,3.3,1,5.1H43.4z"/>
</g>
</svg>
