<?xml version="1.0" encoding="utf-8"?>
<svg version="1.1" xmlns="http://www.w3.org/2000/svg" xmlns:xlink="http://www.w3.org/1999/xlink" x="0px" y="0px"
	 viewBox="0 0 76 76" style="enable-background:new 0 0 76 76;" xml:space="preserve">
<g>
	<path d="M57.7,25.4c-0.1-0.2-0.3-0.4-0.5-0.5L45.9,20c-0.4-0.2-0.9,0-1.1,0.3l-3.9,6.3l-10.7,1.2l-0.6-1.4
		c-0.1-0.2-0.2-0.4-0.4-0.4l-9.7-4.6c-0.3-0.2-0.7-0.1-1,0.2c-0.3,0.3-0.3,0.6-0.2,1l3.1,7.3v18.7c0,0.3,0.1,0.6,0.4,0.7L32,55.9
		l0,0c0.1,0.1,0.3,0.1,0.4,0.1h0.1l19.1-2.2c0.4-0.1,0.8-0.4,0.8-0.9V34.3l5-8.2C57.7,25.9,57.8,25.7,57.7,25.4z M40.6,28.4v6.1
		l-7.2,0.8l-2.5-5.8L40.6,28.4z M42.3,29l6.9,4.5l-6.9,0.8V29z M28.1,27.5l2.9,6.8l-8-5.2L20.8,24L28.1,27.5z M23.2,31.3l8.5,5.5
		v16.8l-8.5-5.5V31.3z M33.4,54.2V37.1l17.4-2v17.1L33.4,54.2z M51.4,32.9l-8.8-5.7l3.3-5.3l9.7,4.2L51.4,32.9z"/>
</g>
</svg>
