<?xml version="1.0" encoding="utf-8"?>
<svg version="1.1" xmlns="http://www.w3.org/2000/svg" xmlns:xlink="http://www.w3.org/1999/xlink" x="0px" y="0px"
	 viewBox="0 0 76 76" style="enable-background:new 0 0 76 76;" xml:space="preserve">
<g id="icon">
	<g>
		<path d="M44.7,36.5l-8.5-6.2c-0.6-0.4-1.4-0.5-2-0.2s-1,1-1,1.7v12.3c0,0.7,0.4,1.4,1.1,1.7c0.3,0.1,0.6,0.2,0.9,0.2
			c0.4,0,0.8-0.1,1.1-0.4l8.5-6.2c0.5-0.4,0.8-0.9,0.8-1.5C45.5,37.5,45.2,37,44.7,36.5z M43.7,38.2l-8.5,6.2h-0.1L35,44.2V32
			c0,0,0-0.1,0.1-0.1c0,0,0,0,0.1,0l8.5,6.2l0.1,0.1C43.7,38.2,43.7,38.2,43.7,38.2z"/>
		<path d="M59.1,28c0-0.2-0.1-0.4-0.1-0.6c0-0.1-0.1-0.2-0.1-0.3c-0.6-1.8-2.2-3.1-4.1-3.3c-0.1,0-0.1,0-0.2,0
			c-0.7-0.1-7.6-1.1-16.6-1.1c-9.4,0-16.7,1.1-16.7,1.1s0,0-0.1,0c-1.9,0.2-3.5,1.5-4.2,3.4c0,0.1-0.1,0.2-0.1,0.3
			c0,0.1,0,0.3-0.1,0.5c-0.2,1.8-0.7,5.6-0.7,10.1s0.5,8.2,0.7,10.1c0,0.2,0.1,0.4,0.1,0.6c0,0.1,0,0.2,0.1,0.3
			c0.6,1.8,2.3,3.1,4.2,3.3c0,0,0,0,0.1,0c0.1,0,7.3,1.1,16.7,1.1l0,0l0,0c9.4,0,16.6-1.1,16.7-1.1c0,0,0,0,0.1,0
			c1.9-0.2,3.5-1.5,4.2-3.3c0-0.1,0.1-0.2,0.1-0.3c0.1-0.2,0.1-0.4,0.1-0.6c0.3-1.8,0.7-5.6,0.7-10.1C59.8,33.5,59.4,29.8,59.1,28z
			 M57.4,47.8c0,0.1,0,0.2-0.1,0.4c0,0.1,0,0.1,0,0.2c-0.4,1.3-1.6,2.1-3,2.1c-0.1,0-0.3,0-0.4,0.1c-1.8,0.2-8.1,1-15.9,1
			s-14.1-0.8-15.9-1c-0.1-0.1-0.2-0.1-0.4-0.1c-1.3,0-2.5-0.9-3-2.1l-0.1-0.2c0-0.1-0.1-0.2-0.1-0.4c-0.2-1.8-0.7-5.5-0.7-9.8
			c0-4.4,0.5-8,0.7-9.8c0-0.1,0-0.2,0.1-0.4l0.1-0.2c0.4-1.3,1.6-2.1,3-2.1c0.1,0,0.3,0,0.4-0.1c1.8-0.2,8.1-1,15.9-1
			s14.1,0.8,15.9,1c0.1,0.1,0.2,0.1,0.4,0.1c1.3,0,2.5,0.9,3,2.1c0,0.1,0,0.1,0,0.2c0,0.1,0.1,0.2,0.1,0.4c0.2,1.8,0.7,5.5,0.7,9.8
			C58,42.3,57.6,46,57.4,47.8z"/>
	</g>
</g>
</svg>
