<?xml version="1.0" encoding="utf-8"?>
<svg version="1.1" xmlns="http://www.w3.org/2000/svg" xmlns:xlink="http://www.w3.org/1999/xlink" x="0px" y="0px"
	 viewBox="0 0 76 76" style="enable-background:new 0 0 76 76;" xml:space="preserve">
<g id="icon">
	<g>
		<path d="M23.1,28.8c0-0.3,0.3-0.6,0.6-0.6h14.5c0.3,0,0.6,0.3,0.6,0.6v0.4c0,0.3-0.3,0.6-0.6,0.6H23.7c-0.3,0-0.6-0.2-0.6-0.6
			V28.8L23.1,28.8z M34.5,34.9c0,0.3-0.3,0.6-0.6,0.6H23.7c-0.3,0-0.6-0.3-0.6-0.6v-0.4c0-0.3,0.3-0.6,0.6-0.6H34
			c0.3,0,0.6,0.3,0.6,0.6L34.5,34.9L34.5,34.9z M41.6,32.2c0,0.3-0.3,0.6-0.6,0.6H23.7c-0.3,0-0.6-0.3-0.6-0.6v-0.4
			c0-0.3,0.3-0.6,0.6-0.6h17.4c0.3,0,0.6,0.3,0.6,0.6L41.6,32.2L41.6,32.2z"/>
		<path d="M41.1,49.8c-0.1-0.4-0.4-0.7-0.8-0.6c-0.4,0.1-0.7,0.4-0.6,0.8l0.7,4H29.8l0.7-4c0.1-0.4-0.2-0.8-0.6-0.8
			c-0.4-0.1-0.8,0.2-0.8,0.6l-0.7,4.3v0.1c0,0.7,0.6,1.3,1.4,1.3h10.6c0.8,0,1.4-0.6,1.4-1.3v-0.1L41.1,49.8z"/>
		<path d="M23.7,29.8h14.5c0.3,0,0.6-0.3,0.6-0.6v-0.4c0-0.3-0.3-0.6-0.6-0.6H23.7c-0.3,0-0.6,0.3-0.6,0.6v0.4
			C23.1,29.6,23.4,29.8,23.7,29.8z"/>
		<path d="M33.9,33.9H23.7c-0.3,0-0.6,0.3-0.6,0.6v0.4c0,0.3,0.3,0.6,0.6,0.6H34c0.3,0,0.6-0.3,0.6-0.6v-0.4
			C34.5,34.2,34.3,33.9,33.9,33.9z"/>
		<path d="M41.1,31.1H23.7c-0.3,0-0.6,0.3-0.6,0.6v0.4c0,0.3,0.3,0.6,0.6,0.6h17.4c0.3,0,0.6-0.3,0.6-0.6v-0.4
			C41.6,31.4,41.4,31.1,41.1,31.1z"/>
		<path d="M20.5,45.7c-0.9,0-1.7-0.8-1.7-1.7v-1.2h28.1l-0.2-1.4H18.8V23.6c0-0.9,0.8-1.7,1.7-1.7h29.1c0.9,0,1.7,0.8,1.7,1.7v10.8
			l1.4,1V35V23.6c0.1-1.7-1.3-3.1-3.1-3.1H20.5c-1.7,0-3.1,1.4-3.1,3.1v20.2c0,1.7,1.4,3.1,3.1,3.1h26.9l-0.2-1.4
			C47.2,45.7,20.5,45.7,20.5,45.7z"/>
		<path d="M48.7,34c-0.3-0.2-0.6-0.2-0.9-0.1c-0.3,0.2-0.4,0.5-0.4,0.8l1.7,12.1c0,0.3,0.2,0.5,0.5,0.6c0.3,0.1,0.6,0,0.8-0.1
			l2.1-1.8l2,3.7c0.1,0.2,0.3,0.3,0.5,0.4c0.1,0,0.1,0,0.2,0c0.2,0,0.3,0,0.5-0.1L58,48c0.2-0.1,0.3-0.3,0.3-0.5s0-0.4-0.2-0.6
			l-2.5-3.2l2.4-1c0.3-0.1,0.5-0.4,0.5-0.6s-0.1-0.6-0.3-0.8L48.7,34z M54.2,42.8c-0.3,0.1-0.5,0.3-0.5,0.6c-0.1,0.3,0,0.6,0.2,0.8
			l2.9,3.7l-0.9,0.6l-2.3-4.2c-0.1-0.2-0.4-0.4-0.6-0.5c-0.1,0-0.1,0-0.2,0c-0.2,0-0.4,0.1-0.6,0.2l-2,1.6l-1.3-9.7l7.6,5.9
			L54.2,42.8z"/>
	</g>
</g>
</svg>
