<?xml version="1.0" encoding="utf-8"?>
<svg version="1.1" xmlns="http://www.w3.org/2000/svg" xmlns:xlink="http://www.w3.org/1999/xlink" x="0px" y="0px"
	 viewBox="0 0 76 76" style="enable-background:new 0 0 76 76;" xml:space="preserve">
<g>
	<g>
		<path d="M52.4,24.1l-5.5-5.4c-0.3-0.3-0.6-0.6-1.3-0.6H25.1C24,18,23,19,23,20.2v35.7c0,1.2,1,2.2,2.1,2.2h25.7
			c1.2,0,2.2-1,2.2-2.2V25.5C53,24.8,52.7,24.4,52.4,24.1z M50.6,24.7h-4.2v-4.2L50.6,24.7z M50.8,56.3H25.1c-0.3,0-0.5-0.2-0.5-0.5
			V20.2c0-0.3,0.2-0.5,0.5-0.5h19.5v5.8c0,0.5,0.4,0.8,0.8,0.8h5.8v29.5C51.3,56.1,51.1,56.3,50.8,56.3z"/>
		<path d="M38.1,31.3c-1.8,0-3.3,1.8-3.3,4.2s1.4,4.2,3.3,4.2c1.8,0,3.3-1.8,3.3-4.2C41.3,33.2,39.9,31.3,38.1,31.3z M38.1,38.1
			c-0.9,0-1.6-1.2-1.6-2.5c0-1.4,0.7-2.5,1.6-2.5c0.9,0,1.6,1.2,1.6,2.5C39.7,36.9,38.9,38.1,38.1,38.1z"/>
		<path d="M33.2,43c-1.8,0-3.3,1.8-3.3,4.2s1.4,4.2,3.3,4.2c1.9,0,3.3-1.8,3.3-4.2S35,43,33.2,43z M33.2,49.7
			c-0.9,0-1.6-1.2-1.6-2.5c0-1.4,0.7-2.5,1.6-2.5s1.6,1.2,1.6,2.5C34.8,48.6,34.1,49.7,33.2,49.7z"/>
		<path d="M30.7,33.5l0.6-0.2v5.5c0,0.5,0.4,0.8,0.8,0.8c0.5,0,0.8-0.4,0.8-0.8v-6.7c0-0.3-0.1-0.5-0.3-0.7s-0.5-0.2-0.8-0.1
			l-1.7,0.6c-0.4,0.1-0.7,0.6-0.5,1.1C29.8,33.4,30.2,33.7,30.7,33.5z"/>
		<path d="M45.2,31.4L43.5,32c-0.4,0.1-0.7,0.6-0.5,1.1c0.1,0.4,0.6,0.7,1.1,0.5l0.6-0.2v5.5c0,0.5,0.4,0.8,0.8,0.8
			c0.5,0,0.8-0.4,0.8-0.8v-6.7c0-0.3-0.1-0.5-0.3-0.7C45.8,31.3,45.5,31.3,45.2,31.4z"/>
		<path d="M40.2,43l-1.7,0.6c-0.4,0.1-0.7,0.6-0.5,1.1c0.1,0.4,0.6,0.7,1.1,0.5l0.6-0.2v5.5c0,0.5,0.4,0.8,0.8,0.8s0.8-0.4,0.8-0.8
			v-6.7c0-0.3-0.1-0.5-0.3-0.7C40.8,43,40.5,42.9,40.2,43z"/>
		<path d="M45.2,43l-1.7,0.6c-0.4,0.1-0.7,0.6-0.5,1.1c0.1,0.4,0.6,0.7,1.1,0.5l0.6-0.2v5.5c0,0.5,0.4,0.8,0.8,0.8
			c0.5,0,0.8-0.4,0.8-0.8v-6.7c0-0.3-0.1-0.5-0.3-0.7C45.8,43,45.5,42.9,45.2,43z"/>
	</g>
</g>
</svg>
