<?xml version="1.0" encoding="utf-8"?>
<svg version="1.1" xmlns="http://www.w3.org/2000/svg" xmlns:xlink="http://www.w3.org/1999/xlink" x="0px" y="0px"
	 viewBox="0 0 76 76" style="enable-background:new 0 0 76 76;" xml:space="preserve">
<g>
	<path d="M21.5,37.7c-0.2,0.2-0.4,0.2-0.6,0.2s-0.4-0.1-0.6-0.2c-0.2-0.2-0.3-0.4-0.3-0.6s0.1-0.4,0.3-0.6c0.2-0.2,0.4-0.3,0.6-0.3
		s0.4,0.1,0.6,0.3C21.8,36.8,21.8,37.4,21.5,37.7z"/>
	<path d="M52.2,48.2H25.3v-4.5h26.9C52.2,43.7,52.2,48.2,52.2,48.2z"/>
	<path d="M57.4,41.4l-0.6-0.6v10.7c0,0.5-0.3,0.9-0.8,0.9H20c-0.4,0-0.8-0.4-0.8-0.9V22.6c0-0.5,0.3-0.9,0.8-0.9h36.1
		c0.4,0,0.8,0.4,0.8,0.9v3.3l0.6-0.6c0.2-0.2,0.4-0.3,0.7-0.3c0.2,0,0.3,0.1,0.5,0.2v-2.6c0-1.5-1.1-2.7-2.5-2.7H20
		c-1.4,0-2.5,1.2-2.5,2.7v28.9c0,1.5,1.1,2.7,2.5,2.7h36.1c1.4,0,2.5-1.2,2.5-2.7v-10c-0.1,0.1-0.3,0.2-0.5,0.2
		C57.9,41.6,57.6,41.5,57.4,41.4z"/>
	<path d="M20.9,36.2c-0.2,0-0.4,0.1-0.6,0.3S20,36.9,20,37.1s0.1,0.4,0.3,0.6c0.2,0.2,0.4,0.2,0.6,0.2s0.4-0.1,0.6-0.2
		c0.3-0.3,0.3-0.9,0-1.2C21.4,36.3,21.1,36.2,20.9,36.2z"/>
	<path d="M66.7,32L66.7,32h-8.1H57h-1l1.1-1.1l1.6-1.6l0.7-0.7c0.2-0.2,0.3-0.4,0.3-0.6s-0.1-0.5-0.3-0.6l-0.5-0.5
		c0,0-0.1-0.1-0.2-0.1c-0.1-0.1-0.3-0.2-0.5-0.2s-0.5,0.1-0.6,0.3L57,27.4L55.4,29l-1.6,1.6l-1.1,1.1l-0.9,0.9
		c-0.2,0.2-0.3,0.4-0.3,0.6c0,0.2,0.1,0.5,0.3,0.6l0.9,0.9l1.1,1.1l1.6,1.6l1.7,1.7l0.5,0.5c0.2,0.2,0.4,0.3,0.6,0.3
		c0.2,0,0.3-0.1,0.5-0.2c0.1,0,0.1-0.1,0.2-0.1l0.5-0.5c0.2-0.2,0.3-0.4,0.3-0.6c0-0.2-0.1-0.4-0.3-0.6l-0.7-0.7L57,35.7l-1.1-1.1
		H57h1.6h8.1c0.5,0,0.9-0.4,0.9-0.9V33C67.6,32.4,67.2,32,66.7,32z"/>
	<g>
		<path d="M55.1,42.2v-3l-1.7-1.7l-2.6-2.6c-0.4-0.4-0.7-1-0.7-1.6s0.2-1.2,0.7-1.6l2.6-2.4l1.7-1.7v-3.4c0-0.5-0.4-0.9-0.9-0.9
			H23.5c-0.5,0-0.9,0.4-0.9,0.9v17.9L55.1,42.2L55.1,42.2z"/>
		<path d="M22.6,43.7v6.2c0,0.5,0.4,0.9,0.9,0.9h30.8c0.5,0,0.9-0.4,0.9-0.9v-6.2H22.6z"/>
	</g>
</g>
</svg>
