<?xml version="1.0" encoding="utf-8"?>
<svg version="1.1" xmlns="http://www.w3.org/2000/svg" xmlns:xlink="http://www.w3.org/1999/xlink" x="0px" y="0px"
	 viewBox="0 0 76 76" style="enable-background:new 0 0 76 76;" xml:space="preserve">
<g id="icon">
	<g>
		<path d="M55.4,21.9c-2-2-4.7-3.2-7.6-3.2s-5.6,1.1-7.6,3.2c-2.8,2.8-3.8,7-2.7,10.8L17.6,52.4c-0.2,0.2-0.3,0.6-0.2,0.9l1.5,3.5
			c0.1,0.3,0.4,0.5,0.8,0.5l0,0l5.7-0.2c0.4,0,0.7-0.3,0.8-0.6l1.2-4.4l5.1-1c0.4-0.1,0.6-0.4,0.7-0.7l0.9-6.4l4.8,0.1
			c0.2,0,0.5-0.1,0.6-0.2l4.4-4.4c1.2,0.5,2.6,0.7,3.9,0.7c2.9,0,5.6-1.1,7.6-3.2C59.6,32.8,59.6,26,55.4,21.9z M54.2,35.8
			c-1.7,1.7-4,2.7-6.4,2.7c-1.3,0-2.6-0.3-3.8-0.8c-0.3-0.1-0.7-0.1-0.9,0.2l-4.5,4.5l-5.2-0.1l0,0c-0.4,0-0.8,0.3-0.8,0.7l-0.9,6.6
			l-5,1c-0.3,0.1-0.6,0.3-0.7,0.6l-1.1,4.3l-4.6,0.1l-1-2.4l19.8-19.8c0.2-0.2,0.3-0.6,0.2-0.9c-1.2-3.3-0.4-7.1,2.1-9.6
			c1.7-1.7,4-2.7,6.4-2.7s4.7,0.9,6.4,2.7C57.8,26.5,57.8,32.3,54.2,35.8z"/>
		<path d="M48.4,24.3c-0.6,0.6-1,1.4-1,2.3s0.3,1.7,0.9,2.3c0.6,0.6,1.4,0.9,2.3,0.9s1.7-0.3,2.3-0.9c1.2-1.2,1.2-3.3,0-4.5
			C51.7,23.1,49.6,23.1,48.4,24.3z M51.7,27.6c-0.6,0.6-1.6,0.6-2.1,0c-0.3-0.3-0.4-0.7-0.4-1.1c0-0.4,0.2-0.8,0.4-1.1
			c0.3-0.3,0.7-0.4,1.1-0.4c0.4,0,0.8,0.2,1.1,0.4C52.3,26.1,52.3,27,51.7,27.6z"/>
	</g>
</g>
</svg>
