<?xml version="1.0" encoding="utf-8"?>
<svg version="1.1" xmlns="http://www.w3.org/2000/svg" xmlns:xlink="http://www.w3.org/1999/xlink" x="0px" y="0px"
	 viewBox="0 0 76 76" style="enable-background:new 0 0 76 76;" xml:space="preserve">
<g>
	<g>
		<path d="M51.9,25.5l-5.1-5c-0.4-0.4-0.8-0.6-1.4-0.6l0,0h-20c-1.1,0-1.9,0.9-1.9,1.9v32.3c0,1.1,0.9,1.9,1.9,1.9h25.1
			c1.1,0,1.9-0.9,1.9-1.9V26.9C52.5,26.3,52.3,25.8,51.9,25.5z M50.5,26.1h-4.3v-4.2L50.5,26.1z M50.5,54.6h-25
			c-0.3,0-0.5-0.2-0.5-0.5V21.9c0-0.3,0.2-0.5,0.5-0.5h19.3v5.5c0,0.4,0.3,0.7,0.7,0.7H51v26.6C51,54.4,50.8,54.6,50.5,54.6z"/>
		<path d="M47.1,49.5h-18c-0.4,0-0.7,0.3-0.7,0.7s0.3,0.7,0.7,0.7h18c0.4,0,0.7-0.3,0.7-0.7S47.5,49.5,47.1,49.5z"/>
		<path d="M47.1,44.5h-18c-0.4,0-0.7,0.3-0.7,0.7s0.3,0.7,0.7,0.7h18c0.4,0,0.7-0.3,0.7-0.7C47.9,44.8,47.5,44.5,47.1,44.5z"/>
		<path d="M29.1,40.8h5c0.4,0,0.7-0.3,0.7-0.7s-0.3-0.7-0.7-0.7h-5c-0.4,0-0.7,0.3-0.7,0.7C28.4,40.5,28.7,40.8,29.1,40.8z"/>
		<path d="M29.1,36.3h5c0.4,0,0.7-0.3,0.7-0.7s-0.3-0.7-0.7-0.7h-5c-0.4,0-0.7,0.3-0.7,0.7C28.4,36,28.7,36.3,29.1,36.3z"/>
		<path d="M29.1,31.3h5c0.4,0,0.7-0.3,0.7-0.7c0-0.4-0.3-0.7-0.7-0.7h-5c-0.4,0-0.7,0.3-0.7,0.7C28.4,30.9,28.7,31.3,29.1,31.3z"/>
		<path d="M48,30.3L48,30.3c0-0.1-0.1-0.1-0.1-0.2s-0.1-0.1-0.1-0.2l0,0c0,0-0.1,0-0.1-0.1l-0.1-0.1c-0.1,0-0.1,0-0.2,0h-0.1h-9.1
			h-0.1c-0.1,0-0.1,0-0.2,0c-0.1,0-0.1,0.1-0.1,0.1s-0.1,0-0.1,0.1l0,0c0,0-0.1,0.1-0.1,0.2c0,0,0,0,0,0.1v0.1c0,0.1,0,0.1,0,0.2
			l0,0v9.6l0,0c0,0.1,0,0.1,0,0.2v0.1c0,0,0,0,0,0.1s0.1,0.1,0.1,0.2l0,0c0,0,0.1,0,0.1,0.1l0.1,0.1c0.1,0,0.2,0.1,0.3,0.1h9.1
			c0.1,0,0.2,0,0.3-0.1l0.1-0.1c0,0,0.1,0,0.1-0.1l0,0c0,0,0.1-0.1,0.1-0.2c0,0,0,0,0-0.1v-0.1c0-0.1,0-0.1,0-0.2l0,0v-9.6l0,0
			C48,30.5,48,30.4,48,30.3z M42.7,34.3l-2.9-3h5.7L42.7,34.3z M41.7,35.3l-2.8,3v-6L41.7,35.3z M42.7,36.4l2.9,3h-5.7L42.7,36.4z
			 M43.7,35.3l2.8-3v6L43.7,35.3z"/>
	</g>
</g>
</svg>
