<?xml version="1.0" encoding="utf-8"?>
<svg version="1.1" xmlns="http://www.w3.org/2000/svg" xmlns:xlink="http://www.w3.org/1999/xlink" x="0px" y="0px"
	 viewBox="0 0 76 76" style="enable-background:new 0 0 76 76;" xml:space="preserve">
<g id="icon">
	<g>
		<path d="M56.8,25.2c-0.3-0.3-0.7-0.2-1,0c-0.3,0.3-0.2,0.7,0,1c2.2,2.1,3.4,4.9,3.4,7.9s-1.2,5.8-3.4,7.9c-0.3,0.3-0.3,0.7,0,1
			c0.1,0.1,0.3,0.2,0.5,0.2c0.2,0,0.3-0.1,0.5-0.2c2.5-2.3,3.9-5.5,3.9-8.9C60.7,30.7,59.3,27.5,56.8,25.2z"/>
		<path d="M54.1,29.2c-0.3-0.3-0.7-0.2-1,0.1c-0.3,0.3-0.2,0.7,0.1,1c1.1,1,1.7,2.4,1.7,3.8c0,1.4-0.6,2.8-1.7,3.8
			c-0.3,0.3-0.3,0.7-0.1,1c0.1,0.2,0.3,0.2,0.5,0.2c0.2,0,0.3-0.1,0.5-0.2c1.4-1.2,2.2-3,2.2-4.9C56.2,32.2,55.4,30.5,54.1,29.2z"/>
		<g>
			<path d="M38.6,49.6c-0.1-0.4-0.4-0.6-0.8-0.6c-0.4,0.1-0.6,0.4-0.6,0.8l0.6,3.9H27.5l0.6-3.9c0.1-0.4-0.2-0.7-0.6-0.8
				c-0.4-0.1-0.7,0.2-0.8,0.6L26,53.8v0.1c0,0.7,0.6,1.3,1.4,1.3h10.4c0.8,0,1.4-0.6,1.4-1.3v-0.1L38.6,49.6z"/>
			<path d="M46.8,21H18.5c-1.7,0-3.1,1.4-3.1,3.1v19.8c0,1.7,1.4,3.1,3.1,3.1h28.4c1.7,0,3.1-1.4,3.1-3.1V24.1
				C49.9,22.4,48.6,21,46.8,21z M18.5,22.4h28.4c0.9,0,1.7,0.8,1.7,1.7v17.2H16.8V24.1C16.8,23.1,17.5,22.4,18.5,22.4z M46.8,45.5
				H18.5c-0.9,0-1.7-0.8-1.7-1.7v-1.2h31.8v1.2C48.6,44.7,47.8,45.5,46.8,45.5z"/>
		</g>
		<path d="M32.2,29.2h12.6c0.4,0,0.7-0.3,0.7-0.7s-0.3-0.7-0.7-0.7H32.2c-0.4,0-0.7,0.3-0.7,0.7C31.6,28.8,31.9,29.2,32.2,29.2z"/>
		<path d="M32.2,32.8h12.6c0.4,0,0.7-0.3,0.7-0.7c0-0.4-0.3-0.7-0.7-0.7H32.2c-0.4,0-0.7,0.3-0.7,0.7C31.5,32.5,31.9,32.8,32.2,32.8
			z"/>
		<path d="M32.2,36.3h12.6c0.4,0,0.7-0.3,0.7-0.7c0-0.4-0.3-0.7-0.7-0.7H32.2c-0.4,0-0.7,0.3-0.7,0.7C31.5,36,31.9,36.3,32.2,36.3z"
			/>
		<g>
			<path d="M29.2,27.2h-8.7c-0.3,0-0.6,0.3-0.6,0.6v8c0,0.3,0.3,0.6,0.6,0.6h8.7c0.3,0,0.6-0.3,0.6-0.6v-8
				C29.7,27.5,29.5,27.2,29.2,27.2z M28.5,35.2H21v-6.9h7.6V35.2z"/>
		</g>
	</g>
</g>
</svg>
