<?xml version="1.0" encoding="utf-8"?>
<!-- Generator: Adobe Illustrator 21.0.0, SVG Export Plug-In . SVG Version: 6.00 Build 0)  -->
<svg version="1.1" id="Layer_1" xmlns="http://www.w3.org/2000/svg" xmlns:xlink="http://www.w3.org/1999/xlink" x="0px" y="0px"
	 viewBox="0 0 372.8 89.3" style="enable-background:new 0 0 372.8 89.3;" xml:space="preserve">
<style type="text/css">
	.st0{fill:#858588;}
	.st1{fill:#F38B00;}
	.st2{fill:#009BDE;}
</style>
<g>
	<g>
		<polygon class="st0" points="245.9,58.4 257.8,58.4 257.2,61.5 249.3,61.5 248.3,66.5 255.3,66.5 254.7,69.6 247.6,69.6 
			246.4,75.3 254.4,75.3 253.7,78.5 241.7,78.5 		"/>
		<polygon class="st0" points="278.1,58.4 290,58.4 289.4,61.5 281.5,61.5 280.5,66.5 287.5,66.5 286.9,69.6 279.8,69.6 278.6,75.3 
			286.6,75.3 285.9,78.5 273.9,78.5 		"/>
		<polygon class="st0" points="344.8,58.4 356.7,58.4 356.1,61.5 348.2,61.5 347.2,66.5 354.2,66.5 353.5,69.6 346.5,69.6 
			345.3,75.3 353.3,75.3 352.6,78.5 340.6,78.5 		"/>
		<polygon class="st0" points="293.6,58.4 297.5,58.4 296.9,61.5 296.9,61.5 295.9,66.5 295.9,66.5 295.3,69.6 295.3,69.6 
			294.1,75.3 302,75.3 301.3,78.5 289.4,78.5 		"/>
		<path class="st0" d="M307.4,70.9c0,2.6,1.3,5,4.2,5c4.6,0,7.2-5.5,7.2-9.5c0-2.7-1.4-4.9-4.3-4.9
			C309.8,61.4,307.4,66.9,307.4,70.9 M323,66.8c0,3.3-1.2,6.5-3.4,8.9c-2.1,2.3-5.2,3.4-8.5,3.4c-5,0-7.9-3.6-7.9-8.4
			c0-3.2,1.1-6.3,3.2-8.7c2.2-2.5,5-3.7,8.3-3.7C320.1,58.3,323,61.4,323,66.8"/>
		<path class="st0" d="M362.3,66.9h1.5c2.2,0,4.8-0.7,4.8-3.3c0-2.1-1.8-2.1-3.5-2.1h-1.7L362.3,66.9z M360,58.4h4.8
			c3.7,0,8-0.1,8,4.8c0,3.5-2.6,5.3-5.9,5.4v0.1c1.1,0.1,1.8,0.7,2,1.8l1.9,8.1h-4.2l-1-4.7c-0.5-2.1-0.3-3.6-2.5-3.6h-1.5l-1.8,8.4
			h-4L360,58.4z"/>
		<path class="st0" d="M330.3,66.5l1.3,0c2.2,0,4.8-0.3,4.8-2.9c0-2.1-1.8-2.1-3.5-2.1h-1.7L330.3,66.5z M329.7,69.6l-1.9,8.8h-4
			l4.2-20.1h4.8c3.7,0,8-0.1,8,4.8c0,3.5-2.7,6.5-6,6.5l0,0"/>
		<g>
			<polyline class="st0" points="273.5,62.4 273.5,62.4 266.4,78.5 261.5,78.5 260.2,58.4 264.2,58.4 264.8,73.8 264.9,73.8 
				271.6,58.4 275,58.4 			"/>
			<g>
				<polyline class="st0" points="273.5,62.4 273.5,62.4 266.4,78.5 261.5,78.5 260.2,58.4 264.2,58.4 264.8,73.8 264.9,73.8 
					271.6,58.4 275,58.4 				"/>
			</g>
		</g>
		<path class="st0" d="M226.9,75.3h1.9c5.8,0,8.5-3.4,8.5-8.9c0-3.1-2.4-4.8-6.1-4.8h-1.4L226.9,75.3z M226.4,58.4h6
			c4.2,0,9,1.6,9,8.6c0,4.7-2.4,11.5-12.5,11.5h-6.8L226.4,58.4z"/>
	</g>
	<path class="st1" d="M219.2,46.3c0,2.6-2.1,4.7-4.7,4.7c-2.6,0-4.7-2.1-4.7-4.7c0-2.6,2.1-4.6,4.7-4.6
		C217.1,41.6,219.2,43.7,219.2,46.3"/>
	<g>
		<g>
			<path class="st2" d="M45.3,87.4c-18.4-5.6-31.8-22.6-31.8-42.7c0-20.3,13.7-37.4,32.4-42.9C47.8,1.2,47.3,0,45,0
				C20.2,0,0,20,0,44.7s20.2,44.7,45,44.7C47.3,89.3,47.4,88,45.3,87.4"/>
			<path class="st2" d="M22.1,55.1c-0.1-1.2-0.2-2.4-0.2-3.6C21.9,31.9,37.8,16,57.4,16c18.5,0,24.1,8.3,24.8,7.7
				c0.8-0.6-6.7-17-28.5-17c-19.6,0-35.5,15.9-35.5,35.5c0,4.5,0.8,8.9,2.4,12.8C21.2,56.7,22.2,56.7,22.1,55.1"/>
			<path class="st2" d="M36.9,29.6c9.2-4,20.8-4.1,32.2-0.2c7.6,2.7,12.1,6.5,12.4,6.3c0.6-0.3-4.4-8.3-13.6-11.7
				c-11-4.2-22.9-2-31.6,4.8C35.4,29.6,35.8,30.1,36.9,29.6"/>
		</g>
		<g>
			<path class="st1" d="M67.2,72.4l0.5,6.2h9.8l-3.3-36.2H59.6L41.1,78.6h10l3.1-6.2H67.2z M66.8,65.4h-9l7.7-15.7h0.1L66.8,65.4z"
				/>
			<polygon class="st1" points="91.3,62.8 92.7,62.8 99.8,53.3 108.9,53.3 99.2,65.5 105.1,78.6 95.5,78.6 91.6,68.3 90.1,68.3 
				87.9,78.6 79.7,78.6 87.3,42.5 95.6,42.5 			"/>
			<path class="st1" d="M121.8,78.6h8.3l3.4-15.8c1.8-8.7-1.5-9.8-10-9.8c-5.9,0-11.6,0-13.3,7.8h8.3c0.5-2.3,1.9-2.7,4-2.7
				c3.6,0,3.4,1.5,2.9,3.8l-0.8,4h-0.4c-0.3-2.9-3.9-2.9-6.3-2.9c-6,0-9.6,1.9-10.9,8c-1.4,6.5,1.7,7.9,7.5,7.9
				c2.9,0,6.8-0.6,8.1-4.1h0.3L121.8,78.6z M119.5,68.2c2.7,0,4.5,0.2,4,2.3c-0.6,2.7-1.7,3.1-5.2,3.1c-1.3,0-3.6,0-3-2.7
				C115.8,68.5,117.5,68.2,119.5,68.2"/>
			<path class="st1" d="M146.9,53.3l-0.8,3.6h0.3c1.6-3,4.9-3.9,7.8-3.9c3.6,0,7.1,0.6,6.6,5h0.4c1.2-3.6,4.9-5,8.1-5
				c5.8,0,8.3,2.4,7.1,8.3l-3.7,17.3h-8.3l3.1-14.7c0.4-2.6,0.9-4.6-2.4-4.6c-3.2,0-4.3,2.2-4.9,4.9l-3.1,14.4h-8.3l3.3-15.3
				c0.4-2.3,0.6-3.9-2.3-3.9c-3.4,0-4.4,1.8-5.1,4.9l-3.1,14.4h-8.3l5.4-25.3H146.9z"/>
			<path class="st1" d="M191.7,78.6h8.3l3.4-15.8c1.9-8.7-1.5-9.8-10-9.8c-5.9,0-11.7,0-13.3,7.8h8.3c0.5-2.3,1.9-2.7,3.9-2.7
				c3.6,0,3.4,1.5,3,3.8l-0.9,4H194c-0.3-2.9-3.9-2.9-6.3-2.9c-6,0-9.6,1.9-10.9,8c-1.4,6.5,1.7,7.9,7.5,7.9c2.9,0,6.8-0.6,8.1-4.1
				h0.3L191.7,78.6z M189.4,68.2c2.7,0,4.5,0.2,4,2.3c-0.6,2.7-1.7,3.1-5.2,3.1c-1.3,0-3.6,0-3-2.7
				C185.7,68.5,187.4,68.2,189.4,68.2"/>
			<polygon class="st1" points="211.9,78.6 203.7,78.6 209,53.3 217.3,53.3 			"/>
		</g>
	</g>
</g>
</svg>
