<?xml version="1.0" encoding="utf-8"?><svg version="1.1" xmlns="http://www.w3.org/2000/svg" xmlns:xlink="http://www.w3.org/1999/xlink" x="0px" y="0px" viewBox="0 0 82.2 89.3" style="enable-background:new 0 0 82.2 89.3;" xml:space="preserve"><title>Akamai Developer</title><g><path d="M45.3,87.4c-18.4-5.6-31.8-22.6-31.8-42.7c0-20.3,13.7-37.4,32.4-42.9C47.8,1.2,47.3,0,45,0C20.2,0,0,20,0,44.7 s20.2,44.7,45,44.7C47.3,89.3,47.4,88,45.3,87.4"/><path d="M22.1,55.1c-0.1-1.2-0.2-2.4-0.2-3.6C21.9,31.9,37.8,16,57.4,16c18.5,0,24.1,8.3,24.8,7.7c0.8-0.6-6.7-17-28.5-17 c-19.6,0-35.5,15.9-35.5,35.5c0,4.5,0.8,8.9,2.4,12.8C21.2,56.7,22.2,56.7,22.1,55.1"/><path d="M36.9,29.6c9.2-4,20.8-4.1,32.2-0.2c7.6,2.7,12.1,6.5,12.4,6.3c0.6-0.3-4.4-8.3-13.6-11.7c-11-4.2-22.9-2-31.6,4.8 C35.4,29.6,35.8,30.1,36.9,29.6"/></g></svg>
