<?xml version="1.0" encoding="utf-8"?>
<svg version="1.1" xmlns="http://www.w3.org/2000/svg" xmlns:xlink="http://www.w3.org/1999/xlink"
	 x="0px" y="0px" viewBox="0 0 20 20" style="enable-background:new 0 0 20 20;" xml:space="preserve">
<path d="M10,0.6c-5.3,0-9.6,4.3-9.6,9.6c0,4.2,2.8,7.8,6.6,9.1c0.5,0.1,0.7-0.2,0.7-0.5c0-0.2,0-0.8,0-1.6
	C4.9,17.8,4.4,16,4.4,16c-0.4-1.1-1.1-1.4-1.1-1.4C2.4,14,3.4,14,3.4,14c1,0.1,1.5,1,1.5,1c0.9,1.5,2.2,1,2.8,0.8
	c0.1-0.6,0.3-1,0.6-1.3c-2.1-0.2-4.4-1.1-4.4-4.7c0-1,0.4-1.9,1-2.6C4.8,6.9,4.4,5.9,5,4.6c0,0,0.8-0.3,2.6,1
	C8.4,5.4,9.2,5.3,10,5.3c0.8,0,1.6,0.1,2.4,0.3c1.8-1.2,2.6-1,2.6-1c0.5,1.3,0.2,2.3,0.1,2.5c0.6,0.7,1,1.5,1,2.6
	c0,3.7-2.2,4.5-4.4,4.7c0.3,0.3,0.7,0.9,0.7,1.8c0,1.3,0,2.3,0,2.6c0,0.3,0.2,0.6,0.7,0.5c3.8-1.3,6.6-4.9,6.6-9.1
	C19.6,4.9,15.3,0.6,10,0.6z"/>
</svg>
