<?xml version="1.0" encoding="utf-8"?><svg version="1.1" xmlns="http://www.w3.org/2000/svg" xmlns:xlink="http://www.w3.org/1999/xlink" x="0px" y="0px" viewBox="0 0 50.8 50.8" style="enable-background:new 0 0 50.8 50.8;" xml:space="preserve"><path d="M49.5,43.5L37.1,31c2.1-3.3,3.2-7,3.2-10.9C40.3,9,31.2,0,20.1,0S0,9,0,20.1s9,20.1,20.1,20.1c3.9,0,7.6-1.1,10.9-3.2	l12.5,12.5c0.8,0.8,1.9,1.2,3,1.2c1.1,0,2.2-0.4,3-1.2c0.8-0.8,1.2-1.9,1.2-3S50.3,44.3,49.5,43.5z M20.1,3.5	c9.2,0,16.6,7.5,16.6,16.6c0,9.2-7.5,16.6-16.6,16.6S3.5,29.3,3.5,20.1C3.5,11,11,3.5,20.1,3.5z M47.1,47.1c-0.3,0.3-0.8,0.3-1.1,0 L33.8,34.9c0.4-0.3,0.7-0.7,1.1-1.1L47.1,46c0.1,0.1,0.2,0.3,0.2,0.5C47.3,46.7,47.2,46.9,47.1,47.1L47.1,47.1z"/></svg>
